<svg width="26" height="26" viewBox="0 0 26 26" fill="none" xmlns="http://www.w3.org/2000/svg">
<path d="M19.7759 5.17825C19.4988 5.48612 19.5237 5.96034 19.8316 6.23745C20.1395 6.51456 20.6137 6.48962 20.8908 6.18175L19.7759 5.17825ZM20.9041 6.16694C21.1812 5.85907 21.1563 5.38485 20.8484 5.10774C20.5405 4.83063 20.0663 4.85557 19.7892 5.16344L20.9041 6.16694ZM13 19.0833C16.3597 19.0833 19.0833 16.3597 19.0833 13H17.5833C17.5833 15.5313 15.5313 17.5833 13 17.5833V19.0833ZM19.0833 13C19.0833 9.64026 16.3597 6.91667 13 6.91667V8.41667C15.5313 8.41667 17.5833 10.4687 17.5833 13H19.0833ZM13 6.91667C9.64027 6.91667 6.91667 9.64027 6.91667 13H8.41667C8.41667 10.4687 10.4687 8.41667 13 8.41667V6.91667ZM6.91667 13C6.91667 16.3597 9.64026 19.0833 13 19.0833V17.5833C10.4687 17.5833 8.41667 15.5313 8.41667 13H6.91667ZM1.75 18.3333V7.66667H0.25V18.3333H1.75ZM1.75 7.66667C1.75 4.39899 4.39899 1.75 7.66667 1.75V0.25C3.57056 0.25 0.25 3.57056 0.25 7.66667H1.75ZM7.66667 1.75H18.3333V0.25H7.66667V1.75ZM18.3333 1.75C21.601 1.75 24.25 4.39899 24.25 7.66667H25.75C25.75 3.57056 22.4294 0.25 18.3333 0.25V1.75ZM24.25 7.66667V18.3333H25.75V7.66667H24.25ZM24.25 18.3333C24.25 21.601 21.601 24.25 18.3333 24.25V25.75C22.4294 25.75 25.75 22.4294 25.75 18.3333H24.25ZM18.3333 24.25H7.66667V25.75H18.3333V24.25ZM7.66667 24.25C4.39899 24.25 1.75 21.601 1.75 18.3333H0.25C0.25 22.4294 3.57056 25.75 7.66667 25.75V24.25ZM20.8908 6.18175L20.9041 6.16694L19.7892 5.16344L19.7759 5.17825L20.8908 6.18175Z" fill="white"/>
</svg>
