<svg width="24" height="23" viewBox="0 0 24 23" fill="none" xmlns="http://www.w3.org/2000/svg">
<path d="M20.7637 15.0741L18.4481 18.401L16.814 17.0599C16.6378 16.9142 16.3767 16.9411 16.2318 17.117C16.0866 17.2937 16.1122 17.5548 16.2893 17.6992L18.2698 19.325C18.3442 19.3862 18.4369 19.4193 18.5321 19.4193C18.5507 19.4193 18.5698 19.4181 18.5888 19.4152C18.703 19.3995 18.8056 19.3366 18.8718 19.2418L21.4431 15.547C21.5735 15.3596 21.5275 15.1018 21.3397 14.971C21.1518 14.8386 20.8944 14.8862 20.7637 15.0741Z" fill="black"/>
<path d="M18.6206 12C15.6546 12 13.2413 14.4132 13.2413 17.3793C13.2413 20.3454 15.6546 22.7586 18.6206 22.7586C21.5867 22.7586 24 20.3454 24 17.3793C24 14.4132 21.5867 12 18.6206 12ZM18.6206 21.931C16.111 21.931 14.0689 19.889 14.0689 17.3793C14.0689 14.8697 16.111 12.8276 18.6206 12.8276C21.1303 12.8276 23.1724 14.8697 23.1724 17.3793C23.1724 19.889 21.1303 21.931 18.6206 21.931Z" fill="black"/>
<path d="M7.03448 0H0V3.31034H7.03448V0Z" fill="black"/>
<path d="M21.1035 0H14.069V3.31034H21.1035V0Z" fill="black"/>
<path d="M13.2414 0H7.86206V3.31034H13.2414V0Z" fill="black"/>
<path d="M11.894 7.82152C11.2721 7.82152 10.7428 8.04 10.3063 8.47655C9.86931 8.91352 9.65125 9.44483 9.65125 10.0713C9.65125 10.6978 9.86931 11.227 10.3063 11.659C10.7428 12.091 11.2746 12.3066 11.901 12.3066C12.5275 12.3066 13.0568 12.091 13.4888 11.659C13.9208 11.227 14.1363 10.6908 14.1363 10.0498C14.1363 9.40883 13.9183 8.87752 13.4813 8.45504C13.0452 8.03297 12.5159 7.82152 11.894 7.82152Z" fill="black"/>
<path d="M12.0699 16.4694C11.8701 16.4959 11.6644 16.5141 11.4455 16.5141H11.196V15.7308H11.5022C11.7633 15.7308 12.007 15.689 12.2425 15.6273C12.5752 14.4186 13.2406 13.3498 14.1364 12.5222V12.1217C13.5385 12.7676 12.8052 13.0903 11.9367 13.0903C11.0681 13.0903 10.3394 12.7961 9.75103 12.2073C9.16221 11.6185 8.868 10.9043 8.868 10.0639C8.868 9.22345 9.16221 8.50966 9.75103 7.92083C10.3394 7.332 11.0537 7.03779 11.8941 7.03779C12.7345 7.03779 13.4487 7.332 14.0375 7.92083C14.6259 8.50966 14.9206 9.22593 14.9206 10.0709V11.8912C15.9774 11.1766 17.251 10.7586 18.6207 10.7586C19.4988 10.7586 20.3359 10.9341 21.1034 11.2461V4.55172C21.1034 4.3229 20.9181 4.13793 20.6897 4.13793H0.413793C0.185379 4.13793 0 4.3229 0 4.55172V19.0345C0 19.2633 0.185379 19.4483 0.413793 19.4483H12.3356C12.1204 18.7966 12 18.1022 12 17.3793C12 17.0698 12.029 16.7677 12.0699 16.4694ZM7.47228 16.584H6.64469V7.86207L4.55172 9.10345V8.27586L6.64469 7.03448H7.47228V16.584Z" fill="black"/>
</svg>
