<svg width="124" height="25" viewBox="0 0 124 25" fill="none" xmlns="http://www.w3.org/2000/svg">
<path d="M123.117 0.892883H0.882568V24.1072H123.117V0.892883Z" fill="#0E50EF"/>
<path d="M26.0872 19.9107L25.9125 20.3207L25.9149 20.3218L26.0872 19.9107ZM24.0573 18.3036L23.6997 18.5652L24.0573 18.3036ZM23.2851 15.8259V15.3795H22.8367L22.8438 15.8329L23.2851 15.8259ZM26.5947 15.8259L27.0349 15.7948L27.0062 15.3795H26.5947V15.8259ZM27.2566 17.3438L26.9568 17.6713L26.9596 17.6741L26.9627 17.6768L27.2566 17.3438ZM30.6324 17.3884L30.9124 17.7334L30.9159 17.7304L30.9195 17.7274L30.6324 17.3884ZM30.831 14.8661L30.5111 15.1736L30.831 14.8661ZM29.7719 14.1741L29.598 14.5845L29.6066 14.5882L29.6153 14.5915L29.7719 14.1741ZM28.0509 13.5938L27.9262 14.022L27.9291 14.0229L27.9318 14.0237L28.0509 13.5938ZM25.6018 12.7232L25.412 13.1263L25.4176 13.129L25.4233 13.1316L25.6018 12.7232ZM23.9911 11.4063L23.6381 11.6741L23.6416 11.6791L23.6456 11.6841L23.9911 11.4063ZM24.0132 6.62948L24.379 6.87897L24.0132 6.62948ZM25.9328 5.06698L26.1064 5.47732L26.1095 5.476L26.1126 5.47464L25.9328 5.06698ZM32.6182 5.69198L32.3444 6.04212L32.3472 6.04437L32.3501 6.0466L32.6182 5.69198ZM34.273 8.95091V9.39734H34.7482L34.7129 8.91776L34.273 8.95091ZM30.8751 8.95091L30.4345 8.97567L30.4577 9.39734H30.8751V8.95091ZM30.1911 7.63395L29.9038 7.9729L29.9102 7.97843L29.9169 7.98372L30.1911 7.63395ZM27.0801 7.56698L26.7961 7.22515L26.7928 7.22805L26.7895 7.231L27.0801 7.56698ZM26.9477 9.9777L26.6273 10.2847L26.6355 10.2935L26.6441 10.3018L26.9477 9.9777ZM27.9627 10.6473L27.7833 11.0553L27.7921 11.0593L27.8011 11.0629L27.9627 10.6473ZM29.6836 11.2277L29.5568 11.6553L29.559 11.656L29.6836 11.2277ZM33.7655 13.4598L33.4167 13.7333L33.7655 13.4598ZM33.8096 18.125L33.4319 17.8942L33.8096 18.125ZM31.9342 19.8438L32.1314 20.2431L32.1343 20.2416L32.137 20.2402L31.9342 19.8438ZM28.9997 20.0223C27.9768 20.0223 27.0655 19.8453 26.2593 19.4997L25.9149 20.3218C26.8444 20.7202 27.8748 20.9152 28.9997 20.9152V20.0223ZM26.2617 19.5008C25.4749 19.1577 24.8642 18.6704 24.4148 18.0419L23.6997 18.5652C24.2506 19.3356 24.9931 19.9198 25.9125 20.3207L26.2617 19.5008ZM24.4148 18.0419C23.9733 17.4244 23.7396 16.6897 23.7261 15.8189L22.8438 15.8329C22.8597 16.8669 23.141 17.784 23.6997 18.5652L24.4148 18.0419ZM23.2851 16.2723H26.5947V15.3795H23.2851V16.2723ZM26.1543 15.857C26.2048 16.5894 26.4632 17.2091 26.9568 17.6713L27.5562 17.0162C27.2555 16.7344 27.0726 16.3422 27.0349 15.7948L26.1543 15.857ZM26.9627 17.6768C27.4759 18.1404 28.15 18.3482 28.9335 18.3482V17.4554C28.3046 17.4554 27.8609 17.2912 27.5505 17.0108L26.9627 17.6768ZM28.9335 18.3482C29.7203 18.3482 30.3976 18.1611 30.9124 17.7334L30.3522 17.0434C30.0433 17.3002 29.5879 17.4554 28.9335 17.4554V18.3482ZM30.9195 17.7274C31.4324 17.2825 31.6915 16.6957 31.6915 16.0045H30.8089C30.8089 16.4442 30.6558 16.78 30.3451 17.0495L30.9195 17.7274ZM31.6915 16.0045C31.6915 15.4441 31.5181 14.9497 31.1509 14.5586L30.5111 15.1736C30.7026 15.3777 30.8089 15.6423 30.8089 16.0045H31.6915ZM31.1509 14.5586C30.8204 14.2067 30.4091 13.9412 29.9283 13.7567L29.6153 14.5915C29.9877 14.7344 30.2825 14.9303 30.5111 15.1736L31.1509 14.5586ZM29.9455 13.7638C29.5078 13.574 28.913 13.3744 28.1698 13.1639L27.9318 14.0237C28.6597 14.2298 29.2121 14.4171 29.598 14.5845L29.9455 13.7638ZM28.1753 13.1655C27.1853 12.8709 26.3886 12.587 25.7801 12.3149L25.4233 13.1316C26.0797 13.425 26.9159 13.7214 27.9262 14.022L28.1753 13.1655ZM25.7913 12.3202C25.2386 12.0538 24.7537 11.6595 24.3364 11.1285L23.6456 11.6841C24.1403 12.3138 24.7294 12.7974 25.412 13.1263L25.7913 12.3202ZM24.3441 11.1384C23.9759 10.6419 23.7705 9.95656 23.7705 9.0402H22.8879C22.8879 10.0881 23.1236 10.9802 23.6381 11.6741L24.3441 11.1384ZM23.7705 9.0402C23.7705 8.19562 23.9779 7.48125 24.379 6.87897L23.6471 6.38C23.1364 7.14676 22.8879 8.03955 22.8879 9.0402H23.7705ZM24.379 6.87897C24.783 6.27256 25.3527 5.8041 26.1064 5.47732L25.7589 4.65665C24.8651 5.04415 24.1553 5.61734 23.6471 6.38L24.379 6.87897ZM26.1126 5.47464C26.8707 5.13223 27.7491 4.95537 28.757 4.95537V4.06252C27.6465 4.06252 26.6421 4.25767 25.7527 4.65933L26.1126 5.47464ZM28.757 4.95537C30.2728 4.95537 31.4554 5.33071 32.3444 6.04212L32.8918 5.34185C31.8097 4.47587 30.4182 4.06252 28.757 4.06252V4.95537ZM32.3501 6.0466C33.2395 6.73466 33.7381 7.69794 33.8328 8.98406L34.7129 8.91776C34.6017 7.40625 33.9972 6.19694 32.886 5.33736L32.3501 6.0466ZM34.273 8.50448H30.8751V9.39734H34.273V8.50448ZM31.3157 8.92616C31.2791 8.25919 30.9876 7.70332 30.4652 7.28417L29.9169 7.98372C30.2476 8.24908 30.4122 8.5712 30.4345 8.97567L31.3157 8.92616ZM30.4782 7.295C29.9665 6.85118 29.3033 6.6518 28.5363 6.6518V7.54466C29.1519 7.54466 29.5919 7.70243 29.9038 7.9729L30.4782 7.295ZM28.5363 6.6518C27.8565 6.6518 27.2621 6.82924 26.7961 7.22515L27.3638 7.90881C27.6335 7.67973 28.0096 7.54466 28.5363 7.54466V6.6518ZM26.7895 7.231C26.3171 7.64903 26.1093 8.23991 26.1093 8.92859H26.9918C26.9918 8.42678 27.1368 8.10993 27.3707 7.90294L26.7895 7.231ZM26.1093 8.92859C26.1093 9.45073 26.2792 9.91292 26.6273 10.2847L27.2681 9.67067C27.0867 9.47701 26.9918 9.23979 26.9918 8.92859H26.1093ZM26.6441 10.3018C26.9645 10.6087 27.3462 10.8587 27.7833 11.0553L28.1418 10.2394C27.7846 10.0788 27.4898 9.88238 27.2511 9.65361L26.6441 10.3018ZM27.8011 11.0629C28.2296 11.2332 28.8168 11.4307 29.5568 11.6553L29.8103 10.8001C29.0795 10.5783 28.5191 10.3889 28.1239 10.2318L27.8011 11.0629ZM29.559 11.656C30.5475 11.9501 31.3411 12.2405 31.9465 12.5253L32.3188 11.7158C31.6593 11.4054 30.8202 11.1006 29.8081 10.7994L29.559 11.656ZM31.9465 12.5253C32.5109 12.7909 33.0008 13.1905 33.4167 13.7333L34.1141 13.1864C33.6181 12.5387 33.0193 12.0454 32.3188 11.7158L31.9465 12.5253ZM33.4167 13.7333C33.7975 14.2304 34.0082 14.9069 34.0082 15.8036H34.8908C34.8908 14.7658 34.6454 13.8797 34.1141 13.1864L33.4167 13.7333ZM34.0082 15.8036C34.0082 16.5554 33.8169 17.2494 33.4319 17.8942L34.1871 18.3559C34.6553 17.5721 34.8908 16.7184 34.8908 15.8036H34.0082ZM33.4319 17.8942C33.0524 18.5295 32.492 19.0488 31.7312 19.4473L32.137 20.2402C33.0237 19.7756 33.7134 19.1491 34.1871 18.3559L33.4319 17.8942ZM31.7367 19.4445C30.9868 19.8238 30.0793 20.0223 28.9997 20.0223V20.9152C30.1852 20.9152 31.2339 20.697 32.1314 20.2431L31.7367 19.4445ZM37.326 5.95984L37.014 6.27551L37.0204 6.28209L37.0272 6.28839L37.326 5.95984ZM37.326 3.34823L37.6313 3.67055L37.6316 3.67029L37.326 3.34823ZM40.0399 3.34823L39.7279 3.6639L39.7343 3.67049L39.7411 3.67678L40.0399 3.34823ZM40.0399 5.95984L40.3452 6.28216L40.3454 6.28189L40.0399 5.95984ZM40.2164 7.94645H40.6576V7.50002H40.2164V7.94645ZM40.2164 20.3125V20.7589H40.6576V20.3125H40.2164ZM37.1274 20.3125H36.6861V20.7589H37.1274V20.3125ZM37.1274 7.94645V7.50002H36.6861V7.94645H37.1274ZM38.6939 6.0268C38.2496 6.0268 37.9034 5.89071 37.6247 5.63129L37.0272 6.28839C37.484 6.7135 38.0497 6.91966 38.6939 6.91966V6.0268ZM37.638 5.64417C37.3705 5.37361 37.2377 5.04944 37.2377 4.64287H36.3552C36.3552 5.27799 36.5754 5.83178 37.014 6.27551L37.638 5.64417ZM37.2377 4.64287C37.2377 4.23654 37.3701 3.92375 37.6313 3.67055L37.0206 3.02591C36.5758 3.45723 36.3552 4.00756 36.3552 4.64287H37.2377ZM37.6316 3.67029C37.9113 3.3987 38.2551 3.25895 38.6939 3.25895V2.36609C38.0444 2.36609 37.4762 2.58348 37.0204 3.02618L37.6316 3.67029ZM38.6939 3.25895C39.1328 3.25895 39.4655 3.39843 39.7279 3.6639L40.3518 3.03256C39.9084 2.58372 39.3437 2.36609 38.6939 2.36609V3.25895ZM39.7411 3.67678C40.0149 3.93165 40.1502 4.24261 40.1502 4.64287H41.0327C41.0327 4.00147 40.8002 3.44935 40.3386 3.01968L39.7411 3.67678ZM40.1502 4.64287C40.1502 5.04352 40.0143 5.36578 39.7343 5.63779L40.3454 6.28189C40.8008 5.83962 41.0327 5.2839 41.0327 4.64287H40.1502ZM39.7345 5.63752C39.4733 5.89084 39.1383 6.0268 38.6939 6.0268V6.91966C39.338 6.91966 39.9004 6.71334 40.3452 6.28216L39.7345 5.63752ZM39.7751 7.94645V20.3125H40.6576V7.94645H39.7751ZM40.2164 19.8661H37.1274V20.7589H40.2164V19.8661ZM37.5687 20.3125V7.94645H36.6861V20.3125H37.5687ZM37.1274 8.39287H40.2164V7.50002H37.1274V8.39287ZM46.3572 3.79466H46.7985V3.34823H46.3572V3.79466ZM46.3572 20.3125V20.7589H46.7985V20.3125H46.3572ZM43.2683 20.3125H42.827V20.7589H43.2683V20.3125ZM43.2683 3.79466V3.34823H42.827V3.79466H43.2683ZM45.916 3.79466V20.3125H46.7985V3.79466H45.916ZM46.3572 19.8661H43.2683V20.7589H46.3572V19.8661ZM43.7095 20.3125V3.79466H42.827V20.3125H43.7095ZM43.2683 4.24109H46.3572V3.34823H43.2683V4.24109ZM49.3429 10.7589L48.952 10.552L48.9506 10.5544L48.9495 10.5568L49.3429 10.7589ZM51.3508 8.5268L51.1228 8.14457L51.1213 8.14546L51.12 8.14638L51.3508 8.5268ZM56.58 8.30359L56.3692 8.69582L56.371 8.69678L56.3728 8.69772L56.58 8.30359ZM58.2348 9.70984L57.8795 9.97466L58.676 11.0683V9.70984H58.2348ZM58.2348 7.94645V7.50002H57.7935V7.94645H58.2348ZM61.3458 7.94645H61.7871V7.50002H61.3458V7.94645ZM61.3458 20.3125V20.7589H61.7871V20.3125H61.3458ZM58.2348 20.3125H57.7935V20.7589H58.2348V20.3125ZM58.2348 18.5045H58.676V17.0754L57.872 18.2504L58.2348 18.5045ZM56.58 19.9554L56.7871 20.3495L56.7887 20.3487L56.7902 20.3479L56.58 19.9554ZM51.3508 19.7098L51.1151 20.0873L51.1167 20.0882L51.118 20.0891L51.3508 19.7098ZM49.3429 17.4554L48.9482 17.655L48.95 17.6587L48.952 17.6623L49.3429 17.4554ZM57.7935 12.1875L57.4054 12.3998L57.4065 12.4021L57.4078 12.4043L57.7935 12.1875ZM56.602 10.9375L56.3783 11.3223L56.3825 11.3248L56.3869 11.3272L56.602 10.9375ZM53.4027 10.9152L53.1825 10.5283L53.4027 10.9152ZM52.2113 12.1652L51.8276 11.9448L51.8265 11.9466L51.8256 11.9484L52.2113 12.1652ZM52.2113 16.0491L51.8207 16.257L51.824 16.2633L51.8276 16.2695L52.2113 16.0491ZM53.4027 17.3214L53.1741 17.7032L53.1766 17.7048L53.179 17.7062L53.4027 17.3214ZM56.602 17.3438L56.8174 17.7335L56.8216 17.7311L56.8257 17.7286L56.602 17.3438ZM57.7935 16.0938L58.1792 16.3106L58.1805 16.3083L58.1818 16.306L57.7935 16.0938ZM49.0561 14.0848C49.0561 12.8943 49.2869 11.8568 49.7363 10.961L48.9495 10.5568C48.4282 11.5956 48.1735 12.7753 48.1735 14.0848H49.0561ZM49.7339 10.9659C50.2008 10.0629 50.8177 9.38189 51.5818 8.90723L51.12 8.14638C50.2072 8.71339 49.4853 9.52049 48.952 10.552L49.7339 10.9659ZM51.5787 8.90904C52.3598 8.43227 53.2291 8.19198 54.197 8.19198V7.29912C53.0764 7.29912 52.0482 7.57968 51.1228 8.14457L51.5787 8.90904ZM54.197 8.19198C55.0489 8.19198 55.7682 8.3654 56.3692 8.69582L56.7907 7.91133C56.0385 7.49774 55.1692 7.29912 54.197 7.29912V8.19198ZM56.3728 8.69772C57.0133 9.04243 57.5115 9.46946 57.8795 9.97466L58.59 9.44502C58.1344 8.81928 57.5294 8.30881 56.7871 7.90944L56.3728 8.69772ZM58.676 9.70984V7.94645H57.7935V9.70984H58.676ZM58.2348 8.39287H61.3458V7.50002H58.2348V8.39287ZM60.9045 7.94645V20.3125H61.7871V7.94645H60.9045ZM61.3458 19.8661H58.2348V20.7589H61.3458V19.8661ZM58.676 20.3125V18.5045H57.7935V20.3125H58.676ZM57.872 18.2504C57.5199 18.765 57.0241 19.2043 56.3699 19.5628L56.7902 20.3479C57.5479 19.9327 58.1555 19.4047 58.5977 18.7586L57.872 18.2504ZM56.3728 19.5612C55.755 19.8937 55.0266 20.067 54.175 20.067V20.9598C55.1473 20.9598 56.0224 20.7611 56.7871 20.3495L56.3728 19.5612ZM54.175 20.067C53.2253 20.067 52.3648 19.8212 51.5835 19.3305L51.118 20.0891C52.0429 20.6699 53.0654 20.9598 54.175 20.9598V20.067ZM51.5864 19.3324C50.8195 18.8423 50.2015 18.1523 49.7339 17.2485L48.952 17.6623C49.4848 18.6929 50.2052 19.5059 51.1151 20.0873L51.5864 19.3324ZM49.7377 17.2557C49.2873 16.3444 49.0561 15.291 49.0561 14.0848H48.1735C48.1735 15.4085 48.4279 16.6021 48.9482 17.655L49.7377 17.2557ZM58.676 14.1295C58.676 13.3126 58.5176 12.5868 58.1792 11.9707L57.4078 12.4043C57.6578 12.8597 57.7935 13.4285 57.7935 14.1295H58.676ZM58.1818 11.9752C57.8511 11.3563 57.3963 10.8752 56.8174 10.5478L56.3869 11.3272C56.8079 11.5653 57.1477 11.9175 57.4054 12.3998L58.1818 11.9752ZM56.8257 10.5527C56.2587 10.2152 55.6447 10.0447 54.9913 10.0447V10.9375C55.4854 10.9375 55.9452 11.0646 56.3783 11.3223L56.8257 10.5527ZM54.9913 10.0447C54.3424 10.0447 53.7366 10.2056 53.1825 10.5283L53.6229 11.3021C54.0397 11.0593 54.4931 10.9375 54.9913 10.9375V10.0447ZM53.1825 10.5283C52.6212 10.8553 52.1707 11.3333 51.8276 11.9448L52.5952 12.3856C52.8699 11.8959 53.2136 11.5406 53.6229 11.3021L53.1825 10.5283ZM51.8256 11.9484C51.488 12.5632 51.3287 13.2811 51.3287 14.0848H52.2113C52.2113 13.4005 52.3463 12.8386 52.5969 12.382L51.8256 11.9484ZM51.3287 14.0848C51.3287 14.8894 51.4882 15.6177 51.8207 16.257L52.6018 15.8412C52.3461 15.3496 52.2113 14.7684 52.2113 14.0848H51.3287ZM51.8276 16.2695C52.1698 16.8794 52.6177 17.3621 53.1741 17.7032L53.6315 16.9397C53.217 16.6855 52.8708 16.32 52.5952 15.8288L51.8276 16.2695ZM53.179 17.7062C53.7443 18.0426 54.3506 18.2143 54.9913 18.2143V17.3214C54.5141 17.3214 54.0616 17.1955 53.6265 16.9366L53.179 17.7062ZM54.9913 18.2143C55.6402 18.2143 56.2514 18.0535 56.8174 17.7335L56.3869 16.9541C55.9524 17.1996 55.4898 17.3214 54.9913 17.3214V18.2143ZM56.8257 17.7286C57.3968 17.3887 57.8486 16.9127 58.1792 16.3106L57.4078 15.877C57.1501 16.3463 56.8074 16.7035 56.3783 16.959L56.8257 17.7286ZM58.1818 16.306C58.5174 15.6778 58.676 14.9469 58.676 14.1295H57.7935C57.7935 14.8299 57.658 15.4086 57.4054 15.8815L58.1818 16.306ZM64.3408 19.9554L64.0286 20.271L64.0352 20.2776L64.0418 20.2839L64.3408 19.9554ZM64.3408 17.3438L64.6459 17.6661L64.6463 17.6658L64.3408 17.3438ZM67.0767 17.3438L66.7645 17.6594L66.7678 17.6628L66.7713 17.6661L67.0767 17.3438ZM67.0767 19.9554L67.3819 20.2777L67.3854 20.2744L67.3887 20.271L67.0767 19.9554ZM65.7308 20.0223C65.2683 20.0223 64.916 19.8841 64.6395 19.6268L64.0418 20.2839C64.5009 20.7112 65.0753 20.9152 65.7308 20.9152V20.0223ZM64.6528 19.6397C64.3853 19.3691 64.2525 19.045 64.2525 18.6384H63.3699C63.3699 19.2735 63.5899 19.8273 64.0286 20.271L64.6528 19.6397ZM64.2525 18.6384C64.2525 18.2321 64.3849 17.9193 64.6459 17.6661L64.0354 17.0214C63.5904 17.4528 63.3699 18.0031 63.3699 18.6384H64.2525ZM64.6463 17.6658C64.9235 17.3965 65.2736 17.2545 65.7308 17.2545V16.3616C65.0698 16.3616 64.4932 16.5767 64.0352 17.0217L64.6463 17.6658ZM65.7308 17.2545C66.1694 17.2545 66.5022 17.394 66.7645 17.6594L67.3887 17.0281C66.945 16.5793 66.3804 16.3616 65.7308 16.3616V17.2545ZM66.7713 17.6661C67.0324 17.9193 67.165 18.2321 67.165 18.6384H68.0475C68.0475 18.0031 67.8269 17.4528 67.3819 17.0214L66.7713 17.6661ZM67.165 18.6384C67.165 19.045 67.0319 19.3691 66.7645 19.6397L67.3887 20.271C67.8273 19.8273 68.0475 19.2735 68.0475 18.6384H67.165ZM66.7713 19.6331C66.5101 19.8864 66.1752 20.0223 65.7308 20.0223V20.9152C66.3748 20.9152 66.9373 20.7089 67.3819 20.2777L66.7713 19.6331ZM79.5376 17.3438L79.9546 17.1979L79.852 16.8973H79.5376V17.3438ZM73.4038 17.3438V16.8973H73.0896L72.9868 17.1979L73.4038 17.3438ZM72.3888 20.3125V20.7589H72.7033L72.8059 20.4584L72.3888 20.3125ZM69.1454 20.3125L68.7302 20.1616L68.5182 20.7589H69.1454V20.3125ZM74.6835 4.70984V4.26341H74.3731L74.2683 4.55897L74.6835 4.70984ZM78.28 4.70984L78.6952 4.55897L78.5904 4.26341H78.28V4.70984ZM83.818 20.3125V20.7589H84.4453L84.2333 20.1616L83.818 20.3125ZM80.5526 20.3125L80.1355 20.4584L80.2384 20.7589H80.5526V20.3125ZM78.6992 14.8438V15.2902H79.3187L79.1162 14.6978L78.6992 14.8438ZM76.4707 8.32591L76.8877 8.17997L76.4707 6.96022L76.0537 8.17997L76.4707 8.32591ZM74.2422 14.8438L73.8252 14.6978L73.6227 15.2902H74.2422V14.8438ZM79.5376 16.8973H73.4038V17.7902H79.5376V16.8973ZM72.9868 17.1979L71.9718 20.1666L72.8059 20.4584L73.8208 17.4897L72.9868 17.1979ZM72.3888 19.8661H69.1454V20.7589H72.3888V19.8661ZM69.5607 20.4634L75.0988 4.86071L74.2683 4.55897L68.7302 20.1616L69.5607 20.4634ZM74.6835 5.15627H78.28V4.26341H74.6835V5.15627ZM77.8647 4.86071L83.4028 20.4634L84.2333 20.1616L78.6952 4.55897L77.8647 4.86071ZM83.818 19.8661H80.5526V20.7589H83.818V19.8661ZM80.9696 20.1666L79.9546 17.1979L79.1206 17.4897L80.1355 20.4584L80.9696 20.1666ZM79.1162 14.6978L76.8877 8.17997L76.0537 8.47185L78.2822 14.9897L79.1162 14.6978ZM76.0537 8.17997L73.8252 14.6978L74.6592 14.9897L76.8877 8.47185L76.0537 8.17997ZM74.2422 15.2902H78.6992V14.3973H74.2422V15.2902ZM88.9771 9.86609H88.5358V11.4472L89.3532 10.0996L88.9771 9.86609ZM90.5215 8.32591L90.3035 7.93776L90.3018 7.93886L90.2998 7.93997L90.5215 8.32591ZM92.7279 7.76787H93.1692V7.32145H92.7279V7.76787ZM92.7279 11.0491V11.4956H93.1692V11.0491H92.7279ZM89.7052 11.7411L89.408 11.4112L89.4055 11.4134L89.4031 11.4157L89.7052 11.7411ZM88.9771 20.3125V20.7589H89.4183V20.3125H88.9771ZM85.8881 20.3125H85.4468V20.7589H85.8881V20.3125ZM85.8881 7.94645V7.50002H85.4468V7.94645H85.8881ZM88.9771 7.94645H89.4183V7.50002H88.9771V7.94645ZM89.3532 10.0996C89.7138 9.50528 90.1765 9.04533 90.7433 8.71185L90.2998 7.93997C89.6017 8.35055 89.0349 8.91736 88.6011 9.63261L89.3532 10.0996ZM90.7395 8.71406C91.3134 8.38419 91.9722 8.2143 92.7279 8.2143V7.32145C91.8361 7.32145 91.0241 7.52357 90.3035 7.93776L90.7395 8.71406ZM92.2867 7.76787V11.0491H93.1692V7.76787H92.2867ZM92.7279 10.6027H91.9116V11.4956H92.7279V10.6027ZM91.9116 10.6027C90.8781 10.6027 90.0187 10.8479 89.408 11.4112L90.0026 12.071C90.392 11.7117 91.0034 11.4956 91.9116 11.4956V10.6027ZM89.4031 11.4157C88.7835 12.0045 88.5358 12.9644 88.5358 14.1518H89.4183C89.4183 13.0475 89.6562 12.4003 90.0074 12.0665L89.4031 11.4157ZM88.5358 14.1518V20.3125H89.4183V14.1518H88.5358ZM88.9771 19.8661H85.8881V20.7589H88.9771V19.8661ZM86.3294 20.3125V7.94645H85.4468V20.3125H86.3294ZM85.8881 8.39287H88.9771V7.50002H85.8881V8.39287ZM88.5358 7.94645V9.86609H89.4183V7.94645H88.5358ZM98.405 10.5134V10.067H97.9637V10.5134H98.405ZM98.6918 17.4107L98.3799 17.7264L98.3918 17.7385L98.4046 17.7497L98.6918 17.4107ZM101.141 17.6786H101.582V17.2322H101.141V17.6786ZM101.141 20.3125V20.7589H101.582V20.3125H101.141ZM95.294 10.5134H95.7353V10.067H95.294V10.5134ZM93.8378 10.5134H93.3965V10.9598H93.8378V10.5134ZM93.8378 7.94645V7.50002H93.3965V7.94645H93.8378ZM95.294 7.94645V8.39287H95.7353V7.94645H95.294ZM95.294 4.88841V4.44198H94.8527V4.88841H95.294ZM98.405 4.88841H98.8463V4.44198H98.405V4.88841ZM98.405 7.94645H97.9637V8.39287H98.405V7.94645ZM101.141 7.94645H101.582V7.50002H101.141V7.94645ZM101.141 10.5134V10.9598H101.582V10.5134H101.141ZM97.9637 10.5134V16.4956H98.8463V10.5134H97.9637ZM97.9637 16.4956C97.9637 16.9698 98.0712 17.4143 98.3799 17.7264L99.0038 17.0951C98.9299 17.0203 98.8463 16.8546 98.8463 16.4956H97.9637ZM98.4046 17.7497C98.7313 18.033 99.2011 18.125 99.7068 18.125V17.2322C99.271 17.2322 99.0641 17.1456 98.9789 17.0718L98.4046 17.7497ZM99.7068 18.125H101.141V17.2322H99.7068V18.125ZM100.7 17.6786V20.3125H101.582V17.6786H100.7ZM101.141 19.8661H99.1993V20.7589H101.141V19.8661ZM99.1993 19.8661C97.9624 19.8661 97.1165 19.562 96.5779 19.0325C96.0415 18.5054 95.7353 17.6809 95.7353 16.4732H94.8527C94.8527 17.8251 95.1971 18.9202 95.9628 19.6729C96.726 20.4232 97.8327 20.7589 99.1993 20.7589V19.8661ZM95.7353 16.4732V10.5134H94.8527V16.4732H95.7353ZM95.294 10.067H93.8378V10.9598H95.294V10.067ZM94.279 10.5134V7.94645H93.3965V10.5134H94.279ZM93.8378 8.39287H95.294V7.50002H93.8378V8.39287ZM95.7353 7.94645V4.88841H94.8527V7.94645H95.7353ZM95.294 5.33484H98.405V4.44198H95.294V5.33484ZM97.9637 4.88841V7.94645H98.8463V4.88841H97.9637ZM98.405 8.39287H101.141V7.50002H98.405V8.39287ZM100.7 7.94645V10.5134H101.582V7.94645H100.7ZM101.141 10.067H98.405V10.9598H101.141V10.067Z" fill="white"/>
</svg>
