<svg width="87" height="20" viewBox="0 0 87 20" fill="none" xmlns="http://www.w3.org/2000/svg">
<path d="M45.5 0.999979H41.5L34 18.5H38L43.5 4.99998L49 18.5H53L45.5 0.999979Z" fill="white"/>
<path d="M8.69417 19.26C5.71283 19.26 3.13883 18.2893 0.972168 16.348L3.33817 13.514C5.1235 14.9873 6.93483 15.724 8.77217 15.724C9.58684 15.724 10.2282 15.568 10.6962 15.256C11.1642 14.944 11.3982 14.5106 11.3982 13.956C11.3982 13.436 11.1555 13.02 10.6702 12.708C10.1848 12.3786 9.2055 12.0233 7.73217 11.642C6.69217 11.382 5.8515 11.1306 5.21017 10.888C4.56883 10.628 3.9535 10.29 3.36417 9.87398C2.79217 9.45798 2.3675 8.93798 2.09017 8.31398C1.83017 7.67265 1.70017 6.90998 1.70017 6.02598C1.70017 4.37931 2.2895 3.05331 3.46817 2.04798C4.66417 1.04264 6.19817 0.539978 8.07017 0.539978C10.6528 0.539978 12.9062 1.31131 14.8302 2.85398L12.7502 5.86998C11.0342 4.67398 9.45683 4.07598 8.01817 4.07598C7.27283 4.07598 6.69217 4.23198 6.27617 4.54398C5.8775 4.83864 5.67817 5.22864 5.67817 5.71398C5.67817 6.30331 5.9295 6.74531 6.43217 7.03998C6.93483 7.33465 7.99217 7.68998 9.60417 8.10598C11.5802 8.62598 13.0362 9.29331 13.9722 10.108C14.9082 10.9226 15.3762 12.0926 15.3762 13.618C15.3762 15.386 14.7608 16.7726 13.5302 17.778C12.3168 18.766 10.7048 19.26 8.69417 19.26Z" fill="white"/>
<path d="M22.7082 19V4.49198H17.1702V0.799978H32.2502V4.49198H26.7122V19H22.7082Z" fill="white"/>
<path d="M33.7695 19L41.5695 0.669978H45.2615L53.0615 19H48.8755L47.2115 14.918H39.5155L37.8515 19H33.7695ZM40.9455 11.382H45.7815L43.3635 5.47998L40.9455 11.382Z" fill="white"/>
<path d="M60.1086 19V4.49198H54.5706V0.799978H69.6506V4.49198H64.1126V19H60.1086Z" fill="white"/>
<path d="M72.7299 19V0.799978H86.4579V4.36198H76.7079V8.05398H85.2879V11.616H76.7079V15.438H86.5879V19H72.7299Z" fill="white"/>
</svg>
