<svg width="190" height="30" viewBox="0 0 190 30" fill="none" xmlns="http://www.w3.org/2000/svg">
<path d="M22.625 29V29.5H23.6795L23.0121 28.6835L22.625 29ZM17.1758 29L16.7872 29.3147L16.9373 29.5H17.1758V29ZM5.4375 14.5078L5.82604 14.1931L4.9375 13.0961V14.5078H5.4375ZM5.4375 29V29.5H5.9375V29H5.4375ZM0.75 29H0.25V29.5H0.75V29ZM0.75 0.445312V-0.0546875H0.25V0.445312H0.75ZM5.4375 0.445312H5.9375V-0.0546875H5.4375V0.445312ZM5.4375 14.2734H4.9375V15.6545L5.82161 14.5935L5.4375 14.2734ZM16.9609 0.445312V-0.0546875H16.7268L16.5768 0.12522L16.9609 0.445312ZM22.0781 0.445312L22.4618 0.765939L23.1476 -0.0546875H22.0781V0.445312ZM10.5547 14.2344L10.171 13.9137L9.90601 14.2309L10.1676 14.5508L10.5547 14.2344ZM22.625 28.5H17.1758V29.5H22.625V28.5ZM17.5643 28.6853L5.82604 14.1931L5.04896 14.8225L16.7872 29.3147L17.5643 28.6853ZM4.9375 14.5078V29H5.9375V14.5078H4.9375ZM5.4375 28.5H0.75V29.5H5.4375V28.5ZM1.25 29V0.445312H0.25V29H1.25ZM0.75 0.945312H5.4375V-0.0546875H0.75V0.945312ZM4.9375 0.445312V14.2734H5.9375V0.445312H4.9375ZM5.82161 14.5935L17.345 0.765405L16.5768 0.12522L5.05339 13.9533L5.82161 14.5935ZM16.9609 0.945312H22.0781V-0.0546875H16.9609V0.945312ZM21.6945 0.124686L10.171 13.9137L10.9384 14.555L22.4618 0.765939L21.6945 0.124686ZM10.1676 14.5508L22.2379 29.3165L23.0121 28.6835L10.9418 13.9179L10.1676 14.5508ZM44.3828 22.9258L43.9089 22.7663L44.3828 22.9258ZM42.332 26.4609L42.6954 26.8044L42.6977 26.8019L42.332 26.4609ZM39.0898 28.6484L39.2722 29.114L39.2764 29.1123L39.0898 28.6484ZM30.7305 28.6484L30.5406 29.111L30.5448 29.1127L30.7305 28.6484ZM27.5078 26.4609L27.1421 26.802L27.1469 26.807L27.5078 26.4609ZM25.418 22.9258L24.9468 23.0931L25.418 22.9258ZM25.9062 12.0859L25.459 11.8623L25.4583 11.8637L25.9062 12.0859ZM29.4609 8.27734L29.7078 8.71214L29.4609 8.27734ZM40.2227 8.27734L39.9742 8.71124L40.2227 8.27734ZM29.9688 22.1836L29.4949 22.3434L29.4966 22.3483L29.9688 22.1836ZM31.7656 24.7617L31.4677 25.1633L31.4719 25.1664L31.7656 24.7617ZM38.0156 24.7617L38.3093 25.1664L38.3135 25.1633L38.0156 24.7617ZM39.793 14.1367L39.3197 14.2982L39.3203 14.2999L39.793 14.1367ZM38.0156 11.6172L37.7219 12.0219L37.7263 12.0249L38.0156 11.6172ZM44.5859 18.1406C44.5859 19.8949 44.357 21.4345 43.9089 22.7663L44.8567 23.0852C45.3461 21.6307 45.5859 19.9801 45.5859 18.1406H44.5859ZM43.9089 22.7663C43.4602 24.0999 42.8108 25.2143 41.9663 26.12L42.6977 26.8019C43.6501 25.7805 44.3679 24.5381 44.8567 23.0852L43.9089 22.7663ZM41.9687 26.1175C41.1218 27.0134 40.1022 27.7025 38.9033 28.1845L39.2764 29.1123C40.6035 28.5787 41.7454 27.8095 42.6954 26.8044L41.9687 26.1175ZM38.9075 28.1829C37.7116 28.6514 36.3491 28.8906 34.8125 28.8906V29.8906C36.453 29.8906 37.9421 29.6351 39.2722 29.114L38.9075 28.1829ZM34.8125 28.8906C33.3845 28.8906 32.0877 28.6528 30.9162 28.1842L30.5448 29.1127C31.8472 29.6336 33.2718 29.8906 34.8125 29.8906V28.8906ZM30.9204 28.1859C29.7469 27.7041 28.7311 27.0143 27.8687 26.1149L27.1469 26.807C28.1074 27.8086 29.2401 28.5771 30.5406 29.111L30.9204 28.1859ZM27.8735 26.12C27.0271 25.2122 26.3638 24.0951 25.8891 22.7585L24.9468 23.0931C25.4617 24.5429 26.1916 25.7825 27.1421 26.8019L27.8735 26.12ZM25.8891 22.7585C25.417 21.4291 25.1758 19.8924 25.1758 18.1406H24.1758C24.1758 19.9826 24.4293 21.636 24.9468 23.0931L25.8891 22.7585ZM25.1758 18.1406C25.1758 15.8132 25.5766 13.8756 26.3542 12.3081L25.4583 11.8637C24.5953 13.6035 24.1758 15.7024 24.1758 18.1406H25.1758ZM26.3535 12.3095C27.145 10.7265 28.2624 9.53282 29.7078 8.71214L29.2141 7.84254C27.5865 8.76666 26.3342 10.1121 25.459 11.8623L26.3535 12.3095ZM29.7078 8.71214C31.1552 7.89032 32.896 7.46875 34.9492 7.46875V6.46875C32.7577 6.46875 30.8396 6.91957 29.2141 7.84254L29.7078 8.71214ZM34.9492 7.46875C36.8662 7.46875 38.5361 7.88774 39.9742 8.71124L40.4711 7.84345C38.8623 6.92216 37.0166 6.46875 34.9492 6.46875V7.46875ZM39.9742 8.71124C41.4082 9.5324 42.5341 10.728 43.3525 12.3151L44.2413 11.8568C43.3409 10.1105 42.084 8.76708 40.4711 7.84345L39.9742 8.71124ZM43.3525 12.3151C44.1669 13.8947 44.5859 15.83 44.5859 18.1406H45.5859C45.5859 15.7116 45.1456 13.6105 44.2413 11.8568L43.3525 12.3151ZM28.9023 18.1406C28.9023 19.7535 29.0953 21.1582 29.495 22.3434L30.4425 22.0238C30.087 20.9694 29.9023 19.6788 29.9023 18.1406H28.9023ZM29.4966 22.3483C29.9142 23.5453 30.5663 24.4945 31.4677 25.1633L32.0635 24.3602C31.3504 23.831 30.8045 23.0615 30.4409 22.0189L29.4966 22.3483ZM31.4719 25.1664C32.3858 25.8296 33.5386 26.1406 34.8906 26.1406V25.1406C33.6905 25.1406 32.7601 24.8657 32.0593 24.3571L31.4719 25.1664ZM34.8906 26.1406C36.2426 26.1406 37.3955 25.8296 38.3093 25.1664L37.7219 24.3571C37.0212 24.8657 36.0907 25.1406 34.8906 25.1406V26.1406ZM38.3135 25.1633C39.2164 24.4934 39.8624 23.5424 40.2668 22.3434L39.3192 22.0238C38.9683 23.0644 38.4295 23.8321 37.7177 24.3602L38.3135 25.1633ZM40.2668 22.3434C40.6664 21.1582 40.8594 19.7535 40.8594 18.1406H39.8594C39.8594 19.6788 39.6747 20.9694 39.3192 22.0238L40.2668 22.3434ZM40.8594 18.1406C40.8594 16.5283 40.6666 15.1349 40.2656 13.9736L39.3203 14.2999C39.6746 15.326 39.8594 16.6019 39.8594 18.1406H40.8594ZM40.2662 13.9753C39.861 12.7877 39.2126 11.8535 38.305 11.2094L37.7263 12.0249C38.4332 12.5267 38.9697 13.2722 39.3198 14.2982L40.2662 13.9753ZM38.3093 11.2125C37.3947 10.5487 36.2348 10.2383 34.8711 10.2383V11.2383C36.0855 11.2383 37.022 11.5138 37.7219 12.0218L38.3093 11.2125ZM34.8711 10.2383C32.848 10.2383 31.2857 10.9258 30.2982 12.3702L31.1237 12.9345C31.881 11.8268 33.0921 11.2383 34.8711 11.2383V10.2383ZM30.2982 12.3702C29.3458 13.7632 28.9023 15.7079 28.9023 18.1406H29.9023C29.9023 15.8078 30.3313 14.0936 31.1237 12.9345L30.2982 12.3702ZM54.9688 7.37891H55.4688V6.87891H54.9688V7.37891ZM54.9688 16.0703H54.4688V16.5703H54.9688V16.0703ZM65.0859 16.0703V16.5703H65.5859V16.0703H65.0859ZM65.0859 7.37891V6.87891H64.5859V7.37891H65.0859ZM69.6953 7.37891H70.1953V6.87891H69.6953V7.37891ZM69.6953 29V29.5H70.1953V29H69.6953ZM65.0859 29H64.5859V29.5H65.0859V29ZM65.0859 19.6641H65.5859V19.1641H65.0859V19.6641ZM54.9688 19.6641V19.1641H54.4688V19.6641H54.9688ZM54.9688 29V29.5H55.4688V29H54.9688ZM50.3594 29H49.8594V29.5H50.3594V29ZM50.3594 7.37891V6.87891H49.8594V7.37891H50.3594ZM54.4688 7.37891V16.0703H55.4688V7.37891H54.4688ZM54.9688 16.5703H65.0859V15.5703H54.9688V16.5703ZM65.5859 16.0703V7.37891H64.5859V16.0703H65.5859ZM65.0859 7.87891H69.6953V6.87891H65.0859V7.87891ZM69.1953 7.37891V29H70.1953V7.37891H69.1953ZM69.6953 28.5H65.0859V29.5H69.6953V28.5ZM65.5859 29V19.6641H64.5859V29H65.5859ZM65.0859 19.1641H54.9688V20.1641H65.0859V19.1641ZM54.4688 19.6641V29H55.4688V19.6641H54.4688ZM54.9688 28.5H50.3594V29.5H54.9688V28.5ZM50.8594 29V7.37891H49.8594V29H50.8594ZM50.3594 7.87891H54.9688V6.87891H50.3594V7.87891ZM92.5859 10.9922V11.4922H93.0859V10.9922H92.5859ZM85.4766 10.9922V10.4922H84.9766V10.9922H85.4766ZM85.4766 29V29.5H85.9766V29H85.4766ZM80.9062 29H80.4062V29.5H80.9062V29ZM80.9062 10.9922H81.4062V10.4922H80.9062V10.9922ZM73.8359 10.9922H73.3359V11.4922H73.8359V10.9922ZM73.8359 7.37891V6.87891H73.3359V7.37891H73.8359ZM92.5859 7.37891H93.0859V6.87891H92.5859V7.37891ZM92.5859 10.4922H85.4766V11.4922H92.5859V10.4922ZM84.9766 10.9922V29H85.9766V10.9922H84.9766ZM85.4766 28.5H80.9062V29.5H85.4766V28.5ZM81.4062 29V10.9922H80.4062V29H81.4062ZM80.9062 10.4922H73.8359V11.4922H80.9062V10.4922ZM74.3359 10.9922V7.37891H73.3359V10.9922H74.3359ZM73.8359 7.87891H92.5859V6.87891H73.8359V7.87891ZM92.0859 7.37891V10.9922H93.0859V7.37891H92.0859ZM111.434 8.78516L111.106 9.16254L111.107 9.16404L111.434 8.78516ZM113.543 29V29.5H114.043V29H113.543ZM110.281 29L109.801 29.1378L109.904 29.5H110.281V29ZM109.402 25.9336L109.883 25.7958L109.779 25.4336H109.402V25.9336ZM109.246 25.9336V25.4336H109.003L108.852 25.6253L109.246 25.9336ZM105.086 29L104.948 28.5194L104.939 28.5221L105.086 29ZM98.5234 28.6875L98.3091 29.1393L98.3139 29.1415L98.5234 28.6875ZM97.7227 17.7695L97.4438 17.3545L97.4423 17.3555L97.7227 17.7695ZM105.262 15.9141L105.279 16.4138L105.28 16.4137L105.262 15.9141ZM109.012 15.7773L109.03 16.277L109.512 16.2594V15.7773H109.012ZM107.957 11.4414L107.618 11.8086L107.621 11.8117L107.957 11.4414ZM98.9141 12.1055L98.4594 12.3136L98.6702 12.7739L99.1278 12.5575L98.9141 12.1055ZM97.4297 8.86328L97.1952 8.42165L96.7788 8.64273L96.9751 9.07142L97.4297 8.86328ZM101.023 7.49609L100.898 7.01214L100.897 7.01244L101.023 7.49609ZM108.992 18.668H109.492V18.1502L108.975 18.1683L108.992 18.668ZM106.199 18.7656L106.216 19.2653L106.217 19.2653L106.199 18.7656ZM100.945 25.1719L100.639 25.567L100.644 25.5709L100.945 25.1719ZM107.41 24.5469L107.737 24.9255L107.737 24.9252L107.41 24.5469ZM105.242 7.46875C107.912 7.46875 109.838 8.06117 111.106 9.16253L111.762 8.40778C110.242 7.08727 108.041 6.46875 105.242 6.46875V7.46875ZM111.107 9.16404C112.366 10.2477 113.043 11.9716 113.043 14.4492H114.043C114.043 11.7967 113.314 9.7445 111.76 8.40627L111.107 9.16404ZM113.043 14.4492V29H114.043V14.4492H113.043ZM113.543 28.5H110.281V29.5H113.543V28.5ZM110.762 28.8622L109.883 25.7958L108.922 26.0714L109.801 29.1378L110.762 28.8622ZM109.402 25.4336H109.246V26.4336H109.402V25.4336ZM108.852 25.6253C108.261 26.3807 107.657 26.9946 107.044 27.4729L107.659 28.2614C108.348 27.7242 109.008 27.049 109.64 26.2419L108.852 25.6253ZM107.044 27.4729C106.447 27.9383 105.751 28.2883 104.948 28.5195L105.224 29.4805C106.14 29.2169 106.954 28.8117 107.659 28.2614L107.044 27.4729ZM104.939 28.5221C104.154 28.7635 103.172 28.8906 101.98 28.8906V29.8906C103.237 29.8906 104.325 29.7574 105.233 29.4779L104.939 28.5221ZM101.98 28.8906C100.753 28.8906 99.6736 28.6677 98.733 28.2335L98.3139 29.1415C99.4045 29.6448 100.63 29.8906 101.98 29.8906V28.8906ZM98.7377 28.2357C97.8124 27.7968 97.0857 27.1359 96.5498 26.2428L95.6923 26.7572C96.3283 27.8172 97.2032 28.6146 98.3091 29.1393L98.7377 28.2357ZM96.5498 26.2428C96.023 25.3647 95.7422 24.2236 95.7422 22.7891H94.7422C94.7422 24.3493 95.0473 25.6822 95.6923 26.7572L96.5498 26.2428ZM95.7422 22.7891C95.7422 20.7061 96.5042 19.1985 98.003 18.1835L97.4423 17.3555C95.6338 18.5802 94.7422 20.4189 94.7422 22.7891H95.7422ZM98.0015 18.1846C99.5545 17.1411 101.957 16.5296 105.279 16.4138L105.244 15.4144C101.848 15.5329 99.2241 16.1583 97.4438 17.3545L98.0015 18.1846ZM105.28 16.4137L109.03 16.277L108.994 15.2777L105.244 15.4144L105.28 16.4137ZM109.512 15.7773V14.6445H108.512V15.7773H109.512ZM109.512 14.6445C109.512 13.0861 109.148 11.8469 108.293 11.0711L107.621 11.8117C108.172 12.312 108.512 13.2082 108.512 14.6445H109.512ZM108.296 11.0743C107.486 10.325 106.372 9.98438 105.027 9.98438V10.9844C106.209 10.9844 107.048 11.2818 107.618 11.8085L108.296 11.0743ZM105.027 9.98438C103.898 9.98438 102.8 10.1478 101.736 10.4752L102.03 11.431C102.997 11.1334 103.996 10.9844 105.027 10.9844V9.98438ZM101.736 10.4752C100.697 10.7948 99.6854 11.1876 98.7003 11.6535L99.1278 12.5575C100.07 12.1119 101.037 11.7365 102.03 11.431L101.736 10.4752ZM99.3687 11.8973L97.8843 8.65514L96.9751 9.07142L98.4594 12.3136L99.3687 11.8973ZM97.6641 9.30491C98.6797 8.76577 99.8406 8.32304 101.15 7.97975L100.897 7.01244C99.524 7.37227 98.289 7.841 97.1952 8.42165L97.6641 9.30491ZM101.149 7.98005C102.461 7.63958 103.824 7.46875 105.242 7.46875V6.46875C103.743 6.46875 102.295 6.64948 100.898 7.01214L101.149 7.98005ZM108.975 18.1683L106.182 18.2659L106.217 19.2653L109.01 19.1677L108.975 18.1683ZM106.182 18.2659C103.871 18.3447 102.127 18.737 101.072 19.5395L101.678 20.3355C102.471 19.7317 103.944 19.3428 106.216 19.2653L106.182 18.2659ZM101.072 19.5395C100.016 20.343 99.4883 21.4578 99.4883 22.8281H100.488C100.488 21.7506 100.885 20.9383 101.678 20.3355L101.072 19.5395ZM99.4883 22.8281C99.4883 23.9965 99.8417 24.9488 100.639 25.567L101.252 24.7768C100.773 24.4054 100.488 23.7952 100.488 22.8281H99.4883ZM100.644 25.5709C101.392 26.1356 102.347 26.3945 103.465 26.3945V25.3945C102.499 25.3945 101.775 25.1717 101.247 24.7729L100.644 25.5709ZM103.465 26.3945C105.154 26.3945 106.59 25.9142 107.737 24.9255L107.084 24.1683C106.147 24.9764 104.953 25.3945 103.465 25.3945V26.3945ZM107.737 24.9252C108.929 23.8949 109.492 22.4051 109.492 20.543H108.492C108.492 22.1964 108 23.3759 107.083 24.1686L107.737 24.9252ZM109.492 20.543V18.668H108.492V20.543H109.492ZM133.367 7.37891V6.87891H133.134L132.984 7.05776L133.367 7.37891ZM138.426 7.37891L138.805 7.70512L139.516 6.87891H138.426V7.37891ZM129.48 17.7695L129.102 17.4433L128.82 17.7702L129.102 18.0965L129.48 17.7695ZM139.188 29V29.5H140.281L139.566 28.673L139.188 29ZM133.895 29L133.513 29.3235L133.663 29.5H133.895V29ZM124.578 18.0234L124.959 17.6999L124.078 16.6617V18.0234H124.578ZM124.578 29V29.5H125.078V29H124.578ZM119.969 29H119.469V29.5H119.969V29ZM119.969 7.37891V6.87891H119.469V7.37891H119.969ZM124.578 7.37891H125.078V6.87891H124.578V7.37891ZM124.578 17.8672H124.078V19.2423L124.961 18.1883L124.578 17.8672ZM133.367 7.87891H138.426V6.87891H133.367V7.87891ZM138.047 7.05269L129.102 17.4433L129.859 18.0957L138.805 7.70512L138.047 7.05269ZM129.102 18.0965L138.809 29.327L139.566 28.673L129.859 17.4426L129.102 18.0965ZM139.188 28.5H133.895V29.5H139.188V28.5ZM134.276 28.6765L124.959 17.6999L124.197 18.347L133.513 29.3235L134.276 28.6765ZM124.078 18.0234V29H125.078V18.0234H124.078ZM124.578 28.5H119.969V29.5H124.578V28.5ZM120.469 29V7.37891H119.469V29H120.469ZM119.969 7.87891H124.578V6.87891H119.969V7.87891ZM124.078 7.37891V17.8672H125.078V7.37891H124.078ZM124.961 18.1883L133.75 7.70005L132.984 7.05776L124.195 17.546L124.961 18.1883ZM159.031 10.9922V11.4922H159.531V10.9922H159.031ZM151.922 10.9922V10.4922H151.422V10.9922H151.922ZM151.922 29V29.5H152.422V29H151.922ZM147.352 29H146.852V29.5H147.352V29ZM147.352 10.9922H147.852V10.4922H147.352V10.9922ZM140.281 10.9922H139.781V11.4922H140.281V10.9922ZM140.281 7.37891V6.87891H139.781V7.37891H140.281ZM159.031 7.37891H159.531V6.87891H159.031V7.37891ZM159.031 10.4922H151.922V11.4922H159.031V10.4922ZM151.422 10.9922V29H152.422V10.9922H151.422ZM151.922 28.5H147.352V29.5H151.922V28.5ZM147.852 29V10.9922H146.852V29H147.852ZM147.352 10.4922H140.281V11.4922H147.352V10.4922ZM140.781 10.9922V7.37891H139.781V10.9922H140.781ZM140.281 7.87891H159.031V6.87891H140.281V7.87891ZM158.531 7.37891V10.9922H159.531V7.37891H158.531ZM163.211 29H162.711V29.5H163.211V29ZM163.211 7.37891V6.87891H162.711V7.37891H163.211ZM167.82 7.37891H168.32V6.87891H167.82V7.37891ZM167.82 16.0117H167.32V16.5117H167.82V16.0117ZM177.195 16.7148L177.027 17.1858L177.032 17.1873L177.195 16.7148ZM180.125 18.7852L179.713 19.0692L179.713 19.0692L180.125 18.7852ZM180.164 25.8359L180.591 26.0964L180.592 26.094L180.164 25.8359ZM177.293 28.1797L177.487 28.6407L177.49 28.639L177.293 28.1797ZM167.82 25.6211H167.32V26.1211H167.82V25.6211ZM175.203 24.8789L175.455 25.3106L175.457 25.3094L175.203 24.8789ZM175.301 20.0938L175.049 20.5257L175.057 20.5305L175.301 20.0938ZM167.82 19.4102V18.9102H167.32V19.4102H167.82ZM184.422 29H183.922V29.5H184.422V29ZM184.422 7.37891V6.87891H183.922V7.37891H184.422ZM189.031 7.37891H189.531V6.87891H189.031V7.37891ZM189.031 29V29.5H189.531V29H189.031ZM163.711 29V7.37891H162.711V29H163.711ZM163.211 7.87891H167.82V6.87891H163.211V7.87891ZM167.32 7.37891V16.0117H168.32V7.37891H167.32ZM167.82 16.5117H172.176V15.5117H167.82V16.5117ZM172.176 16.5117C174.173 16.5117 175.785 16.7429 177.027 17.1858L177.363 16.2439C175.976 15.7493 174.241 15.5117 172.176 15.5117V16.5117ZM177.032 17.1873C178.271 17.6166 179.149 18.2514 179.713 19.0692L180.537 18.5012C179.825 17.47 178.75 16.7245 177.359 16.2424L177.032 17.1873ZM179.713 19.0692C180.281 19.892 180.582 20.9454 180.582 22.2617H181.582C181.582 20.7916 181.245 19.5273 180.537 18.5012L179.713 19.0692ZM180.582 22.2617C180.582 23.5521 180.294 24.6514 179.736 25.5779L180.592 26.094C181.258 24.9892 181.582 23.7057 181.582 22.2617H180.582ZM179.737 25.5754C179.19 26.4726 178.322 27.1928 177.095 27.7204L177.49 28.639C178.868 28.0468 179.915 27.2044 180.591 26.0964L179.737 25.5754ZM177.099 27.7187C175.881 28.2304 174.248 28.5 172.176 28.5V29.5C174.322 29.5 176.101 29.2228 177.487 28.6407L177.099 27.7187ZM172.176 28.5H163.211V29.5H172.176V28.5ZM167.82 26.1211H171.863V25.1211H167.82V26.1211ZM171.863 26.1211C173.298 26.1211 174.508 25.8647 175.455 25.3106L174.951 24.4473C174.206 24.8827 173.189 25.1211 171.863 25.1211V26.1211ZM175.457 25.3094C176.496 24.6956 176.992 23.6808 176.992 22.3789H175.992C175.992 23.3947 175.629 24.0466 174.949 24.4484L175.457 25.3094ZM176.992 22.3789C176.992 21.1576 176.53 20.2062 175.544 19.657L175.057 20.5305C175.661 20.8667 175.992 21.4388 175.992 22.3789H176.992ZM175.553 19.6619C174.66 19.1409 173.41 18.9102 171.863 18.9102V19.9102C173.338 19.9102 174.379 20.1351 175.049 20.5256L175.553 19.6619ZM171.863 18.9102H167.82V19.9102H171.863V18.9102ZM167.32 19.4102V25.6211H168.32V19.4102H167.32ZM184.922 29V7.37891H183.922V29H184.922ZM184.422 7.87891H189.031V6.87891H184.422V7.87891ZM188.531 7.37891V29H189.531V7.37891H188.531ZM189.031 28.5H184.422V29.5H189.031V28.5Z" fill="white"/>
</svg>
