<svg width="422" height="82" viewBox="0 0 422 82" fill="none" xmlns="http://www.w3.org/2000/svg">
<path d="M38.1445 54.2734L37.7106 54.0251L37.7101 54.0259L38.1445 54.2734ZM30.1465 61.5684L30.3568 62.022L30.3589 62.021L30.1465 61.5684ZM5.39062 64H4.89062V64.5H5.39062V64ZM5.39062 21.168V20.668H4.89062V21.168H5.39062ZM30.5273 23.5703L30.3091 24.0202L30.3112 24.0212L30.5273 23.5703ZM38.2031 30.6309L37.7708 30.8821L37.7715 30.8833L38.2031 30.6309ZM30.0879 34.6152L29.6315 34.8195L29.6339 34.8248L30.0879 34.6152ZM25.9863 30.0742L25.7476 30.5135L25.7496 30.5146L25.9863 30.0742ZM14.4727 28.6094V28.1094H13.9727V28.6094H14.4727ZM14.4727 56.5H13.9727V57H14.4727V56.5ZM28.2422 52.9551L27.8737 52.6171L27.8722 52.6187L28.2422 52.9551ZM40.4277 42.1738C40.4277 46.9357 39.5119 50.8775 37.7106 54.0251L38.5785 54.5218C40.4881 51.185 41.4277 47.0604 41.4277 42.1738H40.4277ZM37.7101 54.0259C35.9274 57.1551 33.3409 59.517 29.9341 61.1157L30.3589 62.021C33.9443 60.3385 36.6898 57.8371 38.579 54.5209L37.7101 54.0259ZM29.9362 61.1148C26.5216 62.698 22.3882 63.5 17.5195 63.5V64.5C22.4946 64.5 26.7792 63.6809 30.3568 62.022L29.9362 61.1148ZM17.5195 63.5H5.39062V64.5H17.5195V63.5ZM5.89062 64V21.168H4.89062V64H5.89062ZM5.39062 21.668H18.8379V20.668H5.39062V21.668ZM18.8379 21.668C23.2711 21.668 27.0899 22.4582 30.3091 24.0202L30.7456 23.1205C27.3633 21.4793 23.389 20.668 18.8379 20.668V21.668ZM30.3112 24.0212C33.5228 25.5605 36.0055 27.845 37.7708 30.8821L38.6354 30.3796C36.7679 27.1667 34.1335 24.7442 30.7434 23.1194L30.3112 24.0212ZM37.7715 30.8833C39.5324 33.8938 40.4277 37.6487 40.4277 42.1738H41.4277C41.4277 37.5193 40.5067 33.5789 38.6347 30.3784L37.7715 30.8833ZM31.9941 42.4082C31.9941 39.1997 31.5195 36.524 30.5419 34.4057L29.6339 34.8248C30.5312 36.769 30.9941 39.2886 30.9941 42.4082H31.9941ZM30.5443 34.411C29.5855 32.269 28.1456 30.6674 26.2231 29.6338L25.7496 30.5146C27.4598 31.4341 28.7544 32.8599 29.6315 34.8195L30.5443 34.411ZM26.2251 29.6349C24.3363 28.6084 22.0221 28.1094 19.3066 28.1094V29.1094C21.9037 29.1094 24.0426 29.5869 25.7476 30.5135L26.2251 29.6349ZM19.3066 28.1094H14.4727V29.1094H19.3066V28.1094ZM13.9727 28.6094V56.5H14.9727V28.6094H13.9727ZM14.4727 57H18.3691V56H14.4727V57ZM18.3691 57C22.8871 57 26.3366 55.7945 28.6122 53.2914L27.8722 52.6187C25.8509 54.8422 22.7184 56 18.3691 56V57ZM28.6106 53.2931C30.8948 50.8031 31.9941 47.145 31.9941 42.4082H30.9941C30.9941 47.0073 29.9255 50.3805 27.8737 52.6171L28.6106 53.2931ZM43.3008 78.1797L43.3715 77.6846L43.3628 77.6835L43.3008 78.1797ZM40.5762 77.6816H40.0762V78.0644L40.4457 78.1643L40.5762 77.6816ZM40.5762 70.6504L40.7066 70.1677L40.0762 69.9973V70.6504H40.5762ZM42.627 71.0605L42.7041 70.5665L42.6957 70.5652L42.6871 70.5642L42.627 71.0605ZM47.8418 70.1816L47.5316 69.7894L47.5262 69.7939L47.8418 70.1816ZM49.1016 31.2461V30.7461H48.6016V31.2461H49.1016ZM58.0371 31.2461H58.5371V30.7461H58.0371V31.2461ZM56.8945 72.9941L56.441 72.7836L56.4401 72.7856L56.8945 72.9941ZM50.127 19.3516L50.3982 19.7716L50.4003 19.7702L50.127 19.3516ZM57.0117 19.3516L56.7383 19.7702L56.7444 19.7741L57.0117 19.3516ZM57.0117 26.2363L57.2851 26.655L57.291 26.651L57.0117 26.2363ZM50.127 26.2363L49.8436 26.6485L49.8536 26.655L50.127 26.2363ZM46.4648 77.9141C45.4748 77.9141 44.4438 77.8379 43.3715 77.6847L43.2301 78.6747C44.3452 78.834 45.4236 78.9141 46.4648 78.9141V77.9141ZM43.3628 77.6835C42.2824 77.5485 41.399 77.3861 40.7066 77.199L40.4457 78.1643C41.1986 78.3678 42.1316 78.5374 43.2388 78.6758L43.3628 77.6835ZM41.0762 77.6816V70.6504H40.0762V77.6816H41.0762ZM40.4457 71.1331C41.188 71.3337 41.8953 71.4755 42.5668 71.5569L42.6871 70.5642C42.0696 70.4893 41.4096 70.3577 40.7066 70.1677L40.4457 71.1331ZM42.5498 71.5546C43.206 71.6571 43.9454 71.707 44.7656 71.707V70.707C43.9842 70.707 43.2979 70.6593 42.7041 70.5665L42.5498 71.5546ZM44.7656 71.707C46.0771 71.707 47.2178 71.3342 48.1574 70.5694L47.5262 69.7939C46.7861 70.3963 45.876 70.707 44.7656 70.707V71.707ZM48.1519 70.5738C49.182 69.7593 49.6016 68.2314 49.6016 66.2266H48.6016C48.6016 68.167 48.1812 69.2758 47.5317 69.7894L48.1519 70.5738ZM49.6016 66.2266V31.2461H48.6016V66.2266H49.6016ZM49.1016 31.7461H58.0371V30.7461H49.1016V31.7461ZM57.5371 31.2461V67.5449H58.5371V31.2461H57.5371ZM57.5371 67.5449C57.5371 69.4718 57.1691 71.2154 56.441 72.7836L57.348 73.2047C58.1434 71.4917 58.5371 69.6024 58.5371 67.5449H57.5371ZM56.4401 72.7856C55.725 74.3442 54.57 75.587 52.954 76.5157L53.4523 77.3827C55.2347 76.3583 56.5407 74.9644 57.349 73.2027L56.4401 72.7856ZM52.954 76.5157C51.3561 77.434 49.2054 77.9141 46.4648 77.9141V78.9141C49.3102 78.9141 51.6517 78.4175 53.4523 77.3827L52.954 76.5157ZM49.2207 22.7793C49.2207 21.1782 49.6659 20.2445 50.3982 19.7716L49.8557 18.9315C48.713 19.6695 48.2207 21.021 48.2207 22.7793H49.2207ZM50.4003 19.7702C51.2624 19.2072 52.3157 18.9141 53.584 18.9141V17.9141C52.1569 17.9141 50.9055 18.2459 49.8536 18.9329L50.4003 19.7702ZM53.584 18.9141C54.8311 18.9141 55.8751 19.2064 56.7383 19.7702L57.2851 18.9329C56.2343 18.2467 54.9931 17.9141 53.584 17.9141V18.9141ZM56.7444 19.7741C57.4947 20.2488 57.9473 21.1821 57.9473 22.7793H58.9473C58.9473 21.0171 58.4428 19.6653 57.279 18.929L56.7444 19.7741ZM57.9473 22.7793C57.9473 24.3516 57.4971 25.3066 56.7324 25.8216L57.291 26.651C58.4404 25.877 58.9473 24.5274 58.9473 22.7793H57.9473ZM56.7383 25.8177C55.8751 26.3814 54.8311 26.6738 53.584 26.6738V27.6738C54.9931 27.6738 56.2343 27.3412 57.2851 26.655L56.7383 25.8177ZM53.584 26.6738C52.3157 26.6738 51.2624 26.3807 50.4003 25.8177L49.8536 26.655C50.9055 27.342 52.1569 27.6738 53.584 27.6738V26.6738ZM50.4102 25.8243C49.6634 25.3109 49.2207 24.3553 49.2207 22.7793H48.2207C48.2207 24.5236 48.7155 25.8727 49.8437 26.6483L50.4102 25.8243Z" fill="#0E50EF"/>
<path d="M91.916 31.2461H92.416V30.7461H91.916V31.2461ZM91.8281 46.7148L91.3289 46.686L91.3285 46.6953L91.8281 46.7148ZM91.2422 54.2148L90.7466 54.1488L91.6598 54.4897L91.2422 54.2148ZM106.359 31.2461V30.7461H106.09L105.942 30.9712L106.359 31.2461ZM117.111 31.2461H117.611V30.7461H117.111V31.2461ZM117.111 64V64.5H117.611V64H117.111ZM108.469 64H107.969V64.5H108.469V64ZM108.586 47.3887L109.085 47.4189L109.085 47.4185L108.586 47.3887ZM109.055 41.0898L109.554 41.1231L109.68 39.2283L108.637 40.8152L109.055 41.0898ZM93.9961 64V64.5H94.2658L94.4139 64.2746L93.9961 64ZM83.2734 64H82.7734V64.5H83.2734V64ZM83.2734 31.2461V30.7461H82.7734V31.2461H83.2734ZM91.416 31.2461V44.1953H92.416V31.2461H91.416ZM91.416 44.1953C91.416 44.8462 91.3873 45.6756 91.329 46.686L92.3273 46.7436C92.3862 45.7229 92.416 44.8726 92.416 44.1953H91.416ZM91.3285 46.6953C91.2897 47.6851 91.2315 48.6947 91.1538 49.7241L92.1509 49.7993C92.2295 48.7584 92.2884 47.7368 92.3277 46.7344L91.3285 46.6953ZM91.1538 49.7241C91.0758 50.7568 90.998 51.6812 90.9202 52.4975L91.9157 52.5923C91.9942 51.7681 92.0726 50.837 92.1509 49.7993L91.1538 49.7241ZM90.9202 52.4975C90.842 53.3189 90.7842 53.8665 90.7466 54.1488L91.7378 54.2809C91.7783 53.9773 91.8377 53.4116 91.9157 52.5923L90.9202 52.4975ZM91.6598 54.4897L106.777 31.521L105.942 30.9712L90.8245 53.94L91.6598 54.4897ZM106.359 31.7461H117.111V30.7461H106.359V31.7461ZM116.611 31.2461V64H117.611V31.2461H116.611ZM117.111 63.5H108.469V64.5H117.111V63.5ZM108.969 64V50.9336H107.969V64H108.969ZM108.969 50.9336C108.969 49.8712 109.007 48.6998 109.085 47.4189L108.087 47.3584C108.008 48.6556 107.969 49.8475 107.969 50.9336H108.969ZM109.085 47.4185C109.163 46.1135 109.251 44.8872 109.348 43.7395L108.351 43.655C108.253 44.812 108.165 46.0467 108.087 47.3589L109.085 47.4185ZM109.348 43.7395C109.446 42.5864 109.514 41.7137 109.554 41.1231L108.556 41.0566C108.517 41.6379 108.449 42.5034 108.351 43.655L109.348 43.7395ZM108.637 40.8152L93.5783 63.7254L94.4139 64.2746L109.473 41.3645L108.637 40.8152ZM93.9961 63.5H83.2734V64.5H93.9961V63.5ZM83.7734 64V31.2461H82.7734V64H83.7734ZM83.2734 31.7461H91.916V30.7461H83.2734V31.7461ZM145.061 31.5684L144.915 32.0467L144.919 32.0479L145.061 31.5684ZM150.041 34.4102L149.685 34.761L149.687 34.7637L150.041 34.4102ZM150.158 44.0488L150.506 44.4082L150.509 44.4053L150.158 44.0488ZM145.412 46.5391L145.287 46.0548L144.912 46.1515V46.5391H145.412ZM145.412 46.832H144.912V47.2264L145.296 47.3183L145.412 46.832ZM149.162 48.1797L148.935 48.6253L148.939 48.6269L149.162 48.1797ZM151.857 50.5234L151.441 50.8008L151.857 50.5234ZM151.125 59.4883L151.524 59.7899L151.526 59.7875L151.125 59.4883ZM145.822 63.1797L145.639 62.7144L145.638 62.7149L145.822 63.1797ZM131.73 64.3516L131.68 64.849L131.681 64.8491L131.73 64.3516ZM127.482 63.6777L127.365 64.1637L127.372 64.1653L127.482 63.6777ZM124.113 62.5645H123.613V62.888L123.908 63.0206L124.113 62.5645ZM124.113 55.1816L124.324 54.728L123.613 54.3986V55.1816H124.113ZM129.094 56.9102L128.965 57.3932L128.966 57.3935L129.094 56.9102ZM139.846 57.3496L139.759 56.8572L139.758 56.8574L139.846 57.3496ZM142.98 56.1777L143.272 56.5839L143.274 56.5825L142.98 56.1777ZM143.127 51.7539L142.796 52.1288L142.802 52.134L142.808 52.1389L143.127 51.7539ZM140.051 50.4648L139.946 50.9538L139.954 50.9554L140.051 50.4648ZM131.379 50.0254H130.879V50.5254H131.379V50.0254ZM131.379 43.8438V43.3438H130.879V43.8438H131.379ZM132.199 37.8086L132.292 38.2999L132.297 38.2989L132.199 37.8086ZM126.984 39.332L126.524 39.5266L126.716 39.9822L127.174 39.7947L126.984 39.332ZM124.348 33.0918L124.169 32.6246L123.685 32.8092L123.887 33.2864L124.348 33.0918ZM130.5 31.334L130.6 31.8239L130.603 31.8233L130.5 31.334ZM138.439 31.1309C140.758 31.1309 142.916 31.4374 144.915 32.0466L145.206 31.0901C143.104 30.4493 140.847 30.1309 138.439 30.1309V31.1309ZM144.919 32.0479C146.903 32.6337 148.485 33.5425 149.685 34.761L150.397 34.0593C149.058 32.6997 147.319 31.7139 145.202 31.0888L144.919 32.0479ZM149.687 34.7637C150.852 35.9278 151.445 37.4355 151.445 39.332H152.445C152.445 37.2052 151.77 35.4316 150.395 34.0566L149.687 34.7637ZM151.445 39.332C151.445 41.1967 150.886 42.6313 149.808 43.6924L150.509 44.4053C151.813 43.1226 152.445 41.4126 152.445 39.332H151.445ZM149.811 43.6894C148.694 44.7692 147.195 45.5637 145.287 46.0548L145.537 47.0233C147.574 46.4988 149.239 45.6331 150.506 44.4082L149.811 43.6894ZM144.912 46.5391V46.832H145.912V46.5391H144.912ZM145.296 47.3183C146.649 47.6424 147.862 48.0791 148.935 48.6253L149.389 47.734C148.236 47.1475 146.948 46.6857 145.529 46.3458L145.296 47.3183ZM148.939 48.6269C149.998 49.1567 150.828 49.8813 151.441 50.8008L152.273 50.2461C151.558 49.1734 150.592 48.3355 149.386 47.7325L148.939 48.6269ZM151.441 50.8008C152.034 51.6904 152.354 52.8928 152.354 54.4492H153.354C153.354 52.7635 153.009 51.3487 152.273 50.2461L151.441 50.8008ZM152.354 54.4492C152.354 56.1511 151.816 57.727 150.724 59.1891L151.526 59.7875C152.738 58.1636 153.354 56.3802 153.354 54.4492H152.354ZM150.726 59.1866C149.645 60.6158 147.965 61.7995 145.639 62.7144L146.005 63.645C148.445 62.6849 150.3 61.4076 151.524 59.7899L150.726 59.1866ZM145.638 62.7149C143.354 63.621 140.385 64.0859 136.711 64.0859V65.0859C140.459 65.0859 143.564 64.6133 146.007 63.6445L145.638 62.7149ZM136.711 64.0859C134.968 64.0859 133.324 64.0085 131.78 63.854L131.681 64.8491C133.262 65.0072 134.938 65.0859 136.711 65.0859V64.0859ZM131.781 63.8541C130.255 63.6996 128.859 63.4779 127.593 63.1902L127.372 64.1653C128.684 64.4635 130.12 64.6911 131.68 64.849L131.781 63.8541ZM127.6 63.1918C126.334 62.8847 125.241 62.5226 124.318 62.1083L123.908 63.0206C124.9 63.4656 126.053 63.8457 127.365 64.1637L127.6 63.1918ZM124.613 62.5645V55.1816H123.613V62.5645H124.613ZM123.903 55.6352C125.284 56.2759 126.974 56.8609 128.965 57.3932L129.223 56.4271C127.269 55.9047 125.637 55.3374 124.324 54.728L123.903 55.6352ZM128.966 57.3935C131.003 57.9328 133.166 58.2012 135.451 58.2012V57.2012C133.244 57.2012 131.169 56.9422 129.222 56.4268L128.966 57.3935ZM135.451 58.2012C137.096 58.2012 138.591 58.0823 139.934 57.8418L139.758 56.8574C138.484 57.0856 137.049 57.2012 135.451 57.2012V58.2012ZM139.933 57.842C141.305 57.5999 142.429 57.1893 143.272 56.5839L142.689 55.7716C142.009 56.2599 141.043 56.6306 139.759 56.8572L139.933 57.842ZM143.274 56.5825C144.18 55.9253 144.652 55.0251 144.652 53.9219H143.652C143.652 54.6937 143.343 55.2973 142.687 55.7729L143.274 56.5825ZM144.652 53.9219C144.652 52.8924 144.243 52.0292 143.446 51.3689L142.808 52.1389C143.378 52.6114 143.652 53.1936 143.652 53.9219H144.652ZM143.458 51.379C142.699 50.7094 141.574 50.2556 140.148 49.9743L139.954 50.9554C141.301 51.2209 142.227 51.6266 142.796 52.1288L143.458 51.379ZM140.156 49.9759C138.741 49.6729 136.965 49.5254 134.836 49.5254V50.5254C136.926 50.5254 138.626 50.6709 139.946 50.9537L140.156 49.9759ZM134.836 49.5254H131.379V50.5254H134.836V49.5254ZM131.879 50.0254V43.8438H130.879V50.0254H131.879ZM131.379 44.3438H134.66V43.3438H131.379V44.3438ZM134.66 44.3438C137.647 44.3438 139.999 44.0992 141.689 43.5901L141.401 42.6326C139.849 43.1 137.611 43.3438 134.66 43.3438V44.3438ZM141.689 43.5901C142.554 43.3296 143.254 42.9451 143.74 42.4062C144.235 41.8573 144.477 41.1831 144.477 40.416H143.477C143.477 40.9575 143.313 41.3868 142.997 41.7364C142.673 42.096 142.157 42.4047 141.401 42.6326L141.689 43.5901ZM144.477 40.416C144.477 39.8031 144.325 39.2441 144.007 38.758C143.69 38.2745 143.228 37.8917 142.651 37.5974L142.197 38.4885C142.654 38.7216 142.969 38.9979 143.17 39.3055C143.369 39.6104 143.477 39.9743 143.477 40.416H144.477ZM142.651 37.5974C141.504 37.0131 139.692 36.752 137.297 36.752V37.752C139.667 37.752 141.274 38.0182 142.197 38.4885L142.651 37.5974ZM137.297 36.752C135.715 36.752 133.982 36.9421 132.101 37.3183L132.297 38.2989C134.127 37.9329 135.793 37.752 137.297 37.752V36.752ZM132.106 37.3173C130.22 37.6747 128.449 38.1916 126.795 38.8693L127.174 39.7947C128.762 39.1443 130.467 38.6456 132.292 38.2999L132.106 37.3173ZM127.445 39.1374L124.808 32.8972L123.887 33.2864L126.524 39.5266L127.445 39.1374ZM124.526 33.559C126.392 32.847 128.417 32.2683 130.6 31.8239L130.4 30.844C128.169 31.2981 126.092 31.8913 124.169 32.6246L124.526 33.559ZM130.603 31.8233C132.786 31.3636 135.397 31.1309 138.439 31.1309V30.1309C135.35 30.1309 132.667 30.3669 130.397 30.8447L130.603 31.8233ZM194.279 64L193.801 64.1467L193.91 64.5H194.279V64ZM183.967 30.3965L184.445 30.2498L184.336 29.8965H183.967V30.3965ZM183.703 30.3965V29.8965H183.178L183.204 30.4208L183.703 30.3965ZM183.879 34.0293L183.379 34.0534L183.38 34.0597L183.879 34.0293ZM184.26 64V64.5H184.76V64H184.26ZM176.145 64H175.645V64.5H176.145V64ZM176.145 21.168V20.668H175.645V21.168H176.145ZM188.508 21.168L188.985 21.0201L188.876 20.668H188.508V21.168ZM198.645 53.9219L198.167 54.0697L198.276 54.4219H198.645V53.9219ZM198.82 53.9219V54.4219H199.182L199.295 54.0778L198.82 53.9219ZM209.572 21.168V20.668H209.21L209.097 21.012L209.572 21.168ZM221.936 21.168H222.436V20.668H221.936V21.168ZM221.936 64V64.5H222.436V64H221.936ZM213.469 64H212.969V64.5H213.469V64ZM213.527 39.0684L213.028 39.0517L213.027 39.0573L213.527 39.0684ZM213.732 34.0586L214.232 34.0833L214.232 34.083L213.732 34.0586ZM213.908 30.4551L214.408 30.4794L214.433 29.9551H213.908V30.4551ZM213.645 30.4551V29.9551H213.283L213.17 30.2987L213.645 30.4551ZM202.6 64V64.5H202.961L203.075 64.1564L202.6 64ZM194.757 63.8533L184.445 30.2498L183.489 30.5432L193.801 64.1467L194.757 63.8533ZM183.967 29.8965H183.703V30.8965H183.967V29.8965ZM183.204 30.4208C183.243 31.2215 183.301 32.4323 183.379 34.0534L184.378 34.0052C184.3 32.3841 184.242 31.1731 184.203 30.3721L183.204 30.4208ZM183.38 34.0597C183.477 35.6579 183.565 37.3639 183.643 39.1777L184.642 39.1348C184.564 37.3158 184.476 35.6038 184.378 33.9989L183.38 34.0597ZM183.643 39.1777C183.721 40.9886 183.76 42.6219 183.76 44.0781H184.76C184.76 42.6047 184.72 40.9567 184.642 39.1348L183.643 39.1777ZM183.76 44.0781V64H184.76V44.0781H183.76ZM184.26 63.5H176.145V64.5H184.26V63.5ZM176.645 64V21.168H175.645V64H176.645ZM176.145 21.668H188.508V20.668H176.145V21.668ZM188.03 21.3158L198.167 54.0697L199.122 53.7741L188.985 21.0201L188.03 21.3158ZM198.645 54.4219H198.82V53.4219H198.645V54.4219ZM199.295 54.0778L210.047 21.3239L209.097 21.012L198.345 53.7659L199.295 54.0778ZM209.572 21.668H221.936V20.668H209.572V21.668ZM221.436 21.168V64H222.436V21.168H221.436ZM221.936 63.5H213.469V64.5H221.936V63.5ZM213.969 64V43.7266H212.969V64H213.969ZM213.969 43.7266C213.969 42.3835 213.988 40.8346 214.027 39.0795L213.027 39.0573C212.988 40.8177 212.969 42.3743 212.969 43.7266H213.969ZM214.027 39.085C214.086 37.3296 214.154 35.6623 214.232 34.0833L213.233 34.0339C213.155 35.6189 213.086 37.2915 213.028 39.0517L214.027 39.085ZM214.232 34.083C214.232 34.0798 214.232 34.0767 214.232 34.0736C214.232 34.0705 214.233 34.0673 214.233 34.0642C214.233 34.0611 214.233 34.058 214.233 34.0548C214.233 34.0517 214.234 34.0486 214.234 34.0455C214.234 34.0424 214.234 34.0393 214.234 34.0361C214.234 34.033 214.234 34.0299 214.235 34.0268C214.235 34.0237 214.235 34.0206 214.235 34.0175C214.235 34.0144 214.235 34.0113 214.235 34.0082C214.236 34.0051 214.236 34.002 214.236 33.9989C214.236 33.9958 214.236 33.9927 214.236 33.9896C214.237 33.9865 214.237 33.9834 214.237 33.9803C214.237 33.9772 214.237 33.9741 214.237 33.971C214.237 33.9679 214.238 33.9648 214.238 33.9617C214.238 33.9586 214.238 33.9556 214.238 33.9525C214.238 33.9494 214.238 33.9463 214.239 33.9432C214.239 33.9401 214.239 33.9371 214.239 33.934C214.239 33.9309 214.239 33.9278 214.24 33.9247C214.24 33.9217 214.24 33.9186 214.24 33.9155C214.24 33.9125 214.24 33.9094 214.24 33.9063C214.241 33.9032 214.241 33.9002 214.241 33.8971C214.241 33.894 214.241 33.891 214.241 33.8879C214.241 33.8848 214.242 33.8818 214.242 33.8787C214.242 33.8757 214.242 33.8726 214.242 33.8695C214.242 33.8665 214.243 33.8634 214.243 33.8604C214.243 33.8573 214.243 33.8543 214.243 33.8512C214.243 33.8482 214.243 33.8451 214.244 33.8421C214.244 33.839 214.244 33.836 214.244 33.8329C214.244 33.8299 214.244 33.8268 214.244 33.8238C214.245 33.8207 214.245 33.8177 214.245 33.8147C214.245 33.8116 214.245 33.8086 214.245 33.8056C214.246 33.8025 214.246 33.7995 214.246 33.7964C214.246 33.7934 214.246 33.7904 214.246 33.7874C214.246 33.7843 214.247 33.7813 214.247 33.7783C214.247 33.7752 214.247 33.7722 214.247 33.7692C214.247 33.7662 214.247 33.7631 214.248 33.7601C214.248 33.7571 214.248 33.7541 214.248 33.7511C214.248 33.748 214.248 33.745 214.248 33.742C214.249 33.739 214.249 33.736 214.249 33.733C214.249 33.73 214.249 33.727 214.249 33.7239C214.249 33.7209 214.25 33.7179 214.25 33.7149C214.25 33.7119 214.25 33.7089 214.25 33.7059C214.25 33.7029 214.251 33.6999 214.251 33.6969C214.251 33.6939 214.251 33.6909 214.251 33.6879C214.251 33.6849 214.251 33.6819 214.252 33.6789C214.252 33.6759 214.252 33.6729 214.252 33.6699C214.252 33.667 214.252 33.664 214.252 33.661C214.253 33.658 214.253 33.655 214.253 33.652C214.253 33.649 214.253 33.6461 214.253 33.6431C214.253 33.6401 214.254 33.6371 214.254 33.6341C214.254 33.6312 214.254 33.6282 214.254 33.6252C214.254 33.6222 214.254 33.6193 214.255 33.6163C214.255 33.6133 214.255 33.6103 214.255 33.6074C214.255 33.6044 214.255 33.6014 214.255 33.5985C214.256 33.5955 214.256 33.5925 214.256 33.5896C214.256 33.5866 214.256 33.5836 214.256 33.5807C214.256 33.5777 214.257 33.5748 214.257 33.5718C214.257 33.5689 214.257 33.5659 214.257 33.5629C214.257 33.56 214.257 33.557 214.258 33.5541C214.258 33.5511 214.258 33.5482 214.258 33.5452C214.258 33.5423 214.258 33.5393 214.258 33.5364C214.259 33.5335 214.259 33.5305 214.259 33.5276C214.259 33.5246 214.259 33.5217 214.259 33.5188C214.259 33.5158 214.26 33.5129 214.26 33.5099C214.26 33.507 214.26 33.5041 214.26 33.5011C214.26 33.4982 214.26 33.4953 214.261 33.4923C214.261 33.4894 214.261 33.4865 214.261 33.4836C214.261 33.4806 214.261 33.4777 214.261 33.4748C214.262 33.4719 214.262 33.4689 214.262 33.466C214.262 33.4631 214.262 33.4602 214.262 33.4573C214.262 33.4543 214.263 33.4514 214.263 33.4485C214.263 33.4456 214.263 33.4427 214.263 33.4398C214.263 33.4369 214.263 33.434 214.264 33.431C214.264 33.4281 214.264 33.4252 214.264 33.4223C214.264 33.4194 214.264 33.4165 214.264 33.4136C214.265 33.4107 214.265 33.4078 214.265 33.4049C214.265 33.402 214.265 33.3991 214.265 33.3962C214.265 33.3933 214.266 33.3904 214.266 33.3875C214.266 33.3846 214.266 33.3818 214.266 33.3789C214.266 33.376 214.266 33.3731 214.267 33.3702C214.267 33.3673 214.267 33.3644 214.267 33.3615C214.267 33.3587 214.267 33.3558 214.267 33.3529C214.268 33.35 214.268 33.3471 214.268 33.3443C214.268 33.3414 214.268 33.3385 214.268 33.3356C214.268 33.3328 214.269 33.3299 214.269 33.327C214.269 33.3241 214.269 33.3213 214.269 33.3184C214.269 33.3155 214.269 33.3127 214.27 33.3098C214.27 33.3069 214.27 33.3041 214.27 33.3012C214.27 33.2984 214.27 33.2955 214.27 33.2926C214.271 33.2898 214.271 33.2869 214.271 33.2841C214.271 33.2812 214.271 33.2783 214.271 33.2755C214.271 33.2726 214.271 33.2698 214.272 33.2669C214.272 33.2641 214.272 33.2612 214.272 33.2584C214.272 33.2555 214.272 33.2527 214.272 33.2499C214.273 33.247 214.273 33.2442 214.273 33.2413C214.273 33.2385 214.273 33.2357 214.273 33.2328C214.273 33.23 214.274 33.2271 214.274 33.2243C214.274 33.2215 214.274 33.2186 214.274 33.2158C214.274 33.213 214.274 33.2101 214.275 33.2073C214.275 33.2045 214.275 33.2017 214.275 33.1988C214.275 33.196 214.275 33.1932 214.275 33.1904C214.276 33.1875 214.276 33.1847 214.276 33.1819C214.276 33.1791 214.276 33.1763 214.276 33.1734C214.276 33.1706 214.276 33.1678 214.277 33.165C214.277 33.1622 214.277 33.1594 214.277 33.1566C214.277 33.1538 214.277 33.1509 214.277 33.1481C214.278 33.1453 214.278 33.1425 214.278 33.1397C214.278 33.1369 214.278 33.1341 214.278 33.1313C214.278 33.1285 214.279 33.1257 214.279 33.1229C214.279 33.1201 214.279 33.1173 214.279 33.1145C214.279 33.1117 214.279 33.1089 214.279 33.1061C214.28 33.1033 214.28 33.1006 214.28 33.0978C214.28 33.095 214.28 33.0922 214.28 33.0894C214.28 33.0866 214.281 33.0838 214.281 33.0811C214.281 33.0783 214.281 33.0755 214.281 33.0727C214.281 33.0699 214.281 33.0672 214.282 33.0644C214.282 33.0616 214.282 33.0588 214.282 33.056C214.282 33.0533 214.282 33.0505 214.282 33.0477C214.282 33.045 214.283 33.0422 214.283 33.0394C214.283 33.0367 214.283 33.0339 214.283 33.0311C214.283 33.0284 214.283 33.0256 214.284 33.0228C214.284 33.0201 214.284 33.0173 214.284 33.0146C214.284 33.0118 214.284 33.009 214.284 33.0063C214.284 33.0035 214.285 33.0008 214.285 32.998C214.285 32.9953 214.285 32.9925 214.285 32.9898C214.285 32.987 214.285 32.9843 214.286 32.9815C214.286 32.9788 214.286 32.976 214.286 32.9733C214.286 32.9706 214.286 32.9678 214.286 32.9651C214.286 32.9623 214.287 32.9596 214.287 32.9569C214.287 32.9541 214.287 32.9514 214.287 32.9486C214.287 32.9459 214.287 32.9432 214.288 32.9405C214.288 32.9377 214.288 32.935 214.288 32.9323C214.288 32.9295 214.288 32.9268 214.288 32.9241C214.288 32.9214 214.289 32.9186 214.289 32.9159C214.289 32.9132 214.289 32.9105 214.289 32.9078C214.289 32.905 214.289 32.9023 214.29 32.8996C214.29 32.8969 214.29 32.8942 214.29 32.8915C214.29 32.8887 214.29 32.886 214.29 32.8833C214.29 32.8806 214.291 32.8779 214.291 32.8752C214.291 32.8725 214.291 32.8698 214.291 32.8671C214.291 32.8644 214.291 32.8617 214.292 32.859C214.292 32.8563 214.292 32.8536 214.292 32.8509C214.292 32.8482 214.292 32.8455 214.292 32.8428C214.292 32.8401 214.293 32.8374 214.293 32.8347C214.293 32.832 214.293 32.8293 214.293 32.8267C214.293 32.824 214.293 32.8213 214.294 32.8186C214.294 32.8159 214.294 32.8132 214.294 32.8105C214.294 32.8079 214.294 32.8052 214.294 32.8025C214.294 32.7998 214.295 32.7971 214.295 32.7945C214.295 32.7918 214.295 32.7891 214.295 32.7864C214.295 32.7838 214.295 32.7811 214.295 32.7784C214.296 32.7758 214.296 32.7731 214.296 32.7704C214.296 32.7678 214.296 32.7651 214.296 32.7624C214.296 32.7598 214.297 32.7571 214.297 32.7544C214.297 32.7518 214.297 32.7491 214.297 32.7465C214.297 32.7438 214.297 32.7412 214.297 32.7385C214.298 32.7358 214.298 32.7332 214.298 32.7305C214.298 32.7279 214.298 32.7252 214.298 32.7226C214.298 32.7199 214.298 32.7173 214.299 32.7146C214.299 32.712 214.299 32.7094 214.299 32.7067C214.299 32.7041 214.299 32.7014 214.299 32.6988C214.299 32.6962 214.3 32.6935 214.3 32.6909C214.3 32.6882 214.3 32.6856 214.3 32.683C214.3 32.6803 214.3 32.6777 214.301 32.6751C214.301 32.6724 214.301 32.6698 214.301 32.6672C214.301 32.6646 214.301 32.6619 214.301 32.6593C214.301 32.6567 214.302 32.6541 214.302 32.6514C214.302 32.6488 214.302 32.6462 214.302 32.6436C214.302 32.641 214.302 32.6384 214.302 32.6357C214.303 32.6331 214.303 32.6305 214.303 32.6279C214.303 32.6253 214.303 32.6227 214.303 32.6201C214.303 32.6175 214.303 32.6149 214.304 32.6122C214.304 32.6096 214.304 32.607 214.304 32.6044C214.304 32.6018 214.304 32.5992 214.304 32.5966C214.304 32.594 214.305 32.5914 214.305 32.5888C214.305 32.5862 214.305 32.5836 214.305 32.5811C214.305 32.5785 214.305 32.5759 214.305 32.5733C214.306 32.5707 214.306 32.5681 214.306 32.5655C214.306 32.5629 214.306 32.5603 214.306 32.5578C214.306 32.5552 214.306 32.5526 214.307 32.55C214.307 32.5474 214.307 32.5448 214.307 32.5423C214.307 32.5397 214.307 32.5371 214.307 32.5345C214.307 32.532 214.308 32.5294 214.308 32.5268C214.308 32.5242 214.308 32.5217 214.308 32.5191C214.308 32.5165 214.308 32.514 214.308 32.5114C214.309 32.5088 214.309 32.5063 214.309 32.5037C214.309 32.5011 214.309 32.4986 214.309 32.496C214.309 32.4935 214.309 32.4909 214.31 32.4883C214.31 32.4858 214.31 32.4832 214.31 32.4807C214.31 32.4781 214.31 32.4756 214.31 32.473C214.31 32.4705 214.311 32.4679 214.311 32.4654C214.311 32.4628 214.311 32.4603 214.311 32.4577C214.311 32.4552 214.311 32.4527 214.311 32.4501C214.312 32.4476 214.312 32.445 214.312 32.4425C214.312 32.44 214.312 32.4374 214.312 32.4349C214.312 32.4323 214.312 32.4298 214.313 32.4273C214.313 32.4247 214.313 32.4222 214.313 32.4197C214.313 32.4172 214.313 32.4146 214.313 32.4121C214.313 32.4096 214.314 32.4071 214.314 32.4045C214.314 32.402 214.314 32.3995 214.314 32.397C214.314 32.3944 214.314 32.3919 214.314 32.3894C214.315 32.3869 214.315 32.3844 214.315 32.3819C214.315 32.3793 214.315 32.3768 214.315 32.3743C214.315 32.3718 214.315 32.3693 214.316 32.3668C214.316 32.3643 214.316 32.3618 214.316 32.3593C214.316 32.3568 214.316 32.3543 214.316 32.3518C214.316 32.3493 214.317 32.3468 214.317 32.3443C214.317 32.3418 214.317 32.3393 214.317 32.3368C214.317 32.3343 214.317 32.3318 214.317 32.3293C214.317 32.3268 214.318 32.3243 214.318 32.3218C214.318 32.3193 214.318 32.3168 214.318 32.3144C214.318 32.3119 214.318 32.3094 214.318 32.3069C214.319 32.3044 214.319 32.3019 214.319 32.2995C214.319 32.297 214.319 32.2945 214.319 32.292C214.319 32.2895 214.319 32.2871 214.32 32.2846C214.32 32.2821 214.32 32.2796 214.32 32.2772C214.32 32.2747 214.32 32.2722 214.32 32.2698C214.32 32.2673 214.321 32.2648 214.321 32.2624C214.321 32.2599 214.321 32.2574 214.321 32.255C214.321 32.2525 214.321 32.25 214.321 32.2476C214.321 32.2451 214.322 32.2427 214.322 32.2402C214.322 32.2378 214.322 32.2353 214.322 32.2329C214.322 32.2304 214.322 32.2279 214.322 32.2255C214.323 32.223 214.323 32.2206 214.323 32.2182C214.323 32.2157 214.323 32.2133 214.323 32.2108C214.323 32.2084 214.323 32.2059 214.324 32.2035C214.324 32.201 214.324 32.1986 214.324 32.1962C214.324 32.1937 214.324 32.1913 214.324 32.1889C214.324 32.1864 214.324 32.184 214.325 32.1816C214.325 32.1791 214.325 32.1767 214.325 32.1743C214.325 32.1718 214.325 32.1694 214.325 32.167C214.325 32.1646 214.326 32.1621 214.326 32.1597C214.326 32.1573 214.326 32.1549 214.326 32.1525C214.326 32.15 214.326 32.1476 214.326 32.1452C214.326 32.1428 214.327 32.1404 214.327 32.138C214.327 32.1355 214.327 32.1331 214.327 32.1307C214.327 32.1283 214.327 32.1259 214.327 32.1235C214.328 32.1211 214.328 32.1187 214.328 32.1163C214.328 32.1139 214.328 32.1115 214.328 32.1091C214.328 32.1067 214.328 32.1043 214.328 32.1019C214.329 32.0995 214.329 32.0971 214.329 32.0947C214.329 32.0923 214.329 32.0899 214.329 32.0875C214.329 32.0851 214.329 32.0827 214.33 32.0803C214.33 32.0779 214.33 32.0756 214.33 32.0732C214.33 32.0708 214.33 32.0684 214.33 32.066C214.33 32.0636 214.33 32.0613 214.331 32.0589C214.331 32.0565 214.331 32.0541 214.331 32.0517C214.331 32.0494 214.331 32.047 214.331 32.0446C214.331 32.0422 214.331 32.0399 214.332 32.0375C214.332 32.0351 214.332 32.0328 214.332 32.0304C214.332 32.028 214.332 32.0257 214.332 32.0233C214.332 32.0209 214.333 32.0186 214.333 32.0162C214.333 32.0138 214.333 32.0115 214.333 32.0091C214.333 32.0068 214.333 32.0044 214.333 32.0021C214.333 31.9997 214.334 31.9974 214.334 31.995C214.334 31.9926 214.334 31.9903 214.334 31.9879C214.334 31.9856 214.334 31.9833 214.334 31.9809C214.334 31.9786 214.335 31.9762 214.335 31.9739C214.335 31.9715 214.335 31.9692 214.335 31.9668C214.335 31.9645 214.335 31.9622 214.335 31.9598C214.336 31.9575 214.336 31.9552 214.336 31.9528C214.336 31.9505 214.336 31.9482 214.336 31.9458C214.336 31.9435 214.336 31.9412 214.336 31.9388C214.337 31.9365 214.337 31.9342 214.337 31.9319C214.337 31.9295 214.337 31.9272 214.337 31.9249C214.337 31.9226 214.337 31.9203 214.337 31.9179C214.338 31.9156 214.338 31.9133 214.338 31.911C214.338 31.9087 214.338 31.9064 214.338 31.904C214.338 31.9017 214.338 31.8994 214.338 31.8971C214.339 31.8948 214.339 31.8925 214.339 31.8902C214.339 31.8879 214.339 31.8856 214.339 31.8833C214.339 31.881 214.339 31.8787 214.339 31.8764C214.34 31.8741 214.34 31.8718 214.34 31.8695C214.34 31.8672 214.34 31.8649 214.34 31.8626C214.34 31.8603 214.34 31.858 214.34 31.8557C214.341 31.8534 214.341 31.8511 214.341 31.8488C214.341 31.8465 214.341 31.8443 214.341 31.842C214.341 31.8397 214.341 31.8374 214.341 31.8351C214.342 31.8328 214.342 31.8306 214.342 31.8283C214.342 31.826 214.342 31.8237 214.342 31.8215C214.342 31.8192 214.342 31.8169 214.342 31.8146C214.343 31.8124 214.343 31.8101 214.343 31.8078C214.343 31.8055 214.343 31.8033 214.343 31.801C214.343 31.7987 214.343 31.7965 214.343 31.7942C214.344 31.792 214.344 31.7897 214.344 31.7874C214.344 31.7852 214.344 31.7829 214.344 31.7807C214.344 31.7784 214.344 31.7761 214.344 31.7739C214.345 31.7716 214.345 31.7694 214.345 31.7671C214.345 31.7649 214.345 31.7626 214.345 31.7604C214.345 31.7581 214.345 31.7559 214.345 31.7536C214.346 31.7514 214.346 31.7491 214.346 31.7469C214.346 31.7447 214.346 31.7424 214.346 31.7402C214.346 31.7379 214.346 31.7357 214.346 31.7335C214.347 31.7312 214.347 31.729 214.347 31.7268C214.347 31.7245 214.347 31.7223 214.347 31.7201C214.347 31.7178 214.347 31.7156 214.347 31.7134C214.348 31.7112 214.348 31.7089 214.348 31.7067C214.348 31.7045 214.348 31.7023 214.348 31.7C214.348 31.6978 214.348 31.6956 214.348 31.6934C214.349 31.6912 214.349 31.689 214.349 31.6867C214.349 31.6845 214.349 31.6823 214.349 31.6801C214.349 31.6779 214.349 31.6757 214.349 31.6735C214.349 31.6713 214.35 31.6691 214.35 31.6668C214.35 31.6646 214.35 31.6624 214.35 31.6602C214.35 31.658 214.35 31.6558 214.35 31.6536C214.35 31.6514 214.351 31.6492 214.351 31.647C214.351 31.6448 214.351 31.6426 214.351 31.6405C214.351 31.6383 214.351 31.6361 214.351 31.6339C214.351 31.6317 214.352 31.6295 214.352 31.6273C214.352 31.6251 214.352 31.6229 214.352 31.6208C214.352 31.6186 214.352 31.6164 214.352 31.6142C214.352 31.612 214.352 31.6098 214.353 31.6077C214.353 31.6055 214.353 31.6033 214.353 31.6011C214.353 31.599 214.353 31.5968 214.353 31.5946C214.353 31.5924 214.353 31.5903 214.354 31.5881C214.354 31.5859 214.354 31.5838 214.354 31.5816C214.354 31.5794 214.354 31.5773 214.354 31.5751C214.354 31.573 214.354 31.5708 214.354 31.5686C214.355 31.5665 214.355 31.5643 214.355 31.5622C214.355 31.56 214.355 31.5578 214.355 31.5557C214.355 31.5535 214.355 31.5514 214.355 31.5492C214.356 31.5471 214.356 31.5449 214.356 31.5428C214.356 31.5406 214.356 31.5385 214.356 31.5363C214.356 31.5342 214.356 31.5321 214.356 31.5299C214.356 31.5278 214.357 31.5256 214.357 31.5235C214.357 31.5214 214.357 31.5192 214.357 31.5171C214.357 31.515 214.357 31.5128 214.357 31.5107C214.357 31.5086 214.358 31.5064 214.358 31.5043C214.358 31.5022 214.358 31.5 214.358 31.4979C214.358 31.4958 214.358 31.4937 214.358 31.4915C214.358 31.4894 214.358 31.4873 214.359 31.4852C214.359 31.4831 214.359 31.4809 214.359 31.4788C214.359 31.4767 214.359 31.4746 214.359 31.4725C214.359 31.4704 214.359 31.4682 214.359 31.4661C214.36 31.464 214.36 31.4619 214.36 31.4598C214.36 31.4577 214.36 31.4556 214.36 31.4535C214.36 31.4514 214.36 31.4493 214.36 31.4472C214.361 31.4451 214.361 31.443 214.361 31.4409C214.361 31.4388 214.361 31.4367 214.361 31.4346C214.361 31.4325 214.361 31.4304 214.361 31.4283C214.361 31.4262 214.362 31.4241 214.362 31.422C214.362 31.4199 214.362 31.4179 214.362 31.4158C214.362 31.4137 214.362 31.4116 214.362 31.4095C214.362 31.4074 214.362 31.4054 214.363 31.4033C214.363 31.4012 214.363 31.3991 214.363 31.397C214.363 31.395 214.363 31.3929 214.363 31.3908C214.363 31.3887 214.363 31.3867 214.363 31.3846C214.364 31.3825 214.364 31.3804 214.364 31.3784C214.364 31.3763 214.364 31.3742 214.364 31.3722C214.364 31.3701 214.364 31.3681 214.364 31.366C214.364 31.3639 214.365 31.3619 214.365 31.3598C214.365 31.3577 214.365 31.3557 214.365 31.3536C214.365 31.3516 214.365 31.3495 214.365 31.3475C214.365 31.3454 214.365 31.3434 214.366 31.3413C214.366 31.3393 214.366 31.3372 214.366 31.3352C214.366 31.3331 214.366 31.3311 214.366 31.329C214.366 31.327 214.366 31.325 214.366 31.3229C214.367 31.3209 214.367 31.3188 214.367 31.3168C214.367 31.3148 214.367 31.3127 214.367 31.3107C214.367 31.3087 214.367 31.3066 214.367 31.3046C214.367 31.3026 214.368 31.3005 214.368 31.2985C214.368 31.2965 214.368 31.2944 214.368 31.2924C214.368 31.2904 214.368 31.2884 214.368 31.2863C214.368 31.2843 214.368 31.2823 214.369 31.2803C214.369 31.2783 214.369 31.2762 214.369 31.2742C214.369 31.2722 214.369 31.2702 214.369 31.2682C214.369 31.2662 214.369 31.2642 214.369 31.2622C214.37 31.2601 214.37 31.2581 214.37 31.2561C214.37 31.2541 214.37 31.2521 214.37 31.2501C214.37 31.2481 214.37 31.2461 214.37 31.2441C214.37 31.2421 214.371 31.2401 214.371 31.2381C214.371 31.2361 214.371 31.2341 214.371 31.2321C214.371 31.2301 214.371 31.2281 214.371 31.2261C214.371 31.2241 214.371 31.2222 214.371 31.2202C214.372 31.2182 214.372 31.2162 214.372 31.2142C214.372 31.2122 214.372 31.2102 214.372 31.2083C214.372 31.2063 214.372 31.2043 214.372 31.2023C214.372 31.2003 214.373 31.1984 214.373 31.1964C214.373 31.1944 214.373 31.1924 214.373 31.1905C214.373 31.1885 214.373 31.1865 214.373 31.1845C214.373 31.1826 214.373 31.1806 214.374 31.1786C214.374 31.1767 214.374 31.1747 214.374 31.1727C214.374 31.1708 214.374 31.1688 214.374 31.1668C214.374 31.1649 214.374 31.1629 214.374 31.161C214.374 31.159 214.375 31.1571 214.375 31.1551C214.375 31.1531 214.375 31.1512 214.375 31.1492C214.375 31.1473 214.375 31.1453 214.375 31.1434C214.375 31.1414 214.375 31.1395 214.376 31.1375C214.376 31.1356 214.376 31.1337 214.376 31.1317C214.376 31.1298 214.376 31.1278 214.376 31.1259C214.376 31.1239 214.376 31.122 214.376 31.1201C214.376 31.1181 214.377 31.1162 214.377 31.1143C214.377 31.1123 214.377 31.1104 214.377 31.1085C214.377 31.1065 214.377 31.1046 214.377 31.1027C214.377 31.1008 214.377 31.0988 214.377 31.0969C214.378 31.095 214.378 31.0931 214.378 31.0911C214.378 31.0892 214.378 31.0873 214.378 31.0854C214.378 31.0835 214.378 31.0815 214.378 31.0796C214.378 31.0777 214.379 31.0758 214.379 31.0739C214.379 31.072 214.379 31.0701 214.379 31.0682C214.379 31.0662 214.379 31.0643 214.379 31.0624C214.379 31.0605 214.379 31.0586 214.379 31.0567C214.38 31.0548 214.38 31.0529 214.38 31.051C214.38 31.0491 214.38 31.0472 214.38 31.0453C214.38 31.0434 214.38 31.0415 214.38 31.0396C214.38 31.0377 214.38 31.0358 214.381 31.034C214.381 31.0321 214.381 31.0302 214.381 31.0283C214.381 31.0264 214.381 31.0245 214.381 31.0226C214.381 31.0207 214.381 31.0189 214.381 31.017C214.381 31.0151 214.382 31.0132 214.382 31.0113C214.382 31.0095 214.382 31.0076 214.382 31.0057C214.382 31.0038 214.382 31.002 214.382 31.0001C214.382 30.9982 214.382 30.9963 214.382 30.9945C214.383 30.9926 214.383 30.9907 214.383 30.9889C214.383 30.987 214.383 30.9851 214.383 30.9833C214.383 30.9814 214.383 30.9795 214.383 30.9777C214.383 30.9758 214.383 30.974 214.384 30.9721C214.384 30.9703 214.384 30.9684 214.384 30.9665C214.384 30.9647 214.384 30.9628 214.384 30.961C214.384 30.9591 214.384 30.9573 214.384 30.9554C214.384 30.9536 214.385 30.9517 214.385 30.9499C214.385 30.948 214.385 30.9462 214.385 30.9444C214.385 30.9425 214.385 30.9407 214.385 30.9388C214.385 30.937 214.385 30.9352 214.385 30.9333C214.386 30.9315 214.386 30.9297 214.386 30.9278C214.386 30.926 214.386 30.9242 214.386 30.9223C214.386 30.9205 214.386 30.9187 214.386 30.9168C214.386 30.915 214.386 30.9132 214.387 30.9114C214.387 30.9095 214.387 30.9077 214.387 30.9059C214.387 30.9041 214.387 30.9023 214.387 30.9004C214.387 30.8986 214.387 30.8968 214.387 30.895C214.387 30.8932 214.388 30.8914 214.388 30.8896C214.388 30.8877 214.388 30.8859 214.388 30.8841C214.388 30.8823 214.388 30.8805 214.388 30.8787C214.388 30.8769 214.388 30.8751 214.388 30.8733C214.388 30.8715 214.389 30.8697 214.389 30.8679C214.389 30.8661 214.389 30.8643 214.389 30.8625C214.389 30.8607 214.389 30.8589 214.389 30.8571C214.389 30.8553 214.389 30.8535 214.389 30.8517C214.39 30.85 214.39 30.8482 214.39 30.8464C214.39 30.8446 214.39 30.8428 214.39 30.841C214.39 30.8392 214.39 30.8375 214.39 30.8357C214.39 30.8339 214.39 30.8321 214.39 30.8303C214.391 30.8286 214.391 30.8268 214.391 30.825C214.391 30.8232 214.391 30.8215 214.391 30.8197C214.391 30.8179 214.391 30.8161 214.391 30.8144C214.391 30.8126 214.391 30.8108 214.392 30.8091C214.392 30.8073 214.392 30.8055 214.392 30.8038C214.392 30.802 214.392 30.8003 214.392 30.7985C214.392 30.7967 214.392 30.795 214.392 30.7932C214.392 30.7915 214.392 30.7897 214.393 30.788C214.393 30.7862 214.393 30.7845 214.393 30.7827C214.393 30.781 214.393 30.7792 214.393 30.7775C214.393 30.7757 214.393 30.774 214.393 30.7722C214.393 30.7705 214.393 30.7687 214.394 30.767C214.394 30.7653 214.394 30.7635 214.394 30.7618C214.394 30.76 214.394 30.7583 214.394 30.7566C214.394 30.7548 214.394 30.7531 214.394 30.7514C214.394 30.7496 214.395 30.7479 214.395 30.7462C214.395 30.7444 214.395 30.7427 214.395 30.741C214.395 30.7393 214.395 30.7375 214.395 30.7358C214.395 30.7341 214.395 30.7324 214.395 30.7307C214.395 30.7289 214.396 30.7272 214.396 30.7255C214.396 30.7238 214.396 30.7221 214.396 30.7204C214.396 30.7186 214.396 30.7169 214.396 30.7152C214.396 30.7135 214.396 30.7118 214.396 30.7101C214.396 30.7084 214.397 30.7067 214.397 30.705C214.397 30.7033 214.397 30.7016 214.397 30.6999C214.397 30.6982 214.397 30.6965 214.397 30.6948C214.397 30.6931 214.397 30.6914 214.397 30.6897C214.397 30.688 214.398 30.6863 214.398 30.6846C214.398 30.6829 214.398 30.6812 214.398 30.6795C214.398 30.6778 214.398 30.6761 214.398 30.6745C214.398 30.6728 214.398 30.6711 214.398 30.6694C214.398 30.6677 214.399 30.666 214.399 30.6644C214.399 30.6627 214.399 30.661 214.399 30.6593C214.399 30.6576 214.399 30.656 214.399 30.6543C214.399 30.6526 214.399 30.6509 214.399 30.6493C214.399 30.6476 214.399 30.6459 214.4 30.6443C214.4 30.6426 214.4 30.6409 214.4 30.6393C214.4 30.6376 214.4 30.6359 214.4 30.6343C214.4 30.6326 214.4 30.631 214.4 30.6293C214.4 30.6276 214.4 30.626 214.401 30.6243C214.401 30.6227 214.401 30.621 214.401 30.6194C214.401 30.6177 214.401 30.6161 214.401 30.6144C214.401 30.6128 214.401 30.6111 214.401 30.6095C214.401 30.6078 214.401 30.6062 214.402 30.6045C214.402 30.6029 214.402 30.6012 214.402 30.5996C214.402 30.598 214.402 30.5963 214.402 30.5947C214.402 30.5931 214.402 30.5914 214.402 30.5898C214.402 30.5881 214.402 30.5865 214.402 30.5849C214.403 30.5833 214.403 30.5816 214.403 30.58C214.403 30.5784 214.403 30.5767 214.403 30.5751C214.403 30.5735 214.403 30.5719 214.403 30.5702C214.403 30.5686 214.403 30.567 214.403 30.5654C214.403 30.5638 214.404 30.5621 214.404 30.5605C214.404 30.5589 214.404 30.5573 214.404 30.5557C214.404 30.5541 214.404 30.5525 214.404 30.5509C214.404 30.5492 214.404 30.5476 214.404 30.546C214.404 30.5444 214.405 30.5428 214.405 30.5412C214.405 30.5396 214.405 30.538 214.405 30.5364C214.405 30.5348 214.405 30.5332 214.405 30.5316C214.405 30.53 214.405 30.5284 214.405 30.5268C214.405 30.5252 214.405 30.5236 214.406 30.522C214.406 30.5204 214.406 30.5189 214.406 30.5173C214.406 30.5157 214.406 30.5141 214.406 30.5125C214.406 30.5109 214.406 30.5093 214.406 30.5078C214.406 30.5062 214.406 30.5046 214.406 30.503C214.407 30.5014 214.407 30.4999 214.407 30.4983C214.407 30.4967 214.407 30.4951 214.407 30.4936C214.407 30.492 214.407 30.4904 214.407 30.4888C214.407 30.4873 214.407 30.4857 214.407 30.4841C214.407 30.4826 214.408 30.481 214.408 30.4794L213.409 30.4307C213.409 30.4323 213.409 30.4338 213.409 30.4354C213.408 30.437 213.408 30.4385 213.408 30.4401C213.408 30.4417 213.408 30.4433 213.408 30.4448C213.408 30.4464 213.408 30.448 213.408 30.4496C213.408 30.4511 213.408 30.4527 213.408 30.4543C213.408 30.4559 213.407 30.4575 213.407 30.459C213.407 30.4606 213.407 30.4622 213.407 30.4638C213.407 30.4654 213.407 30.467 213.407 30.4685C213.407 30.4701 213.407 30.4717 213.407 30.4733C213.407 30.4749 213.407 30.4765 213.406 30.4781C213.406 30.4797 213.406 30.4813 213.406 30.4829C213.406 30.4845 213.406 30.4861 213.406 30.4877C213.406 30.4893 213.406 30.4909 213.406 30.4925C213.406 30.4941 213.406 30.4957 213.406 30.4973C213.405 30.4989 213.405 30.5005 213.405 30.5021C213.405 30.5037 213.405 30.5054 213.405 30.507C213.405 30.5086 213.405 30.5102 213.405 30.5118C213.405 30.5134 213.405 30.515 213.405 30.5167C213.405 30.5183 213.404 30.5199 213.404 30.5215C213.404 30.5231 213.404 30.5248 213.404 30.5264C213.404 30.528 213.404 30.5296 213.404 30.5313C213.404 30.5329 213.404 30.5345 213.404 30.5362C213.404 30.5378 213.403 30.5394 213.403 30.5411C213.403 30.5427 213.403 30.5443 213.403 30.546C213.403 30.5476 213.403 30.5492 213.403 30.5509C213.403 30.5525 213.403 30.5542 213.403 30.5558C213.403 30.5575 213.403 30.5591 213.402 30.5607C213.402 30.5624 213.402 30.564 213.402 30.5657C213.402 30.5673 213.402 30.569 213.402 30.5706C213.402 30.5723 213.402 30.5739 213.402 30.5756C213.402 30.5773 213.402 30.5789 213.401 30.5806C213.401 30.5822 213.401 30.5839 213.401 30.5856C213.401 30.5872 213.401 30.5889 213.401 30.5905C213.401 30.5922 213.401 30.5939 213.401 30.5955C213.401 30.5972 213.401 30.5989 213.401 30.6006C213.4 30.6022 213.4 30.6039 213.4 30.6056C213.4 30.6072 213.4 30.6089 213.4 30.6106C213.4 30.6123 213.4 30.614 213.4 30.6156C213.4 30.6173 213.4 30.619 213.4 30.6207C213.399 30.6224 213.399 30.624 213.399 30.6257C213.399 30.6274 213.399 30.6291 213.399 30.6308C213.399 30.6325 213.399 30.6342 213.399 30.6359C213.399 30.6376 213.399 30.6393 213.399 30.6409C213.398 30.6426 213.398 30.6443 213.398 30.646C213.398 30.6477 213.398 30.6494 213.398 30.6511C213.398 30.6528 213.398 30.6545 213.398 30.6562C213.398 30.658 213.398 30.6597 213.398 30.6614C213.397 30.6631 213.397 30.6648 213.397 30.6665C213.397 30.6682 213.397 30.6699 213.397 30.6716C213.397 30.6733 213.397 30.6751 213.397 30.6768C213.397 30.6785 213.397 30.6802 213.397 30.6819C213.396 30.6837 213.396 30.6854 213.396 30.6871C213.396 30.6888 213.396 30.6905 213.396 30.6923C213.396 30.694 213.396 30.6957 213.396 30.6975C213.396 30.6992 213.396 30.7009 213.396 30.7026C213.395 30.7044 213.395 30.7061 213.395 30.7078C213.395 30.7096 213.395 30.7113 213.395 30.7131C213.395 30.7148 213.395 30.7165 213.395 30.7183C213.395 30.72 213.395 30.7218 213.395 30.7235C213.394 30.7252 213.394 30.727 213.394 30.7287C213.394 30.7305 213.394 30.7322 213.394 30.734C213.394 30.7357 213.394 30.7375 213.394 30.7392C213.394 30.741 213.394 30.7427 213.393 30.7445C213.393 30.7463 213.393 30.748 213.393 30.7498C213.393 30.7515 213.393 30.7533 213.393 30.7551C213.393 30.7568 213.393 30.7586 213.393 30.7604C213.393 30.7621 213.393 30.7639 213.392 30.7657C213.392 30.7674 213.392 30.7692 213.392 30.771C213.392 30.7727 213.392 30.7745 213.392 30.7763C213.392 30.7781 213.392 30.7798 213.392 30.7816C213.392 30.7834 213.392 30.7852 213.391 30.787C213.391 30.7887 213.391 30.7905 213.391 30.7923C213.391 30.7941 213.391 30.7959 213.391 30.7977C213.391 30.7994 213.391 30.8012 213.391 30.803C213.391 30.8048 213.39 30.8066 213.39 30.8084C213.39 30.8102 213.39 30.812 213.39 30.8138C213.39 30.8156 213.39 30.8174 213.39 30.8192C213.39 30.821 213.39 30.8228 213.39 30.8246C213.389 30.8264 213.389 30.8282 213.389 30.83C213.389 30.8318 213.389 30.8336 213.389 30.8354C213.389 30.8372 213.389 30.839 213.389 30.8408C213.389 30.8426 213.389 30.8445 213.389 30.8463C213.388 30.8481 213.388 30.8499 213.388 30.8517C213.388 30.8535 213.388 30.8554 213.388 30.8572C213.388 30.859 213.388 30.8608 213.388 30.8626C213.388 30.8645 213.388 30.8663 213.387 30.8681C213.387 30.87 213.387 30.8718 213.387 30.8736C213.387 30.8754 213.387 30.8773 213.387 30.8791C213.387 30.8809 213.387 30.8828 213.387 30.8846C213.387 30.8864 213.386 30.8883 213.386 30.8901C213.386 30.892 213.386 30.8938 213.386 30.8956C213.386 30.8975 213.386 30.8993 213.386 30.9012C213.386 30.903 213.386 30.9049 213.386 30.9067C213.385 30.9086 213.385 30.9104 213.385 30.9123C213.385 30.9141 213.385 30.916 213.385 30.9178C213.385 30.9197 213.385 30.9215 213.385 30.9234C213.385 30.9252 213.385 30.9271 213.384 30.929C213.384 30.9308 213.384 30.9327 213.384 30.9345C213.384 30.9364 213.384 30.9383 213.384 30.9401C213.384 30.942 213.384 30.9439 213.384 30.9457C213.384 30.9476 213.383 30.9495 213.383 30.9514C213.383 30.9532 213.383 30.9551 213.383 30.957C213.383 30.9589 213.383 30.9607 213.383 30.9626C213.383 30.9645 213.383 30.9664 213.383 30.9683C213.382 30.9701 213.382 30.972 213.382 30.9739C213.382 30.9758 213.382 30.9777 213.382 30.9796C213.382 30.9814 213.382 30.9833 213.382 30.9852C213.382 30.9871 213.382 30.989 213.381 30.9909C213.381 30.9928 213.381 30.9947 213.381 30.9966C213.381 30.9985 213.381 31.0004 213.381 31.0023C213.381 31.0042 213.381 31.0061 213.381 31.008C213.381 31.0099 213.38 31.0118 213.38 31.0137C213.38 31.0156 213.38 31.0175 213.38 31.0194C213.38 31.0213 213.38 31.0233 213.38 31.0252C213.38 31.0271 213.38 31.029 213.38 31.0309C213.379 31.0328 213.379 31.0347 213.379 31.0367C213.379 31.0386 213.379 31.0405 213.379 31.0424C213.379 31.0443 213.379 31.0463 213.379 31.0482C213.379 31.0501 213.378 31.052 213.378 31.054C213.378 31.0559 213.378 31.0578 213.378 31.0597C213.378 31.0617 213.378 31.0636 213.378 31.0655C213.378 31.0675 213.378 31.0694 213.378 31.0714C213.377 31.0733 213.377 31.0752 213.377 31.0772C213.377 31.0791 213.377 31.081 213.377 31.083C213.377 31.0849 213.377 31.0869 213.377 31.0888C213.377 31.0908 213.377 31.0927 213.376 31.0947C213.376 31.0966 213.376 31.0986 213.376 31.1005C213.376 31.1025 213.376 31.1044 213.376 31.1064C213.376 31.1083 213.376 31.1103 213.376 31.1122C213.375 31.1142 213.375 31.1162 213.375 31.1181C213.375 31.1201 213.375 31.122 213.375 31.124C213.375 31.126 213.375 31.1279 213.375 31.1299C213.375 31.1319 213.374 31.1338 213.374 31.1358C213.374 31.1378 213.374 31.1398 213.374 31.1417C213.374 31.1437 213.374 31.1457 213.374 31.1477C213.374 31.1496 213.374 31.1516 213.374 31.1536C213.373 31.1556 213.373 31.1576 213.373 31.1595C213.373 31.1615 213.373 31.1635 213.373 31.1655C213.373 31.1675 213.373 31.1695 213.373 31.1714C213.373 31.1734 213.372 31.1754 213.372 31.1774C213.372 31.1794 213.372 31.1814 213.372 31.1834C213.372 31.1854 213.372 31.1874 213.372 31.1894C213.372 31.1914 213.372 31.1934 213.371 31.1954C213.371 31.1974 213.371 31.1994 213.371 31.2014C213.371 31.2034 213.371 31.2054 213.371 31.2074C213.371 31.2094 213.371 31.2114 213.371 31.2134C213.371 31.2154 213.37 31.2175 213.37 31.2195C213.37 31.2215 213.37 31.2235 213.37 31.2255C213.37 31.2275 213.37 31.2295 213.37 31.2316C213.37 31.2336 213.37 31.2356 213.369 31.2376C213.369 31.2396 213.369 31.2417 213.369 31.2437C213.369 31.2457 213.369 31.2477 213.369 31.2498C213.369 31.2518 213.369 31.2538 213.369 31.2559C213.368 31.2579 213.368 31.2599 213.368 31.262C213.368 31.264 213.368 31.266 213.368 31.2681C213.368 31.2701 213.368 31.2722 213.368 31.2742C213.368 31.2762 213.367 31.2783 213.367 31.2803C213.367 31.2824 213.367 31.2844 213.367 31.2865C213.367 31.2885 213.367 31.2905 213.367 31.2926C213.367 31.2946 213.367 31.2967 213.366 31.2988C213.366 31.3008 213.366 31.3029 213.366 31.3049C213.366 31.307 213.366 31.309 213.366 31.3111C213.366 31.3131 213.366 31.3152 213.366 31.3173C213.365 31.3193 213.365 31.3214 213.365 31.3235C213.365 31.3255 213.365 31.3276 213.365 31.3297C213.365 31.3317 213.365 31.3338 213.365 31.3359C213.365 31.3379 213.364 31.34 213.364 31.3421C213.364 31.3442 213.364 31.3462 213.364 31.3483C213.364 31.3504 213.364 31.3525 213.364 31.3545C213.364 31.3566 213.364 31.3587 213.363 31.3608C213.363 31.3629 213.363 31.365 213.363 31.367C213.363 31.3691 213.363 31.3712 213.363 31.3733C213.363 31.3754 213.363 31.3775 213.363 31.3796C213.362 31.3817 213.362 31.3838 213.362 31.3859C213.362 31.388 213.362 31.3901 213.362 31.3922C213.362 31.3943 213.362 31.3964 213.362 31.3985C213.361 31.4006 213.361 31.4027 213.361 31.4048C213.361 31.4069 213.361 31.409 213.361 31.4111C213.361 31.4132 213.361 31.4153 213.361 31.4174C213.361 31.4195 213.36 31.4216 213.36 31.4238C213.36 31.4259 213.36 31.428 213.36 31.4301C213.36 31.4322 213.36 31.4343 213.36 31.4365C213.36 31.4386 213.36 31.4407 213.359 31.4428C213.359 31.4449 213.359 31.4471 213.359 31.4492C213.359 31.4513 213.359 31.4534 213.359 31.4556C213.359 31.4577 213.359 31.4598 213.358 31.462C213.358 31.4641 213.358 31.4662 213.358 31.4684C213.358 31.4705 213.358 31.4726 213.358 31.4748C213.358 31.4769 213.358 31.4791 213.358 31.4812C213.357 31.4833 213.357 31.4855 213.357 31.4876C213.357 31.4898 213.357 31.4919 213.357 31.4941C213.357 31.4962 213.357 31.4984 213.357 31.5005C213.357 31.5027 213.356 31.5048 213.356 31.507C213.356 31.5091 213.356 31.5113 213.356 31.5134C213.356 31.5156 213.356 31.5177 213.356 31.5199C213.356 31.5221 213.355 31.5242 213.355 31.5264C213.355 31.5286 213.355 31.5307 213.355 31.5329C213.355 31.535 213.355 31.5372 213.355 31.5394C213.355 31.5416 213.355 31.5437 213.354 31.5459C213.354 31.5481 213.354 31.5502 213.354 31.5524C213.354 31.5546 213.354 31.5568 213.354 31.5589C213.354 31.5611 213.354 31.5633 213.353 31.5655C213.353 31.5677 213.353 31.5698 213.353 31.572C213.353 31.5742 213.353 31.5764 213.353 31.5786C213.353 31.5808 213.353 31.583 213.352 31.5852C213.352 31.5873 213.352 31.5895 213.352 31.5917C213.352 31.5939 213.352 31.5961 213.352 31.5983C213.352 31.6005 213.352 31.6027 213.352 31.6049C213.351 31.6071 213.351 31.6093 213.351 31.6115C213.351 31.6137 213.351 31.6159 213.351 31.6181C213.351 31.6203 213.351 31.6225 213.351 31.6247C213.35 31.627 213.35 31.6292 213.35 31.6314C213.35 31.6336 213.35 31.6358 213.35 31.638C213.35 31.6402 213.35 31.6424 213.35 31.6447C213.349 31.6469 213.349 31.6491 213.349 31.6513C213.349 31.6535 213.349 31.6558 213.349 31.658C213.349 31.6602 213.349 31.6624 213.349 31.6647C213.348 31.6669 213.348 31.6691 213.348 31.6713C213.348 31.6736 213.348 31.6758 213.348 31.678C213.348 31.6803 213.348 31.6825 213.348 31.6847C213.348 31.687 213.347 31.6892 213.347 31.6915C213.347 31.6937 213.347 31.6959 213.347 31.6982C213.347 31.7004 213.347 31.7027 213.347 31.7049C213.347 31.7072 213.346 31.7094 213.346 31.7117C213.346 31.7139 213.346 31.7162 213.346 31.7184C213.346 31.7207 213.346 31.7229 213.346 31.7252C213.346 31.7274 213.345 31.7297 213.345 31.7319C213.345 31.7342 213.345 31.7364 213.345 31.7387C213.345 31.741 213.345 31.7432 213.345 31.7455C213.345 31.7478 213.344 31.75 213.344 31.7523C213.344 31.7546 213.344 31.7568 213.344 31.7591C213.344 31.7614 213.344 31.7636 213.344 31.7659C213.344 31.7682 213.343 31.7705 213.343 31.7727C213.343 31.775 213.343 31.7773 213.343 31.7796C213.343 31.7818 213.343 31.7841 213.343 31.7864C213.343 31.7887 213.342 31.791 213.342 31.7933C213.342 31.7955 213.342 31.7978 213.342 31.8001C213.342 31.8024 213.342 31.8047 213.342 31.807C213.342 31.8093 213.341 31.8116 213.341 31.8139C213.341 31.8162 213.341 31.8184 213.341 31.8207C213.341 31.823 213.341 31.8253 213.341 31.8276C213.341 31.8299 213.34 31.8322 213.34 31.8345C213.34 31.8368 213.34 31.8392 213.34 31.8415C213.34 31.8438 213.34 31.8461 213.34 31.8484C213.34 31.8507 213.339 31.853 213.339 31.8553C213.339 31.8576 213.339 31.8599 213.339 31.8623C213.339 31.8646 213.339 31.8669 213.339 31.8692C213.339 31.8715 213.338 31.8738 213.338 31.8762C213.338 31.8785 213.338 31.8808 213.338 31.8831C213.338 31.8855 213.338 31.8878 213.338 31.8901C213.337 31.8924 213.337 31.8948 213.337 31.8971C213.337 31.8994 213.337 31.9018 213.337 31.9041C213.337 31.9064 213.337 31.9088 213.337 31.9111C213.336 31.9134 213.336 31.9158 213.336 31.9181C213.336 31.9205 213.336 31.9228 213.336 31.9251C213.336 31.9275 213.336 31.9298 213.336 31.9322C213.335 31.9345 213.335 31.9369 213.335 31.9392C213.335 31.9416 213.335 31.9439 213.335 31.9463C213.335 31.9486 213.335 31.951 213.335 31.9533C213.334 31.9557 213.334 31.958 213.334 31.9604C213.334 31.9628 213.334 31.9651 213.334 31.9675C213.334 31.9698 213.334 31.9722 213.333 31.9746C213.333 31.9769 213.333 31.9793 213.333 31.9817C213.333 31.984 213.333 31.9864 213.333 31.9888C213.333 31.9912 213.333 31.9935 213.332 31.9959C213.332 31.9983 213.332 32.0006 213.332 32.003C213.332 32.0054 213.332 32.0078 213.332 32.0102C213.332 32.0125 213.332 32.0149 213.331 32.0173C213.331 32.0197 213.331 32.0221 213.331 32.0245C213.331 32.0268 213.331 32.0292 213.331 32.0316C213.331 32.034 213.33 32.0364 213.33 32.0388C213.33 32.0412 213.33 32.0436 213.33 32.046C213.33 32.0484 213.33 32.0508 213.33 32.0532C213.33 32.0556 213.329 32.058 213.329 32.0604C213.329 32.0628 213.329 32.0652 213.329 32.0676C213.329 32.07 213.329 32.0724 213.329 32.0748C213.328 32.0772 213.328 32.0796 213.328 32.082C213.328 32.0844 213.328 32.0868 213.328 32.0892C213.328 32.0917 213.328 32.0941 213.328 32.0965C213.327 32.0989 213.327 32.1013 213.327 32.1037C213.327 32.1062 213.327 32.1086 213.327 32.111C213.327 32.1134 213.327 32.1158 213.326 32.1183C213.326 32.1207 213.326 32.1231 213.326 32.1256C213.326 32.128 213.326 32.1304 213.326 32.1328C213.326 32.1353 213.326 32.1377 213.325 32.1401C213.325 32.1426 213.325 32.145 213.325 32.1474C213.325 32.1499 213.325 32.1523 213.325 32.1548C213.325 32.1572 213.324 32.1596 213.324 32.1621C213.324 32.1645 213.324 32.167 213.324 32.1694C213.324 32.1719 213.324 32.1743 213.324 32.1768C213.324 32.1792 213.323 32.1817 213.323 32.1841C213.323 32.1866 213.323 32.189 213.323 32.1915C213.323 32.1939 213.323 32.1964 213.323 32.1989C213.322 32.2013 213.322 32.2038 213.322 32.2062C213.322 32.2087 213.322 32.2112 213.322 32.2136C213.322 32.2161 213.322 32.2186 213.321 32.221C213.321 32.2235 213.321 32.226 213.321 32.2284C213.321 32.2309 213.321 32.2334 213.321 32.2359C213.321 32.2383 213.32 32.2408 213.32 32.2433C213.32 32.2458 213.32 32.2482 213.32 32.2507C213.32 32.2532 213.32 32.2557 213.32 32.2582C213.32 32.2607 213.319 32.2631 213.319 32.2656C213.319 32.2681 213.319 32.2706 213.319 32.2731C213.319 32.2756 213.319 32.2781 213.319 32.2806C213.318 32.2831 213.318 32.2856 213.318 32.2881C213.318 32.2905 213.318 32.293 213.318 32.2955C213.318 32.298 213.318 32.3005 213.317 32.303C213.317 32.3055 213.317 32.308 213.317 32.3106C213.317 32.3131 213.317 32.3156 213.317 32.3181C213.317 32.3206 213.316 32.3231 213.316 32.3256C213.316 32.3281 213.316 32.3306 213.316 32.3331C213.316 32.3357 213.316 32.3382 213.316 32.3407C213.316 32.3432 213.315 32.3457 213.315 32.3482C213.315 32.3508 213.315 32.3533 213.315 32.3558C213.315 32.3583 213.315 32.3609 213.315 32.3634C213.314 32.3659 213.314 32.3684 213.314 32.371C213.314 32.3735 213.314 32.376 213.314 32.3786C213.314 32.3811 213.314 32.3836 213.313 32.3862C213.313 32.3887 213.313 32.3912 213.313 32.3938C213.313 32.3963 213.313 32.3988 213.313 32.4014C213.313 32.4039 213.312 32.4065 213.312 32.409C213.312 32.4116 213.312 32.4141 213.312 32.4167C213.312 32.4192 213.312 32.4218 213.312 32.4243C213.311 32.4269 213.311 32.4294 213.311 32.432C213.311 32.4345 213.311 32.4371 213.311 32.4396C213.311 32.4422 213.311 32.4447 213.31 32.4473C213.31 32.4499 213.31 32.4524 213.31 32.455C213.31 32.4575 213.31 32.4601 213.31 32.4627C213.31 32.4652 213.309 32.4678 213.309 32.4704C213.309 32.473 213.309 32.4755 213.309 32.4781C213.309 32.4807 213.309 32.4832 213.309 32.4858C213.308 32.4884 213.308 32.491 213.308 32.4935C213.308 32.4961 213.308 32.4987 213.308 32.5013C213.308 32.5039 213.308 32.5064 213.307 32.509C213.307 32.5116 213.307 32.5142 213.307 32.5168C213.307 32.5194 213.307 32.522 213.307 32.5246C213.307 32.5271 213.306 32.5297 213.306 32.5323C213.306 32.5349 213.306 32.5375 213.306 32.5401C213.306 32.5427 213.306 32.5453 213.306 32.5479C213.305 32.5505 213.305 32.5531 213.305 32.5557C213.305 32.5583 213.305 32.5609 213.305 32.5635C213.305 32.5661 213.305 32.5687 213.304 32.5713C213.304 32.574 213.304 32.5766 213.304 32.5792C213.304 32.5818 213.304 32.5844 213.304 32.587C213.303 32.5896 213.303 32.5923 213.303 32.5949C213.303 32.5975 213.303 32.6001 213.303 32.6027C213.303 32.6053 213.303 32.608 213.302 32.6106C213.302 32.6132 213.302 32.6158 213.302 32.6185C213.302 32.6211 213.302 32.6237 213.302 32.6264C213.302 32.629 213.301 32.6316 213.301 32.6343C213.301 32.6369 213.301 32.6395 213.301 32.6422C213.301 32.6448 213.301 32.6474 213.301 32.6501C213.3 32.6527 213.3 32.6553 213.3 32.658C213.3 32.6606 213.3 32.6633 213.3 32.6659C213.3 32.6686 213.3 32.6712 213.299 32.6739C213.299 32.6765 213.299 32.6792 213.299 32.6818C213.299 32.6845 213.299 32.6871 213.299 32.6898C213.298 32.6924 213.298 32.6951 213.298 32.6977C213.298 32.7004 213.298 32.7031 213.298 32.7057C213.298 32.7084 213.298 32.711 213.297 32.7137C213.297 32.7164 213.297 32.719 213.297 32.7217C213.297 32.7244 213.297 32.727 213.297 32.7297C213.297 32.7324 213.296 32.735 213.296 32.7377C213.296 32.7404 213.296 32.7431 213.296 32.7457C213.296 32.7484 213.296 32.7511 213.295 32.7538C213.295 32.7565 213.295 32.7591 213.295 32.7618C213.295 32.7645 213.295 32.7672 213.295 32.7699C213.295 32.7726 213.294 32.7752 213.294 32.7779C213.294 32.7806 213.294 32.7833 213.294 32.786C213.294 32.7887 213.294 32.7914 213.294 32.7941C213.293 32.7968 213.293 32.7995 213.293 32.8022C213.293 32.8049 213.293 32.8076 213.293 32.8103C213.293 32.813 213.292 32.8157 213.292 32.8184C213.292 32.8211 213.292 32.8238 213.292 32.8265C213.292 32.8292 213.292 32.8319 213.292 32.8346C213.291 32.8373 213.291 32.84 213.291 32.8427C213.291 32.8455 213.291 32.8482 213.291 32.8509C213.291 32.8536 213.29 32.8563 213.29 32.859C213.29 32.8618 213.29 32.8645 213.29 32.8672C213.29 32.8699 213.29 32.8726 213.29 32.8754C213.289 32.8781 213.289 32.8808 213.289 32.8835C213.289 32.8863 213.289 32.889 213.289 32.8917C213.289 32.8945 213.288 32.8972 213.288 32.8999C213.288 32.9027 213.288 32.9054 213.288 32.9081C213.288 32.9109 213.288 32.9136 213.288 32.9163C213.287 32.9191 213.287 32.9218 213.287 32.9246C213.287 32.9273 213.287 32.9301 213.287 32.9328C213.287 32.9356 213.286 32.9383 213.286 32.9411C213.286 32.9438 213.286 32.9466 213.286 32.9493C213.286 32.9521 213.286 32.9548 213.286 32.9576C213.285 32.9603 213.285 32.9631 213.285 32.9658C213.285 32.9686 213.285 32.9714 213.285 32.9741C213.285 32.9769 213.284 32.9796 213.284 32.9824C213.284 32.9852 213.284 32.9879 213.284 32.9907C213.284 32.9935 213.284 32.9962 213.284 32.999C213.283 33.0018 213.283 33.0046 213.283 33.0073C213.283 33.0101 213.283 33.0129 213.283 33.0157C213.283 33.0184 213.282 33.0212 213.282 33.024C213.282 33.0268 213.282 33.0295 213.282 33.0323C213.282 33.0351 213.282 33.0379 213.281 33.0407C213.281 33.0435 213.281 33.0463 213.281 33.049C213.281 33.0518 213.281 33.0546 213.281 33.0574C213.281 33.0602 213.28 33.063 213.28 33.0658C213.28 33.0686 213.28 33.0714 213.28 33.0742C213.28 33.077 213.28 33.0798 213.279 33.0826C213.279 33.0854 213.279 33.0882 213.279 33.091C213.279 33.0938 213.279 33.0966 213.279 33.0994C213.278 33.1022 213.278 33.105 213.278 33.1078C213.278 33.1107 213.278 33.1135 213.278 33.1163C213.278 33.1191 213.278 33.1219 213.277 33.1247C213.277 33.1275 213.277 33.1304 213.277 33.1332C213.277 33.136 213.277 33.1388 213.277 33.1416C213.276 33.1445 213.276 33.1473 213.276 33.1501C213.276 33.1529 213.276 33.1558 213.276 33.1586C213.276 33.1614 213.275 33.1643 213.275 33.1671C213.275 33.1699 213.275 33.1727 213.275 33.1756C213.275 33.1784 213.275 33.1813 213.274 33.1841C213.274 33.1869 213.274 33.1898 213.274 33.1926C213.274 33.1955 213.274 33.1983 213.274 33.2011C213.274 33.204 213.273 33.2068 213.273 33.2097C213.273 33.2125 213.273 33.2154 213.273 33.2182C213.273 33.2211 213.273 33.2239 213.272 33.2268C213.272 33.2296 213.272 33.2325 213.272 33.2353C213.272 33.2382 213.272 33.2411 213.272 33.2439C213.271 33.2468 213.271 33.2496 213.271 33.2525C213.271 33.2554 213.271 33.2582 213.271 33.2611C213.271 33.2639 213.27 33.2668 213.27 33.2697C213.27 33.2726 213.27 33.2754 213.27 33.2783C213.27 33.2812 213.27 33.284 213.269 33.2869C213.269 33.2898 213.269 33.2927 213.269 33.2955C213.269 33.2984 213.269 33.3013 213.269 33.3042C213.268 33.3071 213.268 33.3099 213.268 33.3128C213.268 33.3157 213.268 33.3186 213.268 33.3215C213.268 33.3244 213.268 33.3273 213.267 33.3301C213.267 33.333 213.267 33.3359 213.267 33.3388C213.267 33.3417 213.267 33.3446 213.267 33.3475C213.266 33.3504 213.266 33.3533 213.266 33.3562C213.266 33.3591 213.266 33.362 213.266 33.3649C213.266 33.3678 213.265 33.3707 213.265 33.3736C213.265 33.3765 213.265 33.3794 213.265 33.3823C213.265 33.3852 213.265 33.3881 213.264 33.3911C213.264 33.394 213.264 33.3969 213.264 33.3998C213.264 33.4027 213.264 33.4056 213.264 33.4085C213.263 33.4115 213.263 33.4144 213.263 33.4173C213.263 33.4202 213.263 33.4231 213.263 33.4261C213.263 33.429 213.262 33.4319 213.262 33.4348C213.262 33.4378 213.262 33.4407 213.262 33.4436C213.262 33.4466 213.262 33.4495 213.261 33.4524C213.261 33.4553 213.261 33.4583 213.261 33.4612C213.261 33.4642 213.261 33.4671 213.261 33.47C213.26 33.473 213.26 33.4759 213.26 33.4788C213.26 33.4818 213.26 33.4847 213.26 33.4877C213.26 33.4906 213.259 33.4936 213.259 33.4965C213.259 33.4995 213.259 33.5024 213.259 33.5054C213.259 33.5083 213.259 33.5113 213.258 33.5142C213.258 33.5172 213.258 33.5201 213.258 33.5231C213.258 33.526 213.258 33.529 213.258 33.532C213.257 33.5349 213.257 33.5379 213.257 33.5408C213.257 33.5438 213.257 33.5468 213.257 33.5497C213.257 33.5527 213.256 33.5557 213.256 33.5586C213.256 33.5616 213.256 33.5646 213.256 33.5676C213.256 33.5705 213.255 33.5735 213.255 33.5765C213.255 33.5795 213.255 33.5824 213.255 33.5854C213.255 33.5884 213.255 33.5914 213.254 33.5944C213.254 33.5973 213.254 33.6003 213.254 33.6033C213.254 33.6063 213.254 33.6093 213.254 33.6123C213.253 33.6152 213.253 33.6182 213.253 33.6212C213.253 33.6242 213.253 33.6272 213.253 33.6302C213.253 33.6332 213.252 33.6362 213.252 33.6392C213.252 33.6422 213.252 33.6452 213.252 33.6482C213.252 33.6512 213.252 33.6542 213.251 33.6572C213.251 33.6602 213.251 33.6632 213.251 33.6662C213.251 33.6692 213.251 33.6722 213.251 33.6752C213.25 33.6782 213.25 33.6812 213.25 33.6843C213.25 33.6873 213.25 33.6903 213.25 33.6933C213.249 33.6963 213.249 33.6993 213.249 33.7023C213.249 33.7054 213.249 33.7084 213.249 33.7114C213.249 33.7144 213.248 33.7174 213.248 33.7205C213.248 33.7235 213.248 33.7265 213.248 33.7295C213.248 33.7326 213.248 33.7356 213.247 33.7386C213.247 33.7417 213.247 33.7447 213.247 33.7477C213.247 33.7508 213.247 33.7538 213.247 33.7568C213.246 33.7599 213.246 33.7629 213.246 33.7659C213.246 33.769 213.246 33.772 213.246 33.7751C213.246 33.7781 213.245 33.7812 213.245 33.7842C213.245 33.7872 213.245 33.7903 213.245 33.7933C213.245 33.7964 213.244 33.7994 213.244 33.8025C213.244 33.8055 213.244 33.8086 213.244 33.8117C213.244 33.8147 213.244 33.8178 213.243 33.8208C213.243 33.8239 213.243 33.8269 213.243 33.83C213.243 33.8331 213.243 33.8361 213.243 33.8392C213.242 33.8422 213.242 33.8453 213.242 33.8484C213.242 33.8514 213.242 33.8545 213.242 33.8576C213.241 33.8607 213.241 33.8637 213.241 33.8668C213.241 33.8699 213.241 33.8729 213.241 33.876C213.241 33.8791 213.24 33.8822 213.24 33.8853C213.24 33.8883 213.24 33.8914 213.24 33.8945C213.24 33.8976 213.24 33.9007 213.239 33.9038C213.239 33.9068 213.239 33.9099 213.239 33.913C213.239 33.9161 213.239 33.9192 213.238 33.9223C213.238 33.9254 213.238 33.9285 213.238 33.9316C213.238 33.9347 213.238 33.9378 213.238 33.9408C213.237 33.9439 213.237 33.947 213.237 33.9501C213.237 33.9532 213.237 33.9563 213.237 33.9595C213.237 33.9626 213.236 33.9657 213.236 33.9688C213.236 33.9719 213.236 33.975 213.236 33.9781C213.236 33.9812 213.235 33.9843 213.235 33.9874C213.235 33.9905 213.235 33.9937 213.235 33.9968C213.235 33.9999 213.235 34.003 213.234 34.0061C213.234 34.0092 213.234 34.0124 213.234 34.0155C213.234 34.0186 213.234 34.0217 213.233 34.0249C213.233 34.028 213.233 34.0311 213.233 34.0342L214.232 34.083ZM213.908 29.9551H213.645V30.9551H213.908V29.9551ZM213.17 30.2987L202.125 63.8436L203.075 64.1564L214.119 30.6114L213.17 30.2987ZM202.6 63.5H194.279V64.5H202.6V63.5ZM260.695 54.8301L260.224 54.6641L260.222 54.668L260.695 54.8301ZM257.502 60.1914L257.141 59.8451L257.141 59.8452L257.502 60.1914ZM252.463 63.4727L252.287 63.0047L252.285 63.0053L252.463 63.4727ZM239.484 63.4727L239.304 63.9388L239.305 63.9395L239.484 63.4727ZM234.475 60.1914L234.114 60.5377L234.119 60.5425L234.475 60.1914ZM231.193 54.8301L230.723 54.9999L230.724 55.0037L231.193 54.8301ZM237.492 32.5938L237.252 32.1555L237.492 32.5938ZM254.162 32.5938L253.92 33.0312L253.921 33.032L254.162 32.5938ZM259.758 38.3359L259.317 38.5718L259.318 38.5744L259.758 38.3359ZM249.797 56.2949L249.498 55.894L249.494 55.8968L249.797 56.2949ZM251.965 52.9844L251.489 52.832L251.487 52.8378L251.965 52.9844ZM251.965 42.1738L251.487 42.3223L251.49 42.33L251.965 42.1738ZM240.744 40.2695L240.327 39.9933L240.325 39.9969L240.744 40.2695ZM261.309 47.5645C261.309 50.2545 260.943 52.6184 260.224 54.6641L261.167 54.996C261.932 52.823 262.309 50.3432 262.309 47.5645H261.309ZM260.222 54.668C259.521 56.7154 258.492 58.4378 257.141 59.8451L257.863 60.5377C259.324 59.0154 260.424 57.1635 261.168 54.9921L260.222 54.668ZM257.141 59.8452C255.809 61.2339 254.193 62.2874 252.287 63.0047L252.639 63.9406C254.678 63.1736 256.422 62.0396 257.863 60.5376L257.141 59.8452ZM252.285 63.0053C250.398 63.7224 248.253 64.0859 245.842 64.0859V65.0859C248.353 65.0859 250.622 64.7073 252.64 63.94L252.285 63.0053ZM245.842 64.0859C243.591 64.0859 241.534 63.7238 239.664 63.0059L239.305 63.9395C241.302 64.7059 243.483 65.0859 245.842 65.0859V64.0859ZM239.665 63.0065C237.816 62.2895 236.206 61.2347 234.831 59.8403L234.119 60.5425C235.595 62.0387 237.324 63.1714 239.304 63.9388L239.665 63.0065ZM234.835 59.8451C233.481 58.4349 232.422 56.7084 231.662 54.6564L230.724 55.0037C231.527 57.1705 232.655 59.0182 234.114 60.5377L234.835 59.8451ZM231.664 54.6603C230.925 52.6158 230.551 50.2532 230.551 47.5645H229.551C229.551 50.3445 229.938 52.8256 230.723 54.9999L231.664 54.6603ZM230.551 47.5645C230.551 43.989 231.185 40.9956 232.429 38.5637L231.539 38.1082C230.205 40.7154 229.551 43.8742 229.551 47.5645H230.551ZM232.429 38.5637C233.675 36.1293 235.441 34.2904 237.733 33.032L237.252 32.1555C234.777 33.5143 232.872 35.5035 231.539 38.1082L232.429 38.5637ZM237.733 33.032C240.028 31.7717 242.783 31.1309 246.018 31.1309V30.1309C242.651 30.1309 239.722 30.7986 237.252 32.1555L237.733 33.032ZM246.018 31.1309C249.011 31.1309 251.64 31.7689 253.92 33.0312L254.404 32.1563C251.957 30.8014 249.157 30.1309 246.018 30.1309V31.1309ZM253.921 33.032C256.215 34.2915 258.013 36.1331 259.317 38.5718L260.199 38.1001C258.808 35.4997 256.875 33.5132 254.403 32.1555L253.921 33.032ZM259.318 38.5744C260.637 41.0037 261.309 43.9931 261.309 47.5645H262.309C262.309 43.8701 261.613 40.7072 260.197 38.0975L259.318 38.5744ZM238.662 47.5645C238.662 49.7457 238.9 51.6074 239.389 53.1368L240.341 52.832C239.893 51.4316 239.662 49.68 239.662 47.5645H238.662ZM239.389 53.1368C239.882 54.677 240.666 55.8779 241.764 56.6959L242.361 55.894C241.467 55.2276 240.786 54.2215 240.341 52.832L239.389 53.1368ZM241.764 56.6959C242.868 57.5188 244.281 57.9082 245.959 57.9082V56.9082C244.434 56.9082 243.249 56.5554 242.361 55.894L241.764 56.6959ZM245.959 57.9082C247.618 57.9082 249.014 57.5183 250.099 56.693L249.494 55.8968C248.627 56.5559 247.464 56.9082 245.959 56.9082V57.9082ZM250.096 56.6959C251.195 55.8765 251.97 54.6734 252.443 53.131L251.487 52.8378C251.061 54.2251 250.391 55.2289 249.498 55.894L250.096 56.6959ZM252.441 53.1368C252.93 51.6074 253.168 49.7457 253.168 47.5645H252.168C252.168 49.68 251.937 51.4316 251.489 52.832L252.441 53.1368ZM253.168 47.5645C253.168 45.3649 252.931 43.5108 252.44 42.0177L251.49 42.33C251.936 43.6884 252.168 45.4281 252.168 47.5645H253.168ZM252.442 42.0254C251.969 40.5012 251.192 39.3166 250.09 38.5172L249.503 39.3266C250.394 39.9725 251.063 40.9558 251.487 42.3222L252.442 42.0254ZM250.09 38.5172C248.987 37.7162 247.576 37.3379 245.9 37.3379V38.3379C247.428 38.3379 248.615 38.6822 249.503 39.3266L250.09 38.5172ZM245.9 37.3379C243.411 37.3379 241.515 38.2012 240.327 39.9933L241.161 40.5457C242.122 39.0957 243.663 38.3379 245.9 38.3379V37.3379ZM240.325 39.9969C239.193 41.7372 238.662 44.284 238.662 47.5645H239.662C239.662 44.3605 240.186 42.0441 241.163 40.5422L240.325 39.9969ZM274.201 62.8281L273.97 63.2715L273.973 63.273L274.201 62.8281ZM269.221 38.0137L268.78 37.7766L268.78 37.7778L269.221 38.0137ZM274.875 32.418L274.654 31.9693L274.653 31.97L274.875 32.418ZM289.143 31.3047L289.011 31.787L289.017 31.7887L289.143 31.3047ZM293.479 32.8574L293.946 33.0356L294.108 32.6099L293.699 32.4088L293.479 32.8574ZM290.842 39.7715L290.655 40.2353L291.127 40.4256L291.309 39.9496L290.842 39.7715ZM286.916 38.3945L286.769 38.8726L286.777 38.8747L286.916 38.3945ZM279.387 38.9512L279.673 39.3612L279.678 39.3575L279.387 38.9512ZM279.504 56.3242L279.223 56.7379L279.228 56.7415L279.504 56.3242ZM288.234 56.6172L288.394 57.0909L288.4 57.0889L288.234 56.6172ZM292.453 54.5078H292.953V53.5809L292.179 54.09L292.453 54.5078ZM292.453 62.1543L292.719 62.5776L292.953 62.4306V62.1543H292.453ZM288.146 64L288.027 63.5145L288.019 63.5165L288.146 64ZM282.492 64.0859C279.309 64.0859 276.628 63.5106 274.429 62.3832L273.973 63.273C276.345 64.4894 279.191 65.0859 282.492 65.0859V64.0859ZM274.432 62.3848C272.25 61.2468 270.585 59.494 269.437 57.1038L268.536 57.5368C269.77 60.1076 271.582 62.0267 273.97 63.2715L274.432 62.3848ZM269.437 57.1038C268.288 54.7126 267.699 51.6195 267.699 47.7988H266.699C266.699 51.7125 267.301 54.9671 268.536 57.5368L269.437 57.1038ZM267.699 47.7988C267.699 43.846 268.365 40.6732 269.662 38.2495L268.78 37.7778C267.381 40.3932 266.699 43.7438 266.699 47.7988H267.699ZM269.661 38.2507C270.983 35.7956 272.795 34.0078 275.097 32.8659L274.653 31.97C272.151 33.211 270.193 35.1536 268.78 37.7766L269.661 38.2507ZM275.096 32.8666C277.438 31.7145 280.162 31.1309 283.283 31.1309V30.1309C280.037 30.1309 277.156 30.7386 274.654 31.9693L275.096 32.8666ZM283.283 31.1309C285.518 31.1309 287.424 31.3527 289.011 31.7869L289.275 30.8224C287.579 30.3583 285.58 30.1309 283.283 30.1309V31.1309ZM289.017 31.7887C290.652 32.2119 292.064 32.7188 293.258 33.3061L293.699 32.4088C292.432 31.7851 290.953 31.2568 289.268 30.8206L289.017 31.7887ZM293.011 32.6793L290.375 39.5933L291.309 39.9496L293.946 33.0356L293.011 32.6793ZM291.029 39.3077C289.61 38.7362 288.285 38.2714 287.055 37.9144L286.777 38.8747C287.969 39.2208 289.261 39.6739 290.655 40.2353L291.029 39.3077ZM287.063 37.9165C285.806 37.5315 284.546 37.3379 283.283 37.3379V38.3379C284.442 38.3379 285.604 38.5154 286.77 38.8726L287.063 37.9165ZM283.283 37.3379C281.64 37.3379 280.233 37.7291 279.095 38.5448L279.678 39.3575C280.611 38.6889 281.801 38.3379 283.283 38.3379V37.3379ZM279.101 38.5412C277.961 39.3369 277.134 40.5273 276.6 42.0687L277.545 42.3962C278.026 41.0079 278.742 40.0108 279.673 39.3612L279.101 38.5412ZM276.6 42.0687C276.068 43.6033 275.811 45.4991 275.811 47.7402H276.811C276.811 45.5673 277.061 43.7912 277.545 42.3962L276.6 42.0687ZM275.811 47.7402C275.811 49.9458 276.088 51.8084 276.664 53.3099L277.598 52.9518C277.08 51.6017 276.811 49.8706 276.811 47.7402H275.811ZM276.664 53.3099C277.239 54.8097 278.086 55.9657 279.223 56.7378L279.785 55.9106C278.851 55.2765 278.116 54.3036 277.598 52.9518L276.664 53.3099ZM279.228 56.7415C280.36 57.4889 281.72 57.8496 283.283 57.8496V56.8496C281.877 56.8496 280.718 56.5267 279.779 55.907L279.228 56.7415ZM283.283 57.8496C285.182 57.8496 286.888 57.5999 288.394 57.0909L288.074 56.1435C286.69 56.6111 285.096 56.8496 283.283 56.8496V57.8496ZM288.4 57.0889C289.886 56.5668 291.329 55.8449 292.728 54.9257L292.179 54.09C290.843 54.9676 289.473 55.652 288.069 56.1455L288.4 57.0889ZM291.953 54.5078V62.1543H292.953V54.5078H291.953ZM292.187 61.731C290.863 62.5632 289.477 63.1568 288.027 63.5146L288.266 64.4854C289.824 64.101 291.309 63.4641 292.719 62.5776L292.187 61.731ZM288.019 63.5165C286.591 63.8922 284.753 64.0859 282.492 64.0859V65.0859C284.802 65.0859 286.733 64.889 288.274 64.4835L288.019 63.5165ZM321.545 31.2461V30.7461H321.302L321.152 30.9366L321.545 31.2461ZM331.389 31.2461L331.774 31.5646L332.451 30.7461H331.389V31.2461ZM318.41 46.9492L318.025 46.6307L317.761 46.9495L318.025 47.2681L318.41 46.9492ZM332.531 64V64.5H333.595L332.916 63.6811L332.531 64ZM322.395 64L322.005 64.3138L322.155 64.5H322.395V64ZM309.006 47.3887L309.395 47.0749L308.506 45.9716V47.3887H309.006ZM309.006 64V64.5H309.506V64H309.006ZM300.07 64H299.57V64.5H300.07V64ZM300.07 31.2461V30.7461H299.57V31.2461H300.07ZM309.006 31.2461H309.506V30.7461H309.006V31.2461ZM309.006 47.1543H308.506V48.5964L309.399 47.4638L309.006 47.1543ZM321.545 31.7461H331.389V30.7461H321.545V31.7461ZM331.003 30.9276L318.025 46.6307L318.796 47.2678L331.774 31.5646L331.003 30.9276ZM318.025 47.2681L332.146 64.3189L332.916 63.6811L318.795 46.6303L318.025 47.2681ZM332.531 63.5H322.395V64.5H332.531V63.5ZM322.784 63.6862L309.395 47.0749L308.617 47.7024L322.005 64.3138L322.784 63.6862ZM308.506 47.3887V64H309.506V47.3887H308.506ZM309.006 63.5H300.07V64.5H309.006V63.5ZM300.57 64V31.2461H299.57V64H300.57ZM300.07 31.7461H309.006V30.7461H300.07V31.7461ZM308.506 31.2461V47.1543H309.506V31.2461H308.506ZM309.399 47.4638L321.938 31.5556L321.152 30.9366L308.613 46.8448L309.399 47.4638ZM364.582 44.3418L364.209 44.0093L364.208 44.0096L364.582 44.3418ZM359.719 46.7148L359.638 46.2214L359.219 46.29V46.7148H359.719ZM359.719 46.9492H359.219V47.3925L359.659 47.4456L359.719 46.9492ZM365.197 49.3223L364.854 49.6859L364.857 49.6885L365.197 49.3223ZM365.812 59.2539L366.229 59.5313L366.23 59.5287L365.812 59.2539ZM361.154 62.7402L361.338 63.2054L361.341 63.2039L361.154 62.7402ZM337.219 64H336.719V64.5H337.219V64ZM337.219 31.2461V30.7461H336.719V31.2461H337.219ZM359.689 32.0664L359.559 32.5492L359.564 32.5504L359.689 32.0664ZM364.494 34.7324L364.129 35.0744L364.494 34.7324ZM356.496 50.9629L356.243 51.394L356.253 51.3996L356.496 50.9629ZM346.154 50.084V49.584H345.654V50.084H346.154ZM346.154 57.8184H345.654V58.3184H346.154V57.8184ZM356.379 56.8809L356.131 56.4467L356.379 56.8809ZM346.154 37.5449V37.0449H345.654V37.5449H346.154ZM346.154 44.0195H345.654V44.5195H346.154V44.0195ZM365.752 39.8301C365.752 41.472 365.236 42.8557 364.209 44.0093L364.955 44.6743C366.155 43.3279 366.752 41.7038 366.752 39.8301H365.752ZM364.208 44.0096C363.212 45.1301 361.71 45.8824 359.638 46.2214L359.799 47.2083C362.024 46.8442 363.764 46.0144 364.956 44.674L364.208 44.0096ZM359.219 46.7148V46.9492H360.219V46.7148H359.219ZM359.659 47.4456C361.84 47.7088 363.56 48.4643 364.854 49.6859L365.54 48.9586C364.062 47.563 362.129 46.7365 359.779 46.4528L359.659 47.4456ZM364.857 49.6885C366.137 50.8786 366.777 52.3746 366.777 54.2148H367.777C367.777 52.1098 367.031 50.3441 365.538 48.9561L364.857 49.6885ZM366.777 54.2148C366.777 55.9978 366.315 57.5809 365.395 58.9791L366.23 59.5287C367.263 57.9581 367.777 56.1818 367.777 54.2148H366.777ZM365.396 58.9766C364.49 60.3356 363.031 61.4435 360.967 62.2766L361.341 63.2039C363.536 62.3182 365.181 61.1019 366.229 59.5313L365.396 58.9766ZM360.971 62.2751C358.922 63.0834 356.208 63.5 352.805 63.5V64.5C356.277 64.5 359.129 64.0768 361.338 63.2054L360.971 62.2751ZM352.805 63.5H337.219V64.5H352.805V63.5ZM337.719 64V31.2461H336.719V64H337.719ZM337.219 31.7461H352.805V30.7461H337.219V31.7461ZM352.805 31.7461C355.328 31.7461 357.579 32.0159 359.559 32.5492L359.819 31.5836C357.738 31.0232 355.398 30.7461 352.805 30.7461V31.7461ZM359.564 32.5504C361.524 33.0593 363.035 33.9074 364.129 35.0744L364.859 34.3905C363.609 33.0574 361.917 32.1282 359.815 31.5824L359.564 32.5504ZM364.129 35.0744C365.194 36.2098 365.752 37.775 365.752 39.8301H366.752C366.752 37.5883 366.138 35.7551 364.859 34.3905L364.129 35.0744ZM358.52 53.7461C358.52 52.2997 357.933 51.192 356.74 50.5262L356.253 51.3996C357.09 51.8666 357.52 52.6144 357.52 53.7461H358.52ZM356.75 50.5319C355.64 49.8792 354.049 49.584 352.043 49.584V50.584C353.982 50.584 355.36 50.8747 356.243 51.3939L356.75 50.5319ZM352.043 49.584H346.154V50.584H352.043V49.584ZM345.654 50.084V57.8184H346.654V50.084H345.654ZM346.154 58.3184H352.219V57.3184H346.154V58.3184ZM352.219 58.3184C353.957 58.3184 355.437 57.9952 356.627 57.315L356.131 56.4467C355.134 57.0165 353.839 57.3184 352.219 57.3184V58.3184ZM356.627 57.315C357.905 56.5849 358.52 55.3555 358.52 53.7461H357.52C357.52 55.0664 357.041 55.9268 356.131 56.4467L356.627 57.315ZM357.699 40.5332C357.699 39.3606 357.222 38.4382 356.258 37.8504L355.738 38.7042C356.375 39.093 356.699 39.6745 356.699 40.5332H357.699ZM356.258 37.8504C355.343 37.2923 354.053 37.0449 352.453 37.0449V38.0449C353.978 38.0449 355.052 38.2859 355.738 38.7042L356.258 37.8504ZM352.453 37.0449H346.154V38.0449H352.453V37.0449ZM345.654 37.5449V44.0195H346.654V37.5449H345.654ZM346.154 44.5195H351.428V43.5195H346.154V44.5195ZM351.428 44.5195C353.356 44.5195 354.892 44.2438 355.979 43.6355L355.49 42.763C354.623 43.2484 353.289 43.5195 351.428 43.5195V44.5195ZM355.979 43.6355C357.131 42.9899 357.699 41.9227 357.699 40.5332H356.699C356.699 41.6046 356.29 42.3147 355.49 42.763L355.979 43.6355ZM374.953 64H374.453V64.5H374.953V64ZM374.953 31.2461V30.7461H374.453V31.2461H374.953ZM383.889 31.2461H384.389V30.7461H383.889V31.2461ZM383.889 43.9023H383.389V44.4023H383.889V43.9023ZM396.457 44.957L396.303 45.4326L396.304 45.433L396.457 44.957ZM401.32 48.1797L400.916 48.4744L400.918 48.477L401.32 48.1797ZM401.438 59.0781L401.014 58.8131L401.438 59.0781ZM383.889 57.8184H383.389V58.3184H383.889V57.8184ZM392.297 56.8809L392.542 57.3169L392.547 57.3136L392.297 56.8809ZM383.889 50.084V49.584H383.389V50.084H383.889ZM407.648 64H407.148V64.5H407.648V64ZM407.648 31.2461V30.7461H407.148V31.2461H407.648ZM416.584 31.2461H417.084V30.7461H416.584V31.2461ZM416.584 64V64.5H417.084V64H416.584ZM375.453 64V31.2461H374.453V64H375.453ZM374.953 31.7461H383.889V30.7461H374.953V31.7461ZM383.389 31.2461V43.9023H384.389V31.2461H383.389ZM383.889 44.4023H388.195V43.4023H383.889V44.4023ZM388.195 44.4023C391.505 44.4023 394.202 44.7513 396.303 45.4326L396.611 44.4814C394.376 43.7565 391.565 43.4023 388.195 43.4023V44.4023ZM396.304 45.433C398.42 46.113 399.94 47.136 400.916 48.4744L401.724 47.885C400.591 46.3327 398.87 45.2073 396.61 44.481L396.304 45.433ZM400.918 48.477C401.896 49.7991 402.402 51.4851 402.402 53.5703H403.402C403.402 51.3196 402.854 49.4119 401.722 47.8823L400.918 48.477ZM402.402 53.5703C402.402 55.5999 401.934 57.3411 401.014 58.8131L401.861 59.3431C402.895 57.6902 403.402 55.7595 403.402 53.5703H402.402ZM401.014 58.8131C400.105 60.2673 398.655 61.4187 396.62 62.2479L396.997 63.174C399.181 62.2845 400.817 61.0139 401.861 59.3431L401.014 58.8131ZM396.62 62.2479C394.593 63.0738 391.9 63.5 388.518 63.5V64.5C391.971 64.5 394.806 64.0668 396.997 63.174L396.62 62.2479ZM388.518 63.5H374.953V64.5H388.518V63.5ZM383.889 58.3184H388.02V57.3184H383.889V58.3184ZM388.02 58.3184C389.814 58.3184 391.331 57.9963 392.542 57.3169L392.052 56.4449C391.036 57.0154 389.702 57.3184 388.02 57.3184V58.3184ZM392.547 57.3136C393.842 56.5643 394.467 55.3175 394.467 53.6875H393.467C393.467 55.0263 392.979 55.9083 392.046 56.4481L392.547 57.3136ZM394.467 53.6875C394.467 52.257 393.878 51.1611 392.687 50.4969L392.2 51.3703C393.04 51.8389 393.467 52.5789 393.467 53.6875H394.467ZM392.687 50.4969C391.561 49.8688 389.945 49.584 387.902 49.584V50.584C389.883 50.584 391.295 50.8656 392.2 51.3703L392.687 50.4969ZM387.902 49.584H383.889V50.584H387.902V49.584ZM383.389 50.084V57.8184H384.389V50.084H383.389ZM408.148 64V31.2461H407.148V64H408.148ZM407.648 31.7461H416.584V30.7461H407.648V31.7461ZM416.084 31.2461V64H417.084V31.2461H416.084ZM416.584 63.5H407.648V64.5H416.584V63.5Z" fill="black"/>
</svg>
