<svg width="416" height="31" viewBox="0 0 416 31" fill="none" xmlns="http://www.w3.org/2000/svg">
<path d="M26.6977 21.6992L26.22 21.5515L26.2193 21.5536L26.6977 21.6992ZM24.2172 26.3477L24.5966 26.6734L24.5982 26.6715L24.2172 26.3477ZM20.057 29.3359L20.2514 29.7966L20.057 29.3359ZM8.26016 29.3359L8.06581 29.7966L8.06709 29.7972L8.26016 29.3359ZM4.10001 26.3281L3.71715 26.6497L3.71904 26.6519L4.10001 26.3281ZM2.26407 7.94922L1.80705 7.7464L1.80649 7.74767L2.26407 7.94922ZM6.69766 2.83203L6.95861 3.25853L6.9594 3.25805L6.69766 2.83203ZM26.0531 7.92969L25.5961 8.13251L25.5976 8.13577L26.0531 7.92969ZM6.63907 21.4062L6.17028 21.5802L6.17075 21.5814L6.63907 21.4062ZM9.39297 25.1172L9.10478 25.5258L9.10971 25.5292L9.39297 25.1172ZM19.0023 25.1172L19.2876 25.5278L19.2905 25.5258L19.0023 25.1172ZM21.7367 21.4062L22.2063 21.578L22.2067 21.5768L21.7367 21.4062ZM20.6039 7.83203L20.194 8.11839L20.1963 8.12159L20.6039 7.83203ZM9.41251 6.26953L9.13123 5.85614L9.12924 5.85751L9.41251 6.26953ZM6.63907 9.96094L7.10692 10.1373L7.10739 10.1361L6.63907 9.96094ZM27.0375 15.6836C27.0375 17.8419 26.7629 19.7964 26.22 21.5515L27.1753 21.847C27.7522 19.9822 28.0375 17.9263 28.0375 15.6836H27.0375ZM26.2193 21.5536C25.6904 23.2916 24.8945 24.7788 23.8362 26.0238L24.5982 26.6715C25.7535 25.3123 26.6112 23.7006 27.176 21.8448L26.2193 21.5536ZM23.8378 26.0219C22.7847 27.2485 21.4628 28.2002 19.8627 28.8753L20.2514 29.7966C21.9846 29.0654 23.4361 28.0249 24.5966 26.6734L23.8378 26.0219ZM19.8627 28.8753C18.2703 29.547 16.3859 29.8906 14.1977 29.8906V30.8906C16.4886 30.8906 18.5104 30.5311 20.2514 29.7966L19.8627 28.8753ZM14.1977 29.8906C11.9692 29.8906 10.0585 29.5467 8.45323 28.8747L8.06709 29.7972C9.82121 30.5314 11.8688 30.8906 14.1977 30.8906V29.8906ZM8.45451 28.8753C6.85557 28.2007 5.53414 27.2433 4.48098 26.0043L3.71904 26.6519C4.87941 28.0171 6.33142 29.0649 8.06581 29.7966L8.45451 28.8753ZM4.48286 26.0065C3.43733 24.7619 2.64717 23.2678 2.1177 21.5155L1.16044 21.8048C1.72472 23.6723 2.57518 25.2902 3.71715 26.6497L4.48286 26.0065ZM2.1177 21.5155C1.58709 19.7595 1.31876 17.8039 1.31876 15.6445H0.318756C0.318756 17.8862 0.597296 19.941 1.16044 21.8048L2.1177 21.5155ZM1.31876 15.6445C1.31876 12.7556 1.79176 10.2619 2.72165 8.15077L1.80649 7.74767C0.809298 10.0116 0.318756 12.648 0.318756 15.6445H1.31876ZM2.72109 8.15204C3.65814 6.04054 5.06937 4.41445 6.95861 3.25853L6.43671 2.40553C4.36762 3.67149 2.82312 5.45686 1.80705 7.7464L2.72109 8.15204ZM6.9594 3.25805C8.85266 2.09487 11.2683 1.49609 14.2367 1.49609V0.496094C11.1374 0.496094 8.52704 1.12127 6.43592 2.40601L6.9594 3.25805ZM14.2367 1.49609C17.1389 1.49609 19.5091 2.0879 21.3769 3.23823L21.9013 2.38677C19.8367 1.11522 17.272 0.496094 14.2367 0.496094V1.49609ZM21.3769 3.23823C23.2533 4.39389 24.6586 6.02009 25.5961 8.13251L26.5101 7.72687C25.4945 5.43825 23.9572 3.65298 21.9013 2.38677L21.3769 3.23823ZM25.5976 8.13577C26.5517 10.2448 27.0375 12.7562 27.0375 15.6836H28.0375C28.0375 12.6475 27.5337 9.98954 26.5087 7.7236L25.5976 8.13577ZM5.24063 15.6836C5.24063 17.9277 5.54584 19.8969 6.17029 21.5802L7.10785 21.2323C6.53438 19.6865 6.24063 17.8405 6.24063 15.6836H5.24063ZM6.17075 21.5814C6.80019 23.2645 7.77529 24.5881 9.1048 25.5258L9.68115 24.7086C8.53671 23.9015 7.67586 22.7512 7.10739 21.2311L6.17075 21.5814ZM9.10971 25.5292C10.4641 26.4603 12.1723 26.9062 14.1977 26.9062V25.9062C12.3167 25.9062 10.8219 25.4928 9.67624 24.7052L9.10971 25.5292ZM14.1977 26.9062C16.2349 26.9062 17.9447 26.4608 19.2876 25.5278L18.7171 24.7066C17.5861 25.4923 16.0927 25.9062 14.1977 25.9062V26.9062ZM19.2905 25.5258C20.621 24.5875 21.59 23.2626 22.2063 21.578L21.2672 21.2345C20.7116 22.753 19.8577 23.9021 18.7142 24.7086L19.2905 25.5258ZM22.2067 21.5768C22.8172 19.8946 23.1156 17.9267 23.1156 15.6836H22.1156C22.1156 17.8415 21.8281 19.6887 21.2667 21.2357L22.2067 21.5768ZM23.1156 15.6836C23.1156 12.2777 22.4341 9.54515 21.0115 7.54248L20.1963 8.12159C21.456 9.89495 22.1156 12.3968 22.1156 15.6836H23.1156ZM21.0138 7.54568C19.568 5.47624 17.2695 4.48047 14.2367 4.48047V5.48047C17.0373 5.48047 18.9836 6.38574 20.194 8.11839L21.0138 7.54568ZM14.2367 4.48047C12.2111 4.48047 10.4976 4.92648 9.13123 5.85615L9.69378 6.68292C10.8535 5.89383 12.3561 5.48047 14.2367 5.48047V4.48047ZM9.12924 5.85751C7.78419 6.78223 6.80088 8.10087 6.17075 9.78579L7.10739 10.1361C7.67517 8.61788 8.54082 7.47558 9.69577 6.68155L9.12924 5.85751ZM6.17122 9.78454C5.54553 11.444 5.24063 13.4145 5.24063 15.6836H6.24063C6.24063 13.4995 6.53469 11.655 7.10692 10.1373L6.17122 9.78454ZM50.3297 11.9922V12.4922H50.8297V11.9922H50.3297ZM43.2203 11.9922V11.4922H42.7203V11.9922H43.2203ZM43.2203 30V30.5H43.7203V30H43.2203ZM38.65 30H38.15V30.5H38.65V30ZM38.65 11.9922H39.15V11.4922H38.65V11.9922ZM31.5797 11.9922H31.0797V12.4922H31.5797V11.9922ZM31.5797 8.37891V7.87891H31.0797V8.37891H31.5797ZM50.3297 8.37891H50.8297V7.87891H50.3297V8.37891ZM50.3297 11.4922H43.2203V12.4922H50.3297V11.4922ZM42.7203 11.9922V30H43.7203V11.9922H42.7203ZM43.2203 29.5H38.65V30.5H43.2203V29.5ZM39.15 30V11.9922H38.15V30H39.15ZM38.65 11.4922H31.5797V12.4922H38.65V11.4922ZM32.0797 11.9922V8.37891H31.0797V11.9922H32.0797ZM31.5797 8.87891H50.3297V7.87891H31.5797V8.87891ZM49.8297 8.37891V11.9922H50.8297V8.37891H49.8297ZM66.3055 8.61328L66.1444 9.08667L66.1503 9.08858L66.3055 8.61328ZM69.3328 10.5078L69.7087 10.1782L69.3328 10.5078ZM69.3133 16.7969L68.9538 16.4494L68.9537 16.4495L69.3133 16.7969ZM66.2859 18.457L66.1577 17.9738L65.7859 18.0724V18.457H66.2859ZM66.2859 18.6328H65.7859V19.0246L66.1663 19.1183L66.2859 18.6328ZM68.7273 19.5898L68.4793 20.024L68.4852 20.0273L68.7273 19.5898ZM70.4656 21.2305L70.0411 21.4948L70.0471 21.5041L70.4656 21.2305ZM70.0555 27.1484L69.6504 26.8553L69.6479 26.8588L70.0555 27.1484ZM58.1609 30.2148L58.2205 29.7184L58.2147 29.7177L58.1609 30.2148ZM55.5242 29.7656L55.3974 30.2493L55.4048 30.2512L55.5242 29.7656ZM53.4539 29.0234H52.9539V29.3355L53.2343 29.4726L53.4539 29.0234ZM53.4539 25.0781L53.6696 24.6271L52.9539 24.2848V25.0781H53.4539ZM56.7156 26.25L56.5828 26.7321L56.5874 26.7333L56.7156 26.25ZM63.7469 26.4648L63.8561 26.9528L63.8614 26.9516L63.7469 26.4648ZM65.8367 25.4492L65.5022 25.0775L65.4976 25.0818L65.8367 25.4492ZM63.8836 20.7617L63.7591 21.246L63.7656 21.2476L63.8836 20.7617ZM57.8484 20.4102H57.3484V20.9102H57.8484V20.4102ZM57.8484 17.0312V16.5312H57.3484V17.0312H57.8484ZM64.6063 16.4062L64.7861 16.8728L64.7891 16.8716L64.6063 16.4062ZM58.3172 11.8945L58.4244 12.3829L58.4301 12.3816L58.3172 11.8945ZM55.1141 12.9102L54.6544 13.1068L54.8488 13.5614L55.3056 13.372L55.1141 12.9102ZM53.6688 9.53125L53.4804 9.06807L53.0088 9.25982L53.209 9.72789L53.6688 9.53125ZM57.4773 8.39844L57.5763 8.88857L57.5808 8.88761L57.4773 8.39844ZM62.0281 8.46875C63.572 8.46875 64.9421 8.67759 66.1444 9.08664L66.4665 8.13992C65.1428 7.6896 63.6613 7.46875 62.0281 7.46875V8.46875ZM66.1503 9.08858C67.3575 9.48278 68.2844 10.0706 68.9569 10.8375L69.7087 10.1782C68.8969 9.25236 67.8055 8.57711 66.4607 8.13798L66.1503 9.08858ZM68.9569 10.8375C69.6092 11.5814 69.9461 12.5143 69.9461 13.6719H70.9461C70.9461 12.3034 70.5408 11.127 69.7087 10.1782L68.9569 10.8375ZM69.9461 13.6719C69.9461 14.8717 69.6015 15.7793 68.9538 16.4494L69.6728 17.1444C70.5355 16.2519 70.9461 15.0762 70.9461 13.6719H69.9461ZM68.9537 16.4495C68.2882 17.1383 67.3664 17.6531 66.1577 17.9738L66.4142 18.9403C67.7576 18.5839 68.854 17.9919 69.6729 17.1443L68.9537 16.4495ZM65.7859 18.457V18.6328H66.7859V18.457H65.7859ZM66.1663 19.1183C67.0243 19.3297 67.7942 19.6325 68.4793 20.024L68.9754 19.1557C68.2022 18.7139 67.3445 18.3787 66.4056 18.1473L66.1663 19.1183ZM68.4852 20.0273C69.1418 20.3908 69.6577 20.8788 70.0412 21.4947L70.8901 20.9662C70.4142 20.2019 69.7712 19.5962 68.9695 19.1524L68.4852 20.0273ZM70.0471 21.5041C70.4221 22.0776 70.6297 22.8466 70.6297 23.8477H71.6297C71.6297 22.7133 71.3946 21.7375 70.8841 20.9568L70.0471 21.5041ZM70.6297 23.8477C70.6297 24.9523 70.3054 25.9502 69.6504 26.8553L70.4605 27.4416C71.2378 26.3675 71.6297 25.1648 71.6297 23.8477H70.6297ZM69.6479 26.8588C69.0144 27.7503 68.0221 28.4872 66.6269 29.0478L66.9997 29.9757C68.5211 29.3644 69.6903 28.5257 70.4631 27.438L69.6479 26.8588ZM66.6269 29.0478C65.2476 29.602 63.4611 29.8906 61.2469 29.8906V30.8906C63.5379 30.8906 65.4623 30.5934 66.9997 29.9757L66.6269 29.0478ZM61.2469 29.8906C60.1841 29.8906 59.1755 29.833 58.2205 29.7184L58.1014 30.7113C59.0995 30.8311 60.1482 30.8906 61.2469 30.8906V29.8906ZM58.2147 29.7177C57.2693 29.6155 56.4128 29.4692 55.6436 29.2801L55.4048 30.2512C56.2242 30.4526 57.1255 30.6058 58.1072 30.7119L58.2147 29.7177ZM55.6511 29.282C54.881 29.08 54.2233 28.843 53.6735 28.5742L53.2343 29.4726C53.8564 29.7768 54.5789 30.0346 55.3974 30.2493L55.6511 29.282ZM53.9539 29.0234V25.0781H52.9539V29.0234H53.9539ZM53.2382 25.5292C54.1703 25.975 55.287 26.375 56.5828 26.732L56.8484 25.768C55.5922 25.4219 54.5344 25.0406 53.6696 24.6271L53.2382 25.5292ZM56.5874 26.7333C57.9094 27.084 59.32 27.2578 60.8172 27.2578V26.2578C59.3977 26.2578 58.0739 26.0931 56.8438 25.7667L56.5874 26.7333ZM60.8172 27.2578C61.9273 27.2578 62.9413 27.1576 63.8561 26.9528L63.6376 25.9769C62.8076 26.1627 61.8685 26.2578 60.8172 26.2578V27.2578ZM63.8614 26.9516C64.805 26.7295 65.5878 26.3595 66.1759 25.8166L65.4976 25.0818C65.07 25.4765 64.4596 25.7835 63.6324 25.9781L63.8614 26.9516ZM66.1712 25.8209C66.8102 25.2458 67.118 24.4791 67.118 23.5742H66.118C66.118 24.2319 65.9049 24.7151 65.5022 25.0776L66.1712 25.8209ZM67.118 23.5742C67.118 22.7415 66.8484 22.0197 66.2929 21.4483L65.5759 22.1454C65.9318 22.5115 66.118 22.9746 66.118 23.5742H67.118ZM66.2929 21.4483C65.7489 20.8888 64.9668 20.5103 64.0016 20.2758L63.7656 21.2476C64.6233 21.4559 65.2084 21.7675 65.5759 22.1454L66.2929 21.4483ZM64.0081 20.2775C63.0416 20.0289 61.8437 19.9102 60.4266 19.9102V20.9102C61.7958 20.9102 62.9027 21.0258 63.7591 21.246L64.0081 20.2775ZM60.4266 19.9102H57.8484V20.9102H60.4266V19.9102ZM58.3484 20.4102V17.0312H57.3484V20.4102H58.3484ZM57.8484 17.5312H60.1141V16.5312H57.8484V17.5312ZM60.1141 17.5312C62.0548 17.5312 63.6226 17.3214 64.7861 16.8728L64.4264 15.9397C63.4284 16.3245 62.0014 16.5312 60.1141 16.5312V17.5312ZM64.7891 16.8716C65.3998 16.6317 65.8965 16.2891 66.2393 15.8239C66.5849 15.3549 66.7469 14.7978 66.7469 14.1797H65.7469C65.7469 14.6163 65.6354 14.9576 65.4342 15.2307C65.2301 15.5077 64.9065 15.7511 64.4234 15.9409L64.7891 16.8716ZM66.7469 14.1797C66.7469 13.1152 66.267 12.2861 65.3442 11.7543L64.8449 12.6207C65.4585 12.9743 65.7469 13.4734 65.7469 14.1797H66.7469ZM65.3442 11.7543C64.4612 11.2454 63.176 11.0234 61.5594 11.0234V12.0234C63.1199 12.0234 64.1914 12.2441 64.8449 12.6207L65.3442 11.7543ZM61.5594 11.0234C60.4276 11.0234 59.309 11.1515 58.2043 11.4074L58.4301 12.3816C59.4608 12.1428 60.5037 12.0234 61.5594 12.0234V11.0234ZM58.21 11.4062C57.1119 11.6472 56.016 11.9949 54.9226 12.4483L55.3056 13.372C56.3476 12.94 57.3871 12.6106 58.4244 12.3829L58.21 11.4062ZM55.5738 12.7135L54.1285 9.33461L53.209 9.72789L54.6544 13.1068L55.5738 12.7135ZM53.8571 9.99443C55.0109 9.52529 56.2503 9.1563 57.5763 8.88855L57.3784 7.90833C55.9961 8.18745 54.6964 8.57367 53.4804 9.06807L53.8571 9.99443ZM57.5808 8.88761C58.8947 8.60968 60.3761 8.46875 62.0281 8.46875V7.46875C60.3208 7.46875 58.7684 7.61427 57.3739 7.90926L57.5808 8.88761ZM76.8906 30H76.3906V30.5H76.8906V30ZM76.8906 8.37891V7.87891H76.3906V8.37891H76.8906ZM81.5 8.37891H82V7.87891H81.5V8.37891ZM81.5 17.0117H81V17.5117H81.5V17.0117ZM90.875 17.7148L90.7071 18.1858L90.7113 18.1873L90.875 17.7148ZM93.8047 19.7852L93.3932 20.0692L93.3932 20.0692L93.8047 19.7852ZM93.8438 26.8359L94.2705 27.0964L94.272 27.094L93.8438 26.8359ZM90.9727 29.1797L91.1663 29.6407L91.1702 29.639L90.9727 29.1797ZM81.5 26.6211H81V27.1211H81.5V26.6211ZM88.8828 25.8789L89.1352 26.3106L89.1372 26.3094L88.8828 25.8789ZM88.9805 21.0938L88.7285 21.5257L88.737 21.5305L88.9805 21.0938ZM81.5 20.4102V19.9102H81V20.4102H81.5ZM98.1016 30H97.6016V30.5H98.1016V30ZM98.1016 8.37891V7.87891H97.6016V8.37891H98.1016ZM102.711 8.37891H103.211V7.87891H102.711V8.37891ZM102.711 30V30.5H103.211V30H102.711ZM77.3906 30V8.37891H76.3906V30H77.3906ZM76.8906 8.87891H81.5V7.87891H76.8906V8.87891ZM81 8.37891V17.0117H82V8.37891H81ZM81.5 17.5117H85.8555V16.5117H81.5V17.5117ZM85.8555 17.5117C87.8532 17.5117 89.4644 17.7429 90.7071 18.1858L91.0429 17.2439C89.6554 16.7493 87.9203 16.5117 85.8555 16.5117V17.5117ZM90.7113 18.1873C91.9503 18.6166 92.8288 19.2514 93.3932 20.0692L94.2162 19.5012C93.5046 18.47 92.43 17.7245 91.0387 17.2424L90.7113 18.1873ZM93.3932 20.0692C93.961 20.892 94.2617 21.9454 94.2617 23.2617H95.2617C95.2617 21.7916 94.9244 20.5273 94.2162 19.5012L93.3932 20.0692ZM94.2617 23.2617C94.2617 24.5521 93.9737 25.6514 93.4155 26.5779L94.272 27.094C94.9377 25.9892 95.2617 24.7057 95.2617 23.2617H94.2617ZM93.417 26.5754C92.8693 27.4726 92.0021 28.1928 90.7752 28.7204L91.1702 29.639C92.5474 29.0468 93.5942 28.2044 94.2705 27.0964L93.417 26.5754ZM90.779 28.7187C89.5608 29.2304 87.9281 29.5 85.8555 29.5V30.5C88.0016 30.5 89.7804 30.2228 91.1663 29.6407L90.779 28.7187ZM85.8555 29.5H76.8906V30.5H85.8555V29.5ZM81.5 27.1211H85.543V26.1211H81.5V27.1211ZM85.543 27.1211C86.9775 27.1211 88.1872 26.8647 89.1352 26.3106L88.6305 25.4473C87.8857 25.8827 86.8688 26.1211 85.543 26.1211V27.1211ZM89.1372 26.3094C90.1758 25.6956 90.6719 24.6808 90.6719 23.3789H89.6719C89.6719 24.3947 89.3086 25.0466 88.6285 25.4484L89.1372 26.3094ZM90.6719 23.3789C90.6719 22.1576 90.2092 21.2062 89.2239 20.657L88.737 21.5305C89.3403 21.8667 89.6719 22.4388 89.6719 23.3789H90.6719ZM89.2324 20.6619C88.3394 20.1409 87.0893 19.9102 85.543 19.9102V20.9102C87.0175 20.9102 88.0591 21.1351 88.7285 21.5256L89.2324 20.6619ZM85.543 19.9102H81.5V20.9102H85.543V19.9102ZM81 20.4102V26.6211H82V20.4102H81ZM98.6016 30V8.37891H97.6016V30H98.6016ZM98.1016 8.87891H102.711V7.87891H98.1016V8.87891ZM102.211 8.37891V30H103.211V8.37891H102.211ZM102.711 29.5H98.1016V30.5H102.711V29.5ZM127.105 16.9922L126.745 16.6446L126.745 16.6447L127.105 16.9922ZM123.98 18.5352L123.888 18.0436L123.48 18.1197V18.5352H123.98ZM123.98 18.6914H123.48V19.1313L123.916 19.1873L123.98 18.6914ZM127.534 20.1953L127.208 20.5738L127.534 20.1953ZM128.023 26.9141L127.603 26.642L127.602 26.6434L128.023 26.9141ZM125.093 29.1797L125.283 29.642L125.286 29.6411L125.093 29.1797ZM110.073 30H109.573V30.5H110.073V30ZM110.073 8.37891V7.87891H109.573V8.37891H110.073ZM124.155 8.90625L124.021 9.38794L124.023 9.38829L124.155 8.90625ZM127.163 10.6445L127.534 10.3094L127.163 10.6445ZM122.945 21.1523L122.693 21.5847L122.696 21.5865L122.945 21.1523ZM114.683 20.4492V19.9492H114.183V20.4492H114.683ZM114.683 26.6211H114.183V27.1211H114.683V26.6211ZM122.925 25.8984L123.175 26.3313L123.18 26.3284L122.925 25.8984ZM122.632 12.4609L122.359 12.8796L122.365 12.8835L122.632 12.4609ZM114.683 11.8359V11.3359H114.183V11.8359H114.683ZM114.683 17.0703H114.183V17.5703H114.683V17.0703ZM122.417 16.4258L122.661 16.8622L122.664 16.8608L122.417 16.4258ZM127.757 13.9258C127.757 15.0645 127.411 15.956 126.745 16.6446L127.464 17.3398C128.335 16.4398 128.757 15.2871 128.757 13.9258H127.757ZM126.745 16.6447C126.078 17.3348 125.139 17.8106 123.888 18.0436L124.071 19.0267C125.476 18.765 126.621 18.2121 127.464 17.3397L126.745 16.6447ZM123.48 18.5352V18.6914H124.48V18.5352H123.48ZM123.916 19.1873C125.252 19.3589 126.341 19.8262 127.208 20.5738L127.861 19.8168C126.826 18.9238 125.546 18.3885 124.043 18.1955L123.916 19.1873ZM127.208 20.5738C128.03 21.2834 128.46 22.2743 128.46 23.6133H129.46C129.46 22.0356 128.94 20.7478 127.861 19.8168L127.208 20.5738ZM128.46 23.6133C128.46 24.7615 128.172 25.7657 127.603 26.642L128.442 27.1862C129.124 26.1353 129.46 24.9391 129.46 23.6133H128.46ZM127.602 26.6434C127.059 27.4873 126.175 28.1863 124.9 28.7183L125.286 29.6411C126.694 29.0533 127.762 28.2418 128.443 27.1847L127.602 26.6434ZM124.903 28.7173C123.657 29.2302 121.991 29.5 119.878 29.5V30.5C122.063 30.5 123.873 30.2229 125.283 29.642L124.903 28.7173ZM119.878 29.5H110.073V30.5H119.878V29.5ZM110.573 30V8.37891H109.573V30H110.573ZM110.073 8.87891H119.839V7.87891H110.073V8.87891ZM119.839 8.87891C121.418 8.87891 122.811 9.05095 124.021 9.38794L124.29 8.42456C122.974 8.05842 121.489 7.87891 119.839 7.87891V8.87891ZM124.023 9.38829C125.227 9.72008 126.139 10.257 126.792 10.9797L127.534 10.3094C126.729 9.41748 125.636 8.79555 124.288 8.42421L124.023 9.38829ZM126.792 10.9797C127.418 11.6724 127.757 12.635 127.757 13.9258H128.757C128.757 12.4562 128.367 11.2313 127.534 10.3094L126.792 10.9797ZM124.675 23.457C124.675 22.238 124.192 21.2891 123.193 20.7182L122.696 21.5865C123.338 21.9531 123.675 22.5406 123.675 23.457H124.675ZM123.196 20.7199C122.277 20.1864 120.988 19.9492 119.39 19.9492V20.9492C120.917 20.9492 121.998 21.1808 122.693 21.5847L123.196 20.7199ZM119.39 19.9492H114.683V20.9492H119.39V19.9492ZM114.183 20.4492V26.6211H115.183V20.4492H114.183ZM114.683 27.1211H119.488V26.1211H114.683V27.1211ZM119.488 27.1211C120.992 27.1211 122.236 26.8741 123.175 26.3313L122.675 25.4656C121.947 25.8864 120.9 26.1211 119.488 26.1211V27.1211ZM123.18 26.3284C124.193 25.7268 124.675 24.731 124.675 23.457H123.675C123.675 24.4487 123.323 25.0805 122.67 25.4685L123.18 26.3284ZM124.089 14.3359C124.089 13.3427 123.702 12.5461 122.899 12.0384L122.365 12.8835C122.838 13.1831 123.089 13.6364 123.089 14.3359H124.089ZM122.905 12.0423C122.144 11.545 121.022 11.3359 119.624 11.3359V12.3359C120.961 12.3359 121.844 12.5435 122.359 12.8796L122.905 12.0423ZM119.624 11.3359H114.683V12.3359H119.624V11.3359ZM114.183 11.8359V17.0703H115.183V11.8359H114.183ZM114.683 17.5703H118.999V16.5703H114.683V17.5703ZM118.999 17.5703C120.542 17.5703 121.783 17.3536 122.661 16.8622L122.173 15.9894C121.515 16.3574 120.478 16.5703 118.999 16.5703V17.5703ZM122.664 16.8608C123.613 16.3231 124.089 15.4536 124.089 14.3359H123.089C123.089 15.1194 122.784 15.6431 122.171 15.9908L122.664 16.8608ZM134.936 30H134.436V30.5H134.936V30ZM134.936 8.37891V7.87891H134.436V8.37891H134.936ZM139.545 8.37891H140.045V7.87891H139.545V8.37891ZM139.545 17.0117H139.045V17.5117H139.545V17.0117ZM148.92 17.7148L148.752 18.1858L148.757 18.1873L148.92 17.7148ZM151.85 19.7852L151.438 20.0692L151.438 20.0692L151.85 19.7852ZM151.889 26.8359L152.316 27.0964L152.317 27.094L151.889 26.8359ZM149.018 29.1797L149.212 29.6407L149.215 29.639L149.018 29.1797ZM139.545 26.6211H139.045V27.1211H139.545V26.6211ZM146.928 25.8789L147.18 26.3106L147.182 26.3094L146.928 25.8789ZM147.026 21.0938L146.774 21.5257L146.782 21.5305L147.026 21.0938ZM139.545 20.4102V19.9102H139.045V20.4102H139.545ZM156.147 30H155.647V30.5H156.147V30ZM156.147 8.37891V7.87891H155.647V8.37891H156.147ZM160.756 8.37891H161.256V7.87891H160.756V8.37891ZM160.756 30V30.5H161.256V30H160.756ZM135.436 30V8.37891H134.436V30H135.436ZM134.936 8.87891H139.545V7.87891H134.936V8.87891ZM139.045 8.37891V17.0117H140.045V8.37891H139.045ZM139.545 17.5117H143.901V16.5117H139.545V17.5117ZM143.901 17.5117C145.899 17.5117 147.51 17.7429 148.752 18.1858L149.088 17.2439C147.701 16.7493 145.966 16.5117 143.901 16.5117V17.5117ZM148.757 18.1873C149.996 18.6166 150.874 19.2514 151.438 20.0692L152.262 19.5012C151.55 18.47 150.475 17.7245 149.084 17.2424L148.757 18.1873ZM151.438 20.0692C152.006 20.892 152.307 21.9454 152.307 23.2617H153.307C153.307 21.7916 152.97 20.5273 152.262 19.5012L151.438 20.0692ZM152.307 23.2617C152.307 24.5521 152.019 25.6514 151.461 26.5779L152.317 27.094C152.983 25.9892 153.307 24.7057 153.307 23.2617H152.307ZM151.462 26.5754C150.915 27.4726 150.047 28.1928 148.82 28.7204L149.215 29.639C150.593 29.0468 151.64 28.2044 152.316 27.0964L151.462 26.5754ZM148.824 28.7187C147.606 29.2304 145.973 29.5 143.901 29.5V30.5C146.047 30.5 147.826 30.2228 149.212 29.6407L148.824 28.7187ZM143.901 29.5H134.936V30.5H143.901V29.5ZM139.545 27.1211H143.588V26.1211H139.545V27.1211ZM143.588 27.1211C145.023 27.1211 146.233 26.8647 147.18 26.3106L146.676 25.4473C145.931 25.8827 144.914 26.1211 143.588 26.1211V27.1211ZM147.182 26.3094C148.221 25.6956 148.717 24.6808 148.717 23.3789H147.717C147.717 24.3947 147.354 25.0466 146.674 25.4484L147.182 26.3094ZM148.717 23.3789C148.717 22.1576 148.255 21.2062 147.269 20.657L146.782 21.5305C147.386 21.8667 147.717 22.4388 147.717 23.3789H148.717ZM147.278 20.6619C146.385 20.1409 145.135 19.9102 143.588 19.9102V20.9102C145.063 20.9102 146.104 21.1351 146.774 21.5256L147.278 20.6619ZM143.588 19.9102H139.545V20.9102H143.588V19.9102ZM139.045 20.4102V26.6211H140.045V20.4102H139.045ZM156.647 30V8.37891H155.647V30H156.647ZM156.147 8.87891H160.756V7.87891H156.147V8.87891ZM160.256 8.37891V30H161.256V8.37891H160.256ZM160.756 29.5H156.147V30.5H160.756V29.5ZM190.305 8.61328L190.144 9.08667L190.15 9.08858L190.305 8.61328ZM193.333 10.5078L193.709 10.1782L193.333 10.5078ZM193.313 16.7969L192.954 16.4494L192.954 16.4495L193.313 16.7969ZM190.286 18.457L190.158 17.9738L189.786 18.0724V18.457H190.286ZM190.286 18.6328H189.786V19.0246L190.166 19.1183L190.286 18.6328ZM192.727 19.5898L192.479 20.024L192.485 20.0273L192.727 19.5898ZM194.466 21.2305L194.041 21.4948L194.047 21.5041L194.466 21.2305ZM194.055 27.1484L193.65 26.8553L193.648 26.8588L194.055 27.1484ZM182.161 30.2148L182.221 29.7184L182.215 29.7177L182.161 30.2148ZM179.524 29.7656L179.397 30.2493L179.405 30.2512L179.524 29.7656ZM177.454 29.0234H176.954V29.3355L177.234 29.4726L177.454 29.0234ZM177.454 25.0781L177.67 24.6271L176.954 24.2848V25.0781H177.454ZM180.716 26.25L180.583 26.7321L180.587 26.7333L180.716 26.25ZM187.747 26.4648L187.856 26.9528L187.861 26.9516L187.747 26.4648ZM189.837 25.4492L189.502 25.0775L189.498 25.0818L189.837 25.4492ZM187.884 20.7617L187.759 21.246L187.766 21.2476L187.884 20.7617ZM181.848 20.4102H181.348V20.9102H181.848V20.4102ZM181.848 17.0312V16.5312H181.348V17.0312H181.848ZM188.606 16.4062L188.786 16.8728L188.789 16.8716L188.606 16.4062ZM182.317 11.8945L182.424 12.3829L182.43 12.3816L182.317 11.8945ZM179.114 12.9102L178.654 13.1068L178.849 13.5614L179.306 13.372L179.114 12.9102ZM177.669 9.53125L177.48 9.06807L177.009 9.25982L177.209 9.72789L177.669 9.53125ZM181.477 8.39844L181.576 8.88857L181.581 8.88761L181.477 8.39844ZM186.028 8.46875C187.572 8.46875 188.942 8.67759 190.144 9.08664L190.467 8.13992C189.143 7.6896 187.661 7.46875 186.028 7.46875V8.46875ZM190.15 9.08858C191.358 9.48278 192.284 10.0706 192.957 10.8375L193.709 10.1782C192.897 9.25236 191.806 8.57711 190.461 8.13798L190.15 9.08858ZM192.957 10.8375C193.609 11.5814 193.946 12.5143 193.946 13.6719H194.946C194.946 12.3034 194.541 11.127 193.709 10.1782L192.957 10.8375ZM193.946 13.6719C193.946 14.8717 193.601 15.7793 192.954 16.4494L193.673 17.1444C194.536 16.2519 194.946 15.0762 194.946 13.6719H193.946ZM192.954 16.4495C192.288 17.1383 191.366 17.6531 190.158 17.9738L190.414 18.9403C191.758 18.5839 192.854 17.9919 193.673 17.1443L192.954 16.4495ZM189.786 18.457V18.6328H190.786V18.457H189.786ZM190.166 19.1183C191.024 19.3297 191.794 19.6325 192.479 20.024L192.975 19.1557C192.202 18.7139 191.344 18.3787 190.406 18.1473L190.166 19.1183ZM192.485 20.0273C193.142 20.3908 193.658 20.8788 194.041 21.4947L194.89 20.9662C194.414 20.2019 193.771 19.5962 192.97 19.1524L192.485 20.0273ZM194.047 21.5041C194.422 22.0776 194.63 22.8466 194.63 23.8477H195.63C195.63 22.7133 195.395 21.7375 194.884 20.9568L194.047 21.5041ZM194.63 23.8477C194.63 24.9523 194.305 25.9502 193.65 26.8553L194.461 27.4416C195.238 26.3675 195.63 25.1648 195.63 23.8477H194.63ZM193.648 26.8588C193.014 27.7503 192.022 28.4872 190.627 29.0478L191 29.9757C192.521 29.3644 193.69 28.5257 194.463 27.438L193.648 26.8588ZM190.627 29.0478C189.248 29.602 187.461 29.8906 185.247 29.8906V30.8906C187.538 30.8906 189.462 30.5934 191 29.9757L190.627 29.0478ZM185.247 29.8906C184.184 29.8906 183.175 29.833 182.221 29.7184L182.101 30.7113C183.1 30.8311 184.148 30.8906 185.247 30.8906V29.8906ZM182.215 29.7177C181.269 29.6155 180.413 29.4692 179.644 29.2801L179.405 30.2512C180.224 30.4526 181.125 30.6058 182.107 30.7119L182.215 29.7177ZM179.651 29.282C178.881 29.08 178.223 28.843 177.674 28.5742L177.234 29.4726C177.856 29.7768 178.579 30.0346 179.397 30.2493L179.651 29.282ZM177.954 29.0234V25.0781H176.954V29.0234H177.954ZM177.238 25.5292C178.17 25.975 179.287 26.375 180.583 26.732L180.848 25.768C179.592 25.4219 178.534 25.0406 177.67 24.6271L177.238 25.5292ZM180.587 26.7333C181.909 27.084 183.32 27.2578 184.817 27.2578V26.2578C183.398 26.2578 182.074 26.0931 180.844 25.7667L180.587 26.7333ZM184.817 27.2578C185.927 27.2578 186.941 27.1576 187.856 26.9528L187.638 25.9769C186.808 26.1627 185.869 26.2578 184.817 26.2578V27.2578ZM187.861 26.9516C188.805 26.7295 189.588 26.3595 190.176 25.8166L189.498 25.0818C189.07 25.4765 188.46 25.7835 187.632 25.9781L187.861 26.9516ZM190.171 25.8209C190.81 25.2458 191.118 24.4791 191.118 23.5742H190.118C190.118 24.2319 189.905 24.7151 189.502 25.0776L190.171 25.8209ZM191.118 23.5742C191.118 22.7415 190.848 22.0197 190.293 21.4483L189.576 22.1454C189.932 22.5115 190.118 22.9746 190.118 23.5742H191.118ZM190.293 21.4483C189.749 20.8888 188.967 20.5103 188.002 20.2758L187.766 21.2476C188.623 21.4559 189.208 21.7675 189.576 22.1454L190.293 21.4483ZM188.008 20.2775C187.042 20.0289 185.844 19.9102 184.427 19.9102V20.9102C185.796 20.9102 186.903 21.0258 187.759 21.246L188.008 20.2775ZM184.427 19.9102H181.848V20.9102H184.427V19.9102ZM182.348 20.4102V17.0312H181.348V20.4102H182.348ZM181.848 17.5312H184.114V16.5312H181.848V17.5312ZM184.114 17.5312C186.055 17.5312 187.623 17.3214 188.786 16.8728L188.426 15.9397C187.428 16.3245 186.001 16.5312 184.114 16.5312V17.5312ZM188.789 16.8716C189.4 16.6317 189.896 16.2891 190.239 15.8239C190.585 15.3549 190.747 14.7978 190.747 14.1797H189.747C189.747 14.6163 189.635 14.9576 189.434 15.2307C189.23 15.5077 188.906 15.7511 188.423 15.9409L188.789 16.8716ZM190.747 14.1797C190.747 13.1152 190.267 12.2861 189.344 11.7543L188.845 12.6207C189.458 12.9743 189.747 13.4734 189.747 14.1797H190.747ZM189.344 11.7543C188.461 11.2454 187.176 11.0234 185.559 11.0234V12.0234C187.12 12.0234 188.191 12.2441 188.845 12.6207L189.344 11.7543ZM185.559 11.0234C184.428 11.0234 183.309 11.1515 182.204 11.4074L182.43 12.3816C183.461 12.1428 184.504 12.0234 185.559 12.0234V11.0234ZM182.21 11.4062C181.112 11.6472 180.016 11.9949 178.923 12.4483L179.306 13.372C180.348 12.94 181.387 12.6106 182.424 12.3829L182.21 11.4062ZM179.574 12.7135L178.128 9.33461L177.209 9.72789L178.654 13.1068L179.574 12.7135ZM177.857 9.99443C179.011 9.52529 180.25 9.1563 181.576 8.88855L181.378 7.90833C179.996 8.18745 178.696 8.57367 177.48 9.06807L177.857 9.99443ZM181.581 8.88761C182.895 8.60968 184.376 8.46875 186.028 8.46875V7.46875C184.321 7.46875 182.768 7.61427 181.374 7.90926L181.581 8.88761ZM215.559 9.78516L215.231 10.1625L215.232 10.164L215.559 9.78516ZM217.668 30V30.5H218.168V30H217.668ZM214.406 30L213.926 30.1378L214.029 30.5H214.406V30ZM213.527 26.9336L214.008 26.7958L213.904 26.4336H213.527V26.9336ZM213.371 26.9336V26.4336H213.128L212.977 26.6253L213.371 26.9336ZM209.211 30L209.073 29.5194L209.064 29.5221L209.211 30ZM202.648 29.6875L202.434 30.1393L202.439 30.1415L202.648 29.6875ZM201.848 18.7695L201.569 18.3545L201.567 18.3555L201.848 18.7695ZM209.387 16.9141L209.404 17.4138L209.405 17.4137L209.387 16.9141ZM213.137 16.7773L213.155 17.277L213.637 17.2594V16.7773H213.137ZM212.082 12.4414L211.743 12.8086L211.746 12.8117L212.082 12.4414ZM203.039 13.1055L202.584 13.3136L202.795 13.7739L203.253 13.5575L203.039 13.1055ZM201.555 9.86328L201.32 9.42165L200.904 9.64273L201.1 10.0714L201.555 9.86328ZM205.148 8.49609L205.023 8.01214L205.022 8.01244L205.148 8.49609ZM213.117 19.668H213.617V19.1502L213.1 19.1683L213.117 19.668ZM210.324 19.7656L210.341 20.2653L210.342 20.2653L210.324 19.7656ZM205.07 26.1719L204.764 26.567L204.769 26.5709L205.07 26.1719ZM211.535 25.5469L211.862 25.9255L211.862 25.9252L211.535 25.5469ZM209.367 8.46875C212.037 8.46875 213.963 9.06117 215.231 10.1625L215.887 9.40778C214.367 8.08727 212.166 7.46875 209.367 7.46875V8.46875ZM215.232 10.164C216.491 11.2477 217.168 12.9716 217.168 15.4492H218.168C218.168 12.7967 217.439 10.7445 215.885 9.40627L215.232 10.164ZM217.168 15.4492V30H218.168V15.4492H217.168ZM217.668 29.5H214.406V30.5H217.668V29.5ZM214.887 29.8622L214.008 26.7958L213.047 27.0714L213.926 30.1378L214.887 29.8622ZM213.527 26.4336H213.371V27.4336H213.527V26.4336ZM212.977 26.6253C212.386 27.3807 211.782 27.9946 211.169 28.4729L211.784 29.2614C212.473 28.7242 213.133 28.049 213.765 27.2419L212.977 26.6253ZM211.169 28.4729C210.572 28.9383 209.876 29.2883 209.073 29.5195L209.349 30.4805C210.265 30.2169 211.079 29.8117 211.784 29.2614L211.169 28.4729ZM209.064 29.5221C208.279 29.7635 207.297 29.8906 206.105 29.8906V30.8906C207.362 30.8906 208.45 30.7574 209.358 30.4779L209.064 29.5221ZM206.105 29.8906C204.878 29.8906 203.799 29.6677 202.858 29.2335L202.439 30.1415C203.53 30.6448 204.755 30.8906 206.105 30.8906V29.8906ZM202.863 29.2357C201.937 28.7968 201.211 28.1359 200.675 27.2428L199.817 27.7572C200.453 28.8172 201.328 29.6146 202.434 30.1393L202.863 29.2357ZM200.675 27.2428C200.148 26.3647 199.867 25.2236 199.867 23.7891H198.867C198.867 25.3493 199.172 26.6822 199.817 27.7572L200.675 27.2428ZM199.867 23.7891C199.867 21.7061 200.629 20.1985 202.128 19.1835L201.567 18.3555C199.759 19.5802 198.867 21.4189 198.867 23.7891H199.867ZM202.127 19.1846C203.679 18.1411 206.082 17.5296 209.404 17.4138L209.369 16.4144C205.973 16.5329 203.349 17.1583 201.569 18.3545L202.127 19.1846ZM209.405 17.4137L213.155 17.277L213.119 16.2777L209.369 16.4144L209.405 17.4137ZM213.637 16.7773V15.6445H212.637V16.7773H213.637ZM213.637 15.6445C213.637 14.0861 213.273 12.8469 212.418 12.0711L211.746 12.8117C212.297 13.312 212.637 14.2082 212.637 15.6445H213.637ZM212.421 12.0743C211.611 11.325 210.497 10.9844 209.152 10.9844V11.9844C210.334 11.9844 211.173 12.2818 211.743 12.8085L212.421 12.0743ZM209.152 10.9844C208.023 10.9844 206.925 11.1478 205.861 11.4752L206.155 12.431C207.122 12.1334 208.121 11.9844 209.152 11.9844V10.9844ZM205.861 11.4752C204.822 11.7948 203.81 12.1876 202.825 12.6535L203.253 13.5575C204.195 13.1119 205.162 12.7365 206.155 12.431L205.861 11.4752ZM203.494 12.8973L202.009 9.65514L201.1 10.0714L202.584 13.3136L203.494 12.8973ZM201.789 10.3049C202.805 9.76577 203.966 9.32304 205.275 8.97975L205.022 8.01244C203.649 8.37227 202.414 8.841 201.32 9.42165L201.789 10.3049ZM205.274 8.98005C206.586 8.63958 207.949 8.46875 209.367 8.46875V7.46875C207.868 7.46875 206.42 7.64948 205.023 8.01214L205.274 8.98005ZM213.1 19.1683L210.307 19.2659L210.342 20.2653L213.135 20.1677L213.1 19.1683ZM210.307 19.2659C207.996 19.3447 206.252 19.737 205.197 20.5395L205.803 21.3355C206.596 20.7317 208.069 20.3428 210.341 20.2653L210.307 19.2659ZM205.197 20.5395C204.141 21.343 203.613 22.4578 203.613 23.8281H204.613C204.613 22.7506 205.01 21.9383 205.803 21.3355L205.197 20.5395ZM203.613 23.8281C203.613 24.9965 203.967 25.9488 204.764 26.567L205.377 25.7768C204.898 25.4054 204.613 24.7952 204.613 23.8281H203.613ZM204.769 26.5709C205.517 27.1356 206.472 27.3945 207.59 27.3945V26.3945C206.624 26.3945 205.9 26.1717 205.372 25.7729L204.769 26.5709ZM207.59 27.3945C209.279 27.3945 210.715 26.9142 211.862 25.9255L211.209 25.1683C210.272 25.9764 209.078 26.3945 207.59 26.3945V27.3945ZM211.862 25.9252C213.054 24.8949 213.617 23.4051 213.617 21.543H212.617C212.617 23.1964 212.125 24.3759 211.208 25.1686L211.862 25.9252ZM213.617 21.543V19.668H212.617V21.543H213.617ZM238.292 8.37891V7.87891H238.059L237.909 8.05776L238.292 8.37891ZM243.351 8.37891L243.73 8.70512L244.441 7.87891H243.351V8.37891ZM234.405 18.7695L234.027 18.4433L233.745 18.7702L234.027 19.0965L234.405 18.7695ZM244.113 30V30.5H245.206L244.491 29.673L244.113 30ZM238.82 30L238.438 30.3235L238.588 30.5H238.82V30ZM229.503 19.0234L229.884 18.6999L229.003 17.6617V19.0234H229.503ZM229.503 30V30.5H230.003V30H229.503ZM224.894 30H224.394V30.5H224.894V30ZM224.894 8.37891V7.87891H224.394V8.37891H224.894ZM229.503 8.37891H230.003V7.87891H229.503V8.37891ZM229.503 18.8672H229.003V20.2423L229.886 19.1883L229.503 18.8672ZM238.292 8.87891H243.351V7.87891H238.292V8.87891ZM242.972 8.05269L234.027 18.4433L234.784 19.0957L243.73 8.70512L242.972 8.05269ZM234.027 19.0965L243.734 30.327L244.491 29.673L234.784 18.4426L234.027 19.0965ZM244.113 29.5H238.82V30.5H244.113V29.5ZM239.201 29.6765L229.884 18.6999L229.122 19.347L238.438 30.3235L239.201 29.6765ZM229.003 19.0234V30H230.003V19.0234H229.003ZM229.503 29.5H224.894V30.5H229.503V29.5ZM225.394 30V8.37891H224.394V30H225.394ZM224.894 8.87891H229.503V7.87891H224.894V8.87891ZM229.003 8.37891V18.8672H230.003V8.37891H229.003ZM229.886 19.1883L238.675 8.70005L237.909 8.05776L229.12 18.546L229.886 19.1883ZM263.096 9.78516L262.768 10.1625L262.77 10.164L263.096 9.78516ZM265.205 30V30.5H265.705V30H265.205ZM261.944 30L261.463 30.1378L261.567 30.5H261.944V30ZM261.065 26.9336L261.545 26.7958L261.442 26.4336H261.065V26.9336ZM260.909 26.9336V26.4336H260.665L260.515 26.6253L260.909 26.9336ZM256.748 30L256.61 29.5194L256.601 29.5221L256.748 30ZM250.186 29.6875L249.972 30.1393L249.976 30.1415L250.186 29.6875ZM249.385 18.7695L249.106 18.3545L249.105 18.3555L249.385 18.7695ZM256.924 16.9141L256.942 17.4138L256.942 17.4137L256.924 16.9141ZM260.674 16.7773L260.692 17.277L261.174 17.2594V16.7773H260.674ZM259.62 12.4414L259.28 12.8086L259.284 12.8117L259.62 12.4414ZM250.577 13.1055L250.122 13.3136L250.333 13.7739L250.79 13.5575L250.577 13.1055ZM249.092 9.86328L248.858 9.42165L248.441 9.64273L248.638 10.0714L249.092 9.86328ZM252.686 8.49609L252.56 8.01214L252.559 8.01244L252.686 8.49609ZM260.655 19.668H261.155V19.1502L260.637 19.1683L260.655 19.668ZM257.862 19.7656L257.879 20.2653L257.879 20.2653L257.862 19.7656ZM252.608 26.1719L252.301 26.567L252.307 26.5709L252.608 26.1719ZM259.073 25.5469L259.399 25.9255L259.4 25.9252L259.073 25.5469ZM256.905 8.46875C259.575 8.46875 261.501 9.06117 262.768 10.1625L263.424 9.40778C261.905 8.08727 259.703 7.46875 256.905 7.46875V8.46875ZM262.77 10.164C264.028 11.2477 264.705 12.9716 264.705 15.4492H265.705C265.705 12.7967 264.976 10.7445 263.422 9.40627L262.77 10.164ZM264.705 15.4492V30H265.705V15.4492H264.705ZM265.205 29.5H261.944V30.5H265.205V29.5ZM262.424 29.8622L261.545 26.7958L260.584 27.0714L261.463 30.1378L262.424 29.8622ZM261.065 26.4336H260.909V27.4336H261.065V26.4336ZM260.515 26.6253C259.923 27.3807 259.32 27.9946 258.707 28.4729L259.322 29.2614C260.01 28.7242 260.67 28.049 261.302 27.2419L260.515 26.6253ZM258.707 28.4729C258.11 28.9383 257.413 29.2883 256.61 29.5195L256.887 30.4805C257.802 30.2169 258.616 29.8117 259.322 29.2614L258.707 28.4729ZM256.601 29.5221C255.817 29.7635 254.835 29.8906 253.643 29.8906V30.8906C254.899 30.8906 255.987 30.7574 256.895 30.4779L256.601 29.5221ZM253.643 29.8906C252.415 29.8906 251.336 29.6677 250.395 29.2335L249.976 30.1415C251.067 30.6448 252.293 30.8906 253.643 30.8906V29.8906ZM250.4 29.2357C249.475 28.7968 248.748 28.1359 248.212 27.2428L247.355 27.7572C247.991 28.8172 248.866 29.6146 249.972 30.1393L250.4 29.2357ZM248.212 27.2428C247.686 26.3647 247.405 25.2236 247.405 23.7891H246.405C246.405 25.3493 246.71 26.6822 247.355 27.7572L248.212 27.2428ZM247.405 23.7891C247.405 21.7061 248.167 20.1985 249.666 19.1835L249.105 18.3555C247.296 19.5802 246.405 21.4189 246.405 23.7891H247.405ZM249.664 19.1846C251.217 18.1411 253.62 17.5296 256.942 17.4138L256.907 16.4144C253.51 16.5329 250.887 17.1583 249.106 18.3545L249.664 19.1846ZM256.942 17.4137L260.692 17.277L260.656 16.2777L256.906 16.4144L256.942 17.4137ZM261.174 16.7773V15.6445H260.174V16.7773H261.174ZM261.174 15.6445C261.174 14.0861 260.81 12.8469 259.956 12.0711L259.284 12.8117C259.835 13.312 260.174 14.2082 260.174 15.6445H261.174ZM259.959 12.0743C259.149 11.325 258.035 10.9844 256.69 10.9844V11.9844C257.871 11.9844 258.71 12.2818 259.28 12.8085L259.959 12.0743ZM256.69 10.9844C255.56 10.9844 254.462 11.1478 253.398 11.4752L253.692 12.431C254.66 12.1334 255.658 11.9844 256.69 11.9844V10.9844ZM253.398 11.4752C252.36 11.7948 251.348 12.1876 250.363 12.6535L250.79 13.5575C251.732 13.1119 252.7 12.7365 253.692 12.431L253.398 11.4752ZM251.031 12.8973L249.547 9.65514L248.638 10.0714L250.122 13.3136L251.031 12.8973ZM249.327 10.3049C250.342 9.76577 251.503 9.32304 252.813 8.97975L252.559 8.01244C251.186 8.37227 249.952 8.841 248.858 9.42165L249.327 10.3049ZM252.812 8.98005C254.123 8.63958 255.487 8.46875 256.905 8.46875V7.46875C255.406 7.46875 253.957 7.64948 252.56 8.01214L252.812 8.98005ZM260.637 19.1683L257.844 19.2659L257.879 20.2653L260.672 20.1677L260.637 19.1683ZM257.845 19.2659C255.534 19.3447 253.79 19.737 252.735 20.5395L253.34 21.3355C254.134 20.7317 255.606 20.3428 257.879 20.2653L257.845 19.2659ZM252.735 20.5395C251.678 21.343 251.151 22.4578 251.151 23.8281H252.151C252.151 22.7506 252.548 21.9383 253.34 21.3355L252.735 20.5395ZM251.151 23.8281C251.151 24.9965 251.504 25.9488 252.301 26.567L252.914 25.7768C252.435 25.4054 252.151 24.7952 252.151 23.8281H251.151ZM252.307 26.5709C253.054 27.1356 254.01 27.3945 255.127 27.3945V26.3945C254.161 26.3945 253.437 26.1717 252.909 25.7729L252.307 26.5709ZM255.127 27.3945C256.816 27.3945 258.253 26.9142 259.399 25.9255L258.746 25.1683C257.809 25.9764 256.616 26.3945 255.127 26.3945V27.3945ZM259.4 25.9252C260.592 24.8949 261.155 23.4051 261.155 21.543H260.155C260.155 23.1964 259.663 24.3759 258.746 25.1686L259.4 25.9252ZM261.155 21.543V19.668H260.155V21.543H261.155ZM283.427 8.61328L283.266 9.08667L283.272 9.08858L283.427 8.61328ZM286.455 10.5078L286.831 10.1782L286.455 10.5078ZM286.435 16.7969L286.076 16.4494L286.076 16.4495L286.435 16.7969ZM283.408 18.457L283.28 17.9738L282.908 18.0724V18.457H283.408ZM283.408 18.6328H282.908V19.0246L283.288 19.1183L283.408 18.6328ZM285.849 19.5898L285.601 20.024L285.607 20.0273L285.849 19.5898ZM287.587 21.2305L287.163 21.4948L287.169 21.5041L287.587 21.2305ZM287.177 27.1484L286.772 26.8553L286.77 26.8588L287.177 27.1484ZM275.283 30.2148L275.342 29.7184L275.337 29.7177L275.283 30.2148ZM272.646 29.7656L272.519 30.2493L272.527 30.2512L272.646 29.7656ZM270.576 29.0234H270.076V29.3355L270.356 29.4726L270.576 29.0234ZM270.576 25.0781L270.792 24.6271L270.076 24.2848V25.0781H270.576ZM273.837 26.25L273.705 26.7321L273.709 26.7333L273.837 26.25ZM280.869 26.4648L280.978 26.9528L280.983 26.9516L280.869 26.4648ZM282.959 25.4492L282.624 25.0775L282.619 25.0818L282.959 25.4492ZM281.005 20.7617L280.881 21.246L280.887 21.2476L281.005 20.7617ZM274.97 20.4102H274.47V20.9102H274.97V20.4102ZM274.97 17.0312V16.5312H274.47V17.0312H274.97ZM281.728 16.4062L281.908 16.8728L281.911 16.8716L281.728 16.4062ZM275.439 11.8945L275.546 12.3829L275.552 12.3816L275.439 11.8945ZM272.236 12.9102L271.776 13.1068L271.971 13.5614L272.427 13.372L272.236 12.9102ZM270.791 9.53125L270.602 9.06807L270.131 9.25982L270.331 9.72789L270.791 9.53125ZM274.599 8.39844L274.698 8.88857L274.703 8.88761L274.599 8.39844ZM279.15 8.46875C280.694 8.46875 282.064 8.67759 283.266 9.08664L283.588 8.13992C282.265 7.6896 280.783 7.46875 279.15 7.46875V8.46875ZM283.272 9.08858C284.479 9.48278 285.406 10.0706 286.079 10.8375L286.831 10.1782C286.019 9.25236 284.927 8.57711 283.583 8.13798L283.272 9.08858ZM286.079 10.8375C286.731 11.5814 287.068 12.5143 287.068 13.6719H288.068C288.068 12.3034 287.663 11.127 286.831 10.1782L286.079 10.8375ZM287.068 13.6719C287.068 14.8717 286.723 15.7793 286.076 16.4494L286.795 17.1444C287.657 16.2519 288.068 15.0762 288.068 13.6719H287.068ZM286.076 16.4495C285.41 17.1383 284.488 17.6531 283.28 17.9738L283.536 18.9403C284.879 18.5839 285.976 17.9919 286.795 17.1443L286.076 16.4495ZM282.908 18.457V18.6328H283.908V18.457H282.908ZM283.288 19.1183C284.146 19.3297 284.916 19.6325 285.601 20.024L286.097 19.1557C285.324 18.7139 284.466 18.3787 283.527 18.1473L283.288 19.1183ZM285.607 20.0273C286.264 20.3908 286.78 20.8788 287.163 21.4947L288.012 20.9662C287.536 20.2019 286.893 19.5962 286.091 19.1524L285.607 20.0273ZM287.169 21.5041C287.544 22.0776 287.752 22.8466 287.752 23.8477H288.752C288.752 22.7133 288.516 21.7375 288.006 20.9568L287.169 21.5041ZM287.752 23.8477C287.752 24.9523 287.427 25.9502 286.772 26.8553L287.582 27.4416C288.36 26.3675 288.752 25.1648 288.752 23.8477H287.752ZM286.77 26.8588C286.136 27.7503 285.144 28.4872 283.749 29.0478L284.122 29.9757C285.643 29.3644 286.812 28.5257 287.585 27.438L286.77 26.8588ZM283.749 29.0478C282.369 29.602 280.583 29.8906 278.369 29.8906V30.8906C280.66 30.8906 282.584 30.5934 284.122 29.9757L283.749 29.0478ZM278.369 29.8906C277.306 29.8906 276.297 29.833 275.342 29.7184L275.223 30.7113C276.221 30.8311 277.27 30.8906 278.369 30.8906V29.8906ZM275.337 29.7177C274.391 29.6155 273.535 29.4692 272.765 29.2801L272.527 30.2512C273.346 30.4526 274.247 30.6058 275.229 30.7119L275.337 29.7177ZM272.773 29.282C272.003 29.08 271.345 28.843 270.795 28.5742L270.356 29.4726C270.978 29.7768 271.701 30.0346 272.519 30.2493L272.773 29.282ZM271.076 29.0234V25.0781H270.076V29.0234H271.076ZM270.36 25.5292C271.292 25.975 272.409 26.375 273.705 26.732L273.97 25.768C272.714 25.4219 271.656 25.0406 270.792 24.6271L270.36 25.5292ZM273.709 26.7333C275.031 27.084 276.442 27.2578 277.939 27.2578V26.2578C276.52 26.2578 275.196 26.0931 273.966 25.7667L273.709 26.7333ZM277.939 27.2578C279.049 27.2578 280.063 27.1576 280.978 26.9528L280.76 25.9769C279.929 26.1627 278.99 26.2578 277.939 26.2578V27.2578ZM280.983 26.9516C281.927 26.7295 282.71 26.3595 283.298 25.8166L282.619 25.0818C282.192 25.4765 281.581 25.7835 280.754 25.9781L280.983 26.9516ZM283.293 25.8209C283.932 25.2458 284.24 24.4791 284.24 23.5742H283.24C283.24 24.2319 283.027 24.7151 282.624 25.0776L283.293 25.8209ZM284.24 23.5742C284.24 22.7415 283.97 22.0197 283.415 21.4483L282.698 22.1454C283.054 22.5115 283.24 22.9746 283.24 23.5742H284.24ZM283.415 21.4483C282.871 20.8888 282.089 20.5103 281.123 20.2758L280.887 21.2476C281.745 21.4559 282.33 21.7675 282.698 22.1454L283.415 21.4483ZM281.13 20.2775C280.163 20.0289 278.966 19.9102 277.548 19.9102V20.9102C278.918 20.9102 280.025 21.0258 280.881 21.246L281.13 20.2775ZM277.548 19.9102H274.97V20.9102H277.548V19.9102ZM275.47 20.4102V17.0312H274.47V20.4102H275.47ZM274.97 17.5312H277.236V16.5312H274.97V17.5312ZM277.236 17.5312C279.177 17.5312 280.744 17.3214 281.908 16.8728L281.548 15.9397C280.55 16.3245 279.123 16.5312 277.236 16.5312V17.5312ZM281.911 16.8716C282.522 16.6317 283.018 16.2891 283.361 15.8239C283.707 15.3549 283.869 14.7978 283.869 14.1797H282.869C282.869 14.6163 282.757 14.9576 282.556 15.2307C282.352 15.5077 282.028 15.7511 281.545 15.9409L281.911 16.8716ZM283.869 14.1797C283.869 13.1152 283.389 12.2861 282.466 11.7543L281.967 12.6207C282.58 12.9743 282.869 13.4734 282.869 14.1797H283.869ZM282.466 11.7543C281.583 11.2454 280.298 11.0234 278.681 11.0234V12.0234C280.242 12.0234 281.313 12.2441 281.967 12.6207L282.466 11.7543ZM278.681 11.0234C277.549 11.0234 276.431 11.1515 275.326 11.4074L275.552 12.3816C276.583 12.1428 277.626 12.0234 278.681 12.0234V11.0234ZM275.332 11.4062C274.234 11.6472 273.138 11.9949 272.044 12.4483L272.427 13.372C273.469 12.94 274.509 12.6106 275.546 12.3829L275.332 11.4062ZM272.696 12.7135L271.25 9.33461L270.331 9.72789L271.776 13.1068L272.696 12.7135ZM270.979 9.99443C272.133 9.52529 273.372 9.1563 274.698 8.88855L274.5 7.90833C273.118 8.18745 271.818 8.57367 270.602 9.06807L270.979 9.99443ZM274.703 8.88761C276.017 8.60968 277.498 8.46875 279.15 8.46875V7.46875C277.443 7.46875 275.89 7.61427 274.496 7.90926L274.703 8.88761ZM298.036 8.37891H298.536V7.87891H298.036V8.37891ZM304.95 19.1016L304.797 18.6255L304.795 18.626L304.95 19.1016ZM308.134 17.7344L308.37 18.175L308.634 18.0335V17.7344H308.134ZM308.134 8.37891V7.87891H307.634V8.37891H308.134ZM312.723 8.37891H313.223V7.87891H312.723V8.37891ZM312.723 30V30.5H313.223V30H312.723ZM308.134 30H307.634V30.5H308.134V30ZM308.134 20.8594H308.634V19.9836L307.879 20.4288L308.134 20.8594ZM293.446 8.37891V7.87891H292.946V8.37891H293.446ZM297.536 8.37891V16.2109H298.536V8.37891H297.536ZM297.536 16.2109C297.536 17.4387 297.858 18.4477 298.593 19.1348L299.276 18.4043C298.813 17.9716 298.536 17.2748 298.536 16.2109H297.536ZM298.593 19.1348C299.314 19.8088 300.313 20.1094 301.513 20.1094V19.1094C300.472 19.1094 299.753 18.8501 299.276 18.4043L298.593 19.1348ZM301.513 20.1094C302.808 20.1094 304.006 19.934 305.105 19.5771L304.795 18.626C303.81 18.9463 302.717 19.1094 301.513 19.1094V20.1094ZM305.103 19.5776C306.189 19.229 307.278 18.7609 308.37 18.175L307.897 17.2938C306.854 17.8537 305.82 18.297 304.797 18.6255L305.103 19.5776ZM308.634 17.7344V8.37891H307.634V17.7344H308.634ZM308.134 8.87891H312.723V7.87891H308.134V8.87891ZM312.223 8.37891V30H313.223V8.37891H312.223ZM312.723 29.5H308.134V30.5H312.723V29.5ZM308.634 30V20.8594H307.634V30H308.634ZM307.879 20.4288C306.825 21.0515 305.726 21.5723 304.583 21.9915L304.927 22.9304C306.127 22.4902 307.281 21.9433 308.388 21.2899L307.879 20.4288ZM304.583 21.9915C303.478 22.3965 302.165 22.6055 300.634 22.6055V23.6055C302.253 23.6055 303.687 23.3848 304.927 22.9304L304.583 21.9915ZM300.634 22.6055C298.48 22.6055 296.856 22.0498 295.696 20.997L295.024 21.7373C296.417 23.0023 298.308 23.6055 300.634 23.6055V22.6055ZM295.696 20.997C294.549 19.9554 293.946 18.451 293.946 16.4062H292.946C292.946 18.6584 293.619 20.4612 295.024 21.7373L295.696 20.997ZM293.946 16.4062V8.37891H292.946V16.4062H293.946ZM293.446 8.87891H298.036V7.87891H293.446V8.87891ZM324.5 8.37891H325V7.87891H324.5V8.37891ZM324.461 20.7617L323.961 20.7379L323.961 20.7495L324.461 20.7617ZM324.383 22.4414L324.882 22.4754L324.882 22.4747L324.383 22.4414ZM324.168 25.0977L323.671 25.0424L324.587 25.3704L324.168 25.0977ZM335.047 8.37891V7.87891H334.776L334.628 8.10621L335.047 8.37891ZM340.633 8.37891H341.133V7.87891H340.633V8.37891ZM340.633 30V30.5H341.133V30H340.633ZM336.238 30H335.738V30.5H336.238V30ZM336.277 17.0898L335.778 17.064L335.778 17.0726L336.277 17.0898ZM336.395 14.9023L335.896 14.8654L335.895 14.8746L336.395 14.9023ZM336.492 13.3008L336.992 13.3186L337.056 11.5134L336.073 13.0285L336.492 13.3008ZM325.652 30V30.5H325.924L326.072 30.2722L325.652 30ZM320.086 30H319.586V30.5H320.086V30ZM320.086 8.37891V7.87891H319.586V8.37891H320.086ZM324 8.37891V19.4141H325V8.37891H324ZM324 19.4141C324 19.7546 323.987 20.1952 323.962 20.7379L324.96 20.7855C324.987 20.2345 325 19.7766 325 19.4141H324ZM323.961 20.7495C323.948 21.2757 323.923 21.8285 323.884 22.4081L324.882 22.4747C324.921 21.8824 324.948 21.3154 324.961 20.7739L323.961 20.7495ZM323.884 22.4074C323.845 22.9786 323.806 23.5037 323.767 23.983L324.764 24.0638C324.803 23.5796 324.842 23.0501 324.882 22.4754L323.884 22.4074ZM323.767 23.983C323.728 24.4638 323.696 24.8158 323.671 25.0424L324.665 25.1529C324.692 24.9108 324.725 24.5466 324.764 24.0638L323.767 23.983ZM324.587 25.3704L335.466 8.65161L334.628 8.10621L323.749 24.825L324.587 25.3704ZM335.047 8.87891H340.633V7.87891H335.047V8.87891ZM340.133 8.37891V30H341.133V8.37891H340.133ZM340.633 29.5H336.238V30.5H340.633V29.5ZM336.738 30V19.082H335.738V30H336.738ZM336.738 19.082C336.738 18.5163 336.751 17.8582 336.777 17.1071L335.778 17.0726C335.751 17.8319 335.738 18.5019 335.738 19.082H336.738ZM336.777 17.1157C336.816 16.3611 336.855 15.6325 336.894 14.9301L335.895 14.8746C335.856 15.5784 335.817 16.3082 335.778 17.064L336.777 17.1157ZM336.893 14.9393C336.945 14.2345 336.978 13.693 336.992 13.3186L335.993 13.2829C335.98 13.6377 335.948 14.164 335.896 14.8654L336.893 14.9393ZM336.073 13.0285L325.233 29.7278L326.072 30.2722L336.912 13.573L336.073 13.0285ZM325.652 29.5H320.086V30.5H325.652V29.5ZM320.586 30V8.37891H319.586V30H320.586ZM320.086 8.87891H324.5V7.87891H320.086V8.87891ZM361.433 8.37891V7.87891H361.199L361.05 8.05776L361.433 8.37891ZM366.491 8.37891L366.87 8.70512L367.582 7.87891H366.491V8.37891ZM357.546 18.7695L357.167 18.4433L356.886 18.7702L357.168 19.0965L357.546 18.7695ZM367.253 30V30.5H368.346L367.631 29.673L367.253 30ZM361.96 30L361.579 30.3235L361.729 30.5H361.96V30ZM352.644 19.0234L353.025 18.6999L352.144 17.6617V19.0234H352.644ZM352.644 30V30.5H353.144V30H352.644ZM348.034 30H347.534V30.5H348.034V30ZM348.034 8.37891V7.87891H347.534V8.37891H348.034ZM352.644 8.37891H353.144V7.87891H352.644V8.37891ZM352.644 18.8672H352.144V20.2423L353.027 19.1883L352.644 18.8672ZM361.433 8.87891H366.491V7.87891H361.433V8.87891ZM366.113 8.05269L357.167 18.4433L357.925 19.0957L366.87 8.70512L366.113 8.05269ZM357.168 19.0965L366.875 30.327L367.631 29.673L357.924 18.4426L357.168 19.0965ZM367.253 29.5H361.96V30.5H367.253V29.5ZM362.341 29.6765L353.025 18.6999L352.263 19.347L361.579 30.3235L362.341 29.6765ZM352.144 19.0234V30H353.144V19.0234H352.144ZM352.644 29.5H348.034V30.5H352.644V29.5ZM348.534 30V8.37891H347.534V30H348.534ZM348.034 8.87891H352.644V7.87891H348.034V8.87891ZM352.144 8.37891V18.8672H353.144V8.37891H352.144ZM353.027 19.1883L361.816 8.70005L361.05 8.05776L352.261 18.546L353.027 19.1883ZM390.006 23.9258L389.532 23.7663L390.006 23.9258ZM387.955 27.4609L388.319 27.8044L388.321 27.8019L387.955 27.4609ZM384.713 29.6484L384.896 30.114L384.9 30.1123L384.713 29.6484ZM376.354 29.6484L376.164 30.111L376.168 30.1127L376.354 29.6484ZM373.131 27.4609L372.766 27.802L372.77 27.807L373.131 27.4609ZM371.041 23.9258L370.57 24.0931L371.041 23.9258ZM371.53 13.0859L371.082 12.8623L371.082 12.8637L371.53 13.0859ZM375.084 9.27734L375.331 9.71214L375.084 9.27734ZM385.846 9.27734L385.598 9.71124L385.846 9.27734ZM375.592 23.1836L375.118 23.3434L375.12 23.3483L375.592 23.1836ZM377.389 25.7617L377.091 26.1633L377.095 26.1664L377.389 25.7617ZM383.639 25.7617L383.933 26.1664L383.937 26.1633L383.639 25.7617ZM385.416 15.1367L384.943 15.2982L384.944 15.2999L385.416 15.1367ZM383.639 12.6172L383.345 13.0219L383.35 13.0249L383.639 12.6172ZM390.209 19.1406C390.209 20.8949 389.98 22.4345 389.532 23.7663L390.48 24.0852C390.97 22.6307 391.209 20.9801 391.209 19.1406H390.209ZM389.532 23.7663C389.084 25.0999 388.434 26.2143 387.59 27.12L388.321 27.8019C389.274 26.7805 389.991 25.5381 390.48 24.0852L389.532 23.7663ZM387.592 27.1175C386.745 28.0134 385.726 28.7025 384.527 29.1845L384.9 30.1123C386.227 29.5787 387.369 28.8095 388.319 27.8044L387.592 27.1175ZM384.531 29.1829C383.335 29.6514 381.973 29.8906 380.436 29.8906V30.8906C382.076 30.8906 383.566 30.6351 384.896 30.114L384.531 29.1829ZM380.436 29.8906C379.008 29.8906 377.711 29.6528 376.54 29.1842L376.168 30.1127C377.471 30.6336 378.895 30.8906 380.436 30.8906V29.8906ZM376.544 29.1859C375.37 28.7041 374.355 28.0143 373.492 27.1149L372.77 27.807C373.731 28.8086 374.864 29.5771 376.164 30.111L376.544 29.1859ZM373.497 27.12C372.651 26.2122 371.987 25.0951 371.513 23.7585L370.57 24.0931C371.085 25.5429 371.815 26.7825 372.766 27.8019L373.497 27.12ZM371.513 23.7585C371.04 22.4291 370.799 20.8924 370.799 19.1406H369.799C369.799 20.9826 370.053 22.636 370.57 24.0931L371.513 23.7585ZM370.799 19.1406C370.799 16.8132 371.2 14.8756 371.978 13.3081L371.082 12.8637C370.219 14.6035 369.799 16.7024 369.799 19.1406H370.799ZM371.977 13.3095C372.768 11.7265 373.886 10.5328 375.331 9.71214L374.838 8.84254C373.21 9.76666 371.958 11.1121 371.082 12.8623L371.977 13.3095ZM375.331 9.71214C376.779 8.89032 378.519 8.46875 380.573 8.46875V7.46875C378.381 7.46875 376.463 7.91957 374.838 8.84254L375.331 9.71214ZM380.573 8.46875C382.49 8.46875 384.16 8.88774 385.598 9.71124L386.095 8.84345C384.486 7.92216 382.64 7.46875 380.573 7.46875V8.46875ZM385.598 9.71124C387.032 10.5324 388.158 11.728 388.976 13.3151L389.865 12.8568C388.964 11.1105 387.707 9.76708 386.095 8.84345L385.598 9.71124ZM388.976 13.3151C389.79 14.8947 390.209 16.83 390.209 19.1406H391.209C391.209 16.7116 390.769 14.6105 389.865 12.8568L388.976 13.3151ZM374.526 19.1406C374.526 20.7535 374.719 22.1582 375.118 23.3434L376.066 23.0238C375.71 21.9694 375.526 20.6788 375.526 19.1406H374.526ZM375.12 23.3483C375.538 24.5453 376.19 25.4945 377.091 26.1633L377.687 25.3602C376.974 24.831 376.428 24.0615 376.064 23.0189L375.12 23.3483ZM377.095 26.1664C378.009 26.8296 379.162 27.1406 380.514 27.1406V26.1406C379.314 26.1406 378.384 25.8657 377.683 25.3571L377.095 26.1664ZM380.514 27.1406C381.866 27.1406 383.019 26.8296 383.933 26.1664L383.345 25.3571C382.645 25.8657 381.714 26.1406 380.514 26.1406V27.1406ZM383.937 26.1633C384.84 25.4934 385.486 24.5424 385.89 23.3434L384.943 23.0238C384.592 24.0644 384.053 24.8321 383.341 25.3602L383.937 26.1633ZM385.89 23.3434C386.29 22.1582 386.483 20.7535 386.483 19.1406H385.483C385.483 20.6788 385.298 21.9694 384.943 23.0238L385.89 23.3434ZM386.483 19.1406C386.483 17.5283 386.29 16.1349 385.889 14.9736L384.944 15.2999C385.298 16.326 385.483 17.6019 385.483 19.1406H386.483ZM385.89 14.9753C385.484 13.7877 384.836 12.8535 383.928 12.2094L383.35 13.0249C384.057 13.5267 384.593 14.2722 384.943 15.2982L385.89 14.9753ZM383.933 12.2125C383.018 11.5487 381.858 11.2383 380.495 11.2383V12.2383C381.709 12.2383 382.645 12.5138 383.345 13.0218L383.933 12.2125ZM380.495 11.2383C378.471 11.2383 376.909 11.9258 375.922 13.3702L376.747 13.9345C377.504 12.8268 378.716 12.2383 380.495 12.2383V11.2383ZM375.922 13.3702C374.969 14.7632 374.526 16.7079 374.526 19.1406H375.526C375.526 16.8078 375.955 15.0936 376.747 13.9345L375.922 13.3702ZM413.814 16.9922L413.455 16.6446L413.455 16.6447L413.814 16.9922ZM410.689 18.5352L410.597 18.0436L410.189 18.1197V18.5352H410.689ZM410.689 18.6914H410.189V19.1313L410.625 19.1873L410.689 18.6914ZM414.244 20.1953L413.917 20.5738L414.244 20.1953ZM414.732 26.9141L414.313 26.642L414.312 26.6434L414.732 26.9141ZM411.802 29.1797L411.993 29.642L411.995 29.6411L411.802 29.1797ZM396.783 30H396.283V30.5H396.783V30ZM396.783 8.37891V7.87891H396.283V8.37891H396.783ZM410.865 8.90625L410.731 9.38794L410.732 9.38829L410.865 8.90625ZM413.873 10.6445L414.244 10.3094L413.873 10.6445ZM409.654 21.1523L409.403 21.5847L409.406 21.5865L409.654 21.1523ZM401.392 20.4492V19.9492H400.892V20.4492H401.392ZM401.392 26.6211H400.892V27.1211H401.392V26.6211ZM409.634 25.8984L409.885 26.3313L409.89 26.3284L409.634 25.8984ZM409.341 12.4609L409.068 12.8796L409.074 12.8835L409.341 12.4609ZM401.392 11.8359V11.3359H400.892V11.8359H401.392ZM401.392 17.0703H400.892V17.5703H401.392V17.0703ZM409.127 16.4258L409.371 16.8622L409.373 16.8608L409.127 16.4258ZM414.466 13.9258C414.466 15.0645 414.121 15.956 413.455 16.6446L414.173 17.3398C415.044 16.4398 415.466 15.2871 415.466 13.9258H414.466ZM413.455 16.6447C412.787 17.3348 411.849 17.8106 410.597 18.0436L410.781 19.0267C412.186 18.765 413.33 18.2121 414.174 17.3397L413.455 16.6447ZM410.189 18.5352V18.6914H411.189V18.5352H410.189ZM410.625 19.1873C411.961 19.3589 413.051 19.8262 413.917 20.5738L414.57 19.8168C413.536 18.9238 412.255 18.3885 410.753 18.1955L410.625 19.1873ZM413.917 20.5738C414.739 21.2834 415.17 22.2743 415.17 23.6133H416.17C416.17 22.0356 415.649 20.7478 414.57 19.8168L413.917 20.5738ZM415.17 23.6133C415.17 24.7615 414.881 25.7657 414.313 26.642L415.152 27.1862C415.833 26.1353 416.17 24.9391 416.17 23.6133H415.17ZM414.312 26.6434C413.768 27.4873 412.884 28.1863 411.61 28.7183L411.995 29.6411C413.403 29.0533 414.472 28.2418 415.152 27.1847L414.312 26.6434ZM411.612 28.7173C410.366 29.2302 408.7 29.5 406.587 29.5V30.5C408.772 30.5 410.582 30.2229 411.993 29.642L411.612 28.7173ZM406.587 29.5H396.783V30.5H406.587V29.5ZM397.283 30V8.37891H396.283V30H397.283ZM396.783 8.87891H406.548V7.87891H396.783V8.87891ZM406.548 8.87891C408.128 8.87891 409.52 9.05095 410.731 9.38794L410.999 8.42456C409.684 8.05842 408.198 7.87891 406.548 7.87891V8.87891ZM410.732 9.38829C411.936 9.72008 412.849 10.257 413.502 10.9797L414.244 10.3094C413.438 9.41748 412.345 8.79555 410.998 8.42421L410.732 9.38829ZM413.502 10.9797C414.127 11.6724 414.466 12.635 414.466 13.9258H415.466C415.466 12.4562 415.076 11.2313 414.244 10.3094L413.502 10.9797ZM411.384 23.457C411.384 22.238 410.901 21.2891 409.902 20.7182L409.406 21.5865C410.047 21.9531 410.384 22.5406 410.384 23.457H411.384ZM409.905 20.7199C408.986 20.1864 407.697 19.9492 406.099 19.9492V20.9492C407.626 20.9492 408.707 21.1808 409.403 21.5847L409.905 20.7199ZM406.099 19.9492H401.392V20.9492H406.099V19.9492ZM400.892 20.4492V26.6211H401.892V20.4492H400.892ZM401.392 27.1211H406.197V26.1211H401.392V27.1211ZM406.197 27.1211C407.701 27.1211 408.946 26.8741 409.885 26.3313L409.384 25.4656C408.656 25.8864 407.609 26.1211 406.197 26.1211V27.1211ZM409.89 26.3284C410.903 25.7268 411.384 24.731 411.384 23.457H410.384C410.384 24.4487 410.033 25.0805 409.379 25.4685L409.89 26.3284ZM410.798 14.3359C410.798 13.3427 410.411 12.5461 409.609 12.0384L409.074 12.8835C409.548 13.1831 409.798 13.6364 409.798 14.3359H410.798ZM409.615 12.0423C408.853 11.545 407.731 11.3359 406.334 11.3359V12.3359C407.671 12.3359 408.553 12.5435 409.068 12.8796L409.615 12.0423ZM406.334 11.3359H401.392V12.3359H406.334V11.3359ZM400.892 11.8359V17.0703H401.892V11.8359H400.892ZM401.392 17.5703H405.709V16.5703H401.392V17.5703ZM405.709 17.5703C407.251 17.5703 408.492 17.3536 409.371 16.8622L408.882 15.9894C408.225 16.3574 407.187 16.5703 405.709 16.5703V17.5703ZM409.373 16.8608C410.322 16.3231 410.798 15.4536 410.798 14.3359H409.798C409.798 15.1194 409.494 15.6431 408.88 15.9908L409.373 16.8608Z" fill="black"/>
</svg>
