<svg width="283" height="39" viewBox="0 0 283 39" fill="none" xmlns="http://www.w3.org/2000/svg">
<path d="M17.75 0.0351562H18.25V-0.464844H17.75V0.0351562ZM17.75 3.55078H17.25V4.04026L17.7394 4.05067L17.75 3.55078ZM25.0547 5.11328L24.8173 5.55333L24.821 5.55533L25.0547 5.11328ZM28.9805 8.92188L28.534 9.14696L28.5355 9.14988L28.9805 8.92188ZM29.5664 17.9844L29.0916 17.8277L29.5664 17.9844ZM17.75 24.9961L17.739 24.4962L17.25 24.507V24.9961H17.75ZM17.75 29.3906V29.8906H18.25V29.3906H17.75ZM13.375 29.3906H12.875V29.8906H13.375V29.3906ZM13.375 24.9961H13.875V24.5068L13.3858 24.4962L13.375 24.9961ZM3.53125 21.4023L3.15751 21.7346L3.16191 21.7394L3.53125 21.4023ZM1.51953 17.9453L1.04182 18.0931L1.04372 18.099L1.51953 17.9453ZM1.57812 10.1719L1.10625 10.0065L1.10477 10.0108L1.57812 10.1719ZM7.55469 4.48828L7.38505 4.01794L7.55469 4.48828ZM13.375 3.55078L13.3864 4.05065L13.875 4.03955V3.55078H13.375ZM13.375 0.0351562V-0.464844H12.875V0.0351562H13.375ZM13.375 7.32031H13.875V6.80325L13.3582 6.82059L13.375 7.32031ZM8.72656 8.29688L8.94816 8.74511L8.95217 8.74308L8.72656 8.29688ZM8.90234 20.3086L8.67478 20.7538L8.67874 20.7558L8.90234 20.3086ZM13.375 21.2852L13.357 21.7848L13.875 21.8035V21.2852H13.375ZM17.75 7.32031L17.7667 6.82059L17.25 6.80337V7.32031H17.75ZM17.75 21.2852H17.25V21.8031L17.7676 21.7848L17.75 21.2852ZM22.2617 20.2891L22.0342 19.8438L22.0321 19.8449L22.2617 20.2891ZM24.8398 17.8281L24.3982 17.5937L24.3971 17.5957L24.8398 17.8281ZM24.918 10.6406L24.4719 10.8665L24.4731 10.8689L24.918 10.6406ZM17.25 0.0351562V3.55078H18.25V0.0351562H17.25ZM17.7394 4.05067C20.7556 4.11484 23.1029 4.62829 24.8173 5.55331L25.2921 4.67325C23.3867 3.64514 20.8642 3.11693 17.7606 3.05089L17.7394 4.05067ZM24.821 5.55533C26.5682 6.47881 27.7939 7.67898 28.534 9.14696L29.4269 8.69679C28.5785 7.01373 27.1871 5.67484 25.2883 4.67123L24.821 5.55533ZM28.5355 9.14988C29.3035 10.6487 29.6914 12.3208 29.6914 14.1758H30.6914C30.6914 12.1766 30.272 10.3461 29.4255 8.69387L28.5355 9.14988ZM29.6914 14.1758C29.6914 15.3964 29.4923 16.6131 29.0916 17.8277L30.0412 18.141C30.4739 16.8296 30.6914 15.5073 30.6914 14.1758H29.6914ZM29.0916 17.8277C28.6983 19.0199 28.0522 20.1115 27.1463 21.1044L27.885 21.7784C28.88 20.6879 29.6012 19.4749 30.0412 18.141L29.0916 17.8277ZM27.1463 21.1044C26.2568 22.0791 25.0491 22.8803 23.5025 23.4964L23.8725 24.4254C25.529 23.7655 26.8734 22.887 27.885 21.7784L27.1463 21.1044ZM23.5025 23.4964C21.9726 24.1059 20.0565 24.445 17.739 24.4962L17.761 25.496C20.157 25.443 22.1993 25.092 23.8725 24.4254L23.5025 23.4964ZM17.25 24.9961V29.3906H18.25V24.9961H17.25ZM17.75 28.8906H13.375V29.8906H17.75V28.8906ZM13.875 29.3906V24.9961H12.875V29.3906H13.875ZM13.3858 24.4962C11.0156 24.445 9.07534 24.0992 7.54766 23.4782L7.17109 24.4046C8.84654 25.0857 10.9167 25.4431 13.3642 25.496L13.3858 24.4962ZM7.54766 23.4782C5.99982 22.849 4.79087 22.041 3.90059 21.0653L3.16191 21.7394C4.17267 22.8471 5.51581 23.7317 7.17109 24.4046L7.54766 23.4782ZM3.90495 21.0702C3.01003 20.0634 2.37614 18.9709 1.99534 17.7917L1.04372 18.099C1.47021 19.4197 2.17747 20.6319 3.15755 21.7345L3.90495 21.0702ZM1.99721 17.7976C1.62036 16.5791 1.43359 15.3789 1.43359 14.1953H0.433594C0.433594 15.4857 0.637449 16.7855 1.04186 18.093L1.99721 17.7976ZM1.43359 14.1953C1.43359 12.8273 1.64053 11.5409 2.05148 10.3329L1.10477 10.0108C0.656342 11.3289 0.433594 12.7248 0.433594 14.1953H1.43359ZM2.04998 10.3373C2.46707 9.14734 3.13533 8.09131 4.06058 7.16605L3.35348 6.45895C2.32561 7.48682 1.5746 8.67037 1.10627 10.0065L2.04998 10.3373ZM4.06058 7.16605C4.97491 6.25173 6.18983 5.51205 7.72432 4.95863L7.38505 4.01794C5.74246 4.61035 4.39228 5.42015 3.35348 6.45895L4.06058 7.16605ZM7.72432 4.95863C9.24753 4.40927 11.1307 4.10192 13.3864 4.05065L13.3636 3.05091C11.0359 3.10381 9.03893 3.42146 7.38505 4.01794L7.72432 4.95863ZM13.875 3.55078V0.0351562H12.875V3.55078H13.875ZM13.375 0.535156H17.75V-0.464844H13.375V0.535156ZM13.3582 6.82059C11.3783 6.88704 9.74871 7.21978 8.50095 7.85067L8.95217 8.74308C10.0221 8.2021 11.4915 7.8838 13.3918 7.82003L13.3582 6.82059ZM8.50497 7.84866C7.2644 8.46197 6.34428 9.32115 5.78051 10.4342L6.67261 10.8861C7.12447 9.99395 7.87101 9.27761 8.94815 8.74509L8.50497 7.84866ZM5.78051 10.4342C5.23133 11.5185 4.96484 12.7638 4.96484 14.1562H5.96484C5.96484 12.8924 6.20617 11.807 6.67261 10.8861L5.78051 10.4342ZM4.96484 14.1562C4.96484 15.6417 5.25815 16.9567 5.86428 18.0844L6.7451 17.6109C6.23143 16.6553 5.96484 15.5094 5.96484 14.1562H4.96484ZM5.86428 18.0844C6.47765 19.2255 7.42306 20.114 8.67479 20.7538L9.1299 19.8634C8.03787 19.3052 7.25152 18.5531 6.7451 17.6109L5.86428 18.0844ZM8.67874 20.7558C9.93416 21.3835 11.5013 21.7181 13.357 21.7848L13.393 20.7855C11.6289 20.722 10.2143 20.4055 9.12595 19.8614L8.67874 20.7558ZM13.875 21.2852V7.32031H12.875V21.2852H13.875ZM17.25 7.32031V21.2852H18.25V7.32031H17.25ZM17.7676 21.7848C19.6617 21.7182 21.2452 21.3773 22.4913 20.7332L22.0321 19.8449C20.9605 20.3988 19.5363 20.7219 17.7324 20.7855L17.7676 21.7848ZM22.4893 20.7343C23.7417 20.0941 24.682 19.2044 25.2825 18.0605L24.3971 17.5957C23.9039 18.5352 23.1254 19.2861 22.0342 19.8438L22.4893 20.7343ZM25.2815 18.0626C25.886 16.9239 26.1797 15.6102 26.1797 14.1367H25.1797C25.1797 15.4757 24.9135 16.623 24.3982 17.5937L25.2815 18.0626ZM26.1797 14.1367C26.1797 12.7324 25.9136 11.4857 25.3628 10.4123L24.4731 10.8689C24.938 11.7747 25.1797 12.8588 25.1797 14.1367H26.1797ZM25.364 10.4147C24.8002 9.30162 23.8801 8.44244 22.6396 7.82913L22.1964 8.72556C23.2735 9.25808 24.0201 9.97442 24.4719 10.8665L25.364 10.4147ZM22.6396 7.82913C21.3927 7.21269 19.7579 6.88697 17.7667 6.82059L17.7333 7.82003C19.6483 7.88387 21.1255 8.19616 22.1964 8.72556L22.6396 7.82913ZM53.8828 22.9258L53.4089 22.7663L53.8828 22.9258ZM51.832 26.4609L52.1954 26.8044L52.1977 26.8019L51.832 26.4609ZM48.5898 28.6484L48.7722 29.114L48.7764 29.1123L48.5898 28.6484ZM40.2305 28.6484L40.0406 29.111L40.0448 29.1127L40.2305 28.6484ZM37.0078 26.4609L36.6421 26.802L36.6469 26.807L37.0078 26.4609ZM34.918 22.9258L34.4468 23.0931L34.918 22.9258ZM35.4062 12.0859L34.959 11.8623L34.9583 11.8637L35.4062 12.0859ZM38.9609 8.27734L39.2078 8.71214L38.9609 8.27734ZM49.7227 8.27734L49.4742 8.71124L49.7227 8.27734ZM39.4688 22.1836L38.9949 22.3434L38.9966 22.3483L39.4688 22.1836ZM41.2656 24.7617L40.9677 25.1633L40.9719 25.1664L41.2656 24.7617ZM47.5156 24.7617L47.8093 25.1664L47.8135 25.1633L47.5156 24.7617ZM49.293 14.1367L48.8197 14.2982L48.8203 14.2999L49.293 14.1367ZM47.5156 11.6172L47.2219 12.0219L47.2263 12.0249L47.5156 11.6172ZM54.0859 18.1406C54.0859 19.8949 53.857 21.4345 53.4089 22.7663L54.3567 23.0852C54.8461 21.6307 55.0859 19.9801 55.0859 18.1406H54.0859ZM53.4089 22.7663C52.9602 24.0999 52.3108 25.2143 51.4663 26.12L52.1977 26.8019C53.1501 25.7805 53.8679 24.5381 54.3567 23.0852L53.4089 22.7663ZM51.4687 26.1175C50.6218 27.0134 49.6022 27.7025 48.4033 28.1845L48.7764 29.1123C50.1035 28.5787 51.2454 27.8095 52.1954 26.8044L51.4687 26.1175ZM48.4075 28.1829C47.2116 28.6514 45.8491 28.8906 44.3125 28.8906V29.8906C45.953 29.8906 47.4421 29.6351 48.7722 29.114L48.4075 28.1829ZM44.3125 28.8906C42.8845 28.8906 41.5877 28.6528 40.4162 28.1842L40.0448 29.1127C41.3472 29.6336 42.7718 29.8906 44.3125 29.8906V28.8906ZM40.4204 28.1859C39.2469 27.7041 38.2311 27.0143 37.3687 26.1149L36.6469 26.807C37.6074 27.8086 38.7401 28.5771 40.0406 29.111L40.4204 28.1859ZM37.3735 26.12C36.5271 25.2122 35.8638 24.0951 35.3891 22.7585L34.4468 23.0931C34.9617 24.5429 35.6916 25.7825 36.6421 26.8019L37.3735 26.12ZM35.3891 22.7585C34.917 21.4291 34.6758 19.8924 34.6758 18.1406H33.6758C33.6758 19.9826 33.9293 21.636 34.4468 23.0931L35.3891 22.7585ZM34.6758 18.1406C34.6758 15.8132 35.0766 13.8756 35.8542 12.3081L34.9583 11.8637C34.0953 13.6035 33.6758 15.7024 33.6758 18.1406H34.6758ZM35.8535 12.3095C36.645 10.7265 37.7624 9.53282 39.2078 8.71214L38.7141 7.84254C37.0865 8.76666 35.8342 10.1121 34.959 11.8623L35.8535 12.3095ZM39.2078 8.71214C40.6552 7.89032 42.396 7.46875 44.4492 7.46875V6.46875C42.2577 6.46875 40.3396 6.91957 38.7141 7.84254L39.2078 8.71214ZM44.4492 7.46875C46.3662 7.46875 48.0361 7.88774 49.4742 8.71124L49.9711 7.84345C48.3623 6.92216 46.5166 6.46875 44.4492 6.46875V7.46875ZM49.4742 8.71124C50.9082 9.5324 52.0341 10.728 52.8525 12.3151L53.7413 11.8568C52.8409 10.1105 51.584 8.76708 49.9711 7.84345L49.4742 8.71124ZM52.8525 12.3151C53.6669 13.8947 54.0859 15.83 54.0859 18.1406H55.0859C55.0859 15.7116 54.6456 13.6105 53.7413 11.8568L52.8525 12.3151ZM38.4023 18.1406C38.4023 19.7535 38.5953 21.1582 38.995 22.3434L39.9425 22.0238C39.587 20.9694 39.4023 19.6788 39.4023 18.1406H38.4023ZM38.9966 22.3483C39.4142 23.5453 40.0663 24.4945 40.9677 25.1633L41.5635 24.3602C40.8504 23.831 40.3045 23.0615 39.9409 22.0189L38.9966 22.3483ZM40.9719 25.1664C41.8858 25.8296 43.0386 26.1406 44.3906 26.1406V25.1406C43.1905 25.1406 42.2601 24.8657 41.5593 24.3571L40.9719 25.1664ZM44.3906 26.1406C45.7426 26.1406 46.8955 25.8296 47.8093 25.1664L47.2219 24.3571C46.5212 24.8657 45.5907 25.1406 44.3906 25.1406V26.1406ZM47.8135 25.1633C48.7164 24.4934 49.3624 23.5424 49.7668 22.3434L48.8192 22.0238C48.4683 23.0644 47.9295 23.8321 47.2177 24.3602L47.8135 25.1633ZM49.7668 22.3434C50.1664 21.1582 50.3594 19.7535 50.3594 18.1406H49.3594C49.3594 19.6788 49.1747 20.9694 48.8192 22.0238L49.7668 22.3434ZM50.3594 18.1406C50.3594 16.5283 50.1666 15.1349 49.7656 13.9736L48.8203 14.2999C49.1746 15.326 49.3594 16.6019 49.3594 18.1406H50.3594ZM49.7662 13.9753C49.361 12.7877 48.7126 11.8535 47.805 11.2094L47.2263 12.0249C47.9332 12.5267 48.4697 13.2722 48.8198 14.2982L49.7662 13.9753ZM47.8093 11.2125C46.8947 10.5487 45.7348 10.2383 44.3711 10.2383V11.2383C45.5855 11.2383 46.522 11.5138 47.2219 12.0218L47.8093 11.2125ZM44.3711 10.2383C42.348 10.2383 40.7857 10.9258 39.7982 12.3702L40.6237 12.9345C41.381 11.8268 42.5921 11.2383 44.3711 11.2383V10.2383ZM39.7982 12.3702C38.8458 13.7632 38.4023 15.7079 38.4023 18.1406H39.4023C39.4023 15.8078 39.8313 14.0936 40.6237 12.9345L39.7982 12.3702ZM76.1875 10.9922V11.4922H76.6875V10.9922H76.1875ZM69.0781 10.9922V10.4922H68.5781V10.9922H69.0781ZM69.0781 29V29.5H69.5781V29H69.0781ZM64.5078 29H64.0078V29.5H64.5078V29ZM64.5078 10.9922H65.0078V10.4922H64.5078V10.9922ZM57.4375 10.9922H56.9375V11.4922H57.4375V10.9922ZM57.4375 7.37891V6.87891H56.9375V7.37891H57.4375ZM76.1875 7.37891H76.6875V6.87891H76.1875V7.37891ZM76.1875 10.4922H69.0781V11.4922H76.1875V10.4922ZM68.5781 10.9922V29H69.5781V10.9922H68.5781ZM69.0781 28.5H64.5078V29.5H69.0781V28.5ZM65.0078 29V10.9922H64.0078V29H65.0078ZM64.5078 10.4922H57.4375V11.4922H64.5078V10.4922ZM57.9375 10.9922V7.37891H56.9375V10.9922H57.9375ZM57.4375 7.87891H76.1875V6.87891H57.4375V7.87891ZM75.6875 7.37891V10.9922H76.6875V7.37891H75.6875ZM98.8047 22.9258L98.3308 22.7663L98.8047 22.9258ZM96.7539 26.4609L97.1173 26.8044L97.1196 26.8019L96.7539 26.4609ZM93.5117 28.6484L93.6941 29.114L93.6982 29.1123L93.5117 28.6484ZM85.1523 28.6484L84.9625 29.111L84.9666 29.1127L85.1523 28.6484ZM81.9297 26.4609L81.564 26.802L81.5688 26.807L81.9297 26.4609ZM79.8398 22.9258L79.3687 23.0931L79.8398 22.9258ZM80.3281 12.0859L79.8809 11.8623L79.8802 11.8637L80.3281 12.0859ZM83.8828 8.27734L84.1297 8.71214L83.8828 8.27734ZM94.6445 8.27734L94.3961 8.71124L94.6445 8.27734ZM84.3906 22.1836L83.9168 22.3434L83.9185 22.3483L84.3906 22.1836ZM86.1875 24.7617L85.8896 25.1633L85.8938 25.1664L86.1875 24.7617ZM92.4375 24.7617L92.7312 25.1664L92.7354 25.1633L92.4375 24.7617ZM94.2148 14.1367L93.7416 14.2982L93.7422 14.2999L94.2148 14.1367ZM92.4375 11.6172L92.1438 12.0219L92.1481 12.0249L92.4375 11.6172ZM99.0078 18.1406C99.0078 19.8949 98.7789 21.4345 98.3308 22.7663L99.2786 23.0852C99.768 21.6307 100.008 19.9801 100.008 18.1406H99.0078ZM98.3308 22.7663C97.8821 24.0999 97.2327 25.2143 96.3882 26.12L97.1196 26.8019C98.072 25.7805 98.7898 24.5381 99.2786 23.0852L98.3308 22.7663ZM96.3905 26.1175C95.5437 27.0134 94.5241 27.7025 93.3252 28.1845L93.6982 29.1123C95.0254 28.5787 96.1672 27.8095 97.1173 26.8044L96.3905 26.1175ZM93.3293 28.1829C92.1335 28.6514 90.771 28.8906 89.2344 28.8906V29.8906C90.8748 29.8906 92.3639 29.6351 93.6941 29.114L93.3293 28.1829ZM89.2344 28.8906C87.8064 28.8906 86.5096 28.6528 85.338 28.1842L84.9666 29.1127C86.2691 29.6336 87.6936 29.8906 89.2344 29.8906V28.8906ZM85.3422 28.1859C84.1687 27.7041 83.153 27.0143 82.2906 26.1149L81.5688 26.807C82.5293 27.8086 83.662 28.5771 84.9625 29.111L85.3422 28.1859ZM82.2954 26.12C81.449 25.2122 80.7857 24.0951 80.311 22.7585L79.3687 23.0931C79.8836 24.5429 80.6135 25.7825 81.564 26.8019L82.2954 26.12ZM80.311 22.7585C79.8389 21.4291 79.5977 19.8924 79.5977 18.1406H78.5977C78.5977 19.9826 78.8512 21.636 79.3687 23.0931L80.311 22.7585ZM79.5977 18.1406C79.5977 15.8132 79.9985 13.8756 80.776 12.3081L79.8802 11.8637C79.0172 13.6035 78.5977 15.7024 78.5977 18.1406H79.5977ZM80.7753 12.3095C81.5669 10.7265 82.6843 9.53282 84.1297 8.71214L83.6359 7.84254C82.0084 8.76666 80.756 10.1121 79.8809 11.8623L80.7753 12.3095ZM84.1297 8.71214C85.5771 7.89032 87.3178 7.46875 89.3711 7.46875V6.46875C87.1796 6.46875 85.2615 6.91957 83.6359 7.84254L84.1297 8.71214ZM89.3711 7.46875C91.2881 7.46875 92.958 7.88774 94.3961 8.71124L94.893 7.84345C93.2842 6.92216 91.4385 6.46875 89.3711 6.46875V7.46875ZM94.3961 8.71124C95.83 9.5324 96.956 10.728 97.7743 12.3151L98.6632 11.8568C97.7627 10.1105 96.5059 8.76708 94.893 7.84345L94.3961 8.71124ZM97.7743 12.3151C98.5888 13.8947 99.0078 15.83 99.0078 18.1406H100.008C100.008 15.7116 99.5674 13.6105 98.6632 11.8568L97.7743 12.3151ZM83.3242 18.1406C83.3242 19.7535 83.5172 21.1582 83.9168 22.3434L84.8644 22.0238C84.5089 20.9694 84.3242 19.6788 84.3242 18.1406H83.3242ZM83.9185 22.3483C84.3361 23.5453 84.9882 24.4945 85.8896 25.1633L86.4854 24.3602C85.7722 23.831 85.2264 23.0615 84.8627 22.0189L83.9185 22.3483ZM85.8938 25.1664C86.8076 25.8296 87.9605 26.1406 89.3125 26.1406V25.1406C88.1124 25.1406 87.1819 24.8657 86.4812 24.3571L85.8938 25.1664ZM89.3125 26.1406C90.6645 26.1406 91.8174 25.8296 92.7312 25.1664L92.1438 24.3571C91.4431 24.8657 90.5126 25.1406 89.3125 25.1406V26.1406ZM92.7354 25.1633C93.6382 24.4934 94.2843 23.5424 94.6886 22.3434L93.7411 22.0238C93.3902 23.0644 92.8513 23.8321 92.1396 24.3602L92.7354 25.1633ZM94.6886 22.3434C95.0883 21.1582 95.2812 19.7535 95.2812 18.1406H94.2812C94.2812 19.6788 94.0966 20.9694 93.7411 22.0238L94.6886 22.3434ZM95.2812 18.1406C95.2812 16.5283 95.0884 15.1349 94.6875 13.9736L93.7422 14.2999C94.0965 15.326 94.2812 16.6019 94.2812 18.1406H95.2812ZM94.6881 13.9753C94.2829 12.7877 93.6345 11.8535 92.7269 11.2094L92.1481 12.0249C92.8551 12.5267 93.3916 13.2722 93.7416 14.2982L94.6881 13.9753ZM92.7312 11.2125C91.8166 10.5487 90.6567 10.2383 89.293 10.2383V11.2383C90.5074 11.2383 91.4439 11.5138 92.1438 12.0218L92.7312 11.2125ZM89.293 10.2383C87.2699 10.2383 85.7076 10.9258 84.7201 12.3702L85.5456 12.9345C86.3029 11.8268 87.514 11.2383 89.293 11.2383V10.2383ZM84.7201 12.3702C83.7677 13.7632 83.3242 15.7079 83.3242 18.1406H84.3242C84.3242 15.8078 84.7531 14.0936 85.5456 12.9345L84.7201 12.3702ZM118.805 7.37891H119.305V6.87891H118.805V7.37891ZM118.805 10.9922V11.4922H119.305V10.9922H118.805ZM109.391 10.9922V10.4922H108.891V10.9922H109.391ZM109.391 29V29.5H109.891V29H109.391ZM104.781 29H104.281V29.5H104.781V29ZM104.781 7.37891V6.87891H104.281V7.37891H104.781ZM118.305 7.37891V10.9922H119.305V7.37891H118.305ZM118.805 10.4922H109.391V11.4922H118.805V10.4922ZM108.891 10.9922V29H109.891V10.9922H108.891ZM109.391 28.5H104.781V29.5H109.391V28.5ZM105.281 29V7.37891H104.281V29H105.281ZM104.781 7.87891H118.805V6.87891H104.781V7.87891ZM137.652 8.78516L137.324 9.16254L137.326 9.16404L137.652 8.78516ZM139.762 29V29.5H140.262V29H139.762ZM136.5 29L136.019 29.1378L136.123 29.5H136.5V29ZM135.621 25.9336L136.102 25.7958L135.998 25.4336H135.621V25.9336ZM135.465 25.9336V25.4336H135.221L135.071 25.6253L135.465 25.9336ZM131.305 29L131.166 28.5194L131.158 28.5221L131.305 29ZM124.742 28.6875L124.528 29.1393L124.533 29.1415L124.742 28.6875ZM123.941 17.7695L123.663 17.3545L123.661 17.3555L123.941 17.7695ZM131.48 15.9141L131.498 16.4138L131.499 16.4137L131.48 15.9141ZM135.23 15.7773L135.249 16.277L135.73 16.2594V15.7773H135.23ZM134.176 11.4414L133.836 11.8086L133.84 11.8117L134.176 11.4414ZM125.133 12.1055L124.678 12.3136L124.889 12.7739L125.347 12.5575L125.133 12.1055ZM123.648 8.86328L123.414 8.42165L122.998 8.64273L123.194 9.07142L123.648 8.86328ZM127.242 7.49609L127.117 7.01214L127.115 7.01244L127.242 7.49609ZM135.211 18.668H135.711V18.1502L135.193 18.1683L135.211 18.668ZM132.418 18.7656L132.435 19.2653L132.435 19.2653L132.418 18.7656ZM127.164 25.1719L126.858 25.567L126.863 25.5709L127.164 25.1719ZM133.629 24.5469L133.955 24.9255L133.956 24.9252L133.629 24.5469ZM131.461 7.46875C134.131 7.46875 136.057 8.06117 137.324 9.16253L137.98 8.40778C136.461 7.08727 134.259 6.46875 131.461 6.46875V7.46875ZM137.326 9.16404C138.585 10.2477 139.262 11.9716 139.262 14.4492H140.262C140.262 11.7967 139.533 9.7445 137.979 8.40627L137.326 9.16404ZM139.262 14.4492V29H140.262V14.4492H139.262ZM139.762 28.5H136.5V29.5H139.762V28.5ZM136.981 28.8622L136.102 25.7958L135.14 26.0714L136.019 29.1378L136.981 28.8622ZM135.621 25.4336H135.465V26.4336H135.621V25.4336ZM135.071 25.6253C134.479 26.3807 133.876 26.9946 133.263 27.4729L133.878 28.2614C134.567 27.7242 135.226 27.049 135.858 26.2419L135.071 25.6253ZM133.263 27.4729C132.666 27.9383 131.969 28.2883 131.166 28.5195L131.443 29.4805C132.359 29.2169 133.172 28.8117 133.878 28.2614L133.263 27.4729ZM131.158 28.5221C130.373 28.7635 129.391 28.8906 128.199 28.8906V29.8906C129.455 29.8906 130.543 29.7574 131.452 29.4779L131.158 28.5221ZM128.199 28.8906C126.972 28.8906 125.892 28.6677 124.952 28.2335L124.533 29.1415C125.623 29.6448 126.849 29.8906 128.199 29.8906V28.8906ZM124.956 28.2357C124.031 27.7968 123.304 27.1359 122.769 26.2428L121.911 26.7572C122.547 27.8172 123.422 28.6146 124.528 29.1393L124.956 28.2357ZM122.769 26.2428C122.242 25.3647 121.961 24.2236 121.961 22.7891H120.961C120.961 24.3493 121.266 25.6822 121.911 26.7572L122.769 26.2428ZM121.961 22.7891C121.961 20.7061 122.723 19.1985 124.222 18.1835L123.661 17.3555C121.853 18.5802 120.961 20.4189 120.961 22.7891H121.961ZM124.22 18.1846C125.773 17.1411 128.176 16.5296 131.498 16.4138L131.463 15.4144C128.066 15.5329 125.443 16.1583 123.663 17.3545L124.22 18.1846ZM131.499 16.4137L135.249 16.277L135.212 15.2777L131.462 15.4144L131.499 16.4137ZM135.73 15.7773V14.6445H134.73V15.7773H135.73ZM135.73 14.6445C135.73 13.0861 135.367 11.8469 134.512 11.0711L133.84 11.8117C134.391 12.312 134.73 13.2082 134.73 14.6445H135.73ZM134.515 11.0743C133.705 10.325 132.591 9.98438 131.246 9.98438V10.9844C132.427 10.9844 133.267 11.2818 133.836 11.8085L134.515 11.0743ZM131.246 9.98438C130.116 9.98438 129.019 10.1478 127.955 10.4752L128.249 11.431C129.216 11.1334 130.214 10.9844 131.246 10.9844V9.98438ZM127.955 10.4752C126.916 10.7948 125.904 11.1876 124.919 11.6535L125.347 12.5575C126.289 12.1119 127.256 11.7365 128.249 11.431L127.955 10.4752ZM125.587 11.8973L124.103 8.65514L123.194 9.07142L124.678 12.3136L125.587 11.8973ZM123.883 9.30491C124.898 8.76577 126.059 8.32304 127.369 7.97975L127.115 7.01244C125.743 7.37227 124.508 7.841 123.414 8.42165L123.883 9.30491ZM127.368 7.98005C128.679 7.63958 130.043 7.46875 131.461 7.46875V6.46875C129.962 6.46875 128.513 6.64948 127.117 7.01214L127.368 7.98005ZM135.193 18.1683L132.4 18.2659L132.435 19.2653L135.228 19.1677L135.193 18.1683ZM132.401 18.2659C130.09 18.3447 128.346 18.737 127.291 19.5395L127.896 20.3355C128.69 19.7317 130.162 19.3428 132.435 19.2653L132.401 18.2659ZM127.291 19.5395C126.235 20.343 125.707 21.4578 125.707 22.8281H126.707C126.707 21.7506 127.104 20.9383 127.896 20.3355L127.291 19.5395ZM125.707 22.8281C125.707 23.9965 126.06 24.9488 126.858 25.567L127.47 24.7768C126.992 24.4054 126.707 23.7952 126.707 22.8281H125.707ZM126.863 25.5709C127.611 26.1356 128.566 26.3945 129.684 26.3945V25.3945C128.718 25.3945 127.994 25.1717 127.465 24.7729L126.863 25.5709ZM129.684 26.3945C131.372 26.3945 132.809 25.9142 133.955 24.9255L133.302 24.1683C132.365 24.9764 131.172 25.3945 129.684 25.3945V26.3945ZM133.956 24.9252C135.148 23.8949 135.711 22.4051 135.711 20.543H134.711C134.711 22.1964 134.219 23.3759 133.302 24.1686L133.956 24.9252ZM135.711 20.543V18.668H134.711V20.543H135.711ZM163.98 29V29.5H164.48V29H163.98ZM159.352 29H158.852V29.5H159.352V29ZM159.352 10.9727H159.852V10.4727H159.352V10.9727ZM153.355 10.9727V10.4727H152.894L152.857 10.9331L153.355 10.9727ZM150.914 25.0938L151.378 25.2802L151.379 25.2787L150.914 25.0938ZM144.195 29.1953L144.285 28.7034L144.278 28.7021L144.27 28.701L144.195 29.1953ZM143.043 28.8828H142.543V29.2142L142.848 29.3433L143.043 28.8828ZM143.043 25.2695L143.209 24.798L142.543 24.5628V25.2695H143.043ZM145.895 24.957L146.242 25.3163L146.242 25.3162L145.895 24.957ZM148.004 19.6641L148.494 19.7639L148.494 19.763L148.004 19.6641ZM148.785 14.5078L149.282 14.5655L149.282 14.5651L148.785 14.5078ZM149.41 7.37891V6.87891H148.943L148.911 7.34549L149.41 7.37891ZM163.98 7.37891H164.48V6.87891H163.98V7.37891ZM163.98 28.5H159.352V29.5H163.98V28.5ZM159.852 29V10.9727H158.852V29H159.852ZM159.352 10.4727H153.355V11.4727H159.352V10.4727ZM152.857 10.9331C152.597 14.2051 152.273 16.9958 151.886 19.308L152.872 19.4733C153.266 17.124 153.593 14.3028 153.854 11.0122L152.857 10.9331ZM151.886 19.308C151.498 21.619 151.018 23.4823 150.45 24.9088L151.379 25.2787C151.982 23.7625 152.478 21.8237 152.872 19.4733L151.886 19.308ZM150.45 24.9073C149.883 26.3179 149.204 27.2997 148.437 27.9041L149.056 28.6896C150.007 27.9399 150.773 26.7863 151.378 25.2802L150.45 24.9073ZM148.437 27.9041C147.675 28.5043 146.752 28.8125 145.641 28.8125V29.8125C146.951 29.8125 148.098 29.4437 149.056 28.6896L148.437 27.9041ZM145.641 28.8125C145.13 28.8125 144.679 28.7751 144.285 28.7034L144.106 29.6872C144.571 29.7718 145.083 29.8125 145.641 29.8125V28.8125ZM144.27 28.701C143.874 28.641 143.532 28.5467 143.238 28.4223L142.848 29.3433C143.231 29.5054 143.657 29.6194 144.12 29.6897L144.27 28.701ZM143.543 28.8828V25.2695H142.543V28.8828H143.543ZM142.877 25.741C143.123 25.828 143.387 25.899 143.668 25.9551L143.864 24.9746C143.624 24.9265 143.406 24.8673 143.209 24.798L142.877 25.741ZM143.668 25.9551C143.961 26.0139 144.261 26.043 144.566 26.043V25.043C144.325 25.043 144.091 25.02 143.864 24.9746L143.668 25.9551ZM144.566 26.043C145.199 26.043 145.762 25.7811 146.242 25.3163L145.547 24.5977C145.22 24.9142 144.897 25.043 144.566 25.043V26.043ZM146.242 25.3162C146.73 24.8442 147.146 24.1411 147.51 23.2518L146.584 22.8732C146.245 23.7026 145.893 24.2626 145.547 24.5979L146.242 25.3162ZM147.51 23.2518C147.878 22.3524 148.204 21.1861 148.494 19.7639L147.514 19.5643C147.231 20.9545 146.919 22.0539 146.584 22.8732L147.51 23.2518ZM148.494 19.763C148.784 18.3259 149.046 16.5925 149.282 14.5655L148.288 14.4501C148.055 16.4596 147.797 18.1637 147.514 19.5651L148.494 19.763ZM149.282 14.5651C149.517 12.5238 149.726 10.1392 149.909 7.41232L148.911 7.34549C148.729 10.0613 148.522 12.4293 148.288 14.4505L149.282 14.5651ZM149.41 7.87891H163.98V6.87891H149.41V7.87891ZM163.48 7.37891V29H164.48V7.37891H163.48ZM188.355 29V29.5H188.855V29H188.355ZM183.727 29H183.227V29.5H183.727V29ZM183.727 10.9727H184.227V10.4727H183.727V10.9727ZM177.73 10.9727V10.4727H177.269L177.232 10.9331L177.73 10.9727ZM175.289 25.0938L175.753 25.2802L175.754 25.2787L175.289 25.0938ZM168.57 29.1953L168.66 28.7034L168.653 28.7021L168.645 28.701L168.57 29.1953ZM167.418 28.8828H166.918V29.2142L167.223 29.3433L167.418 28.8828ZM167.418 25.2695L167.584 24.798L166.918 24.5628V25.2695H167.418ZM170.27 24.957L170.617 25.3163L170.617 25.3162L170.27 24.957ZM172.379 19.6641L172.869 19.7639L172.869 19.763L172.379 19.6641ZM173.16 14.5078L173.657 14.5655L173.657 14.5651L173.16 14.5078ZM173.785 7.37891V6.87891H173.318L173.286 7.34549L173.785 7.37891ZM188.355 7.37891H188.855V6.87891H188.355V7.37891ZM188.355 28.5H183.727V29.5H188.355V28.5ZM184.227 29V10.9727H183.227V29H184.227ZM183.727 10.4727H177.73V11.4727H183.727V10.4727ZM177.232 10.9331C176.972 14.2051 176.648 16.9958 176.261 19.308L177.247 19.4733C177.641 17.124 177.968 14.3028 178.229 11.0122L177.232 10.9331ZM176.261 19.308C175.873 21.619 175.393 23.4823 174.825 24.9088L175.754 25.2787C176.357 23.7625 176.853 21.8237 177.247 19.4733L176.261 19.308ZM174.825 24.9073C174.258 26.3179 173.579 27.2997 172.812 27.9041L173.431 28.6896C174.382 27.9399 175.148 26.7863 175.753 25.2802L174.825 24.9073ZM172.812 27.9041C172.05 28.5043 171.127 28.8125 170.016 28.8125V29.8125C171.326 29.8125 172.473 29.4437 173.431 28.6896L172.812 27.9041ZM170.016 28.8125C169.505 28.8125 169.054 28.7751 168.66 28.7034L168.481 29.6872C168.946 29.7718 169.458 29.8125 170.016 29.8125V28.8125ZM168.645 28.701C168.249 28.641 167.907 28.5467 167.613 28.4223L167.223 29.3433C167.606 29.5054 168.032 29.6194 168.495 29.6897L168.645 28.701ZM167.918 28.8828V25.2695H166.918V28.8828H167.918ZM167.252 25.741C167.498 25.828 167.762 25.899 168.043 25.9551L168.239 24.9746C167.999 24.9265 167.781 24.8673 167.584 24.798L167.252 25.741ZM168.043 25.9551C168.336 26.0139 168.636 26.043 168.941 26.043V25.043C168.7 25.043 168.466 25.02 168.239 24.9746L168.043 25.9551ZM168.941 26.043C169.574 26.043 170.137 25.7811 170.617 25.3163L169.922 24.5977C169.595 24.9142 169.272 25.043 168.941 25.043V26.043ZM170.617 25.3162C171.105 24.8442 171.521 24.1411 171.885 23.2518L170.959 22.8732C170.62 23.7026 170.268 24.2626 169.922 24.5979L170.617 25.3162ZM171.885 23.2518C172.253 22.3524 172.579 21.1861 172.869 19.7639L171.889 19.5643C171.606 20.9545 171.294 22.0539 170.959 22.8732L171.885 23.2518ZM172.869 19.763C173.159 18.3259 173.421 16.5925 173.657 14.5655L172.663 14.4501C172.43 16.4596 172.172 18.1637 171.889 19.5651L172.869 19.763ZM173.657 14.5651C173.892 12.5238 174.101 10.1392 174.284 7.41232L173.286 7.34549C173.104 10.0613 172.897 12.4293 172.663 14.4505L173.657 14.5651ZM173.785 7.87891H188.355V6.87891H173.785V7.87891ZM187.855 7.37891V29H188.855V7.37891H187.855ZM212.809 19.2344V19.7344H213.309V19.2344H212.809ZM198.375 19.2344V18.7344H197.862L197.875 19.2468L198.375 19.2344ZM200.055 24.0781L199.691 24.4211L199.693 24.4233L200.055 24.0781ZM208.297 25.3867L208.413 25.8731L208.417 25.8721L208.297 25.3867ZM211.715 24.1953H212.215V23.4259L211.512 23.7384L211.715 24.1953ZM211.715 27.9258L211.927 28.3783L212.215 28.2433V27.9258H211.715ZM198.785 28.1602L198.554 28.6037L198.559 28.6059L198.785 28.1602ZM195.016 24.4492L194.577 24.6894L194.579 24.692L195.016 24.4492ZM198.355 8.29688L198.099 7.86747L198.355 8.29688ZM200.035 11.832L199.674 11.4861L199.672 11.4887L200.035 11.832ZM198.473 15.9531L197.975 15.9101L197.928 16.4531H198.473V15.9531ZM208.316 15.9531V16.4531H208.822L208.816 15.9471L208.316 15.9531ZM207.77 13.082L207.306 13.2702L207.309 13.2764L207.77 13.082ZM206.207 11.1289L205.926 11.5425L205.93 11.5449L206.207 11.1289ZM203.551 7.46875C205.409 7.46875 206.972 7.85123 208.262 8.59352L208.761 7.72679C207.291 6.88054 205.547 6.46875 203.551 6.46875V7.46875ZM208.262 8.59352C209.556 9.33803 210.55 10.3914 211.25 11.7658L212.141 11.3123C211.356 9.77003 210.228 8.57083 208.761 7.72679L208.262 8.59352ZM211.25 11.7658C211.949 13.139 212.309 14.8024 212.309 16.7734H213.309C213.309 14.682 212.926 12.8558 212.141 11.3123L211.25 11.7658ZM212.309 16.7734V19.2344H213.309V16.7734H212.309ZM212.809 18.7344H198.375V19.7344H212.809V18.7344ZM197.875 19.2468C197.929 21.423 198.513 23.1714 199.691 24.4211L200.419 23.7352C199.461 22.7192 198.925 21.2384 198.875 19.222L197.875 19.2468ZM199.693 24.4233C200.89 25.6777 202.544 26.2773 204.586 26.2773V25.2773C202.748 25.2773 201.381 24.7442 200.416 23.733L199.693 24.4233ZM204.586 26.2773C205.997 26.2773 207.274 26.1443 208.413 25.8731L208.181 24.9003C207.133 25.1499 205.936 25.2773 204.586 25.2773V26.2773ZM208.417 25.8721C209.555 25.5908 210.722 25.1835 211.918 24.6522L211.512 23.7384C210.363 24.2488 209.252 24.6357 208.177 24.9013L208.417 25.8721ZM211.215 24.1953V27.9258H212.215V24.1953H211.215ZM211.502 27.4732C210.455 27.9653 209.392 28.3236 208.312 28.5497L208.516 29.5285C209.676 29.2858 210.813 28.9019 211.927 28.3783L211.502 27.4732ZM208.312 28.5497C207.235 28.775 205.93 28.8906 204.391 28.8906V29.8906C205.976 29.8906 207.353 29.7719 208.516 29.5285L208.312 28.5497ZM204.391 28.8906C202.333 28.8906 200.545 28.4934 199.012 27.7144L198.559 28.6059C200.255 29.4675 202.203 29.8906 204.391 29.8906V28.8906ZM199.016 27.7166C197.505 26.9304 196.319 25.7649 195.453 24.2064L194.579 24.692C195.536 26.4148 196.862 27.7233 198.554 28.6037L199.016 27.7166ZM195.454 24.2091C194.606 22.661 194.168 20.7115 194.168 18.3359H193.168C193.168 20.8302 193.628 22.9562 194.577 24.6894L195.454 24.2091ZM194.168 18.3359C194.168 15.9686 194.569 13.9902 195.348 12.3821L194.448 11.946C193.587 13.7233 193.168 15.8595 193.168 18.3359H194.168ZM195.348 12.3821C196.13 10.7692 197.218 9.55727 198.612 8.72628L198.099 7.86747C196.524 8.80732 195.307 10.1735 194.448 11.946L195.348 12.3821ZM198.612 8.72628C200.008 7.89345 201.648 7.46875 203.551 7.46875V6.46875C201.495 6.46875 199.672 6.92947 198.099 7.86747L198.612 8.72628ZM203.551 9.92578C201.986 9.92578 200.678 10.4385 199.674 11.4861L200.396 12.178C201.189 11.3505 202.225 10.9258 203.551 10.9258V9.92578ZM199.672 11.4887C198.683 12.536 198.137 14.0328 197.975 15.9101L198.971 15.9961C199.121 14.2536 199.617 13.0031 200.399 12.1753L199.672 11.4887ZM198.473 16.4531H208.316V15.4531H198.473V16.4531ZM208.816 15.9471C208.803 14.814 208.611 13.7911 208.23 12.8877L207.309 13.2764C207.631 14.0397 207.804 14.9308 207.816 15.9591L208.816 15.9471ZM208.233 12.8938C207.859 11.9739 207.276 11.2409 206.484 10.7129L205.93 11.5449C206.544 11.9544 207.003 12.5234 207.306 13.2702L208.233 12.8938ZM206.488 10.7153C205.694 10.1758 204.702 9.92578 203.551 9.92578V10.9258C204.561 10.9258 205.34 11.1446 205.926 11.5425L206.488 10.7153ZM235.25 9.78125L234.865 10.0998L234.866 10.1013L235.25 9.78125ZM236.5 24.332L236.041 24.1329L236.041 24.1346L236.5 24.332ZM233.473 28.1211L233.747 28.5391L233.748 28.5384L233.473 28.1211ZM224.039 27.8477L223.722 28.2347L223.728 28.239L224.039 27.8477ZM222.594 26.3242L223.001 26.0336L222.851 25.8242H222.594V26.3242ZM222.32 26.3242V25.8242H221.754L221.824 26.3862L222.32 26.3242ZM222.496 28.0625L221.998 28.1032L221.999 28.1143L222.496 28.0625ZM222.594 38.5898V39.0898H223.094V38.5898H222.594ZM217.984 38.5898H217.484V39.0898H217.984V38.5898ZM217.984 7.37891V6.87891H217.484V7.37891H217.984ZM221.734 7.37891L222.223 7.27349L222.138 6.87891H221.734V7.37891ZM222.379 10.3672L221.89 10.4726L221.975 10.8672H222.379V10.3672ZM222.594 10.3672V10.8672H222.863L223.011 10.6425L222.594 10.3672ZM224.059 8.66797L223.726 8.29424L223.722 8.298L224.059 8.66797ZM226.168 7.4375L226.339 7.9072L226.344 7.90566L226.168 7.4375ZM224.801 11.4805L225.075 11.8987L225.076 11.8976L224.801 11.4805ZM223.141 13.7266L222.669 13.5611L222.667 13.5666L223.141 13.7266ZM222.594 17.4961L222.094 17.4875V17.4961H222.594ZM223.082 22.2227L222.602 22.3622L222.604 22.3689L223.082 22.2227ZM224.742 24.7617L224.439 25.1594L224.447 25.1649L224.742 24.7617ZM230.68 24.7031L230.362 24.3173L230.358 24.3201L230.68 24.7031ZM231.637 12.6523L231.215 12.9208L231.217 12.9238L231.637 12.6523ZM229.078 7.46875C231.503 7.46875 233.416 8.34671 234.865 10.0998L235.635 9.46274C233.985 7.46579 231.783 6.46875 229.078 6.46875V7.46875ZM234.866 10.1013C236.323 11.8503 237.094 14.5019 237.094 18.1406H238.094C238.094 14.3835 237.302 11.4622 235.634 9.46116L234.866 10.1013ZM237.094 18.1406C237.094 20.5419 236.736 22.5334 236.041 24.1329L236.959 24.5311C237.723 22.7713 238.094 20.6352 238.094 18.1406H237.094ZM236.041 24.1346C235.357 25.7266 234.405 26.9065 233.197 27.7038L233.748 28.5384C235.144 27.6169 236.211 26.2708 236.959 24.5294L236.041 24.1346ZM233.198 27.7031C232 28.4899 230.594 28.8906 228.961 28.8906V29.8906C230.766 29.8906 232.367 29.4449 233.747 28.5391L233.198 27.7031ZM228.961 28.8906C227.909 28.8906 227.018 28.7527 226.277 28.4897L225.942 29.4322C226.816 29.7421 227.825 29.8906 228.961 29.8906V28.8906ZM226.277 28.4897C225.513 28.2187 224.873 27.8724 224.35 27.4564L223.728 28.239C224.351 28.7344 225.091 29.1303 225.942 29.4322L226.277 28.4897ZM224.356 27.4607C223.814 27.0171 223.363 26.5411 223.001 26.0336L222.187 26.6148C222.606 27.2011 223.119 27.7407 223.722 28.2346L224.356 27.4607ZM222.594 25.8242H222.32V26.8242H222.594V25.8242ZM221.824 26.3862C221.888 26.8986 221.946 27.4708 221.998 28.1032L222.994 28.0218C222.942 27.3782 222.883 26.7915 222.816 26.2622L221.824 26.3862ZM221.999 28.1143C222.062 28.7255 222.094 29.2808 222.094 29.7812H223.094C223.094 29.24 223.06 28.6495 222.993 28.0107L221.999 28.1143ZM222.094 29.7812V38.5898H223.094V29.7812H222.094ZM222.594 38.0898H217.984V39.0898H222.594V38.0898ZM218.484 38.5898V7.37891H217.484V38.5898H218.484ZM217.984 7.87891H221.734V6.87891H217.984V7.87891ZM221.246 7.48433L221.89 10.4726L222.868 10.2618L222.223 7.27349L221.246 7.48433ZM222.379 10.8672H222.594V9.86719H222.379V10.8672ZM223.011 10.6425C223.391 10.0672 223.851 9.53229 224.395 9.03794L223.722 8.298C223.12 8.84531 222.604 9.4432 222.176 10.0919L223.011 10.6425ZM224.391 9.04167C224.925 8.56717 225.572 8.18752 226.339 7.90718L225.996 6.96782C225.124 7.28643 224.364 7.7271 223.726 8.29426L224.391 9.04167ZM226.344 7.90566C227.109 7.61864 228.017 7.46875 229.078 7.46875V6.46875C227.925 6.46875 226.894 6.63136 225.992 6.96934L226.344 7.90566ZM227.848 10.2188C226.522 10.2188 225.4 10.4848 224.525 11.0634L225.076 11.8976C225.738 11.4605 226.647 11.2188 227.848 11.2188V10.2188ZM224.527 11.0622C223.664 11.6274 223.05 12.4738 222.669 13.5611L223.612 13.892C223.934 12.9741 224.427 12.3231 225.075 11.8987L224.527 11.0622ZM222.667 13.5666C222.306 14.634 222.12 15.9456 222.094 17.4875L223.094 17.5047C223.119 16.0257 223.298 14.8244 223.614 13.8865L222.667 13.5666ZM222.094 17.4961V18.1406H223.094V17.4961H222.094ZM222.094 18.1406C222.094 19.7731 222.259 21.1837 222.602 22.3622L223.562 22.0831C223.254 21.022 223.094 19.7112 223.094 18.1406H222.094ZM222.604 22.3689C222.967 23.5554 223.572 24.4982 224.439 25.1593L225.045 24.3642C224.376 23.8534 223.874 23.1034 223.56 22.0764L222.604 22.3689ZM224.447 25.1649C225.34 25.8203 226.51 26.1211 227.906 26.1211V25.1211C226.646 25.1211 225.707 24.849 225.038 24.3585L224.447 25.1649ZM227.906 26.1211C229.122 26.1211 230.167 25.7866 231.001 25.0861L230.358 24.3201C229.735 24.8436 228.93 25.1211 227.906 25.1211V26.1211ZM230.998 25.0889C231.829 24.4031 232.429 23.4414 232.816 22.2391L231.864 21.9328C231.522 22.9961 231.014 23.7792 230.362 24.3174L230.998 25.0889ZM232.816 22.2391C233.2 21.0448 233.387 19.6562 233.387 18.082H232.387C232.387 19.5808 232.209 20.8614 231.864 21.9328L232.816 22.2391ZM233.387 18.082C233.387 15.7015 232.963 13.7826 232.057 12.3809L231.217 12.9238C231.977 14.1002 232.387 15.8011 232.387 18.082H233.387ZM232.059 12.3839C231.134 10.9318 229.701 10.2188 227.848 10.2188V11.2188C229.406 11.2188 230.498 11.7948 231.215 12.9208L232.059 12.3839ZM260.777 19.2344V19.7344H261.277V19.2344H260.777ZM246.344 19.2344V18.7344H245.831L245.844 19.2468L246.344 19.2344ZM248.023 24.0781L247.66 24.4211L247.662 24.4233L248.023 24.0781ZM256.266 25.3867L256.381 25.8731L256.386 25.8721L256.266 25.3867ZM259.684 24.1953H260.184V23.4259L259.481 23.7384L259.684 24.1953ZM259.684 27.9258L259.896 28.3783L260.184 28.2433V27.9258H259.684ZM246.754 28.1602L246.523 28.6037L246.527 28.6059L246.754 28.1602ZM242.984 24.4492L242.546 24.6894L242.547 24.692L242.984 24.4492ZM246.324 8.29688L246.068 7.86747L246.324 8.29688ZM248.004 11.832L247.643 11.4861L247.64 11.4887L248.004 11.832ZM246.441 15.9531L245.943 15.9101L245.896 16.4531H246.441V15.9531ZM256.285 15.9531V16.4531H256.791L256.785 15.9471L256.285 15.9531ZM255.738 13.082L255.275 13.2702L255.278 13.2764L255.738 13.082ZM254.176 11.1289L253.895 11.5425L253.898 11.5449L254.176 11.1289ZM251.52 7.46875C253.377 7.46875 254.941 7.85123 256.231 8.59352L256.73 7.72679C255.259 6.88054 253.516 6.46875 251.52 6.46875V7.46875ZM256.231 8.59352C257.525 9.33803 258.519 10.3914 259.218 11.7658L260.11 11.3123C259.325 9.77003 258.197 8.57083 256.73 7.72679L256.231 8.59352ZM259.218 11.7658C259.917 13.139 260.277 14.8024 260.277 16.7734H261.277C261.277 14.682 260.895 12.8558 260.11 11.3123L259.218 11.7658ZM260.277 16.7734V19.2344H261.277V16.7734H260.277ZM260.777 18.7344H246.344V19.7344H260.777V18.7344ZM245.844 19.2468C245.898 21.423 246.482 23.1714 247.66 24.4211L248.387 23.7352C247.43 22.7192 246.894 21.2384 246.844 19.222L245.844 19.2468ZM247.662 24.4233C248.858 25.6777 250.513 26.2773 252.555 26.2773V25.2773C250.716 25.2773 249.35 24.7442 248.385 23.733L247.662 24.4233ZM252.555 26.2773C253.965 26.2773 255.242 26.1443 256.381 25.8731L256.15 24.9003C255.101 25.1499 253.904 25.2773 252.555 25.2773V26.2773ZM256.386 25.8721C257.524 25.5908 258.691 25.1835 259.887 24.6522L259.481 23.7384C258.332 24.2488 257.221 24.6357 256.146 24.9013L256.386 25.8721ZM259.184 24.1953V27.9258H260.184V24.1953H259.184ZM259.471 27.4732C258.424 27.9653 257.361 28.3236 256.28 28.5497L256.485 29.5285C257.645 29.2858 258.782 28.9019 259.896 28.3783L259.471 27.4732ZM256.28 28.5497C255.204 28.775 253.899 28.8906 252.359 28.8906V29.8906C253.945 29.8906 255.322 29.7719 256.485 29.5285L256.28 28.5497ZM252.359 28.8906C250.302 28.8906 248.514 28.4934 246.98 27.7144L246.527 28.6059C248.223 29.4675 250.172 29.8906 252.359 29.8906V28.8906ZM246.985 27.7166C245.474 26.9304 244.287 25.7649 243.421 24.2064L242.547 24.692C243.504 26.4148 244.831 27.7233 246.523 28.6037L246.985 27.7166ZM243.423 24.2091C242.575 22.661 242.137 20.7115 242.137 18.3359H241.137C241.137 20.8302 241.597 22.9562 242.546 24.6894L243.423 24.2091ZM242.137 18.3359C242.137 15.9686 242.538 13.9902 243.317 12.3821L242.417 11.946C241.556 13.7233 241.137 15.8595 241.137 18.3359H242.137ZM243.317 12.3821C244.099 10.7692 245.187 9.55727 246.58 8.72628L246.068 7.86747C244.492 8.80732 243.276 10.1735 242.417 11.946L243.317 12.3821ZM246.58 8.72628C247.977 7.89345 249.617 7.46875 251.52 7.46875V6.46875C249.464 6.46875 247.641 6.92947 246.068 7.86747L246.58 8.72628ZM251.52 9.92578C249.955 9.92578 248.647 10.4385 247.643 11.4861L248.365 12.178C249.158 11.3505 250.194 10.9258 251.52 10.9258V9.92578ZM247.64 11.4887C246.651 12.536 246.105 14.0328 245.943 15.9101L246.94 15.9961C247.09 14.2536 247.586 13.0031 248.367 12.1753L247.64 11.4887ZM246.441 16.4531H256.285V15.4531H246.441V16.4531ZM256.785 15.9471C256.771 14.814 256.58 13.7911 256.199 12.8877L255.278 13.2764C255.6 14.0397 255.773 14.9308 255.785 15.9591L256.785 15.9471ZM256.202 12.8938C255.828 11.9739 255.245 11.2409 254.453 10.7129L253.898 11.5449C254.513 11.9544 254.972 12.5234 255.275 13.2702L256.202 12.8938ZM254.457 10.7153C253.662 10.1758 252.671 9.92578 251.52 9.92578V10.9258C252.529 10.9258 253.309 11.1446 253.895 11.5425L254.457 10.7153ZM268.121 29V29.5H268.397L268.544 29.2668L268.121 29ZM263.004 29L262.591 28.7178L262.056 29.5H263.004V29ZM269.039 20.1719L269.452 20.4541L269.831 19.8988L269.19 19.6953L269.039 20.1719ZM266.734 19.0195L266.437 19.4214L266.445 19.4274L266.734 19.0195ZM265.016 16.9883L264.573 17.22L264.574 17.2229L265.016 16.9883ZM266.617 9.05859L266.319 8.65694L266.617 9.05859ZM282.34 7.37891H282.84V6.87891H282.34V7.37891ZM282.34 29V29.5H282.84V29H282.34ZM277.75 29H277.25V29.5H277.75V29ZM277.75 20.6406H278.25V20.1406H277.75V20.6406ZM273.395 20.6406V20.1406H273.119L272.972 20.3739L273.395 20.6406ZM270.074 16.4414L269.788 16.8514L269.792 16.8544L270.074 16.4414ZM277.75 17.2812V17.7812H278.25V17.2812H277.75ZM277.75 10.8359H278.25V10.3359H277.75V10.8359ZM269.781 11.7344L270.123 12.0992L270.127 12.0954L269.781 11.7344ZM268.121 28.5H263.004V29.5H268.121V28.5ZM263.417 29.2822L269.452 20.4541L268.626 19.8897L262.591 28.7178L263.417 29.2822ZM269.19 19.6953C268.42 19.4508 267.698 19.0902 267.024 18.6117L266.445 19.4274C267.203 19.9645 268.017 20.3721 268.888 20.6484L269.19 19.6953ZM267.032 18.6178C266.393 18.1446 265.868 17.5265 265.457 16.7537L264.574 17.2229C265.049 18.1167 265.669 18.8527 266.437 19.4213L267.032 18.6178ZM265.459 16.7565C265.062 15.9983 264.852 15.0537 264.852 13.9023H263.852C263.852 15.1729 264.084 16.2856 264.573 17.22L265.459 16.7565ZM264.852 13.9023C264.852 11.9291 265.549 10.4733 266.915 9.46025L266.319 8.65694C264.665 9.88352 263.852 11.6568 263.852 13.9023H264.852ZM266.915 9.46025C268.317 8.42092 270.176 7.87891 272.535 7.87891V6.87891C270.025 6.87891 267.938 7.45669 266.319 8.65694L266.915 9.46025ZM272.535 7.87891H282.34V6.87891H272.535V7.87891ZM281.84 7.37891V29H282.84V7.37891H281.84ZM282.34 28.5H277.75V29.5H282.34V28.5ZM278.25 29V20.6406H277.25V29H278.25ZM277.75 20.1406H273.395V21.1406H277.75V20.1406ZM272.972 20.3739L267.698 28.7332L268.544 29.2668L273.817 20.9074L272.972 20.3739ZM268.344 13.9414C268.344 15.1807 268.82 16.1751 269.788 16.8513L270.361 16.0315C269.688 15.5619 269.344 14.8896 269.344 13.9414H268.344ZM269.792 16.8544C270.724 17.4905 271.955 17.7812 273.434 17.7812V16.7812C272.074 16.7812 271.065 16.5121 270.356 16.0284L269.792 16.8544ZM273.434 17.7812H277.75V16.7812H273.434V17.7812ZM278.25 17.2812V10.8359H277.25V17.2812H278.25ZM277.75 10.3359H272.77V11.3359H277.75V10.3359ZM272.77 10.3359C271.345 10.3359 270.195 10.6455 269.435 11.3734L270.127 12.0954C270.618 11.6253 271.459 11.3359 272.77 11.3359V10.3359ZM269.439 11.3696C268.71 12.0536 268.344 12.923 268.344 13.9414H269.344C269.344 13.189 269.603 12.587 270.123 12.0991L269.439 11.3696Z" fill="black"/>
</svg>
