<svg width="269" height="41" viewBox="0 0 269 41" fill="none" xmlns="http://www.w3.org/2000/svg">
<path d="M26.2617 22.6992L25.784 22.5515L25.7834 22.5536L26.2617 22.6992ZM23.7812 27.3477L24.1606 27.6734L24.1622 27.6715L23.7812 27.3477ZM19.6211 30.3359L19.8154 30.7966L19.6211 30.3359ZM7.82422 30.3359L7.62987 30.7966L7.63115 30.7972L7.82422 30.3359ZM3.66406 27.3281L3.2812 27.6497L3.28309 27.6519L3.66406 27.3281ZM1.82812 8.94922L1.37111 8.7464L1.37055 8.74767L1.82812 8.94922ZM6.26172 3.83203L6.52267 4.25853L6.52346 4.25805L6.26172 3.83203ZM25.6172 8.92969L25.1602 9.13251L25.1616 9.13577L25.6172 8.92969ZM6.20312 22.4062L5.73434 22.5802L5.7348 22.5814L6.20312 22.4062ZM8.95703 26.1172L8.66884 26.5258L8.67377 26.5292L8.95703 26.1172ZM18.5664 26.1172L18.8517 26.5278L18.8546 26.5258L18.5664 26.1172ZM21.3008 22.4062L21.7703 22.578L21.7708 22.5768L21.3008 22.4062ZM20.168 8.83203L19.7581 9.11839L19.7603 9.12159L20.168 8.83203ZM8.97656 7.26953L8.69529 6.85614L8.6933 6.85751L8.97656 7.26953ZM6.20312 10.9609L6.67098 11.1373L6.67145 11.1361L6.20312 10.9609ZM26.6016 16.6836C26.6016 18.8419 26.327 20.7964 25.7841 22.5515L26.7394 22.847C27.3163 20.9822 27.6016 18.9263 27.6016 16.6836H26.6016ZM25.7834 22.5536C25.2544 24.2916 24.4585 25.7788 23.4003 27.0238L24.1622 27.6715C25.3175 26.3123 26.1752 24.7006 26.7401 22.8448L25.7834 22.5536ZM23.4019 27.0219C22.3488 28.2485 21.0269 29.2002 19.4267 29.8753L19.8154 30.7966C21.5487 30.0654 23.0002 29.0249 24.1606 27.6734L23.4019 27.0219ZM19.4267 29.8753C17.8344 30.547 15.95 30.8906 13.7617 30.8906V31.8906C16.0526 31.8906 18.0745 31.5311 19.8154 30.7966L19.4267 29.8753ZM13.7617 30.8906C11.5333 30.8906 9.62255 30.5467 8.01729 29.8747L7.63115 30.7972C9.38526 31.5314 11.4329 31.8906 13.7617 31.8906V30.8906ZM8.01857 29.8753C6.41963 29.2007 5.0982 28.2433 4.04503 27.0043L3.28309 27.6519C4.44347 29.0171 5.89548 30.0649 7.62987 30.7966L8.01857 29.8753ZM4.04691 27.0065C3.00139 25.7619 2.21122 24.2678 1.68175 22.5155L0.724497 22.8048C1.28878 24.6723 2.13923 26.2902 3.28121 27.6497L4.04691 27.0065ZM1.68175 22.5155C1.15115 20.7595 0.882812 18.8039 0.882812 16.6445H-0.117188C-0.117188 18.8862 0.161352 20.941 0.724497 22.8048L1.68175 22.5155ZM0.882812 16.6445C0.882812 13.7556 1.35581 11.2619 2.2857 9.15077L1.37055 8.74767C0.373355 11.0116 -0.117188 13.648 -0.117188 16.6445H0.882812ZM2.28514 9.15204C3.2222 7.04054 4.63343 5.41445 6.52267 4.25853L6.00077 3.40553C3.93167 4.67149 2.38718 6.45686 1.37111 8.7464L2.28514 9.15204ZM6.52346 4.25805C8.41672 3.09487 10.8323 2.49609 13.8008 2.49609V1.49609C10.7015 1.49609 8.0911 2.12127 5.99998 3.40601L6.52346 4.25805ZM13.8008 2.49609C16.703 2.49609 19.0732 3.0879 20.9409 4.23823L21.4653 3.38677C19.4008 2.11522 16.8361 1.49609 13.8008 1.49609V2.49609ZM20.9409 4.23823C22.8173 5.39389 24.2227 7.02009 25.1602 9.13251L26.0742 8.72687C25.0585 6.43825 23.5212 4.65298 21.4653 3.38677L20.9409 4.23823ZM25.1616 9.13577C26.1157 11.2448 26.6016 13.7562 26.6016 16.6836H27.6016C27.6016 13.6475 27.0978 10.9895 26.0727 8.7236L25.1616 9.13577ZM4.80469 16.6836C4.80469 18.9277 5.1099 20.8969 5.73434 22.5802L6.67191 22.2323C6.09844 20.6865 5.80469 18.8405 5.80469 16.6836H4.80469ZM5.7348 22.5814C6.36425 24.2645 7.33934 25.5881 8.66886 26.5258L9.2452 25.7086C8.10076 24.9015 7.23992 23.7512 6.67145 22.2311L5.7348 22.5814ZM8.67377 26.5292C10.0281 27.4603 11.7364 27.9062 13.7617 27.9062V26.9062C11.8808 26.9062 10.3859 26.4928 9.2403 25.7052L8.67377 26.5292ZM13.7617 27.9062C15.799 27.9062 17.5087 27.4608 18.8517 26.5278L18.2811 25.7066C17.1501 26.4923 15.6568 26.9062 13.7617 26.9062V27.9062ZM18.8546 26.5258C20.185 25.5875 21.154 24.2626 21.7703 22.578L20.8312 22.2345C20.2756 23.753 19.4218 24.9021 18.2782 25.7086L18.8546 26.5258ZM21.7708 22.5768C22.3813 20.8946 22.6797 18.9267 22.6797 16.6836H21.6797C21.6797 18.8415 21.3922 20.6887 20.8308 22.2357L21.7708 22.5768ZM22.6797 16.6836C22.6797 13.2777 21.9982 10.5452 20.5756 8.54248L19.7603 9.12159C21.02 10.895 21.6797 13.3968 21.6797 16.6836H22.6797ZM20.5778 8.54568C19.1321 6.47624 16.8336 5.48047 13.8008 5.48047V6.48047C16.6013 6.48047 18.5476 7.38574 19.7581 9.11839L20.5778 8.54568ZM13.8008 5.48047C11.7752 5.48047 10.0616 5.92648 8.69529 6.85615L9.25783 7.68292C10.4175 6.89383 11.9201 6.48047 13.8008 6.48047V5.48047ZM8.6933 6.85751C7.34825 7.78223 6.36494 9.10087 5.7348 10.7858L6.67145 11.1361C7.23923 9.61788 8.10488 8.47558 9.25983 7.68155L8.6933 6.85751ZM5.73528 10.7845C5.10958 12.444 4.80469 14.4145 4.80469 16.6836H5.80469C5.80469 14.4995 6.09875 12.655 6.67097 11.1373L5.73528 10.7845ZM41.6133 2.01562L41.7129 2.50575L41.7248 2.50303L41.6133 2.01562ZM51.0664 0.394531L51.5605 0.318144L51.4847 -0.172593L50.9934 -0.100114L51.0664 0.394531ZM51.6914 4.4375L51.7524 4.93377L52.2643 4.8709L52.1855 4.36111L51.6914 4.4375ZM49.3086 4.76953L49.3772 5.26486L49.3846 5.26372L49.3086 4.76953ZM46.75 5.14062L46.6751 4.64627L46.674 4.64644L46.75 5.14062ZM44.3086 5.55078L44.3922 6.04379L44.3988 6.04258L44.3086 5.55078ZM42.2383 5.94141L42.3423 6.43046L42.2383 5.94141ZM39.1328 7.23047L39.4204 7.63949L39.4216 7.6386L39.1328 7.23047ZM36.3398 14.3398L35.8404 14.3157L35.8151 14.8398H36.3398V14.3398ZM36.5938 14.3398V14.8398H36.8632L37.0113 14.6148L36.5938 14.3398ZM40.3242 11.4102L40.5087 11.8749L40.5122 11.8735L40.3242 11.4102ZM47.9609 11.9961L47.7024 12.4241L47.7043 12.4252L47.9609 11.9961ZM50.832 15.2773L50.3768 15.4843L50.3784 15.4877L50.832 15.2773ZM50.5391 26.5078L50.0969 26.2744L50.0962 26.2757L50.5391 26.5078ZM37.4336 30.5117L37.2195 30.9636L37.2214 30.9644L37.4336 30.5117ZM34.25 27.9336L33.8521 28.2365L33.8561 28.2415L34.25 27.9336ZM32.2383 23.7344L31.757 23.8697L31.7572 23.8707L32.2383 23.7344ZM44.6602 26.957L44.4105 26.5238L44.4073 26.5257L44.6602 26.957ZM46.4375 24.8086L45.9788 24.6094L45.9767 24.6146L46.4375 24.8086ZM45.9883 16.1562L45.5629 16.4191L45.5665 16.4247L45.9883 16.1562ZM39.6406 15.1016L39.4036 14.6613L39.6406 15.1016ZM37.4922 16.7031L37.8496 17.0528L37.8533 17.0489L37.4922 16.7031ZM36.2422 18.2852L35.8028 18.0466L35.7422 18.1582V18.2852H36.2422ZM36.4961 21.7227L36.0018 21.7983L36.0027 21.8039L36.4961 21.7227ZM37.3945 24.7305L36.9409 24.9409L36.9447 24.9488L37.3945 24.7305ZM32.0352 18.0312C32.0352 14.927 32.3768 12.3113 33.0474 10.1731L32.0932 9.87382C31.3836 12.1367 31.0352 14.8595 31.0352 18.0312H32.0352ZM33.0474 10.1731C33.7149 8.04469 34.7581 6.36224 36.1654 5.10309L35.4986 4.35785C33.9372 5.75495 32.806 7.60114 32.0932 9.87382L33.0474 10.1731ZM36.1654 5.10309C37.5708 3.84562 39.4115 2.97347 41.7129 2.5056L41.5137 1.52565C39.0755 2.02132 37.062 2.95907 35.4986 4.35785L36.1654 5.10309ZM41.7248 2.50303C43.2496 2.15414 44.8006 1.85686 46.3777 1.61123L46.2238 0.623143C44.6239 0.87231 43.0499 1.17399 41.5018 1.52822L41.7248 2.50303ZM46.3777 1.61123C47.9649 1.36404 49.5522 1.12336 51.1394 0.889176L50.9934 -0.100114C49.4036 0.134456 47.8137 0.375542 46.2238 0.623143L46.3777 1.61123ZM50.5723 0.470919L51.1973 4.51389L52.1855 4.36111L51.5605 0.318144L50.5723 0.470919ZM51.6305 3.94123C50.8826 4.03307 50.0832 4.14447 49.2326 4.27535L49.3846 5.26372C50.2267 5.13417 51.0159 5.02422 51.7524 4.93377L51.6305 3.94123ZM49.24 4.27426C48.3915 4.39174 47.5365 4.51575 46.6751 4.64627L46.8249 5.63498C47.6822 5.50509 48.533 5.3817 49.3772 5.26481L49.24 4.27426ZM46.674 4.64644C45.8233 4.77732 45.0047 4.91482 44.2184 5.05898L44.3988 6.04258C45.175 5.90028 45.984 5.76435 46.826 5.63481L46.674 4.64644ZM44.225 5.05781C43.4515 5.18891 42.7544 5.3204 42.1342 5.45235L42.3423 6.43046C42.9461 6.302 43.6292 6.17306 44.3921 6.04375L44.225 5.05781ZM42.1342 5.45235C40.8573 5.72405 39.756 6.17689 38.844 6.82233L39.4216 7.6386C40.2023 7.08613 41.1714 6.6796 42.3423 6.43046L42.1342 5.45235ZM38.8452 6.82145C37.9197 7.4722 37.2153 8.41491 36.7177 9.61742L37.6417 9.99977C38.0816 8.93665 38.6792 8.16062 39.4204 7.63948L38.8452 6.82145ZM36.7177 9.61742C36.2184 10.824 35.933 12.398 35.8404 14.3157L36.8393 14.364C36.929 12.5057 37.2035 11.0588 37.6417 9.99977L36.7177 9.61742ZM36.3398 14.8398H36.5938V13.8398H36.3398V14.8398ZM37.0113 14.6148C37.3309 14.1296 37.7844 13.63 38.3833 13.1185L37.7339 12.3581C37.0828 12.9142 36.5597 13.4824 36.1762 14.0648L37.0113 14.6148ZM38.3833 13.1185C38.9605 12.6255 39.6664 12.2093 40.5087 11.8749L40.1397 10.9454C39.2112 11.3141 38.4067 11.7834 37.7339 12.3581L38.3833 13.1185ZM40.5122 11.8735C41.3411 11.5371 42.2977 11.3633 43.3906 11.3633V10.3633C42.1918 10.3633 41.1042 10.5541 40.1362 10.9468L40.5122 11.8735ZM43.3906 11.3633C45.1173 11.3633 46.5465 11.7257 47.7024 12.4241L48.2195 11.5681C46.8753 10.756 45.2577 10.3633 43.3906 10.3633V11.3633ZM47.7043 12.4252C48.874 13.1246 49.7648 14.1378 50.3768 15.4842L51.2872 15.0704C50.5972 13.5524 49.574 12.378 48.2175 11.567L47.7043 12.4252ZM50.3784 15.4877C51.0047 16.8384 51.3281 18.488 51.3281 20.4531H52.3281C52.3281 18.3818 51.9875 16.5809 51.2856 15.067L50.3784 15.4877ZM51.3281 20.4531C51.3281 22.8049 50.9084 24.7375 50.0969 26.2744L50.9812 26.7413C51.8885 25.0229 52.3281 22.9191 52.3281 20.4531H51.3281ZM50.0962 26.2757C49.2936 27.8069 48.1781 28.9495 46.7473 29.7199L47.2214 30.6004C48.8375 29.7302 50.0919 28.4379 50.9819 26.7399L50.0962 26.2757ZM46.7473 29.7199C45.3085 30.4947 43.6153 30.8906 41.6523 30.8906V31.8906C43.7519 31.8906 45.6134 31.4662 47.2214 30.6004L46.7473 29.7199ZM41.6523 30.8906C40.1535 30.8906 38.8211 30.6099 37.6458 30.059L37.2214 30.9644C38.546 31.5854 40.0262 31.8906 41.6523 31.8906V30.8906ZM37.6476 30.0598C36.4846 29.5089 35.4839 28.7003 34.6439 27.6257L33.8561 28.2415C34.7869 29.4325 35.9087 30.3426 37.2196 30.9636L37.6476 30.0598ZM34.6478 27.6307C33.8199 26.5433 33.1742 25.2028 32.7193 23.598L31.7572 23.8707C32.2398 25.5732 32.9353 27.0322 33.8522 28.2365L34.6478 27.6307ZM32.7196 23.599C32.2657 21.9852 32.0352 20.1311 32.0352 18.0312H31.0352C31.0352 20.2022 31.2733 22.1502 31.757 23.8697L32.7196 23.599ZM41.9648 28.1211C43.0784 28.1211 44.0677 27.8839 44.913 27.3884L44.4073 26.5257C43.7422 26.9156 42.9346 27.1211 41.9648 27.1211V28.1211ZM44.9098 27.3902C45.7913 26.8823 46.4485 26.071 46.8983 25.0026L45.9767 24.6146C45.5932 25.5253 45.0655 26.1464 44.4105 26.5238L44.9098 27.3902ZM46.8961 25.0077C47.3634 23.9317 47.582 22.5474 47.582 20.8828H46.582C46.582 22.4735 46.371 23.7063 45.9789 24.6095L46.8961 25.0077ZM47.582 20.8828C47.582 18.8251 47.2092 17.1435 46.4101 15.8878L45.5665 16.4247C46.2257 17.4607 46.582 18.9301 46.582 20.8828H47.582ZM46.4136 15.8934C45.5858 14.5539 44.2175 13.918 42.4336 13.918V14.918C43.957 14.918 44.9584 15.4409 45.5629 16.4191L46.4136 15.8934ZM42.4336 13.918C41.3401 13.918 40.3269 14.1641 39.4036 14.6613L39.8777 15.5418C40.647 15.1275 41.4959 14.918 42.4336 14.918V13.918ZM39.4036 14.6613C38.5173 15.1386 37.7576 15.7029 37.131 16.3573L37.8533 17.0489C38.3986 16.4794 39.0713 15.976 39.8777 15.5418L39.4036 14.6613ZM37.1348 16.3535C36.5337 16.9679 36.0815 17.5331 35.8028 18.0466L36.6816 18.5237C36.8976 18.1257 37.2788 17.6363 37.8496 17.0528L37.1348 16.3535ZM35.7422 18.2852C35.7422 19.4939 35.8285 20.6651 36.0018 21.7982L36.9903 21.6471C36.8251 20.5667 36.7422 19.4462 36.7422 18.2852H35.7422ZM36.0027 21.8039C36.1914 22.9495 36.5029 23.9963 36.9409 24.9408L37.8481 24.5201C37.4528 23.6677 37.1653 22.7093 36.9894 21.6414L36.0027 21.8039ZM36.9447 24.9488C37.4082 25.9039 38.0475 26.6754 38.8651 27.2491L39.4396 26.4306C38.7728 25.9627 38.2402 25.3279 37.8444 24.5122L36.9447 24.9488ZM38.8651 27.2491C39.7104 27.8423 40.7551 28.1211 41.9648 28.1211V27.1211C40.909 27.1211 40.0787 26.8791 39.4396 26.4306L38.8651 27.2491ZM74.3672 11.7812L73.9818 12.0998L73.9831 12.1013L74.3672 11.7812ZM75.6172 26.332L75.1585 26.1329L75.1578 26.1346L75.6172 26.332ZM72.5898 30.1211L72.8643 30.5391L72.8653 30.5384L72.5898 30.1211ZM63.1562 29.8477L62.8396 30.2347L62.845 30.239L63.1562 29.8477ZM61.7109 28.3242L62.1178 28.0336L61.9682 27.8242H61.7109V28.3242ZM61.4375 28.3242V27.8242H60.8711L60.9414 28.3862L61.4375 28.3242ZM61.6133 30.0625L61.1148 30.1032L61.116 30.1143L61.6133 30.0625ZM61.7109 40.5898V41.0898H62.2109V40.5898H61.7109ZM57.1016 40.5898H56.6016V41.0898H57.1016V40.5898ZM57.1016 9.37891V8.87891H56.6016V9.37891H57.1016ZM60.8516 9.37891L61.3403 9.27349L61.2552 8.87891H60.8516V9.37891ZM61.4961 12.3672L61.0073 12.4726L61.0924 12.8672H61.4961V12.3672ZM61.7109 12.3672V12.8672H61.9801L62.1283 12.6425L61.7109 12.3672ZM63.1758 10.668L62.8436 10.2942L62.8394 10.298L63.1758 10.668ZM65.2852 9.4375L65.4566 9.9072L65.4607 9.90566L65.2852 9.4375ZM63.918 13.4805L64.192 13.8987L64.1937 13.8976L63.918 13.4805ZM62.2578 15.7266L61.7859 15.5611L61.7841 15.5666L62.2578 15.7266ZM61.7109 19.4961L61.2109 19.4875V19.4961H61.7109ZM62.1992 24.2227L61.719 24.3622L61.7211 24.3689L62.1992 24.2227ZM63.8594 26.7617L63.5561 27.1594L63.5637 27.1649L63.8594 26.7617ZM69.7969 26.7031L69.4788 26.3173L69.4754 26.3201L69.7969 26.7031ZM70.7539 14.6523L70.3321 14.9208L70.334 14.9238L70.7539 14.6523ZM68.1953 9.46875C70.6206 9.46875 72.5331 10.3467 73.9818 12.0998L74.7526 11.4627C73.1024 9.46579 70.9002 8.46875 68.1953 8.46875V9.46875ZM73.9831 12.1013C75.4406 13.8503 76.2109 16.5019 76.2109 20.1406H77.2109C77.2109 16.3835 76.4188 13.4622 74.7513 11.4612L73.9831 12.1013ZM76.2109 20.1406C76.2109 22.5419 75.8529 24.5334 75.1585 26.1329L76.0758 26.5311C76.8398 24.7713 77.2109 22.6352 77.2109 20.1406H76.2109ZM75.1578 26.1346C74.4738 27.7266 73.5224 28.9065 72.3144 29.7038L72.8653 30.5384C74.2614 29.6169 75.3283 28.2708 76.0766 26.5294L75.1578 26.1346ZM72.3154 29.7031C71.117 30.4899 69.7109 30.8906 68.0781 30.8906V31.8906C69.8828 31.8906 71.4845 31.4449 72.8643 30.5391L72.3154 29.7031ZM68.0781 30.8906C67.0263 30.8906 66.1348 30.7527 65.3938 30.4897L65.0594 31.4322C65.9329 31.7421 66.9424 31.8906 68.0781 31.8906V30.8906ZM65.3938 30.4897C64.6299 30.2187 63.9905 29.8724 63.4675 29.4564L62.845 30.239C63.4678 30.7344 64.2086 31.1303 65.0594 31.4322L65.3938 30.4897ZM63.4729 29.4607C62.9307 29.0171 62.4803 28.5411 62.1178 28.0336L61.3041 28.6148C61.7228 29.2011 62.2359 29.7407 62.8396 30.2346L63.4729 29.4607ZM61.7109 27.8242H61.4375V28.8242H61.7109V27.8242ZM60.9414 28.3862C61.0054 28.8986 61.0633 29.4708 61.1149 30.1032L62.1116 30.0218C62.0591 29.3782 61.9998 28.7915 61.9336 28.2622L60.9414 28.3862ZM61.116 30.1143C61.1796 30.7255 61.2109 31.2808 61.2109 31.7812H62.2109C62.2109 31.24 62.1771 30.6495 62.1106 30.0107L61.116 30.1143ZM61.2109 31.7812V40.5898H62.2109V31.7812H61.2109ZM61.7109 40.0898H57.1016V41.0898H61.7109V40.0898ZM57.6016 40.5898V9.37891H56.6016V40.5898H57.6016ZM57.1016 9.87891H60.8516V8.87891H57.1016V9.87891ZM60.3628 9.48433L61.0073 12.4726L61.9849 12.2618L61.3403 9.27349L60.3628 9.48433ZM61.4961 12.8672H61.7109V11.8672H61.4961V12.8672ZM62.1283 12.6425C62.5078 12.0672 62.9683 11.5323 63.5121 11.0379L62.8394 10.298C62.2374 10.8453 61.7214 11.4432 61.2936 12.0919L62.1283 12.6425ZM63.508 11.0417C64.0418 10.5672 64.6887 10.1875 65.4566 9.90718L65.1137 8.96782C64.241 9.28643 63.4817 9.7271 62.8436 10.2943L63.508 11.0417ZM65.4607 9.90566C66.2261 9.61864 67.1344 9.46875 68.1953 9.46875V8.46875C67.0426 8.46875 66.0109 8.63136 65.1096 8.96934L65.4607 9.90566ZM66.9648 12.2188C65.6391 12.2188 64.5175 12.4848 63.6423 13.0634L64.1937 13.8976C64.8549 13.4605 65.7646 13.2188 66.9648 13.2188V12.2188ZM63.644 13.0622C62.7813 13.6274 62.1672 14.4738 61.786 15.5611L62.7296 15.892C63.0515 14.9741 63.5442 14.3231 64.192 13.8987L63.644 13.0622ZM61.7841 15.5666C61.4237 16.634 61.2376 17.9456 61.211 19.4875L62.2109 19.5047C62.2364 18.0257 62.4149 16.8244 62.7315 15.8865L61.7841 15.5666ZM61.2109 19.4961V20.1406H62.2109V19.4961H61.2109ZM61.2109 20.1406C61.2109 21.7731 61.3765 23.1837 61.7191 24.3622L62.6793 24.0831C62.3709 23.022 62.2109 21.7112 62.2109 20.1406H61.2109ZM61.7211 24.3689C62.084 25.5554 62.6894 26.4982 63.5562 27.1593L64.1626 26.3642C63.4929 25.8534 62.9915 25.1034 62.6774 24.0764L61.7211 24.3689ZM63.5637 27.1649C64.4574 27.8203 65.6276 28.1211 67.0234 28.1211V27.1211C65.763 27.1211 64.8239 26.849 64.1551 26.3585L63.5637 27.1649ZM67.0234 28.1211C68.239 28.1211 69.2837 27.7866 70.1183 27.0861L69.4754 26.3201C68.8517 26.8436 68.0474 27.1211 67.0234 27.1211V28.1211ZM70.115 27.0889C70.9467 26.4031 71.5461 25.4414 71.933 24.2391L70.9811 23.9328C70.6388 24.9961 70.1314 25.7792 69.4788 26.3174L70.115 27.0889ZM71.933 24.2391C72.3174 23.0448 72.5039 21.6562 72.5039 20.082H71.5039C71.5039 21.5808 71.3259 22.8614 70.9811 23.9328L71.933 24.2391ZM72.5039 20.082C72.5039 17.7015 72.08 15.7826 71.1738 14.3809L70.334 14.9238C71.0945 16.1002 71.5039 17.8011 71.5039 20.082H72.5039ZM71.1757 14.3839C70.2517 12.9318 68.8179 12.2188 66.9648 12.2188V13.2188C68.5232 13.2188 69.6155 13.7948 70.3321 14.9208L71.1757 14.3839ZM96.6914 10.7852L96.3634 11.1625L96.3651 11.164L96.6914 10.7852ZM98.8008 31V31.5H99.3008V31H98.8008ZM95.5391 31L95.0584 31.1378L95.1622 31.5H95.5391V31ZM94.6602 27.9336L95.1408 27.7958L95.037 27.4336H94.6602V27.9336ZM94.5039 27.9336V27.4336H94.2604L94.1103 27.6253L94.5039 27.9336ZM90.3438 31L90.2054 30.5194L90.1967 30.5221L90.3438 31ZM83.7812 30.6875L83.5669 31.1393L83.5717 31.1415L83.7812 30.6875ZM82.9805 19.7695L82.7016 19.3545L82.7001 19.3555L82.9805 19.7695ZM90.5195 17.9141L90.537 18.4138L90.5377 18.4137L90.5195 17.9141ZM94.2695 17.7773L94.2877 18.277L94.7695 18.2594V17.7773H94.2695ZM93.2148 13.4414L92.8754 13.8086L92.8788 13.8117L93.2148 13.4414ZM84.1719 14.1055L83.7173 14.3136L83.928 14.7739L84.3857 14.5575L84.1719 14.1055ZM82.6875 10.8633L82.4531 10.4217L82.0366 10.6427L82.2329 11.0714L82.6875 10.8633ZM86.2812 9.49609L86.1556 9.01214L86.1545 9.01244L86.2812 9.49609ZM94.25 20.668H94.75V20.1502L94.2325 20.1683L94.25 20.668ZM91.457 20.7656L91.4741 21.2653L91.4745 21.2653L91.457 20.7656ZM86.2031 27.1719L85.8967 27.567L85.9018 27.5709L86.2031 27.1719ZM92.668 26.5469L92.9945 26.9255L92.9949 26.9252L92.668 26.5469ZM90.5 9.46875C93.1703 9.46875 95.0962 10.0612 96.3634 11.1625L97.0194 10.4078C95.5001 9.08727 93.2985 8.46875 90.5 8.46875V9.46875ZM96.3651 11.164C97.6236 12.2477 98.3008 13.9716 98.3008 16.4492H99.3008C99.3008 13.7967 98.5717 11.7445 97.0177 10.4063L96.3651 11.164ZM98.3008 16.4492V31H99.3008V16.4492H98.3008ZM98.8008 30.5H95.5391V31.5H98.8008V30.5ZM96.0197 30.8622L95.1408 27.7958L94.1795 28.0714L95.0584 31.1378L96.0197 30.8622ZM94.6602 27.4336H94.5039V28.4336H94.6602V27.4336ZM94.1103 27.6253C93.5185 28.3807 92.9151 28.9946 92.3019 29.4729L92.9169 30.2614C93.6057 29.7242 94.2653 29.049 94.8975 28.2419L94.1103 27.6253ZM92.3019 29.4729C91.7052 29.9383 91.0085 30.2883 90.2054 30.5195L90.4821 31.4805C91.3977 31.2169 92.2114 30.8117 92.9169 30.2614L92.3019 29.4729ZM90.1967 30.5221C89.4123 30.7635 88.43 30.8906 87.2383 30.8906V31.8906C88.4945 31.8906 89.5825 31.7574 90.4908 31.4779L90.1967 30.5221ZM87.2383 30.8906C86.0106 30.8906 84.9314 30.6677 83.9908 30.2335L83.5717 31.1415C84.6623 31.6448 85.8879 31.8906 87.2383 31.8906V30.8906ZM83.9955 30.2357C83.0703 29.7968 82.3436 29.1359 81.8077 28.2428L80.9502 28.7572C81.5861 29.8172 82.461 30.6146 83.567 31.1393L83.9955 30.2357ZM81.8077 28.2428C81.2808 27.3647 81 26.2236 81 24.7891H80C80 26.3493 80.3051 27.6822 80.9502 28.7572L81.8077 28.2428ZM81 24.7891C81 22.7061 81.7621 21.1985 83.2608 20.1835L82.7001 19.3555C80.8916 20.5802 80 22.4189 80 24.7891H81ZM83.2593 20.1846C84.8123 19.1411 87.2149 18.5296 90.537 18.4138L90.5021 17.4144C87.1054 17.5329 84.482 18.1583 82.7016 19.3545L83.2593 20.1846ZM90.5377 18.4137L94.2877 18.277L94.2513 17.2777L90.5013 17.4144L90.5377 18.4137ZM94.7695 17.7773V16.6445H93.7695V17.7773H94.7695ZM94.7695 16.6445C94.7695 15.0861 94.4058 13.8469 93.5508 13.0711L92.8788 13.8117C93.4302 14.312 93.7695 15.2082 93.7695 16.6445H94.7695ZM93.5543 13.0743C92.7438 12.325 91.63 11.9844 90.2852 11.9844V12.9844C91.4664 12.9844 92.3056 13.2818 92.8754 13.8085L93.5543 13.0743ZM90.2852 11.9844C89.1554 11.9844 88.0577 12.1478 86.9936 12.4752L87.2877 13.431C88.2548 13.1334 89.2534 12.9844 90.2852 12.9844V11.9844ZM86.9936 12.4752C85.9551 12.7948 84.9432 13.1876 83.9581 13.6535L84.3857 14.5575C85.3277 14.1119 86.2949 13.7365 87.2877 13.431L86.9936 12.4752ZM84.6265 13.8973L83.1421 10.6551L82.2329 11.0714L83.7173 14.3136L84.6265 13.8973ZM82.9219 11.3049C83.9375 10.7658 85.0984 10.323 86.408 9.97975L86.1545 9.01244C84.7818 9.37227 83.5468 9.841 82.4531 10.4217L82.9219 11.3049ZM86.4069 9.98005C87.7183 9.63958 89.0823 9.46875 90.5 9.46875V8.46875C89.0011 8.46875 87.5525 8.64948 86.1556 9.01214L86.4069 9.98005ZM94.2325 20.1683L91.4396 20.2659L91.4745 21.2653L94.2675 21.1677L94.2325 20.1683ZM91.44 20.2659C89.1292 20.3447 87.3853 20.737 86.3301 21.5395L86.9355 22.3355C87.7293 21.7317 89.2015 21.3428 91.4741 21.2653L91.44 20.2659ZM86.3301 21.5395C85.2737 22.343 84.7461 23.4578 84.7461 24.8281H85.7461C85.7461 23.7506 86.1429 22.9383 86.9355 22.3355L86.3301 21.5395ZM84.7461 24.8281C84.7461 25.9965 85.0995 26.9488 85.8967 27.567L86.5095 26.7768C86.0307 26.4054 85.7461 25.7952 85.7461 24.8281H84.7461ZM85.9018 27.5709C86.6497 28.1356 87.6052 28.3945 88.7227 28.3945V27.3945C87.7567 27.3945 87.0326 27.1717 86.5044 26.7729L85.9018 27.5709ZM88.7227 28.3945C90.4114 28.3945 91.8482 27.9142 92.9945 26.9255L92.3414 26.1683C91.4044 26.9764 90.211 27.3945 88.7227 27.3945V28.3945ZM92.9949 26.9252C94.1871 25.8949 94.75 24.4051 94.75 22.543H93.75C93.75 24.1964 93.2583 25.3759 92.341 26.1686L92.9949 26.9252ZM94.75 22.543V20.668H93.75V22.543H94.75ZM116.223 9.61328L116.062 10.0867L116.067 10.0886L116.223 9.61328ZM119.25 11.5078L119.626 11.1782L119.25 11.5078ZM119.23 17.7969L118.871 17.4494L118.871 17.4495L119.23 17.7969ZM116.203 19.457L116.075 18.9738L115.703 19.0724V19.457H116.203ZM116.203 19.6328H115.703V20.0246L116.084 20.1183L116.203 19.6328ZM118.645 20.5898L118.396 21.024L118.402 21.0273L118.645 20.5898ZM120.383 22.2305L119.958 22.4948L119.964 22.5041L120.383 22.2305ZM119.973 28.1484L119.568 27.8553L119.565 27.8588L119.973 28.1484ZM108.078 31.2148L108.138 30.7184L108.132 30.7177L108.078 31.2148ZM105.441 30.7656L105.315 31.2493L105.322 31.2512L105.441 30.7656ZM103.371 30.0234H102.871V30.3355L103.151 30.4726L103.371 30.0234ZM103.371 26.0781L103.587 25.6271L102.871 25.2848V26.0781H103.371ZM106.633 27.25L106.5 27.7321L106.505 27.7333L106.633 27.25ZM113.664 27.4648L113.773 27.9528L113.779 27.9516L113.664 27.4648ZM115.754 26.4492L115.419 26.0775L115.415 26.0818L115.754 26.4492ZM113.801 21.7617L113.676 22.246L113.683 22.2476L113.801 21.7617ZM107.766 21.4102H107.266V21.9102H107.766V21.4102ZM107.766 18.0312V17.5312H107.266V18.0312H107.766ZM114.523 17.4062L114.703 17.8728L114.706 17.8716L114.523 17.4062ZM108.234 12.8945L108.342 13.3829L108.347 13.3816L108.234 12.8945ZM105.031 13.9102L104.572 14.1068L104.766 14.5614L105.223 14.372L105.031 13.9102ZM103.586 10.5312L103.398 10.0681L102.926 10.2598L103.126 10.7279L103.586 10.5312ZM107.395 9.39844L107.493 9.88857L107.498 9.88761L107.395 9.39844ZM111.945 9.46875C113.489 9.46875 114.859 9.67759 116.062 10.0866L116.384 9.13992C115.06 8.6896 113.578 8.46875 111.945 8.46875V9.46875ZM116.067 10.0886C117.275 10.4828 118.202 11.0706 118.874 11.8375L119.626 11.1782C118.814 10.2524 117.723 9.57711 116.378 9.13798L116.067 10.0886ZM118.874 11.8375C119.526 12.5814 119.863 13.5143 119.863 14.6719H120.863C120.863 13.3034 120.458 12.127 119.626 11.1782L118.874 11.8375ZM119.863 14.6719C119.863 15.8717 119.519 16.7793 118.871 17.4494L119.59 18.1444C120.453 17.2519 120.863 16.0762 120.863 14.6719H119.863ZM118.871 17.4495C118.205 18.1383 117.284 18.6531 116.075 18.9738L116.331 19.9403C117.675 19.5839 118.771 18.9919 119.59 18.1443L118.871 17.4495ZM115.703 19.457V19.6328H116.703V19.457H115.703ZM116.084 20.1183C116.941 20.3297 117.711 20.6325 118.396 21.024L118.893 20.1557C118.119 19.7139 117.262 19.3787 116.323 19.1473L116.084 20.1183ZM118.402 21.0273C119.059 21.3908 119.575 21.8788 119.958 22.4947L120.807 21.9662C120.331 21.2019 119.688 20.5962 118.887 20.1524L118.402 21.0273ZM119.964 22.5041C120.339 23.0776 120.547 23.8466 120.547 24.8477H121.547C121.547 23.7133 121.312 22.7375 120.801 21.9568L119.964 22.5041ZM120.547 24.8477C120.547 25.9523 120.223 26.9502 119.568 27.8553L120.378 28.4416C121.155 27.3675 121.547 26.1648 121.547 24.8477H120.547ZM119.565 27.8588C118.932 28.7503 117.939 29.4872 116.544 30.0478L116.917 30.9757C118.438 30.3644 119.607 29.5257 120.38 28.438L119.565 27.8588ZM116.544 30.0478C115.165 30.602 113.378 30.8906 111.164 30.8906V31.8906C113.455 31.8906 115.38 31.5934 116.917 30.9757L116.544 30.0478ZM111.164 30.8906C110.101 30.8906 109.093 30.833 108.138 30.7184L108.019 31.7113C109.017 31.8311 110.065 31.8906 111.164 31.8906V30.8906ZM108.132 30.7177C107.187 30.6155 106.33 30.4692 105.561 30.2801L105.322 31.2512C106.141 31.4526 107.043 31.6058 108.024 31.7119L108.132 30.7177ZM105.568 30.282C104.798 30.08 104.14 29.843 103.591 29.5742L103.151 30.4726C103.774 30.7768 104.496 31.0346 105.315 31.2493L105.568 30.282ZM103.871 30.0234V26.0781H102.871V30.0234H103.871ZM103.155 26.5292C104.088 26.975 105.204 27.375 106.5 27.732L106.766 26.768C105.509 26.4219 104.452 26.0406 103.587 25.6271L103.155 26.5292ZM106.505 27.7333C107.827 28.084 109.237 28.2578 110.734 28.2578V27.2578C109.315 27.2578 107.991 27.0931 106.761 26.7667L106.505 27.7333ZM110.734 28.2578C111.845 28.2578 112.859 28.1576 113.773 27.9528L113.555 26.9769C112.725 27.1627 111.786 27.2578 110.734 27.2578V28.2578ZM113.779 27.9516C114.722 27.7295 115.505 27.3595 116.093 26.8166L115.415 26.0818C114.987 26.4765 114.377 26.7835 113.55 26.9781L113.779 27.9516ZM116.088 26.8209C116.727 26.2458 117.035 25.4791 117.035 24.5742H116.035C116.035 25.2319 115.822 25.7151 115.419 26.0776L116.088 26.8209ZM117.035 24.5742C117.035 23.7415 116.766 23.0197 116.21 22.4483L115.493 23.1454C115.849 23.5115 116.035 23.9746 116.035 24.5742H117.035ZM116.21 22.4483C115.666 21.8888 114.884 21.5103 113.919 21.2758L113.683 22.2476C114.54 22.4559 115.126 22.7675 115.493 23.1454L116.21 22.4483ZM113.925 21.2775C112.959 21.0289 111.761 20.9102 110.344 20.9102V21.9102C111.713 21.9102 112.82 22.0258 113.676 22.246L113.925 21.2775ZM110.344 20.9102H107.766V21.9102H110.344V20.9102ZM108.266 21.4102V18.0312H107.266V21.4102H108.266ZM107.766 18.5312H110.031V17.5312H107.766V18.5312ZM110.031 18.5312C111.972 18.5312 113.54 18.3214 114.703 17.8728L114.344 16.9397C113.346 17.3245 111.919 17.5312 110.031 17.5312V18.5312ZM114.706 17.8716C115.317 17.6317 115.814 17.2891 116.156 16.8239C116.502 16.3549 116.664 15.7978 116.664 15.1797H115.664C115.664 15.6163 115.553 15.9576 115.351 16.2307C115.147 16.5077 114.824 16.7511 114.341 16.9409L114.706 17.8716ZM116.664 15.1797C116.664 14.1152 116.184 13.2861 115.261 12.7543L114.762 13.6207C115.376 13.9743 115.664 14.4734 115.664 15.1797H116.664ZM115.261 12.7543C114.378 12.2454 113.093 12.0234 111.477 12.0234V13.0234C113.037 13.0234 114.109 13.2441 114.762 13.6207L115.261 12.7543ZM111.477 12.0234C110.345 12.0234 109.226 12.1515 108.122 12.4074L108.347 13.3816C109.378 13.1428 110.421 13.0234 111.477 13.0234V12.0234ZM108.127 12.4062C107.029 12.6472 105.933 12.9949 104.84 13.4483L105.223 14.372C106.265 13.94 107.304 13.6106 108.342 13.3829L108.127 12.4062ZM105.491 13.7135L104.046 10.3346L103.126 10.7279L104.572 14.1068L105.491 13.7135ZM103.774 10.9944C104.928 10.5253 106.167 10.1563 107.493 9.88855L107.296 8.90833C105.913 9.18745 104.614 9.57367 103.398 10.0681L103.774 10.9944ZM107.498 9.88761C108.812 9.60968 110.293 9.46875 111.945 9.46875V8.46875C110.238 8.46875 108.686 8.61427 107.291 8.90926L107.498 9.88761ZM144.445 24.9258L143.971 24.7663L144.445 24.9258ZM142.395 28.4609L142.758 28.8044L142.76 28.8019L142.395 28.4609ZM139.152 30.6484L139.335 31.114L139.339 31.1123L139.152 30.6484ZM130.793 30.6484L130.603 31.111L130.607 31.1127L130.793 30.6484ZM127.57 28.4609L127.205 28.802L127.209 28.807L127.57 28.4609ZM125.48 24.9258L125.009 25.0931L125.48 24.9258ZM125.969 14.0859L125.522 13.8623L125.521 13.8637L125.969 14.0859ZM129.523 10.2773L129.77 10.7121L129.523 10.2773ZM140.285 10.2773L140.037 10.7112L140.285 10.2773ZM130.031 24.1836L129.557 24.3434L129.559 24.3483L130.031 24.1836ZM131.828 26.7617L131.53 27.1633L131.534 27.1664L131.828 26.7617ZM138.078 26.7617L138.372 27.1664L138.376 27.1633L138.078 26.7617ZM139.855 16.1367L139.382 16.2982L139.383 16.2999L139.855 16.1367ZM138.078 13.6172L137.784 14.0219L137.789 14.0249L138.078 13.6172ZM144.648 20.1406C144.648 21.8949 144.42 23.4345 143.971 24.7663L144.919 25.0852C145.409 23.6307 145.648 21.9801 145.648 20.1406H144.648ZM143.971 24.7663C143.523 26.0999 142.873 27.2143 142.029 28.12L142.76 28.8019C143.713 27.7805 144.43 26.5381 144.919 25.0852L143.971 24.7663ZM142.031 28.1175C141.184 29.0134 140.165 29.7025 138.966 30.1845L139.339 31.1123C140.666 30.5787 141.808 29.8095 142.758 28.8044L142.031 28.1175ZM138.97 30.1829C137.774 30.6514 136.412 30.8906 134.875 30.8906V31.8906C136.515 31.8906 138.005 31.6351 139.335 31.114L138.97 30.1829ZM134.875 30.8906C133.447 30.8906 132.15 30.6528 130.979 30.1842L130.607 31.1127C131.91 31.6336 133.334 31.8906 134.875 31.8906V30.8906ZM130.983 30.1859C129.809 29.7041 128.794 29.0143 127.931 28.1149L127.209 28.807C128.17 29.8086 129.303 30.5771 130.603 31.111L130.983 30.1859ZM127.936 28.12C127.09 27.2122 126.426 26.0951 125.952 24.7585L125.009 25.0931C125.524 26.5429 126.254 27.7825 127.205 28.8019L127.936 28.12ZM125.952 24.7585C125.48 23.4291 125.238 21.8924 125.238 20.1406H124.238C124.238 21.9826 124.492 23.636 125.009 25.0931L125.952 24.7585ZM125.238 20.1406C125.238 17.8132 125.639 15.8756 126.417 14.3081L125.521 13.8637C124.658 15.6035 124.238 17.7024 124.238 20.1406H125.238ZM126.416 14.3095C127.207 12.7265 128.325 11.5328 129.77 10.7121L129.277 9.84254C127.649 10.7667 126.397 12.1121 125.522 13.8623L126.416 14.3095ZM129.77 10.7121C131.218 9.89032 132.958 9.46875 135.012 9.46875V8.46875C132.82 8.46875 130.902 8.91957 129.277 9.84254L129.77 10.7121ZM135.012 9.46875C136.929 9.46875 138.599 9.88774 140.037 10.7112L140.534 9.84345C138.925 8.92216 137.079 8.46875 135.012 8.46875V9.46875ZM140.037 10.7112C141.471 11.5324 142.597 12.728 143.415 14.3151L144.304 13.8568C143.403 12.1105 142.147 10.7671 140.534 9.84345L140.037 10.7112ZM143.415 14.3151C144.229 15.8947 144.648 17.83 144.648 20.1406H145.648C145.648 17.7116 145.208 15.6105 144.304 13.8568L143.415 14.3151ZM128.965 20.1406C128.965 21.7535 129.158 23.1582 129.557 24.3434L130.505 24.0238C130.149 22.9694 129.965 21.6788 129.965 20.1406H128.965ZM129.559 24.3483C129.977 25.5453 130.629 26.4945 131.53 27.1633L132.126 26.3602C131.413 25.831 130.867 25.0615 130.503 24.0189L129.559 24.3483ZM131.534 27.1664C132.448 27.8296 133.601 28.1406 134.953 28.1406V27.1406C133.753 27.1406 132.823 26.8657 132.122 26.3571L131.534 27.1664ZM134.953 28.1406C136.305 28.1406 137.458 27.8296 138.372 27.1664L137.784 26.3571C137.084 26.8657 136.153 27.1406 134.953 27.1406V28.1406ZM138.376 27.1633C139.279 26.4934 139.925 25.5424 140.329 24.3434L139.382 24.0238C139.031 25.0644 138.492 25.8321 137.78 26.3602L138.376 27.1633ZM140.329 24.3434C140.729 23.1582 140.922 21.7535 140.922 20.1406H139.922C139.922 21.6788 139.737 22.9694 139.382 24.0238L140.329 24.3434ZM140.922 20.1406C140.922 18.5283 140.729 17.1349 140.328 15.9736L139.383 16.2999C139.737 17.326 139.922 18.6019 139.922 20.1406H140.922ZM140.329 15.9753C139.924 14.7877 139.275 13.8535 138.367 13.2094L137.789 14.0249C138.496 14.5267 139.032 15.2722 139.382 16.2982L140.329 15.9753ZM138.372 13.2125C137.457 12.5487 136.297 12.2383 134.934 12.2383V13.2383C136.148 13.2383 137.084 13.5138 137.784 14.0218L138.372 13.2125ZM134.934 12.2383C132.91 12.2383 131.348 12.9258 130.361 14.3702L131.186 14.9345C131.943 13.8268 133.155 13.2383 134.934 13.2383V12.2383ZM130.361 14.3702C129.408 15.7632 128.965 17.7079 128.965 20.1406H129.965C129.965 17.8078 130.394 16.0936 131.186 14.9345L130.361 14.3702ZM167.453 17.9922L167.094 17.6446L167.094 17.6447L167.453 17.9922ZM164.328 19.5352L164.237 19.0436L163.828 19.1197V19.5352H164.328ZM164.328 19.6914H163.828V20.1313L164.264 20.1873L164.328 19.6914ZM167.883 21.1953L167.556 21.5738L167.883 21.1953ZM168.371 27.9141L167.952 27.642L167.951 27.6434L168.371 27.9141ZM165.441 30.1797L165.632 30.642L165.634 30.6411L165.441 30.1797ZM150.422 31H149.922V31.5H150.422V31ZM150.422 9.37891V8.87891H149.922V9.37891H150.422ZM164.504 9.90625L164.37 10.3879L164.371 10.3883L164.504 9.90625ZM167.512 11.6445L167.883 11.3094L167.512 11.6445ZM163.293 22.1523L163.042 22.5847L163.045 22.5865L163.293 22.1523ZM155.031 21.4492V20.9492H154.531V21.4492H155.031ZM155.031 27.6211H154.531V28.1211H155.031V27.6211ZM163.273 26.8984L163.524 27.3313L163.529 27.3284L163.273 26.8984ZM162.98 13.4609L162.707 13.8796L162.713 13.8835L162.98 13.4609ZM155.031 12.8359V12.3359H154.531V12.8359H155.031ZM155.031 18.0703H154.531V18.5703H155.031V18.0703ZM162.766 17.4258L163.01 17.8622L163.012 17.8608L162.766 17.4258ZM168.105 14.9258C168.105 16.0645 167.76 16.956 167.094 17.6446L167.813 18.3398C168.683 17.4398 169.105 16.2871 169.105 14.9258H168.105ZM167.094 17.6447C166.427 18.3348 165.488 18.8106 164.237 19.0436L164.42 20.0267C165.825 19.765 166.969 19.2121 167.813 18.3397L167.094 17.6447ZM163.828 19.5352V19.6914H164.828V19.5352H163.828ZM164.264 20.1873C165.6 20.3589 166.69 20.8262 167.556 21.5738L168.209 20.8168C167.175 19.9238 165.894 19.3885 164.392 19.1955L164.264 20.1873ZM167.556 21.5738C168.378 22.2834 168.809 23.2743 168.809 24.6133H169.809C169.809 23.0356 169.288 21.7478 168.209 20.8168L167.556 21.5738ZM168.809 24.6133C168.809 25.7615 168.52 26.7657 167.952 27.642L168.791 28.1862C169.472 27.1353 169.809 25.9391 169.809 24.6133H168.809ZM167.951 27.6434C167.407 28.4873 166.523 29.1863 165.249 29.7183L165.634 30.6411C167.042 30.0533 168.111 29.2418 168.791 28.1847L167.951 27.6434ZM165.251 29.7173C164.006 30.2302 162.339 30.5 160.227 30.5V31.5C162.411 31.5 164.221 31.2229 165.632 30.642L165.251 29.7173ZM160.227 30.5H150.422V31.5H160.227V30.5ZM150.922 31V9.37891H149.922V31H150.922ZM150.422 9.87891H160.188V8.87891H150.422V9.87891ZM160.188 9.87891C161.767 9.87891 163.159 10.051 164.37 10.3879L164.638 9.42456C163.323 9.05842 161.837 8.87891 160.188 8.87891V9.87891ZM164.371 10.3883C165.575 10.7201 166.488 11.257 167.141 11.9797L167.883 11.3094C167.077 10.4175 165.985 9.79555 164.637 9.42421L164.371 10.3883ZM167.141 11.9797C167.766 12.6724 168.105 13.635 168.105 14.9258H169.105C169.105 13.4562 168.715 12.2313 167.883 11.3094L167.141 11.9797ZM165.023 24.457C165.023 23.238 164.54 22.2891 163.541 21.7182L163.045 22.5865C163.686 22.9531 164.023 23.5406 164.023 24.457H165.023ZM163.544 21.7199C162.625 21.1864 161.336 20.9492 159.738 20.9492V21.9492C161.265 21.9492 162.346 22.1808 163.042 22.5847L163.544 21.7199ZM159.738 20.9492H155.031V21.9492H159.738V20.9492ZM154.531 21.4492V27.6211H155.531V21.4492H154.531ZM155.031 28.1211H159.836V27.1211H155.031V28.1211ZM159.836 28.1211C161.34 28.1211 162.585 27.8741 163.524 27.3313L163.023 26.4656C162.295 26.8864 161.248 27.1211 159.836 27.1211V28.1211ZM163.529 27.3284C164.542 26.7268 165.023 25.731 165.023 24.457H164.023C164.023 25.4487 163.672 26.0805 163.018 26.4685L163.529 27.3284ZM164.438 15.3359C164.438 14.3427 164.05 13.5461 163.248 13.0384L162.713 13.8835C163.187 14.1831 163.438 14.6364 163.438 15.3359H164.438ZM163.254 13.0423C162.492 12.545 161.37 12.3359 159.973 12.3359V13.3359C161.31 13.3359 162.192 13.5435 162.707 13.8796L163.254 13.0423ZM159.973 12.3359H155.031V13.3359H159.973V12.3359ZM154.531 12.8359V18.0703H155.531V12.8359H154.531ZM155.031 18.5703H159.348V17.5703H155.031V18.5703ZM159.348 18.5703C160.89 18.5703 162.131 18.3536 163.01 17.8622L162.522 16.9894C161.864 17.3574 160.826 17.5703 159.348 17.5703V18.5703ZM163.012 17.8608C163.961 17.3231 164.438 16.4536 164.438 15.3359H163.438C163.438 16.1194 163.133 16.6431 162.519 16.9908L163.012 17.8608ZM189.152 10.7852L188.824 11.1625L188.826 11.164L189.152 10.7852ZM191.262 31V31.5H191.762V31H191.262ZM188 31L187.519 31.1378L187.623 31.5H188V31ZM187.121 27.9336L187.602 27.7958L187.498 27.4336H187.121V27.9336ZM186.965 27.9336V27.4336H186.721L186.571 27.6253L186.965 27.9336ZM182.805 31L182.666 30.5194L182.658 30.5221L182.805 31ZM176.242 30.6875L176.028 31.1393L176.033 31.1415L176.242 30.6875ZM175.441 19.7695L175.163 19.3545L175.161 19.3555L175.441 19.7695ZM182.98 17.9141L182.998 18.4138L182.999 18.4137L182.98 17.9141ZM186.73 17.7773L186.749 18.277L187.23 18.2594V17.7773H186.73ZM185.676 13.4414L185.336 13.8086L185.34 13.8117L185.676 13.4414ZM176.633 14.1055L176.178 14.3136L176.389 14.7739L176.847 14.5575L176.633 14.1055ZM175.148 10.8633L174.914 10.4217L174.498 10.6427L174.694 11.0714L175.148 10.8633ZM178.742 9.49609L178.617 9.01214L178.615 9.01244L178.742 9.49609ZM186.711 20.668H187.211V20.1502L186.693 20.1683L186.711 20.668ZM183.918 20.7656L183.935 21.2653L183.935 21.2653L183.918 20.7656ZM178.664 27.1719L178.358 27.567L178.363 27.5709L178.664 27.1719ZM185.129 26.5469L185.455 26.9255L185.456 26.9252L185.129 26.5469ZM182.961 9.46875C185.631 9.46875 187.557 10.0612 188.824 11.1625L189.48 10.4078C187.961 9.08727 185.759 8.46875 182.961 8.46875V9.46875ZM188.826 11.164C190.085 12.2477 190.762 13.9716 190.762 16.4492H191.762C191.762 13.7967 191.033 11.7445 189.479 10.4063L188.826 11.164ZM190.762 16.4492V31H191.762V16.4492H190.762ZM191.262 30.5H188V31.5H191.262V30.5ZM188.481 30.8622L187.602 27.7958L186.64 28.0714L187.519 31.1378L188.481 30.8622ZM187.121 27.4336H186.965V28.4336H187.121V27.4336ZM186.571 27.6253C185.979 28.3807 185.376 28.9946 184.763 29.4729L185.378 30.2614C186.067 29.7242 186.726 29.049 187.358 28.2419L186.571 27.6253ZM184.763 29.4729C184.166 29.9383 183.469 30.2883 182.666 30.5195L182.943 31.4805C183.859 31.2169 184.672 30.8117 185.378 30.2614L184.763 29.4729ZM182.658 30.5221C181.873 30.7635 180.891 30.8906 179.699 30.8906V31.8906C180.955 31.8906 182.043 31.7574 182.952 31.4779L182.658 30.5221ZM179.699 30.8906C178.472 30.8906 177.392 30.6677 176.452 30.2335L176.033 31.1415C177.123 31.6448 178.349 31.8906 179.699 31.8906V30.8906ZM176.456 30.2357C175.531 29.7968 174.804 29.1359 174.269 28.2428L173.411 28.7572C174.047 29.8172 174.922 30.6146 176.028 31.1393L176.456 30.2357ZM174.269 28.2428C173.742 27.3647 173.461 26.2236 173.461 24.7891H172.461C172.461 26.3493 172.766 27.6822 173.411 28.7572L174.269 28.2428ZM173.461 24.7891C173.461 22.7061 174.223 21.1985 175.722 20.1835L175.161 19.3555C173.353 20.5802 172.461 22.4189 172.461 24.7891H173.461ZM175.72 20.1846C177.273 19.1411 179.676 18.5296 182.998 18.4138L182.963 17.4144C179.566 17.5329 176.943 18.1583 175.163 19.3545L175.72 20.1846ZM182.999 18.4137L186.749 18.277L186.712 17.2777L182.962 17.4144L182.999 18.4137ZM187.23 17.7773V16.6445H186.23V17.7773H187.23ZM187.23 16.6445C187.23 15.0861 186.867 13.8469 186.012 13.0711L185.34 13.8117C185.891 14.312 186.23 15.2082 186.23 16.6445H187.23ZM186.015 13.0743C185.205 12.325 184.091 11.9844 182.746 11.9844V12.9844C183.927 12.9844 184.767 13.2818 185.336 13.8085L186.015 13.0743ZM182.746 11.9844C181.616 11.9844 180.519 12.1478 179.455 12.4752L179.749 13.431C180.716 13.1334 181.714 12.9844 182.746 12.9844V11.9844ZM179.455 12.4752C178.416 12.7948 177.404 13.1876 176.419 13.6535L176.847 14.5575C177.789 14.1119 178.756 13.7365 179.749 13.431L179.455 12.4752ZM177.087 13.8973L175.603 10.6551L174.694 11.0714L176.178 14.3136L177.087 13.8973ZM175.383 11.3049C176.398 10.7658 177.559 10.323 178.869 9.97975L178.615 9.01244C177.243 9.37227 176.008 9.841 174.914 10.4217L175.383 11.3049ZM178.868 9.98005C180.179 9.63958 181.543 9.46875 182.961 9.46875V8.46875C181.462 8.46875 180.013 8.64948 178.617 9.01214L178.868 9.98005ZM186.693 20.1683L183.9 20.2659L183.935 21.2653L186.728 21.1677L186.693 20.1683ZM183.901 20.2659C181.59 20.3447 179.846 20.737 178.791 21.5395L179.396 22.3355C180.19 21.7317 181.662 21.3428 183.935 21.2653L183.901 20.2659ZM178.791 21.5395C177.735 22.343 177.207 23.4578 177.207 24.8281H178.207C178.207 23.7506 178.604 22.9383 179.396 22.3355L178.791 21.5395ZM177.207 24.8281C177.207 25.9965 177.56 26.9488 178.358 27.567L178.97 26.7768C178.492 26.4054 178.207 25.7952 178.207 24.8281H177.207ZM178.363 27.5709C179.111 28.1356 180.066 28.3945 181.184 28.3945V27.3945C180.218 27.3945 179.494 27.1717 178.965 26.7729L178.363 27.5709ZM181.184 28.3945C182.872 28.3945 184.309 27.9142 185.455 26.9255L184.802 26.1683C183.865 26.9764 182.672 27.3945 181.184 27.3945V28.3945ZM185.456 26.9252C186.648 25.8949 187.211 24.4051 187.211 22.543H186.211C186.211 24.1964 185.719 25.3759 184.802 26.1686L185.456 26.9252ZM187.211 22.543V20.668H186.211V22.543H187.211ZM202.297 9.37891H202.797V8.87891H202.297V9.37891ZM202.297 18.0703H201.797V18.5703H202.297V18.0703ZM212.414 18.0703V18.5703H212.914V18.0703H212.414ZM212.414 9.37891V8.87891H211.914V9.37891H212.414ZM217.023 9.37891H217.523V8.87891H217.023V9.37891ZM217.023 31V31.5H217.523V31H217.023ZM212.414 31H211.914V31.5H212.414V31ZM212.414 21.6641H212.914V21.1641H212.414V21.6641ZM202.297 21.6641V21.1641H201.797V21.6641H202.297ZM202.297 31V31.5H202.797V31H202.297ZM197.688 31H197.188V31.5H197.688V31ZM197.688 9.37891V8.87891H197.188V9.37891H197.688ZM201.797 9.37891V18.0703H202.797V9.37891H201.797ZM202.297 18.5703H212.414V17.5703H202.297V18.5703ZM212.914 18.0703V9.37891H211.914V18.0703H212.914ZM212.414 9.87891H217.023V8.87891H212.414V9.87891ZM216.523 9.37891V31H217.523V9.37891H216.523ZM217.023 30.5H212.414V31.5H217.023V30.5ZM212.914 31V21.6641H211.914V31H212.914ZM212.414 21.1641H202.297V22.1641H212.414V21.1641ZM201.797 21.6641V31H202.797V21.6641H201.797ZM202.297 30.5H197.688V31.5H202.297V30.5ZM198.188 31V9.37891H197.188V31H198.188ZM197.688 9.87891H202.297V8.87891H197.688V9.87891ZM228 9.37891H228.5V8.87891H228V9.37891ZM227.961 21.7617L227.461 21.7379L227.461 21.7495L227.961 21.7617ZM227.883 23.4414L228.382 23.4754L228.382 23.4747L227.883 23.4414ZM227.668 26.0977L227.171 26.0424L228.087 26.3704L227.668 26.0977ZM238.547 9.37891V8.87891H238.276L238.128 9.10621L238.547 9.37891ZM244.133 9.37891H244.633V8.87891H244.133V9.37891ZM244.133 31V31.5H244.633V31H244.133ZM239.738 31H239.238V31.5H239.738V31ZM239.777 18.0898L239.278 18.064L239.278 18.0726L239.777 18.0898ZM239.895 15.9023L239.396 15.8654L239.395 15.8746L239.895 15.9023ZM239.992 14.3008L240.492 14.3186L240.556 12.5134L239.573 14.0285L239.992 14.3008ZM229.152 31V31.5H229.424L229.572 31.2722L229.152 31ZM223.586 31H223.086V31.5H223.586V31ZM223.586 9.37891V8.87891H223.086V9.37891H223.586ZM227.5 9.37891V20.4141H228.5V9.37891H227.5ZM227.5 20.4141C227.5 20.7546 227.487 21.1952 227.462 21.7379L228.46 21.7855C228.487 21.2345 228.5 20.7766 228.5 20.4141H227.5ZM227.461 21.7495C227.448 22.2757 227.423 22.8285 227.384 23.4081L228.382 23.4747C228.421 22.8824 228.448 22.3154 228.461 21.7739L227.461 21.7495ZM227.384 23.4074C227.345 23.9786 227.306 24.5037 227.267 24.983L228.264 25.0638C228.303 24.5796 228.342 24.0501 228.382 23.4754L227.384 23.4074ZM227.267 24.983C227.228 25.4638 227.196 25.8158 227.171 26.0424L228.165 26.1529C228.192 25.9108 228.225 25.5466 228.264 25.0638L227.267 24.983ZM228.087 26.3704L238.966 9.65161L238.128 9.10621L227.249 25.825L228.087 26.3704ZM238.547 9.87891H244.133V8.87891H238.547V9.87891ZM243.633 9.37891V31H244.633V9.37891H243.633ZM244.133 30.5H239.738V31.5H244.133V30.5ZM240.238 31V20.082H239.238V31H240.238ZM240.238 20.082C240.238 19.5163 240.251 18.8582 240.277 18.1071L239.278 18.0726C239.251 18.8319 239.238 19.5019 239.238 20.082H240.238ZM240.277 18.1157C240.316 17.3611 240.355 16.6325 240.394 15.9301L239.395 15.8746C239.356 16.5784 239.317 17.3082 239.278 18.064L240.277 18.1157ZM240.393 15.9393C240.445 15.2345 240.478 14.693 240.492 14.3186L239.493 14.2829C239.48 14.6377 239.448 15.164 239.396 15.8654L240.393 15.9393ZM239.573 14.0285L228.733 30.7278L229.572 31.2722L240.412 14.573L239.573 14.0285ZM229.152 30.5H223.586V31.5H229.152V30.5ZM224.086 31V9.37891H223.086V31H224.086ZM223.586 9.87891H228V8.87891H223.586V9.87891ZM268.605 21.2344V21.7344H269.105V21.2344H268.605ZM254.172 21.2344V20.7344H253.659L253.672 21.2468L254.172 21.2344ZM255.852 26.0781L255.488 26.4211L255.49 26.4233L255.852 26.0781ZM264.094 27.3867L264.21 27.8731L264.214 27.8721L264.094 27.3867ZM267.512 26.1953H268.012V25.4259L267.309 25.7384L267.512 26.1953ZM267.512 29.9258L267.724 30.3783L268.012 30.2433V29.9258H267.512ZM254.582 30.1602L254.351 30.6037L254.356 30.6059L254.582 30.1602ZM250.812 26.4492L250.374 26.6894L250.375 26.692L250.812 26.4492ZM254.152 10.2969L253.896 9.86747L254.152 10.2969ZM255.832 13.832L255.471 13.4861L255.469 13.4887L255.832 13.832ZM254.27 17.9531L253.771 17.9101L253.725 18.4531H254.27V17.9531ZM264.113 17.9531V18.4531H264.619L264.613 17.9471L264.113 17.9531ZM263.566 15.082L263.103 15.2702L263.106 15.2764L263.566 15.082ZM262.004 13.1289L261.723 13.5425L261.727 13.5449L262.004 13.1289ZM259.348 9.46875C261.206 9.46875 262.769 9.85123 264.059 10.5935L264.558 9.72679C263.087 8.88054 261.344 8.46875 259.348 8.46875V9.46875ZM264.059 10.5935C265.353 11.338 266.347 12.3914 267.047 13.7658L267.938 13.3123C267.153 11.77 266.025 10.5708 264.558 9.72679L264.059 10.5935ZM267.047 13.7658C267.745 15.139 268.105 16.8024 268.105 18.7734H269.105C269.105 16.682 268.723 14.8558 267.938 13.3123L267.047 13.7658ZM268.105 18.7734V21.2344H269.105V18.7734H268.105ZM268.605 20.7344H254.172V21.7344H268.605V20.7344ZM253.672 21.2468C253.726 23.423 254.31 25.1714 255.488 26.4211L256.215 25.7352C255.258 24.7192 254.722 23.2384 254.672 21.222L253.672 21.2468ZM255.49 26.4233C256.687 27.6777 258.341 28.2773 260.383 28.2773V27.2773C258.545 27.2773 257.178 26.7442 256.213 25.733L255.49 26.4233ZM260.383 28.2773C261.794 28.2773 263.07 28.1443 264.21 27.8731L263.978 26.9003C262.93 27.1499 261.732 27.2773 260.383 27.2773V28.2773ZM264.214 27.8721C265.352 27.5908 266.519 27.1835 267.715 26.6522L267.309 25.7384C266.16 26.2488 265.049 26.6357 263.974 26.9013L264.214 27.8721ZM267.012 26.1953V29.9258H268.012V26.1953H267.012ZM267.299 29.4732C266.252 29.9653 265.189 30.3236 264.109 30.5497L264.313 31.5285C265.473 31.2858 266.61 30.9019 267.724 30.3783L267.299 29.4732ZM264.109 30.5497C263.032 30.775 261.727 30.8906 260.188 30.8906V31.8906C261.773 31.8906 263.15 31.7719 264.313 31.5285L264.109 30.5497ZM260.188 30.8906C258.13 30.8906 256.342 30.4934 254.809 29.7144L254.356 30.6059C256.051 31.4675 258 31.8906 260.188 31.8906V30.8906ZM254.813 29.7166C253.302 28.9304 252.115 27.7649 251.25 26.2064L250.375 26.692C251.332 28.4148 252.659 29.7233 254.351 30.6037L254.813 29.7166ZM251.251 26.2091C250.403 24.661 249.965 22.7115 249.965 20.3359H248.965C248.965 22.8302 249.425 24.9562 250.374 26.6894L251.251 26.2091ZM249.965 20.3359C249.965 17.9686 250.366 15.9902 251.145 14.3821L250.245 13.946C249.384 15.7233 248.965 17.8595 248.965 20.3359H249.965ZM251.145 14.3821C251.927 12.7692 253.015 11.5573 254.408 10.7263L253.896 9.86747C252.321 10.8073 251.104 12.1735 250.245 13.946L251.145 14.3821ZM254.408 10.7263C255.805 9.89345 257.445 9.46875 259.348 9.46875V8.46875C257.292 8.46875 255.469 8.92947 253.896 9.86747L254.408 10.7263ZM259.348 11.9258C257.783 11.9258 256.475 12.4385 255.471 13.4861L256.193 14.178C256.986 13.3505 258.022 12.9258 259.348 12.9258V11.9258ZM255.469 13.4887C254.479 14.536 253.933 16.0328 253.771 17.9101L254.768 17.9961C254.918 16.2536 255.414 15.0031 256.196 14.1753L255.469 13.4887ZM254.27 18.4531H264.113V17.4531H254.27V18.4531ZM264.613 17.9471C264.6 16.814 264.408 15.7911 264.027 14.8877L263.106 15.2764C263.428 16.0397 263.601 16.9308 263.613 17.9591L264.613 17.9471ZM264.03 14.8938C263.656 13.9739 263.073 13.2409 262.281 12.7129L261.727 13.5449C262.341 13.9544 262.8 14.5234 263.103 15.2702L264.03 14.8938ZM262.285 12.7153C261.491 12.1758 260.499 11.9258 259.348 11.9258V12.9258C260.358 12.9258 261.137 13.1446 261.723 13.5425L262.285 12.7153Z" fill="white"/>
</svg>
