<svg width="173" height="32" viewBox="0 0 173 32" fill="none" xmlns="http://www.w3.org/2000/svg">
<path d="M26.2617 22.6992L25.784 22.5515L25.7834 22.5536L26.2617 22.6992ZM23.7812 27.3477L24.1606 27.6734L24.1622 27.6715L23.7812 27.3477ZM19.6211 30.3359L19.8154 30.7966L19.6211 30.3359ZM7.82422 30.3359L7.62987 30.7966L7.63115 30.7972L7.82422 30.3359ZM3.66406 27.3281L3.2812 27.6497L3.28309 27.6519L3.66406 27.3281ZM1.82812 8.94922L1.37111 8.7464L1.37055 8.74767L1.82812 8.94922ZM6.26172 3.83203L6.52267 4.25853L6.52346 4.25805L6.26172 3.83203ZM25.6172 8.92969L25.1602 9.13251L25.1616 9.13577L25.6172 8.92969ZM6.20312 22.4062L5.73434 22.5802L5.7348 22.5814L6.20312 22.4062ZM8.95703 26.1172L8.66884 26.5258L8.67377 26.5292L8.95703 26.1172ZM18.5664 26.1172L18.8517 26.5278L18.8546 26.5258L18.5664 26.1172ZM21.3008 22.4062L21.7703 22.578L21.7708 22.5768L21.3008 22.4062ZM20.168 8.83203L19.7581 9.11839L19.7603 9.12159L20.168 8.83203ZM8.97656 7.26953L8.69529 6.85614L8.6933 6.85751L8.97656 7.26953ZM6.20312 10.9609L6.67098 11.1373L6.67145 11.1361L6.20312 10.9609ZM26.6016 16.6836C26.6016 18.8419 26.327 20.7964 25.7841 22.5515L26.7394 22.847C27.3163 20.9822 27.6016 18.9263 27.6016 16.6836H26.6016ZM25.7834 22.5536C25.2544 24.2916 24.4585 25.7788 23.4003 27.0238L24.1622 27.6715C25.3175 26.3123 26.1752 24.7006 26.7401 22.8448L25.7834 22.5536ZM23.4019 27.0219C22.3488 28.2485 21.0269 29.2002 19.4267 29.8753L19.8154 30.7966C21.5487 30.0654 23.0002 29.0249 24.1606 27.6734L23.4019 27.0219ZM19.4267 29.8753C17.8344 30.547 15.95 30.8906 13.7617 30.8906V31.8906C16.0526 31.8906 18.0745 31.5311 19.8154 30.7966L19.4267 29.8753ZM13.7617 30.8906C11.5333 30.8906 9.62255 30.5467 8.01729 29.8747L7.63115 30.7972C9.38526 31.5314 11.4329 31.8906 13.7617 31.8906V30.8906ZM8.01857 29.8753C6.41963 29.2007 5.0982 28.2433 4.04503 27.0043L3.28309 27.6519C4.44347 29.0171 5.89548 30.0649 7.62987 30.7966L8.01857 29.8753ZM4.04691 27.0065C3.00139 25.7619 2.21122 24.2678 1.68175 22.5155L0.724497 22.8048C1.28878 24.6723 2.13923 26.2902 3.28121 27.6497L4.04691 27.0065ZM1.68175 22.5155C1.15115 20.7595 0.882812 18.8039 0.882812 16.6445H-0.117188C-0.117188 18.8862 0.161352 20.941 0.724497 22.8048L1.68175 22.5155ZM0.882812 16.6445C0.882812 13.7556 1.35581 11.2619 2.2857 9.15077L1.37055 8.74767C0.373355 11.0116 -0.117188 13.648 -0.117188 16.6445H0.882812ZM2.28514 9.15204C3.2222 7.04054 4.63343 5.41445 6.52267 4.25853L6.00077 3.40553C3.93167 4.67149 2.38718 6.45686 1.37111 8.7464L2.28514 9.15204ZM6.52346 4.25805C8.41672 3.09487 10.8323 2.49609 13.8008 2.49609V1.49609C10.7015 1.49609 8.0911 2.12127 5.99998 3.40601L6.52346 4.25805ZM13.8008 2.49609C16.703 2.49609 19.0732 3.0879 20.9409 4.23823L21.4653 3.38677C19.4008 2.11522 16.8361 1.49609 13.8008 1.49609V2.49609ZM20.9409 4.23823C22.8173 5.39389 24.2227 7.02009 25.1602 9.13251L26.0742 8.72687C25.0585 6.43825 23.5212 4.65298 21.4653 3.38677L20.9409 4.23823ZM25.1616 9.13577C26.1157 11.2448 26.6016 13.7562 26.6016 16.6836H27.6016C27.6016 13.6475 27.0978 10.9895 26.0727 8.7236L25.1616 9.13577ZM4.80469 16.6836C4.80469 18.9277 5.1099 20.8969 5.73434 22.5802L6.67191 22.2323C6.09844 20.6865 5.80469 18.8405 5.80469 16.6836H4.80469ZM5.7348 22.5814C6.36425 24.2645 7.33934 25.5881 8.66886 26.5258L9.2452 25.7086C8.10076 24.9015 7.23992 23.7512 6.67145 22.2311L5.7348 22.5814ZM8.67377 26.5292C10.0281 27.4603 11.7364 27.9062 13.7617 27.9062V26.9062C11.8808 26.9062 10.3859 26.4928 9.2403 25.7052L8.67377 26.5292ZM13.7617 27.9062C15.799 27.9062 17.5087 27.4608 18.8517 26.5278L18.2811 25.7066C17.1501 26.4923 15.6568 26.9062 13.7617 26.9062V27.9062ZM18.8546 26.5258C20.185 25.5875 21.154 24.2626 21.7703 22.578L20.8312 22.2345C20.2756 23.753 19.4218 24.9021 18.2782 25.7086L18.8546 26.5258ZM21.7708 22.5768C22.3813 20.8946 22.6797 18.9267 22.6797 16.6836H21.6797C21.6797 18.8415 21.3922 20.6887 20.8308 22.2357L21.7708 22.5768ZM22.6797 16.6836C22.6797 13.2777 21.9982 10.5452 20.5756 8.54248L19.7603 9.12159C21.02 10.895 21.6797 13.3968 21.6797 16.6836H22.6797ZM20.5778 8.54568C19.1321 6.47624 16.8336 5.48047 13.8008 5.48047V6.48047C16.6013 6.48047 18.5476 7.38574 19.7581 9.11839L20.5778 8.54568ZM13.8008 5.48047C11.7752 5.48047 10.0616 5.92648 8.69529 6.85615L9.25783 7.68292C10.4175 6.89383 11.9201 6.48047 13.8008 6.48047V5.48047ZM8.6933 6.85751C7.34825 7.78223 6.36494 9.10087 5.7348 10.7858L6.67145 11.1361C7.23923 9.61788 8.10488 8.47558 9.25983 7.68155L8.6933 6.85751ZM5.73528 10.7845C5.10958 12.444 4.80469 14.4145 4.80469 16.6836H5.80469C5.80469 14.4995 6.09875 12.655 6.67097 11.1373L5.73528 10.7845ZM41.6133 2.01562L41.7129 2.50575L41.7248 2.50303L41.6133 2.01562ZM51.0664 0.394531L51.5605 0.318144L51.4847 -0.172593L50.9934 -0.100114L51.0664 0.394531ZM51.6914 4.4375L51.7524 4.93377L52.2643 4.8709L52.1855 4.36111L51.6914 4.4375ZM49.3086 4.76953L49.3772 5.26486L49.3846 5.26372L49.3086 4.76953ZM46.75 5.14062L46.6751 4.64627L46.674 4.64644L46.75 5.14062ZM44.3086 5.55078L44.3922 6.04379L44.3988 6.04258L44.3086 5.55078ZM42.2383 5.94141L42.3423 6.43046L42.2383 5.94141ZM39.1328 7.23047L39.4204 7.63949L39.4216 7.6386L39.1328 7.23047ZM36.3398 14.3398L35.8404 14.3157L35.8151 14.8398H36.3398V14.3398ZM36.5938 14.3398V14.8398H36.8632L37.0113 14.6148L36.5938 14.3398ZM40.3242 11.4102L40.5087 11.8749L40.5122 11.8735L40.3242 11.4102ZM47.9609 11.9961L47.7024 12.4241L47.7043 12.4252L47.9609 11.9961ZM50.832 15.2773L50.3768 15.4843L50.3784 15.4877L50.832 15.2773ZM50.5391 26.5078L50.0969 26.2744L50.0962 26.2757L50.5391 26.5078ZM37.4336 30.5117L37.2195 30.9636L37.2214 30.9644L37.4336 30.5117ZM34.25 27.9336L33.8521 28.2365L33.8561 28.2415L34.25 27.9336ZM32.2383 23.7344L31.757 23.8697L31.7572 23.8707L32.2383 23.7344ZM44.6602 26.957L44.4105 26.5238L44.4073 26.5257L44.6602 26.957ZM46.4375 24.8086L45.9788 24.6094L45.9767 24.6146L46.4375 24.8086ZM45.9883 16.1562L45.5629 16.4191L45.5665 16.4247L45.9883 16.1562ZM39.6406 15.1016L39.4036 14.6613L39.6406 15.1016ZM37.4922 16.7031L37.8496 17.0528L37.8533 17.0489L37.4922 16.7031ZM36.2422 18.2852L35.8028 18.0466L35.7422 18.1582V18.2852H36.2422ZM36.4961 21.7227L36.0018 21.7983L36.0027 21.8039L36.4961 21.7227ZM37.3945 24.7305L36.9409 24.9409L36.9447 24.9488L37.3945 24.7305ZM32.0352 18.0312C32.0352 14.927 32.3768 12.3113 33.0474 10.1731L32.0932 9.87382C31.3836 12.1367 31.0352 14.8595 31.0352 18.0312H32.0352ZM33.0474 10.1731C33.7149 8.04469 34.7581 6.36224 36.1654 5.10309L35.4986 4.35785C33.9372 5.75495 32.806 7.60114 32.0932 9.87382L33.0474 10.1731ZM36.1654 5.10309C37.5708 3.84562 39.4115 2.97347 41.7129 2.5056L41.5137 1.52565C39.0755 2.02132 37.062 2.95907 35.4986 4.35785L36.1654 5.10309ZM41.7248 2.50303C43.2496 2.15414 44.8006 1.85686 46.3777 1.61123L46.2238 0.623143C44.6239 0.87231 43.0499 1.17399 41.5018 1.52822L41.7248 2.50303ZM46.3777 1.61123C47.9649 1.36404 49.5522 1.12336 51.1394 0.889176L50.9934 -0.100114C49.4036 0.134456 47.8137 0.375542 46.2238 0.623143L46.3777 1.61123ZM50.5723 0.470919L51.1973 4.51389L52.1855 4.36111L51.5605 0.318144L50.5723 0.470919ZM51.6305 3.94123C50.8826 4.03307 50.0832 4.14447 49.2326 4.27535L49.3846 5.26372C50.2267 5.13417 51.0159 5.02422 51.7524 4.93377L51.6305 3.94123ZM49.24 4.27426C48.3915 4.39174 47.5365 4.51575 46.6751 4.64627L46.8249 5.63498C47.6822 5.50509 48.533 5.3817 49.3772 5.26481L49.24 4.27426ZM46.674 4.64644C45.8233 4.77732 45.0047 4.91482 44.2184 5.05898L44.3988 6.04258C45.175 5.90028 45.984 5.76435 46.826 5.63481L46.674 4.64644ZM44.225 5.05781C43.4515 5.18891 42.7544 5.3204 42.1342 5.45235L42.3423 6.43046C42.9461 6.302 43.6292 6.17306 44.3921 6.04375L44.225 5.05781ZM42.1342 5.45235C40.8573 5.72405 39.756 6.17689 38.844 6.82233L39.4216 7.6386C40.2023 7.08613 41.1714 6.6796 42.3423 6.43046L42.1342 5.45235ZM38.8452 6.82145C37.9197 7.4722 37.2153 8.41491 36.7177 9.61742L37.6417 9.99977C38.0816 8.93665 38.6792 8.16062 39.4204 7.63948L38.8452 6.82145ZM36.7177 9.61742C36.2184 10.824 35.933 12.398 35.8404 14.3157L36.8393 14.364C36.929 12.5057 37.2035 11.0588 37.6417 9.99977L36.7177 9.61742ZM36.3398 14.8398H36.5938V13.8398H36.3398V14.8398ZM37.0113 14.6148C37.3309 14.1296 37.7844 13.63 38.3833 13.1185L37.7339 12.3581C37.0828 12.9142 36.5597 13.4824 36.1762 14.0648L37.0113 14.6148ZM38.3833 13.1185C38.9605 12.6255 39.6664 12.2093 40.5087 11.8749L40.1397 10.9454C39.2112 11.3141 38.4067 11.7834 37.7339 12.3581L38.3833 13.1185ZM40.5122 11.8735C41.3411 11.5371 42.2977 11.3633 43.3906 11.3633V10.3633C42.1918 10.3633 41.1042 10.5541 40.1362 10.9468L40.5122 11.8735ZM43.3906 11.3633C45.1173 11.3633 46.5465 11.7257 47.7024 12.4241L48.2195 11.5681C46.8753 10.756 45.2577 10.3633 43.3906 10.3633V11.3633ZM47.7043 12.4252C48.874 13.1246 49.7648 14.1378 50.3768 15.4842L51.2872 15.0704C50.5972 13.5524 49.574 12.378 48.2175 11.567L47.7043 12.4252ZM50.3784 15.4877C51.0047 16.8384 51.3281 18.488 51.3281 20.4531H52.3281C52.3281 18.3818 51.9875 16.5809 51.2856 15.067L50.3784 15.4877ZM51.3281 20.4531C51.3281 22.8049 50.9084 24.7375 50.0969 26.2744L50.9812 26.7413C51.8885 25.0229 52.3281 22.9191 52.3281 20.4531H51.3281ZM50.0962 26.2757C49.2936 27.8069 48.1781 28.9495 46.7473 29.7199L47.2214 30.6004C48.8375 29.7302 50.0919 28.4379 50.9819 26.7399L50.0962 26.2757ZM46.7473 29.7199C45.3085 30.4947 43.6153 30.8906 41.6523 30.8906V31.8906C43.7519 31.8906 45.6134 31.4662 47.2214 30.6004L46.7473 29.7199ZM41.6523 30.8906C40.1535 30.8906 38.8211 30.6099 37.6458 30.059L37.2214 30.9644C38.546 31.5854 40.0262 31.8906 41.6523 31.8906V30.8906ZM37.6476 30.0598C36.4846 29.5089 35.4839 28.7003 34.6439 27.6257L33.8561 28.2415C34.7869 29.4325 35.9087 30.3426 37.2196 30.9636L37.6476 30.0598ZM34.6478 27.6307C33.8199 26.5433 33.1742 25.2028 32.7193 23.598L31.7572 23.8707C32.2398 25.5732 32.9353 27.0322 33.8522 28.2365L34.6478 27.6307ZM32.7196 23.599C32.2657 21.9852 32.0352 20.1311 32.0352 18.0312H31.0352C31.0352 20.2022 31.2733 22.1502 31.757 23.8697L32.7196 23.599ZM41.9648 28.1211C43.0784 28.1211 44.0677 27.8839 44.913 27.3884L44.4073 26.5257C43.7422 26.9156 42.9346 27.1211 41.9648 27.1211V28.1211ZM44.9098 27.3902C45.7913 26.8823 46.4485 26.071 46.8983 25.0026L45.9767 24.6146C45.5932 25.5253 45.0655 26.1464 44.4105 26.5238L44.9098 27.3902ZM46.8961 25.0077C47.3634 23.9317 47.582 22.5474 47.582 20.8828H46.582C46.582 22.4735 46.371 23.7063 45.9789 24.6095L46.8961 25.0077ZM47.582 20.8828C47.582 18.8251 47.2092 17.1435 46.4101 15.8878L45.5665 16.4247C46.2257 17.4607 46.582 18.9301 46.582 20.8828H47.582ZM46.4136 15.8934C45.5858 14.5539 44.2175 13.918 42.4336 13.918V14.918C43.957 14.918 44.9584 15.4409 45.5629 16.4191L46.4136 15.8934ZM42.4336 13.918C41.3401 13.918 40.3269 14.1641 39.4036 14.6613L39.8777 15.5418C40.647 15.1275 41.4959 14.918 42.4336 14.918V13.918ZM39.4036 14.6613C38.5173 15.1386 37.7576 15.7029 37.131 16.3573L37.8533 17.0489C38.3986 16.4794 39.0713 15.976 39.8777 15.5418L39.4036 14.6613ZM37.1348 16.3535C36.5337 16.9679 36.0815 17.5331 35.8028 18.0466L36.6816 18.5237C36.8976 18.1257 37.2788 17.6363 37.8496 17.0528L37.1348 16.3535ZM35.7422 18.2852C35.7422 19.4939 35.8285 20.6651 36.0018 21.7982L36.9903 21.6471C36.8251 20.5667 36.7422 19.4462 36.7422 18.2852H35.7422ZM36.0027 21.8039C36.1914 22.9495 36.5029 23.9963 36.9409 24.9408L37.8481 24.5201C37.4528 23.6677 37.1653 22.7093 36.9894 21.6414L36.0027 21.8039ZM36.9447 24.9488C37.4082 25.9039 38.0475 26.6754 38.8651 27.2491L39.4396 26.4306C38.7728 25.9627 38.2402 25.3279 37.8444 24.5122L36.9447 24.9488ZM38.8651 27.2491C39.7104 27.8423 40.7551 28.1211 41.9648 28.1211V27.1211C40.909 27.1211 40.0787 26.8791 39.4396 26.4306L38.8651 27.2491ZM75.5391 24.9258L75.0652 24.7663L75.5391 24.9258ZM73.4883 28.4609L73.8517 28.8044L73.854 28.8019L73.4883 28.4609ZM70.2461 30.6484L70.4285 31.114L70.4326 31.1123L70.2461 30.6484ZM61.8867 30.6484L61.6968 31.111L61.701 31.1127L61.8867 30.6484ZM58.6641 28.4609L58.2983 28.802L58.3032 28.807L58.6641 28.4609ZM56.5742 24.9258L56.103 25.0931L56.5742 24.9258ZM57.0625 14.0859L56.6153 13.8623L56.6146 13.8637L57.0625 14.0859ZM60.6172 10.2773L60.8641 10.7121L60.6172 10.2773ZM71.3789 10.2773L71.1304 10.7112L71.3789 10.2773ZM61.125 24.1836L60.6512 24.3434L60.6529 24.3483L61.125 24.1836ZM62.9219 26.7617L62.6239 27.1633L62.6282 27.1664L62.9219 26.7617ZM69.1719 26.7617L69.4656 27.1664L69.4698 27.1633L69.1719 26.7617ZM70.9492 16.1367L70.476 16.2982L70.4766 16.2999L70.9492 16.1367ZM69.1719 13.6172L68.8782 14.0219L68.8825 14.0249L69.1719 13.6172ZM75.7422 20.1406C75.7422 21.8949 75.5133 23.4345 75.0652 24.7663L76.013 25.0852C76.5023 23.6307 76.7422 21.9801 76.7422 20.1406H75.7422ZM75.0652 24.7663C74.6165 26.0999 73.9671 27.2143 73.1226 28.12L73.854 28.8019C74.8064 27.7805 75.5241 26.5381 76.013 25.0852L75.0652 24.7663ZM73.1249 28.1175C72.2781 29.0134 71.2584 29.7025 70.0596 30.1845L70.4326 31.1123C71.7598 30.5787 72.9016 29.8095 73.8516 28.8044L73.1249 28.1175ZM70.0637 30.1829C68.8678 30.6514 67.5054 30.8906 65.9688 30.8906V31.8906C67.6092 31.8906 69.0983 31.6351 70.4285 31.114L70.0637 30.1829ZM65.9688 30.8906C64.5407 30.8906 63.244 30.6528 62.0724 30.1842L61.701 31.1127C63.0034 31.6336 64.428 31.8906 65.9688 31.8906V30.8906ZM62.0766 30.1859C60.9031 29.7041 59.8874 29.0143 59.025 28.1149L58.3032 28.807C59.2636 29.8086 60.3964 30.5771 61.6968 31.111L62.0766 30.1859ZM59.0298 28.12C58.1834 27.2122 57.5201 26.0951 57.0454 24.7585L56.103 25.0931C56.6179 26.5429 57.3479 27.7825 58.2984 28.8019L59.0298 28.12ZM57.0454 24.7585C56.5733 23.4291 56.332 21.8924 56.332 20.1406H55.332C55.332 21.9826 55.5856 23.636 56.103 25.0931L57.0454 24.7585ZM56.332 20.1406C56.332 17.8132 56.7328 15.8756 57.5104 14.3081L56.6146 13.8637C55.7515 15.6035 55.332 17.7024 55.332 20.1406H56.332ZM57.5097 14.3095C58.3012 12.7265 59.4187 11.5328 60.8641 10.7121L60.3703 9.84254C58.7428 10.7667 57.4904 12.1121 56.6153 13.8623L57.5097 14.3095ZM60.8641 10.7121C62.3115 9.89032 64.0522 9.46875 66.1055 9.46875V8.46875C63.9139 8.46875 61.9958 8.91957 60.3703 9.84254L60.8641 10.7121ZM66.1055 9.46875C68.0224 9.46875 69.6924 9.88774 71.1304 10.7112L71.6274 9.84345C70.0186 8.92216 68.1729 8.46875 66.1055 8.46875V9.46875ZM71.1304 10.7112C72.5644 11.5324 73.6904 12.728 74.5087 14.3151L75.3975 13.8568C74.4971 12.1105 73.2403 10.7671 71.6274 9.84345L71.1304 10.7112ZM74.5087 14.3151C75.3232 15.8947 75.7422 17.83 75.7422 20.1406H76.7422C76.7422 17.7116 76.3018 15.6105 75.3975 13.8568L74.5087 14.3151ZM60.0586 20.1406C60.0586 21.7535 60.2516 23.1582 60.6512 24.3434L61.5988 24.0238C61.2432 22.9694 61.0586 21.6788 61.0586 20.1406H60.0586ZM60.6529 24.3483C61.0705 25.5453 61.7226 26.4945 62.624 27.1633L63.2198 26.3602C62.5066 25.831 61.9608 25.0615 61.5971 24.0189L60.6529 24.3483ZM62.6282 27.1664C63.542 27.8296 64.6949 28.1406 66.0469 28.1406V27.1406C64.8468 27.1406 63.9163 26.8657 63.2156 26.3571L62.6282 27.1664ZM66.0469 28.1406C67.3989 28.1406 68.5517 27.8296 69.4656 27.1664L68.8782 26.3571C68.1774 26.8657 67.247 27.1406 66.0469 27.1406V28.1406ZM69.4698 27.1633C70.3726 26.4934 71.0187 25.5424 71.423 24.3434L70.4754 24.0238C70.1245 25.0644 69.5857 25.8321 68.874 26.3602L69.4698 27.1633ZM71.423 24.3434C71.8227 23.1582 72.0156 21.7535 72.0156 20.1406H71.0156C71.0156 21.6788 70.831 22.9694 70.4754 24.0238L71.423 24.3434ZM72.0156 20.1406C72.0156 18.5283 71.8228 17.1349 71.4218 15.9736L70.4766 16.2999C70.8308 17.326 71.0156 18.6019 71.0156 20.1406H72.0156ZM71.4224 15.9753C71.0173 14.7877 70.3689 13.8535 69.4612 13.2094L68.8825 14.0249C69.5895 14.5267 70.126 15.2722 70.476 16.2982L71.4224 15.9753ZM69.4656 13.2125C68.5509 12.5487 67.3911 12.2383 66.0273 12.2383V13.2383C67.2417 13.2383 68.1782 13.5138 68.8782 14.0218L69.4656 13.2125ZM66.0273 12.2383C64.0042 12.2383 62.4419 12.9258 61.4544 14.3702L62.2799 14.9345C63.0372 13.8268 64.2484 13.2383 66.0273 13.2383V12.2383ZM61.4544 14.3702C60.5021 15.7632 60.0586 17.7079 60.0586 20.1406H61.0586C61.0586 17.8078 61.4875 16.0936 62.2799 14.9345L61.4544 14.3702ZM104.699 31L104.227 31.163L104.343 31.5H104.699V31ZM96.4766 7.15234L96.9493 6.98936L96.8331 6.65234H96.4766V7.15234ZM96.3008 7.15234V6.65234H95.7629L95.8021 7.18883L96.3008 7.15234ZM96.6328 31V31.5H97.1328V31H96.6328ZM92.375 31H91.875V31.5H92.375V31ZM92.375 2.44531V1.94531H91.875V2.44531H92.375ZM98.957 2.44531L99.4294 2.28138L99.3128 1.94531H98.957V2.44531ZM106.867 25.2383L106.395 25.4022L106.511 25.7383H106.867V25.2383ZM106.984 25.2383V25.7383H107.336L107.455 25.4072L106.984 25.2383ZM115.168 2.44531V1.94531H114.816L114.697 2.27635L115.168 2.44531ZM121.73 2.44531H122.23V1.94531H121.73V2.44531ZM121.73 31V31.5H122.23V31H121.73ZM117.258 31H116.758V31.5H117.258V31ZM117.297 12.2695L116.797 12.2503L116.797 12.2567L117.297 12.2695ZM117.414 9.37891L116.915 9.35038L116.915 9.3575L117.414 9.37891ZM117.531 7.19141L118.031 7.21519L118.056 6.69141H117.531V7.19141ZM117.375 7.19141V6.69141H117.023L116.904 7.02268L117.375 7.19141ZM108.84 31V31.5H109.192L109.311 31.1687L108.84 31ZM105.172 30.837L96.9493 6.98936L96.0039 7.31533L104.227 31.163L105.172 30.837ZM96.4766 6.65234H96.3008V7.65234H96.4766V6.65234ZM95.8021 7.18883C95.8409 7.71861 95.8863 8.44459 95.9383 9.36797L96.9367 9.31172C96.8846 8.38614 96.8388 7.65379 96.7994 7.11586L95.8021 7.18883ZM95.9383 9.36797C95.9902 10.2888 96.0356 11.2752 96.0746 12.3271L97.0739 12.2901C97.0347 11.2326 96.989 10.2398 96.9367 9.31172L95.9383 9.36797ZM96.0746 12.3271C96.1134 13.3762 96.1328 14.3791 96.1328 15.3359H97.1328C97.1328 14.3657 97.1131 13.3504 97.0739 12.2901L96.0746 12.3271ZM96.1328 15.3359V31H97.1328V15.3359H96.1328ZM96.6328 30.5H92.375V31.5H96.6328V30.5ZM92.875 31V2.44531H91.875V31H92.875ZM92.375 2.94531H98.957V1.94531H92.375V2.94531ZM98.4847 2.60924L106.395 25.4022L107.34 25.0744L99.4294 2.28138L98.4847 2.60924ZM106.867 25.7383H106.984V24.7383H106.867V25.7383ZM107.455 25.4072L115.639 2.61427L114.697 2.27635L106.514 25.0693L107.455 25.4072ZM115.168 2.94531H121.73V1.94531H115.168V2.94531ZM121.23 2.44531V31H122.23V2.44531H121.23ZM121.73 30.5H117.258V31.5H121.73V30.5ZM117.758 31V15.1016H116.758V31H117.758ZM117.758 15.1016C117.758 14.2341 117.771 13.2944 117.797 12.2823L116.797 12.2567C116.771 13.2759 116.758 14.2243 116.758 15.1016H117.758ZM117.797 12.2887C117.836 11.2738 117.875 10.311 117.914 9.40032L116.915 9.3575C116.875 10.2698 116.836 11.234 116.797 12.2503L117.797 12.2887ZM117.913 9.40743C117.965 8.49528 118.005 7.76434 118.031 7.21519L117.032 7.16762C117.006 7.71223 116.967 8.43961 116.915 9.35038L117.913 9.40743ZM117.531 6.69141H117.375V7.69141H117.531V6.69141ZM116.904 7.02268L108.369 30.8313L109.311 31.1687L117.846 7.36014L116.904 7.02268ZM108.84 30.5H104.699V31.5H108.84V30.5ZM133.391 9.37891H133.891V8.87891H133.391V9.37891ZM133.391 18.0703H132.891V18.5703H133.391V18.0703ZM143.508 18.0703V18.5703H144.008V18.0703H143.508ZM143.508 9.37891V8.87891H143.008V9.37891H143.508ZM148.117 9.37891H148.617V8.87891H148.117V9.37891ZM148.117 31V31.5H148.617V31H148.117ZM143.508 31H143.008V31.5H143.508V31ZM143.508 21.6641H144.008V21.1641H143.508V21.6641ZM133.391 21.6641V21.1641H132.891V21.6641H133.391ZM133.391 31V31.5H133.891V31H133.391ZM128.781 31H128.281V31.5H128.781V31ZM128.781 9.37891V8.87891H128.281V9.37891H128.781ZM132.891 9.37891V18.0703H133.891V9.37891H132.891ZM133.391 18.5703H143.508V17.5703H133.391V18.5703ZM144.008 18.0703V9.37891H143.008V18.0703H144.008ZM143.508 9.87891H148.117V8.87891H143.508V9.87891ZM147.617 9.37891V31H148.617V9.37891H147.617ZM148.117 30.5H143.508V31.5H148.117V30.5ZM144.008 31V21.6641H143.008V31H144.008ZM143.508 21.1641H133.391V22.1641H143.508V21.1641ZM132.891 21.6641V31H133.891V21.6641H132.891ZM133.391 30.5H128.781V31.5H133.391V30.5ZM129.281 31V9.37891H128.281V31H129.281ZM128.781 9.87891H133.391V8.87891H128.781V9.87891ZM172.551 21.2344V21.7344H173.051V21.2344H172.551ZM158.117 21.2344V20.7344H157.605L157.617 21.2468L158.117 21.2344ZM159.797 26.0781L159.433 26.4211L159.435 26.4233L159.797 26.0781ZM168.039 27.3867L168.155 27.8731L168.159 27.8721L168.039 27.3867ZM171.457 26.1953H171.957V25.4259L171.254 25.7384L171.457 26.1953ZM171.457 29.9258L171.67 30.3783L171.957 30.2433V29.9258H171.457ZM158.527 30.1602L158.297 30.6037L158.301 30.6059L158.527 30.1602ZM154.758 26.4492L154.319 26.6894L154.321 26.692L154.758 26.4492ZM158.098 10.2969L157.842 9.86747L158.098 10.2969ZM159.777 13.832L159.416 13.4861L159.414 13.4887L159.777 13.832ZM158.215 17.9531L157.717 17.9101L157.67 18.4531H158.215V17.9531ZM168.059 17.9531V18.4531H168.565L168.559 17.9471L168.059 17.9531ZM167.512 15.082L167.048 15.2702L167.051 15.2764L167.512 15.082ZM165.949 13.1289L165.668 13.5425L165.672 13.5449L165.949 13.1289ZM163.293 9.46875C165.151 9.46875 166.715 9.85123 168.005 10.5935L168.503 9.72679C167.033 8.88054 165.289 8.46875 163.293 8.46875V9.46875ZM168.005 10.5935C169.298 11.338 170.292 12.3914 170.992 13.7658L171.883 13.3123C171.098 11.77 169.97 10.5708 168.503 9.72679L168.005 10.5935ZM170.992 13.7658C171.691 15.139 172.051 16.8024 172.051 18.7734H173.051C173.051 16.682 172.669 14.8558 171.883 13.3123L170.992 13.7658ZM172.051 18.7734V21.2344H173.051V18.7734H172.051ZM172.551 20.7344H158.117V21.7344H172.551V20.7344ZM157.617 21.2468C157.671 23.423 158.255 25.1714 159.433 26.4211L160.161 25.7352C159.203 24.7192 158.667 23.2384 158.617 21.222L157.617 21.2468ZM159.435 26.4233C160.632 27.6777 162.286 28.2773 164.328 28.2773V27.2773C162.49 27.2773 161.123 26.7442 160.159 25.733L159.435 26.4233ZM164.328 28.2773C165.739 28.2773 167.016 28.1443 168.155 27.8731L167.923 26.9003C166.875 27.1499 165.678 27.2773 164.328 27.2773V28.2773ZM168.159 27.8721C169.298 27.5908 170.465 27.1835 171.66 26.6522L171.254 25.7384C170.106 26.2488 168.994 26.6357 167.919 26.9013L168.159 27.8721ZM170.957 26.1953V29.9258H171.957V26.1953H170.957ZM171.244 29.4732C170.197 29.9653 169.134 30.3236 168.054 30.5497L168.259 31.5285C169.418 31.2858 170.555 30.9019 171.67 30.3783L171.244 29.4732ZM168.054 30.5497C166.977 30.775 165.672 30.8906 164.133 30.8906V31.8906C165.718 31.8906 167.096 31.7719 168.259 31.5285L168.054 30.5497ZM164.133 30.8906C162.076 30.8906 160.287 30.4934 158.754 29.7144L158.301 30.6059C159.997 31.4675 161.945 31.8906 164.133 31.8906V30.8906ZM158.758 29.7166C157.247 28.9304 156.061 27.7649 155.195 26.2064L154.321 26.692C155.278 28.4148 156.604 29.7233 158.297 30.6037L158.758 29.7166ZM155.196 26.2091C154.349 24.661 153.91 22.7115 153.91 20.3359H152.91C152.91 22.8302 153.37 24.9562 154.319 26.6894L155.196 26.2091ZM153.91 20.3359C153.91 17.9686 154.311 15.9902 155.091 14.3821L154.191 13.946C153.329 15.7233 152.91 17.8595 152.91 20.3359H153.91ZM155.091 14.3821C155.872 12.7692 156.961 11.5573 158.354 10.7263L157.842 9.86747C156.266 10.8073 155.05 12.1735 154.191 13.946L155.091 14.3821ZM158.354 10.7263C159.75 9.89345 161.391 9.46875 163.293 9.46875V8.46875C161.237 8.46875 159.414 8.92947 157.842 9.86747L158.354 10.7263ZM163.293 11.9258C161.728 11.9258 160.42 12.4385 159.416 13.4861L160.138 14.178C160.931 13.3505 161.967 12.9258 163.293 12.9258V11.9258ZM159.414 13.4887C158.425 14.536 157.879 16.0328 157.717 17.9101L158.713 17.9961C158.863 16.2536 159.359 15.0031 160.141 14.1753L159.414 13.4887ZM158.215 18.4531H168.059V17.4531H158.215V18.4531ZM168.559 17.9471C168.545 16.814 168.354 15.7911 167.972 14.8877L167.051 15.2764C167.373 16.0397 167.546 16.9308 167.559 17.9591L168.559 17.9471ZM167.975 14.8938C167.601 13.9739 167.019 13.2409 166.227 12.7129L165.672 13.5449C166.286 13.9544 166.745 14.5234 167.048 15.2702L167.975 14.8938ZM166.23 12.7153C165.436 12.1758 164.445 11.9258 163.293 11.9258V12.9258C164.303 12.9258 165.082 13.1446 165.668 13.5425L166.23 12.7153Z" fill="white"/>
</svg>
